<?xml version="1.0" encoding="UTF-8"?><svg id="Layer_1" xmlns="http://www.w3.org/2000/svg" viewBox="0 0 553.97 304.15"><defs><style>.cls-1{fill:#5fb1e3;}.cls-2{fill:none;stroke:#231f20;stroke-miterlimit:10;}</style></defs><path class="cls-1" d="M204.27,138.31C-20.45,80.15,.39,60.68,231.25,121.59c-12.83-145.22,55.91-171.8,66.12-13.68,125.08-119.8,112.39-97.17,40.28,22.8,223.21-50.12,243.4-42.06,14.44,9.88,271.42,9.84,265.57,72.15,0,33.06,190.15,174.55,15.18,165.83-94.24,18.62C1.75,321.26-30.36,279.2,202.75,176.31c-272.22,40.08-267.61-28.82,1.52-38Z"/><path class="cls-2" d="M204.27,138.31C-20.45,80.15,.39,60.68,231.25,121.59c-12.83-145.22,55.91-171.8,66.12-13.68,125.08-119.8,112.39-97.17,40.28,22.8,223.21-50.12,243.4-42.06,14.44,9.88,271.42,9.84,265.57,72.15,0,33.06,190.15,174.55,15.18,165.83-94.24,18.62C1.75,321.26-30.36,279.2,202.75,176.31c-272.22,40.08-267.61-28.82,1.52-38Z"/></svg>