<svg width="1167" height="281" viewBox="0 0 1167 281" fill="none" xmlns="http://www.w3.org/2000/svg">
<path d="M0.897728 219L37.1193 0.818175H107.964C121.175 0.818175 131.935 3.16193 140.244 7.84943C148.625 12.5369 154.449 19.1065 157.716 27.5582C160.983 36.0099 161.658 45.8466 159.74 57.0682C158.249 65.875 155.514 73.6875 151.537 80.5057C147.631 87.2528 142.766 92.8636 136.942 97.3381C131.118 101.741 124.69 104.831 117.659 106.607L117.553 107.885C124.939 108.524 131.473 111.188 137.155 115.875C142.837 120.491 146.991 126.777 149.619 134.732C152.318 142.686 152.78 151.919 151.004 162.43C149.158 173.581 145.109 183.418 138.859 191.94C132.609 200.392 124.335 207.033 114.037 211.862C103.739 216.621 91.5582 219 77.4957 219H0.897728ZM16.3452 206.642H79.6264C96.0327 206.642 109.314 202.523 119.47 194.284C129.626 186.045 135.841 175.428 138.114 162.43C139.605 153.268 138.788 145.065 135.663 137.821C132.609 130.577 127.602 124.859 120.642 120.669C113.753 116.408 105.337 114.277 95.3935 114.277H31.6861L16.3452 206.642ZM33.8168 102.132H95.9261C105.088 102.132 113.256 100.108 120.429 96.0597C127.602 92.0114 133.462 86.5781 138.007 79.7599C142.553 72.9418 145.464 65.3778 146.743 57.0682C149.016 43.5028 146.636 32.8139 139.605 25.0014C132.574 17.1179 121.317 13.1761 105.834 13.1761H48.3054L33.8168 102.132ZM252.771 222.409C237.998 222.409 225.747 218.751 216.017 211.436C206.287 204.121 199.504 194.107 195.669 181.393C191.833 168.68 191.265 154.192 193.964 137.928C196.663 121.592 202.061 107.033 210.157 94.2486C218.254 81.4645 228.162 71.3793 239.88 63.9929C251.599 56.6065 264.241 52.9133 277.806 52.9133C286.968 52.9133 295.314 54.7599 302.842 58.4531C310.441 62.1463 316.833 67.4375 322.018 74.3267C327.203 81.1449 330.789 89.419 332.778 99.1491C334.767 108.879 334.767 119.817 332.778 131.962L331.287 140.058H201.741L203.765 128.233H320.207C322.196 116.443 321.627 105.79 318.502 96.2727C315.377 86.6847 310.193 79.0852 302.949 73.4744C295.775 67.8636 286.968 65.0582 276.528 65.0582C265.875 65.0582 255.718 68.1477 246.059 74.3267C236.471 80.4347 228.233 88.6023 221.343 98.8295C214.525 109.057 209.98 120.314 207.707 132.601L206.429 139.206C204.156 153.268 204.44 165.662 207.281 176.386C210.193 187.04 215.591 195.385 223.474 201.422C231.358 207.388 241.656 210.371 254.369 210.371C263.247 210.371 271.13 208.879 278.02 205.896C284.98 202.842 290.875 199.149 295.704 194.817C300.605 190.484 304.44 186.294 307.21 182.246L317.97 187.04C314.703 192.509 310.015 197.977 303.907 203.446C297.799 208.844 290.449 213.354 281.855 216.976C273.261 220.598 263.566 222.409 252.771 222.409ZM363.114 219L390.386 55.3636H403.064L398.803 80.9318H399.974C404.804 72.5511 411.906 65.8395 421.281 60.7969C430.656 55.6832 440.741 53.1264 451.537 53.1264C452.744 53.1264 453.881 53.1264 454.946 53.1264C456.011 53.1264 457.077 53.1619 458.142 53.233L455.905 66.3366C455.053 66.2656 454.023 66.1591 452.815 66.017C451.679 65.804 450.259 65.6974 448.554 65.6974C439.463 65.6974 431.047 67.6506 423.305 71.5568C415.564 75.4631 409.101 80.8608 403.916 87.75C398.732 94.5682 395.429 102.381 394.009 111.188L376.111 219H363.114ZM487.306 155.08L490.289 136.223H493.698L588.407 55.3636H605.878L518.201 129.938L516.922 130.47L487.306 155.08ZM465.36 219L501.581 0.818175H514.578L478.357 219H465.36ZM565.928 219L510.85 131.749L521.397 123.119L582.015 219H565.928ZM673.767 222.409C658.994 222.409 646.743 218.751 637.013 211.436C627.283 204.121 620.5 194.107 616.665 181.393C612.83 168.68 612.261 154.192 614.96 137.928C617.659 121.592 623.057 107.033 631.153 94.2486C639.25 81.4645 649.158 71.3793 660.876 63.9929C672.595 56.6065 685.237 52.9133 698.803 52.9133C707.964 52.9133 716.31 54.7599 723.838 58.4531C731.438 62.1463 737.83 67.4375 743.014 74.3267C748.199 81.1449 751.786 89.419 753.774 99.1491C755.763 108.879 755.763 119.817 753.774 131.962L752.283 140.058H622.737L624.761 128.233H741.203C743.192 116.443 742.624 105.79 739.499 96.2727C736.374 86.6847 731.189 79.0852 723.945 73.4744C716.771 67.8636 707.964 65.0582 697.524 65.0582C686.871 65.0582 676.714 68.1477 667.055 74.3267C657.467 80.4347 649.229 88.6023 642.339 98.8295C635.521 109.057 630.976 120.314 628.703 132.601L627.425 139.206C625.152 153.268 625.436 165.662 628.277 176.386C631.189 187.04 636.587 195.385 644.47 201.422C652.354 207.388 662.652 210.371 675.365 210.371C684.243 210.371 692.126 208.879 699.016 205.896C705.976 202.842 711.871 199.149 716.7 194.817C721.601 190.484 725.436 186.294 728.206 182.246L738.966 187.04C735.699 192.509 731.011 197.977 724.903 203.446C718.795 208.844 711.445 213.354 702.851 216.976C694.257 220.598 684.562 222.409 673.767 222.409ZM833.328 0.818175L797.107 219H784.11L820.331 0.818175H833.328ZM914.294 222.409C899.522 222.409 887.27 218.751 877.54 211.436C867.81 204.121 861.027 194.107 857.192 181.393C853.357 168.68 852.789 154.192 855.488 137.928C858.186 121.592 863.584 107.033 871.681 94.2486C879.777 81.4645 889.685 71.3793 901.404 63.9929C913.123 56.6065 925.765 52.9133 939.33 52.9133C948.492 52.9133 956.837 54.7599 964.365 58.4531C971.965 62.1463 978.357 67.4375 983.542 74.3267C988.726 81.1449 992.313 89.419 994.301 99.1491C996.29 108.879 996.29 119.817 994.301 131.962L992.81 140.058H863.265L865.289 128.233H981.73C983.719 116.443 983.151 105.79 980.026 96.2727C976.901 86.6847 971.716 79.0852 964.472 73.4744C957.299 67.8636 948.492 65.0582 938.051 65.0582C927.398 65.0582 917.242 68.1477 907.583 74.3267C897.995 80.4347 889.756 88.6023 882.867 98.8295C876.049 109.057 871.503 120.314 869.23 132.601L867.952 139.206C865.679 153.268 865.963 165.662 868.804 176.386C871.716 187.04 877.114 195.385 884.998 201.422C892.881 207.388 903.179 210.371 915.892 210.371C924.77 210.371 932.654 208.879 939.543 205.896C946.503 202.842 952.398 199.149 957.228 194.817C962.128 190.484 965.963 186.294 968.733 182.246L979.493 187.04C976.226 192.509 971.539 197.977 965.431 203.446C959.323 208.844 951.972 213.354 943.378 216.976C934.784 220.598 925.09 222.409 914.294 222.409ZM1019.87 280.364C1016.6 280.364 1013.44 280.009 1010.39 279.298C1007.41 278.588 1004.71 277.665 1002.29 276.528L1007.94 265.129C1014.05 267.686 1019.83 268.538 1025.3 267.686C1030.84 266.905 1036.03 264.313 1040.86 259.909C1045.76 255.506 1050.37 249.256 1054.71 241.159L1065.57 220.705L1033.61 55.3636H1046.93L1074.42 202.381H1075.59L1151.97 55.3636H1166.57L1065.68 246.805C1061.7 254.263 1057.3 260.477 1052.47 265.449C1047.64 270.42 1042.45 274.149 1036.92 276.635C1031.45 279.121 1025.76 280.364 1019.87 280.364Z" fill="black"/>
</svg>
