<svg width="1116" height="449" viewBox="0 0 1116 449" fill="none" xmlns="http://www.w3.org/2000/svg">
<path d="M372.5 143H358.011C357.869 128.511 355.099 113.739 349.702 98.6818C344.446 83.625 336.42 69.7045 325.625 56.9204C314.972 44.1363 301.406 33.838 284.929 26.0255C268.594 18.213 249.205 14.3068 226.761 14.3068C197.074 14.3068 168.239 22.4744 140.256 38.8097C112.273 55.0028 87.983 78.7955 67.3864 110.188C46.9318 141.438 33.0114 179.648 25.625 224.818C17.9545 270.557 19.233 309.051 29.4602 340.301C39.6875 371.551 56.1648 395.202 78.8921 411.253C101.619 427.304 127.898 435.33 157.727 435.33C179.886 435.33 200.412 431.494 219.304 423.824C238.338 416.011 255.313 405.784 270.227 393.142C285.142 380.358 297.784 366.437 308.153 351.381C318.665 336.182 326.477 321.267 331.591 306.636H346.08C340.824 321.977 332.727 337.957 321.79 354.577C310.852 371.054 297.287 386.466 281.094 400.812C265.043 415.159 246.435 426.807 225.27 435.756C204.247 444.562 180.881 448.966 155.17 448.966C119.375 448.966 89.4744 439.591 65.4688 420.841C41.4631 402.091 24.6307 375.884 14.9716 342.219C5.45455 308.554 4.46023 269.42 11.9886 224.818C19.233 180.216 33.2244 141.082 53.9631 107.418C74.7017 73.7528 100.128 47.5454 130.241 28.7954C160.497 10.0454 193.523 0.670438 229.318 0.670438C255.028 0.670438 276.974 5.07385 295.156 13.8807C313.338 22.6875 328.111 34.2642 339.474 48.6108C350.838 62.8153 359.148 78.2273 364.403 94.8466C369.801 111.324 372.5 127.375 372.5 143ZM400.412 443H385.923L614.332 6.63635H633.082L716.605 443H702.116L622.003 23.6818H620.298L400.412 443ZM477.116 281.92H679.957L677.401 295.557H474.56L477.116 281.92ZM804.229 443L876.673 6.63635H1004.51C1028.95 6.63635 1049.68 11.821 1066.73 22.1903C1083.92 32.4176 1096.27 46.9062 1103.8 65.6562C1111.47 84.2642 1113.32 106.068 1109.34 131.068C1105.08 155.784 1096.06 177.446 1082.28 196.054C1068.5 214.52 1051.39 228.937 1030.93 239.307C1010.48 249.534 988.036 254.648 963.604 254.648H842.582L844.286 241.011H965.309C987.184 241.011 1007.28 236.466 1025.61 227.375C1044.07 218.284 1059.41 205.5 1071.63 189.023C1083.99 172.545 1092.01 153.227 1095.71 131.068C1099.4 108.625 1097.84 89.0938 1091.02 72.4744C1084.2 55.8551 1073.12 43 1057.78 33.9091C1042.44 24.8182 1023.83 20.2727 1001.96 20.2727H887.752L817.866 443H804.229ZM1003.66 244.42L1077.81 443H1063.32L989.173 244.42H1003.66Z" fill="black"/>
</svg>
