<svg width="1161" height="517" viewBox="0 0 1161 517" fill="none" xmlns="http://www.w3.org/2000/svg">
<path d="M301.057 135.182C298.074 109.992 285.976 90.4375 264.764 76.517C243.552 62.5966 217.534 55.6363 186.71 55.6363C164.172 55.6363 144.452 59.2822 127.548 66.5738C110.811 73.8655 97.7188 83.8916 88.2727 96.652C78.9924 109.412 74.3523 123.913 74.3523 140.153C74.3523 153.742 77.5838 165.426 84.0469 175.203C90.6757 184.815 99.1274 192.852 109.402 199.315C119.677 205.613 130.448 210.833 141.717 214.976C152.986 218.953 163.344 222.185 172.79 224.67L224.494 238.591C237.752 242.071 252.501 246.877 268.741 253.009C285.148 259.14 300.808 267.509 315.723 278.115C330.804 288.555 343.232 301.979 353.01 318.385C362.787 334.791 367.676 354.926 367.676 378.79C367.676 406.299 360.467 431.157 346.05 453.364C331.798 475.57 310.917 493.219 283.408 506.311C256.064 519.403 222.837 525.949 183.727 525.949C147.269 525.949 115.699 520.066 89.0185 508.3C62.5033 496.534 41.6226 480.127 26.3764 459.081C11.2959 438.035 2.76136 413.591 0.772728 385.75H64.4091C66.0663 404.973 72.5294 420.883 83.7983 433.477C95.233 445.906 109.651 455.187 127.051 461.318C144.617 467.284 163.509 470.267 183.727 470.267C207.259 470.267 228.389 466.455 247.115 458.832C265.841 451.044 280.673 440.272 291.611 426.517C302.548 412.597 308.017 396.356 308.017 377.795C308.017 360.892 303.294 347.137 293.848 336.531C284.402 325.925 271.973 317.308 256.561 310.679C241.149 304.05 224.494 298.25 206.597 293.278L143.955 275.381C104.182 263.946 72.6951 247.623 49.4943 226.411C26.2936 205.198 14.6932 177.44 14.6932 143.136C14.6932 114.633 22.3991 89.7746 37.8111 68.5625C53.3887 47.1846 74.2694 30.6127 100.453 18.8466C126.803 6.91476 156.218 0.948845 188.699 0.948845C221.511 0.948845 250.678 6.83189 276.199 18.598C301.72 30.1984 321.938 46.1074 336.852 66.3253C351.933 86.5431 359.887 109.495 360.716 135.182H301.057ZM573.438 525.949C549.243 525.949 527.285 521.392 507.564 512.277C487.844 502.997 472.183 489.656 460.583 472.256C448.982 454.689 443.182 433.477 443.182 408.619C443.182 386.744 447.491 369.012 456.108 355.423C464.726 341.669 476.243 330.897 490.661 323.108C505.078 315.319 520.988 309.519 538.388 305.707C555.954 301.73 573.604 298.581 591.336 296.261C614.536 293.278 633.346 291.041 647.763 289.55C662.346 287.893 672.953 285.158 679.581 281.347C686.376 277.535 689.773 270.906 689.773 261.46V259.472C689.773 234.945 683.061 215.887 669.638 202.298C656.381 188.709 636.246 181.915 609.233 181.915C581.227 181.915 559.269 188.046 543.36 200.31C527.451 212.573 516.265 225.665 509.801 239.585L454.12 219.699C464.063 196.498 477.32 178.435 493.892 165.509C510.63 152.417 528.859 143.302 548.58 138.165C568.466 132.862 588.021 130.21 607.245 130.21C619.508 130.21 633.594 131.702 649.503 134.685C665.578 137.502 681.073 143.385 695.988 152.334C711.068 161.283 723.58 174.789 733.523 192.852C743.466 210.916 748.438 235.111 748.438 265.438V517H689.773V465.295H686.79C682.813 473.581 676.184 482.447 666.904 491.893C657.623 501.339 645.277 509.377 629.865 516.006C614.453 522.634 595.644 525.949 573.438 525.949ZM582.387 473.25C605.587 473.25 625.142 468.693 641.052 459.578C657.126 450.464 669.224 438.697 677.344 424.28C685.63 409.862 689.773 394.699 689.773 378.79V325.097C687.287 328.08 681.819 330.814 673.367 333.3C665.081 335.62 655.469 337.691 644.532 339.514C633.76 341.171 623.237 342.663 612.962 343.989C602.853 345.149 594.65 346.143 588.353 346.972C573.106 348.96 558.855 352.192 545.597 356.666C532.505 360.975 521.899 367.521 513.779 376.304C505.824 384.921 501.847 396.687 501.847 411.602C501.847 431.986 509.387 447.398 524.468 457.838C539.714 468.113 559.02 473.25 582.387 473.25ZM1010.63 524.955C974.832 524.955 944.008 516.503 918.156 499.599C892.303 482.696 872.417 459.412 858.496 429.749C844.576 400.085 837.616 366.195 837.616 328.08C837.616 289.301 844.742 255.08 858.994 225.416C873.411 195.587 893.463 172.303 919.15 155.565C945.002 138.662 975.163 130.21 1009.63 130.21C1036.48 130.21 1060.67 135.182 1082.22 145.125C1103.76 155.068 1121.41 168.989 1135.17 186.886C1148.92 204.784 1157.45 225.665 1160.77 249.528H1102.1C1097.63 232.128 1087.69 216.716 1072.27 203.293C1057.03 189.704 1036.48 182.909 1010.63 182.909C987.758 182.909 967.706 188.875 950.471 200.807C933.402 212.573 920.061 229.228 910.45 250.771C901.004 272.149 896.281 297.256 896.281 326.091C896.281 355.589 900.921 381.276 910.201 403.151C919.647 425.026 932.905 442.012 949.974 454.109C967.209 466.207 987.426 472.256 1010.63 472.256C1025.87 472.256 1039.71 469.604 1052.14 464.301C1064.57 458.998 1075.09 451.375 1083.71 441.432C1092.33 431.489 1098.46 419.557 1102.1 405.636H1160.77C1157.45 428.174 1149.25 448.475 1136.16 466.538C1123.23 484.436 1106.08 498.688 1084.7 509.294C1063.49 519.734 1038.8 524.955 1010.63 524.955Z" fill="black"/>
</svg>
