<svg width="1250" height="350" viewBox="0 0 1250 350" fill="none" xmlns="http://www.w3.org/2000/svg">
<path d="M0.996184 273L46.2732 0.272719H134.83C151.342 0.272719 164.792 3.20241 175.179 9.06178C185.655 14.9212 192.935 23.1332 197.019 33.6978C201.103 44.2624 201.946 56.5582 199.549 70.5852C197.685 81.5937 194.267 91.3594 189.295 99.8821C184.412 108.316 178.331 115.33 171.051 120.923C163.771 126.427 155.737 130.289 146.948 132.508L146.815 134.106C156.048 134.905 164.215 138.234 171.318 144.094C178.42 149.864 183.613 157.721 186.898 167.664C190.272 177.608 190.849 189.149 188.629 202.288C186.321 216.226 181.261 228.522 173.448 239.175C165.636 249.74 155.293 258.041 142.42 264.078C129.547 270.026 114.322 273 96.7437 273H0.996184ZM20.3055 257.553H99.4071C119.915 257.553 136.516 252.403 149.212 242.105C161.907 231.807 169.675 218.534 172.516 202.288C174.38 190.836 173.359 180.582 169.453 171.526C165.636 162.471 159.377 155.324 150.677 150.086C142.065 144.76 131.545 142.096 119.116 142.096H39.4816L20.3055 257.553ZM42.145 126.915H119.782C131.234 126.915 141.444 124.385 150.41 119.325C159.377 114.264 166.701 107.473 172.383 98.9499C178.065 90.4272 181.705 80.9723 183.303 70.5852C186.144 53.6285 183.169 40.2674 174.38 30.5018C165.591 20.6474 151.52 15.7202 132.166 15.7202H60.2558L42.145 126.915ZM315.838 277.261C297.372 277.261 282.058 272.689 269.895 263.545C257.732 254.401 249.254 241.883 244.46 225.992C239.666 210.1 238.956 191.99 242.329 171.659C245.703 151.24 252.45 133.041 262.571 117.061C272.691 101.081 285.076 88.4741 299.724 79.2411C314.373 70.0082 330.175 65.3917 347.132 65.3917C358.585 65.3917 369.016 67.6999 378.426 72.3164C387.926 76.9329 395.916 83.5469 402.397 92.1584C408.877 100.681 413.361 111.024 415.847 123.186C418.332 135.349 418.332 149.021 415.847 164.202L413.982 174.323H252.05L254.581 159.541H400.133C402.619 144.804 401.908 131.487 398.002 119.591C394.096 107.606 387.615 98.1065 378.56 91.093C369.593 84.0795 358.585 80.5728 345.534 80.5728C332.217 80.5728 319.522 84.4346 307.448 92.1584C295.463 99.7933 285.165 110.003 276.553 122.787C268.031 135.571 262.349 149.642 259.508 165.001L257.91 173.257C255.069 190.836 255.424 206.327 258.975 219.733C262.615 233.05 269.362 243.481 279.217 251.027C289.071 258.485 301.944 262.213 317.835 262.213C328.933 262.213 338.787 260.349 347.398 256.62C356.099 252.803 363.467 248.186 369.504 242.771C375.63 237.355 380.424 232.118 383.886 227.057L397.336 233.05C393.252 239.886 387.393 246.722 379.758 253.558C372.123 260.305 362.935 265.942 352.192 270.47C341.45 274.998 329.332 277.261 315.838 277.261ZM453.766 273L487.857 68.4545H503.704L498.377 100.415H499.842C505.879 89.9389 514.757 81.5494 526.476 75.2461C538.194 68.854 550.801 65.658 564.295 65.658C565.804 65.658 567.225 65.658 568.557 65.658C569.888 65.658 571.22 65.7024 572.552 65.7912L569.755 82.1708C568.69 82.082 567.402 81.9489 565.893 81.7713C564.473 81.505 562.697 81.3718 560.566 81.3718C549.203 81.3718 538.683 83.8132 529.006 88.696C519.329 93.5788 511.25 100.326 504.769 108.938C498.288 117.46 494.16 127.226 492.385 138.234L470.013 273H453.766ZM609.006 193.099L612.735 169.529H616.996L735.382 68.4545H757.222L647.625 161.672L646.027 162.338L609.006 193.099ZM581.574 273L626.851 0.272719H643.097L597.82 273H581.574ZM707.284 273L638.436 163.936L651.62 153.149L727.392 273H707.284ZM832.794 0.272719L787.517 273H771.271L816.548 0.272719H832.794ZM934.002 277.261C915.536 277.261 900.222 272.689 888.059 263.545C875.896 254.401 867.418 241.883 862.624 225.992C857.83 210.1 857.12 191.99 860.493 171.659C863.867 151.24 870.614 133.041 880.735 117.061C890.855 101.081 903.24 88.4741 917.888 79.2411C932.537 70.0082 948.339 65.3917 965.296 65.3917C976.749 65.3917 987.18 67.6999 996.591 72.3164C1006.09 76.9329 1014.08 83.5469 1020.56 92.1584C1027.04 100.681 1031.52 111.024 1034.01 123.186C1036.5 135.349 1036.5 149.021 1034.01 164.202L1032.15 174.323H870.214L872.745 159.541H1018.3C1020.78 144.804 1020.07 131.487 1016.17 119.591C1012.26 107.606 1005.78 98.1065 996.724 91.093C987.757 84.0795 976.749 80.5728 963.698 80.5728C950.381 80.5728 937.686 84.4346 925.612 92.1584C913.627 99.7933 903.329 110.003 894.717 122.787C886.195 135.571 880.513 149.642 877.672 165.001L876.074 173.257C873.233 190.836 873.588 206.327 877.139 219.733C880.779 233.05 887.526 243.481 897.381 251.027C907.235 258.485 920.108 262.213 935.999 262.213C947.097 262.213 956.951 260.349 965.562 256.62C974.263 252.803 981.631 248.186 987.668 242.771C993.794 237.355 998.588 232.118 1002.05 227.057L1015.5 233.05C1011.42 239.886 1005.56 246.722 997.922 253.558C990.287 260.305 981.099 265.942 970.357 270.47C959.614 274.998 947.496 277.261 934.002 277.261ZM1065.97 349.705C1061.89 349.705 1057.94 349.261 1054.12 348.373C1050.39 347.485 1047.02 346.331 1044 344.911L1051.06 330.662C1058.69 333.858 1065.93 334.923 1072.76 333.858C1079.69 332.881 1086.17 329.641 1092.2 324.136C1098.33 318.632 1104.1 310.82 1109.52 300.699L1123.1 275.131L1083.15 68.4545H1099.8L1134.15 252.226H1135.62L1231.1 68.4545H1249.34L1123.23 307.757C1118.26 317.078 1112.76 324.847 1106.72 331.061C1100.68 337.276 1094.2 341.936 1087.28 345.044C1080.44 348.151 1073.34 349.705 1065.97 349.705Z" fill="black"/>
</svg>
