<?xml version="1.0" encoding="UTF-8"?><svg id="Layer_1" xmlns="http://www.w3.org/2000/svg" viewBox="0 0 644.39 632.17"><defs><style>.cls-1{fill:#fff;}.cls-2{fill:none;stroke:#000;stroke-miterlimit:10;}</style></defs><path class="cls-1" d="M3.42,472.48C285.31,322.98,287.47,320.25,.35,236.42,287.44,287.26,284.27,283.98,.35,.36,291,276.74,296.91,278.68,365.17,43.28c-17.26,246.67-12.51,247.35,278.98,98.1-284.96,162.25-292.75,173.71-73.58,245.25-232.45-52.03-253.02-33.15-435.33,245.25C292.21,342.92,288.34,331.74,3.42,472.48Z"/><path class="cls-2" d="M3.42,472.48C285.31,322.98,287.47,320.25,.35,236.42,287.44,287.26,284.27,283.98,.35,.36,291,276.74,296.91,278.68,365.17,43.28c-17.26,246.67-12.51,247.35,278.98,98.1-284.96,162.25-292.75,173.71-73.58,245.25-232.45-52.03-253.02-33.15-435.33,245.25C292.21,342.92,288.34,331.74,3.42,472.48Z"/></svg>