<?xml version="1.0" encoding="UTF-8"?><svg id="Layer_1" xmlns="http://www.w3.org/2000/svg" viewBox="0 0 799.7 711.84"><defs><style>.cls-1{fill:#fff;}.cls-2{fill:none;stroke:#000;stroke-miterlimit:10;}</style></defs><path class="cls-1" d="M.09,416.98c387.56-67.42,398.82-81.14,196.59-255.04,221.37,175.42,228.44,173.81,243.84-7.23,4.86,181.17,5.23,164.38,204.65-154.44-184.13,319.65-183.8,335.53,154.47,342.38-313.5,42.78-327,34.07-12.78,241.86-320.37-198.44-318.78-212.55-341.01-6.75-23.21-194.77-22.66-181.28-199.19,133.84C400.78,391.52,386.86,379.08,.09,416.98Z"/><path class="cls-2" d="M.09,416.98c387.56-67.42,398.82-81.14,196.59-255.04,221.37,175.42,228.44,173.81,243.84-7.23,4.86,181.17,5.23,164.38,204.65-154.44-184.13,319.65-183.8,335.53,154.47,342.38-313.5,42.78-327,34.07-12.78,241.86-320.37-198.44-318.78-212.55-341.01-6.75-23.21-194.77-22.66-181.28-199.19,133.84C400.78,391.52,386.86,379.08,.09,416.98Z"/></svg>