<?xml version="1.0" encoding="UTF-8"?><svg id="Layer_1" xmlns="http://www.w3.org/2000/svg" viewBox="0 0 900.51 707.06"><defs><style>.cls-1{fill:#fff;}.cls-2{fill:none;stroke:#000;stroke-miterlimit:10;}</style></defs><path class="cls-1" d="M.22,185.16c382.33,185.07,389.26,206.31,125.2,402.43,287.47-172.22,297.49-168.33,196.75,119.24,137.39-273.81,170.67-278.18,471-11.92-297.29-280.75-315.08-285.33-116.26-149.05-197.44-157.3-170.65-157.67,223.57-181.84-388.32-1.72-410.43-24-310.02-277.23-140.47,248.87-147.05,258.79-286.18,20.87C413.63,335.53,410.29,324.12,113.5,.34,391.09,327.75,386.95,348.33,.22,185.16Z"/><path class="cls-2" d="M.22,185.16c382.33,185.07,389.26,206.31,125.2,402.43,287.47-172.22,297.49-168.33,196.75,119.24,137.39-273.81,170.67-278.18,471-11.92-297.29-280.75-315.08-285.33-116.26-149.05-197.44-157.3-170.65-157.67,223.57-181.84-388.32-1.72-410.43-24-310.02-277.23-140.47,248.87-147.05,258.79-286.18,20.87C413.63,335.53,410.29,324.12,113.5,.34,391.09,327.75,386.95,348.33,.22,185.16Z"/></svg>