<?xml version="1.0" encoding="UTF-8"?><svg id="Layer_1" xmlns="http://www.w3.org/2000/svg" viewBox="0 0 876.53 546.79"><defs><style>.cls-1{fill:#fff;}.cls-2{fill:none;stroke:#000;stroke-miterlimit:10;}</style></defs><path class="cls-1" d="M27.28,362.59c365.82-79.41,368.26-77.92,205.55,97.36,192.06-165.86,200.69-163.09,384.05,86.55-169.7-253-159.41-260.04,259.64-254.23-416.41-18.68-414.3-29.79-54.09-243.41C451.9,251.42,447.52,250.38,351.82,.18,395.04,251.93,391.45,252.67,.23,59.68c383.51,202.85,385.14,214.37,27.05,302.91Z"/><path class="cls-2" d="M27.28,362.59c365.82-79.41,368.26-77.92,205.55,97.36,192.06-165.86,200.69-163.09,384.05,86.55-169.7-253-159.41-260.04,259.64-254.23-416.41-18.68-414.3-29.79-54.09-243.41C451.9,251.42,447.52,250.38,351.82,.18,395.04,251.93,391.45,252.67,.23,59.68c383.51,202.85,385.14,214.37,27.05,302.91Z"/></svg>