<?xml version="1.0" encoding="UTF-8"?><svg id="Layer_1" xmlns="http://www.w3.org/2000/svg" viewBox="0 0 1011.18 657.47"><defs><style>.cls-1{fill:#fff;}.cls-2{fill:none;stroke:#000;stroke-miterlimit:10;}</style></defs><path class="cls-1" d="M103.32,.38c416.96,351.42,416.15,349.97,285.38,92.83,125.35,256.03,123.58,258.74,495.12-61.89q-375.03,318.88,127.22,165.04c-503.76,149.56-502.68,146.48-151.29,460.73-346.17-317.51-341.83-314.22-642.96-188.55C521.18,345.36,523.26,346.94,.17,158.55Q523,349.85,103.32,.38Z"/><path class="cls-2" d="M103.32,.38c416.96,351.42,416.15,349.97,285.38,92.83,125.35,256.03,123.58,258.74,495.12-61.89q-375.03,318.88,127.22,165.04c-503.76,149.56-502.68,146.48-151.29,460.73-346.17-317.51-341.83-314.22-642.96-188.55C521.18,345.36,523.26,346.94,.17,158.55Q523,349.85,103.32,.38Z"/></svg>