<?xml version="1.0" encoding="UTF-8"?><svg id="Layer_1" xmlns="http://www.w3.org/2000/svg" viewBox="0 0 211.47 113.58"><defs><style>.cls-1{fill:#fff;}.cls-2{fill:#231f20;}.cls-3{fill:none;stroke:#231f20;stroke-miterlimit:10;stroke-width:.75px;}</style></defs><g><path class="cls-1" d="M50.73,36.8c-5.28-18.65,4.73-34.6,33.35-20.09,8.06-20.43,23.12-16.28,29.73,.88,26.44-18.12,42.56-25.28,30.05-4.83,44.13-16.28,54.7-.86,32.52,21.36,45.3,3.51,44.52,16.96,7.81,20.39,34.27,11.26,30.86,24.98-10.43,23.49,19.88,18.42-1,10.31-27.16,2.7,5.1,16.25-4.9,40.4-27.02,21.51-8.17,20.5-24.38,9.3-31.7-9.17-26.34,11.21-40.51,.33-28.63-12.62-26.45,6.61-33.11-4.48-16.77-14.43-36.18-3.01-60.57-2.84-24.04-11.33-36.21-16.52-.75-20.86,32.28-17.86Z"/><path class="cls-3" d="M50.73,36.8c-5.28-18.65,4.73-34.6,33.35-20.09,8.06-20.43,23.12-16.28,29.73,.88,26.44-18.12,42.56-25.28,30.05-4.83,44.13-16.28,54.7-.86,32.52,21.36,45.3,3.51,44.52,16.96,7.81,20.39,34.27,11.26,30.86,24.98-10.43,23.49,19.88,18.42-1,10.31-27.16,2.7,5.1,16.25-4.9,40.4-27.02,21.51-8.17,20.5-24.38,9.3-31.7-9.17-26.34,11.21-40.51,.33-28.63-12.62-26.45,6.61-33.11-4.48-16.77-14.43-36.18-3.01-60.57-2.84-24.04-11.33-36.21-16.52-.75-20.86,32.28-17.86Z"/></g><g><path class="cls-2" d="M67.79,54c-.15-.55-.36-1.14-.63-1.81l-2.04-4.93c-.27-.65-.52-1.44-.87-2.56,.02,.73,0,1.86-.06,2.71l-.37,5.33c-.07,.9-.09,1.43-.06,1.9l-3.2,.51c-.16-.49-.3-.85-.7-1.82l-4.23-10.05c-.37-.85-.72-1.62-.95-2.06l3.66-.58c.12,.63,.29,1.17,.53,1.88l1.87,5.14c.09,.25,.33,1.06,.74,2.4,0-1.5,.02-2.15,.06-2.53l.43-5.61c.07-.81,.08-1.37,.07-1.87l2.86-.45c.14,.44,.31,.92,.65,1.7l2.16,5.16c.22,.54,.42,1.09,.85,2.47q-.02-.34-.04-1.08c-.01-.39-.03-1.25-.01-1.53l.19-5.36c.03-.83,.02-1.34-.06-1.96l3.65-.58c-.09,.5-.18,1.35-.25,2.26l-.91,10.85c-.08,.85-.12,1.54-.1,1.96l-3.21,.51Z"/><path class="cls-2" d="M77.41,48.02c.38,1.39,1.26,2.02,2.53,1.81,.64-.1,1.17-.42,1.52-.9,.2-.28,.28-.49,.34-.97l2.93,.41c-.23,.96-.4,1.4-.78,1.96-.76,1.12-1.97,1.83-3.56,2.08s-2.89-.04-3.96-.89c-1.11-.89-1.86-2.29-2.14-4.02-.55-3.45,1.13-6.06,4.2-6.55,2.51-.4,4.49,.8,5.47,3.31,.22,.54,.4,1.26,.6,2.25,.01,.07,.03,.17,.07,.35l-7.23,1.15Zm3.8-3.07c-.4-1.08-1.19-1.56-2.3-1.39s-1.74,.85-1.83,2.04l4.13-.66Z"/><path class="cls-2" d="M87.68,35.97c.02,.75,.1,1.47,.29,2.65l1.47,9.24c.17,1.05,.3,1.7,.55,2.61l-3.36,.53c-.03-.8-.09-1.4-.29-2.65l-1.47-9.24c-.2-1.24-.35-1.96-.55-2.61l3.36-.53Z"/><path class="cls-2" d="M97.17,42.39c-.23-.5-.36-.73-.61-.96-.39-.35-.87-.49-1.45-.4-1.3,.21-1.9,1.45-1.59,3.36s1.31,2.97,2.6,2.77c.63-.1,1.16-.47,1.4-1.01,.11-.25,.16-.44,.16-.85l3.04,.04c-.06,.78-.18,1.28-.4,1.83-.6,1.42-1.95,2.36-3.81,2.66-1.54,.25-2.94-.07-3.98-.9-1.09-.85-1.85-2.3-2.12-4.01-.55-3.49,1.12-6.04,4.25-6.54,2.47-.39,4.41,.66,5.3,2.89l-2.79,1.11Z"/><path class="cls-2" d="M101.25,43.21c-.55-3.49,1.15-6.03,4.4-6.54s5.66,1.37,6.2,4.82-1.2,6.11-4.4,6.62c-3.23,.51-5.64-1.39-6.2-4.89Zm3.07-.51c.31,1.93,1.33,2.97,2.73,2.75s2.02-1.48,1.71-3.42-1.31-2.97-2.68-2.75-2.07,1.51-1.76,3.43Z"/><path class="cls-2" d="M114.01,46.65c-.03-.82-.12-1.55-.29-2.65l-.85-5.37c-.21-1.32-.34-1.95-.55-2.61l3.18-.51,.12,.73q.01,.07,.02,.25v.09s.02,.05,.03,.09c.66-1.11,1.57-1.72,2.84-1.92,.83-.13,1.56-.03,2.16,.3,.33,.18,.52,.36,.8,.77,.83-1.22,1.73-1.83,3.13-2.05,2.3-.37,3.69,.81,4.11,3.44l.69,4.32c.17,1.08,.32,1.79,.54,2.59l-3.34,.53c-.03-.84-.1-1.47-.29-2.65l-.57-3.59c-.21-1.31-.64-1.76-1.56-1.61-.82,.13-1.45,.95-1.66,2.18l.57,3.56c.17,1.04,.32,1.77,.54,2.59l-3.34,.53c-.03-.8-.11-1.54-.29-2.65l-.57-3.59c-.12-.73-.23-1.05-.49-1.32-.22-.25-.57-.36-.95-.3-.87,.14-1.5,.94-1.76,2.19l.56,3.52c.17,1.1,.32,1.77,.55,2.61l-3.31,.53Z"/><path class="cls-2" d="M133.46,39.1c.39,1.39,1.26,2.02,2.53,1.81,.64-.1,1.17-.42,1.52-.9,.2-.28,.28-.49,.34-.97l2.93,.41c-.22,.96-.4,1.4-.77,1.96-.76,1.12-1.97,1.83-3.56,2.08s-2.89-.04-3.96-.89c-1.11-.89-1.86-2.29-2.14-4.02-.55-3.45,1.13-6.06,4.2-6.55,2.51-.4,4.49,.8,5.47,3.31,.22,.54,.4,1.26,.6,2.25,.01,.07,.03,.17,.07,.35l-7.23,1.15Zm3.8-3.07c-.4-1.08-1.19-1.56-2.3-1.39s-1.74,.85-1.83,2.04l4.13-.66Z"/><path class="cls-2" d="M147.55,30.04c-.14-.87-.28-1.56-.51-2.37l3.28-.52c.03,.73,.12,1.57,.25,2.41l.06,.37,.58-.09c.71-.11,1.07-.19,1.56-.34l.46,2.89c-.49,0-.92,.04-1.49,.13l-.68,.11,.71,4.46c.08,.49,.2,.72,.43,.84,.2,.09,.46,.12,.77,.07,.42-.07,.71-.2,1.07-.49l.66,2.61c-.68,.36-1.29,.56-2.16,.7-1.09,.17-1.88,.1-2.46-.23-.69-.41-1.01-.96-1.2-2.15l-.85-5.33-.61,.1c-.52,.08-.93,.18-1.38,.33l-.46-2.91c.48,0,.88-.03,1.45-.12l.58-.09-.06-.37Z"/><path class="cls-2" d="M154.47,34.74c-.55-3.49,1.15-6.03,4.4-6.54s5.65,1.37,6.2,4.82-1.2,6.11-4.4,6.62-5.64-1.39-6.2-4.89Zm3.07-.51c.31,1.93,1.33,2.97,2.73,2.75s2.02-1.48,1.71-3.42-1.31-2.97-2.68-2.75-2.07,1.51-1.76,3.43Z"/><path class="cls-2" d="M70.15,75.08c-.03-.82-.12-1.55-.29-2.65l-.85-5.37c-.21-1.32-.34-1.95-.55-2.61l3.18-.51,.12,.73q.01,.07,.02,.25v.09s.02,.05,.03,.09c.66-1.11,1.57-1.72,2.84-1.92,.84-.13,1.56-.03,2.16,.3,.33,.18,.52,.36,.8,.77,.83-1.22,1.74-1.83,3.13-2.05,2.3-.37,3.69,.81,4.11,3.44l.69,4.32c.17,1.08,.32,1.79,.54,2.59l-3.34,.53c-.03-.83-.1-1.47-.29-2.65l-.57-3.59c-.21-1.31-.64-1.76-1.56-1.61-.82,.13-1.45,.94-1.66,2.18l.57,3.56c.17,1.05,.31,1.77,.54,2.59l-3.34,.53c-.03-.8-.11-1.54-.29-2.65l-.57-3.59c-.12-.73-.23-1.05-.49-1.32-.22-.25-.57-.36-.95-.3-.87,.14-1.5,.94-1.76,2.19l.56,3.52c.17,1.1,.31,1.77,.55,2.61l-3.31,.53Z"/><path class="cls-2" d="M86.67,63.95c-.97-1.63-1.06-1.78-1.34-2.18l3.49-.55c.17,.54,.5,1.26,.98,2.15l2.12,3.79,.8-4.18c.26-1.27,.32-1.8,.32-2.43l3.49-.55q-.26,.97-.59,2.49l-2.21,9.8c-.38,1.74-1.42,2.67-3.25,2.96-.71,.11-1.33,.12-2.25,.05l-.09-2.83c.58,.21,.9,.25,1.31,.19,.61-.1,1.01-.47,1.17-1.03l.22-.8-4.17-6.88Z"/><path class="cls-2" d="M105.03,72.77c-.04-.76-.13-1.64-.28-2.57l-1.35-8.51c-.18-1.13-.33-1.84-.56-2.72l3.17-.5,.09,.59c.02,.11,.02,.25,.04,.33,.83-1.02,1.76-1.55,3.1-1.76,1.41-.22,2.64,.05,3.62,.8,1,.79,1.65,2.1,1.93,3.86s.03,3.3-.73,4.44c-.68,1.02-1.77,1.69-3.09,1.9-.76,.12-1.6,.08-2.24-.11-.45-.13-.72-.28-1.24-.63,.02,.16,.06,.38,.12,.62l.19,1.2c.16,.98,.31,1.77,.53,2.51l-3.29,.52Zm6.28-7.56c.38-.54,.51-1.39,.35-2.38-.28-1.78-1.32-2.67-2.83-2.43-1.33,.21-2.22,1.66-1.97,3.24s1.53,2.71,2.98,2.48c.61-.1,1.12-.41,1.47-.91Z"/><path class="cls-2" d="M115.69,62.37c-.55-3.49,1.15-6.03,4.4-6.54s5.65,1.37,6.2,4.82-1.2,6.11-4.4,6.62c-3.23,.51-5.64-1.39-6.2-4.89Zm3.07-.51c.31,1.93,1.33,2.97,2.73,2.75s2.02-1.48,1.71-3.42-1.31-2.97-2.68-2.75-2.07,1.51-1.76,3.42Z"/><path class="cls-2" d="M134.5,57.16c-.78-.13-1.19-.15-1.69-.07-.82,.13-1.4,.54-1.76,1.25-.24,.47-.29,.85-.23,1.63l.43,2.72c.18,1.12,.31,1.77,.54,2.59l-3.33,.53c-.04-.89-.11-1.52-.29-2.65l-.85-5.37c-.2-1.27-.33-1.88-.55-2.61l3.2-.51,.22,1.38c.61-1.24,1.5-1.87,2.96-2.1,.51-.08,.84-.1,1.62-.04l-.27,3.26Z"/><path class="cls-2" d="M136.95,53.18c-.14-.87-.28-1.56-.51-2.37l3.28-.52c.03,.73,.12,1.57,.25,2.41l.06,.37,.58-.09c.71-.11,1.07-.19,1.56-.34l.46,2.89c-.49,0-.92,.04-1.49,.13l-.68,.11,.71,4.46c.08,.49,.2,.72,.43,.84,.2,.09,.46,.12,.77,.07,.42-.07,.71-.2,1.07-.49l.66,2.61c-.68,.36-1.29,.56-2.16,.7-1.09,.17-1.88,.1-2.46-.23-.69-.41-1.01-.97-1.2-2.15l-.85-5.33-.61,.1c-.51,.08-.93,.18-1.38,.33l-.46-2.91c.48,0,.88-.03,1.45-.12l.58-.09-.06-.37Z"/><path class="cls-2" d="M150.42,54.84c-.13-.84-.66-1.15-1.72-.98s-1.52,.62-1.62,1.51l-3.15-.05c.16-1.08,.42-1.69,1.01-2.32,.76-.8,1.9-1.32,3.46-1.57,1.19-.19,2.39-.13,3.07,.14,1.13,.45,1.73,1.33,1.98,2.9l.75,4.71c.17,1.06,.3,1.68,.51,2.46l-3.12,.5-.13-.8c-.78,.89-1.63,1.33-2.95,1.54-1.22,.19-2.19,.03-2.93-.52-.67-.48-1.11-1.27-1.26-2.23-.17-1.1,.09-2.03,.77-2.73,.72-.76,1.74-1.3,3.16-1.66,.61-.17,1.09-.26,2.25-.48l-.06-.4Zm.42,2.63c-1.42,.26-2.1,.46-2.73,.79-.55,.3-.83,.79-.75,1.3,.1,.63,.64,.92,1.48,.78,.66-.1,1.34-.48,1.71-.95,.31-.41,.45-.91,.36-1.43l-.08-.49Z"/><path class="cls-2" d="M157.45,46.33c.02,.75,.1,1.47,.29,2.65l1.47,9.24c.17,1.05,.3,1.7,.55,2.61l-3.36,.53c-.03-.8-.09-1.4-.29-2.65l-1.47-9.24c-.2-1.24-.34-1.96-.55-2.61l3.36-.53Z"/></g></svg>