<?xml version="1.0" encoding="UTF-8"?><svg id="Layer_1" xmlns="http://www.w3.org/2000/svg" viewBox="0 0 242.73 160.37"><defs><style>.cls-1{fill:#e3deef;stroke:#231f20;stroke-miterlimit:10;stroke-width:.25px;}</style></defs><path class="cls-1" d="M76,63c-4.91,1.72-11.04,2.83-12,3-3.3,.59-5.89,.92-11.72,1.95-1.43,.25-3.08,.57-5.28,1.05,0,0-8.65,1.89-18,6,0,0-2.27,1-5,3-1.25,.92-2.2,1.76-3,3-.3,.47-.7,1.09-1,2-.63,1.92-.09,2.95-1,4,0,0,0,0-1,1-.66,.66-.99,.99-1,1-1.18,1.24-.95,4.51,0,7,.45,1.17,.76,1.08,1,2,.41,1.55-.18,2.28,0,4,.15,1.47,.74,2.56,1,3,.36,.59,1.75,2.72,4,3,.5,.06,.87,.01,1,0,3.43-.39,10.56,2.77,15,4,2.22,.61,4.48,.74,9,1,25.87,1.48,153.74-10.86,157.67-11.71,.31-.07,1.15-.34,2.33-.29,.61,.03,.74,.12,1,0,.58-.26,.65-1.07,1-3,.44-2.39,.64-2.78,1-3,.51-.32,.85-.02,2,0,.79,.01,1.87-.33,4-1,1.74-.55,2.61-.83,3-1,1.29-.58,1.93-1.08,3-1,.45,.03,.67,.15,1,0,.81-.36,.97-1.71,1-2,.06-.5,.01-.88,0-1-.14-1.32,.44-2.32,1-4,.74-2.23,.92-4.07,1-5,.14-1.53,.2-2.29,0-3-.5-1.72-1.64-2.16-2-4-.12-.63,.02-.56,0-2-.02-1.67-.04-3.85-1-6-.22-.49-.27-.5-1-2-.77-1.58-.74-1.63-1-2-.74-1.04-1.23-.99-2-2-.61-.8-.5-1.09-1-2-.7-1.26-1.45-1.64-3-3-2.08-1.82-1.55-1.84-3-3-2.27-1.81-4.98-2.89-5-4,0-.03,0-.35,0-1,0-.97,0-.97,0-1-.09-.99-3.24-1.6-5-2-3.4-.77-2.69-.99-7-2-1.81-.42-3.09-.66-5-1-4.72-.85-7.08-1.28-8-1-.34,.1-1.25,.42-2,0-.59-.33-.51-.8-1-1-.79-.32-1.34,.73-3,1-.18,.03-.12,0-2,0h-19c-.95-.13-1.83-.31-3,0-1.48,.39-1.94,1.19-3,1-.83-.15-.92-.71-2-1-.93-.25-1.71-.06-2,0-1.97,.4-6.89,0-12,0-11.29,.02-16.94,.03-23,2-3.36,1.09-7.24,3.73-15,9-11.5,7.81-12.86,10.49-20,13Z"/><g id="_3oL8Yz"><g><path d="M212.95,83.52c.01,.24-.07,.55,.05,.7,.37,.47,.56-.1,.65-.25,.46-.72,.24-1.55,.21-2.32-.03-.72,.34-.95,.89-1.15,1.16-.41,2.29-1.08,3.47-1.21,1.97-.21,3.72-1.06,5.54-1.65,1.14-.37,2.42-.38,3.5-1.39,.18,3.79-.03,7.27-1.31,10.66-.29,.76-.81,1.58-.53,2.5,.28,.89-1.3,1.19-.72,2.21,.02,.03-.46,.5-.71,.51-3.22,.12-5.97,1.72-8.86,2.83-1.04,.4-1.99,.92-3.12,.14-.32-.22-1.03-.17-1.01,.56,.01,.53-.46,.86-.45,1.33,.02,1.19-.81,2.26-.49,3.49,1.1,.31,2.21,.59,3.31,.88,1.4,.37,2.88,.63,4.14,1.45,1.41,.91,1.45,1.81,.06,2.66-.93,.57-1.9,1.21-2.93,1.42-3.04,.64-5.97,1.69-9.07,2.19-2.69,.44-5.41,.83-8.1,1.19-2.01,.27-4.07,.53-6.12,.69-2.25,.18-4.52,.33-6.77,.78-1.6,.32-3.29,.4-4.93,.49-2.22,.11-4.44,.41-6.6,.72-2.01,.29-4.06,.13-6.07,.72-1.39,.41-2.97,.38-4.44,.46-2.22,.12-4.44,.4-6.6,.74-2.01,.31-4.05,.26-6.07,.68-1.73,.36-3.59,.45-5.4,.6-2.5,.21-4.99,.5-7.48,.9-1.62,.26-3.3,.39-4.93,.47-2.22,.11-4.43,.43-6.6,.72-2.01,.27-4.06,.16-6.06,.73-1.4,.4-2.98,.38-4.44,.45-2.3,.12-4.58,.43-6.84,.71-1.85,.23-3.78,.03-5.57,.77-.35,.14-.79,.09-1.19,.06-2.31-.17-4.57,.44-6.85,.61-2.81,.22-5.64,.54-8.42,.96-3.27,.49-6.51,.3-9.76,.38-2.96,.07-5.93,.06-8.89-.03-3.3-.11-6.58-.35-9.85-.88-1.62-.26-3.27-.25-4.92-.46-3.78-.49-7.49-1.36-11.23-2.02-.52-.09-1.04-.36-1.48-.66-1.48-1.01-1.39-1.89,.3-2.64,1.99-.88,4.08-1.52,6.21-1.89,1.01-.18,1.95-.52,3.38-.8-2.14-.37-3.87-.32-5.57-.22-2.51,.16-4.79-.43-7.08-1.48-3.26-1.49-6.73-2.43-10.19-3.36-1.39-.37-2.78-.52-4.21-.45-.71,.03-1.38-.06-2.05-.46-1.33-.79-2.3-1.7-1.97-3.4l-.05,.05c2.3,1.72,4.99,2.34,7.75,2.91,1.57,.33,3.15,.22,4.67,.5,1.56,.28,3.16,.19,4.68,.48,3.64,.7,7.28,.27,10.92,.44,.47,.02,.94-.09,1.38,.23,.23,.17,.64,.28,.88,.19,1.6-.6,3.28-.34,4.92-.48,.24-.02,.4-.25,.34-.52-.02-.1-.21-.26-.26-.24-1.78,.68-3.62,.16-5.43,.31-3.26,.28-6.46-.66-9.72-.51-1.39,.06-1.59-.59-.99-2.66-.86-.35-1.51-.17-2.26,.45-1.51,1.27-3.03,2.21-5.31,1.41-1.39-.49-3.09-.22-4.65-.57-1-.22-1.93-.53-2.87-.91-.65-.26-1.2-.65-1.44-1.17-.74-1.61-1.55-3.25-1.64-5.05-.13-2.61-.67-5.2-.47-7.83,.06-.74-.31-1.2-1-1.42l.04,.04c.5-.82,.54-1.74,.44-2.67,1.12,.09,.88,.85,.96,1.48,.08,.56-.29,1.26,.47,1.64,.8,.4,1.4,1.16,2.5,1.01,1-.14,1.38-.59,1.39-1.51l-.06,.05c.42,0,.46,.3,.5,.63,.2,1.42,1.36,1.61,2.43,1.71,1.34,.13,2.7,.04,4.06,.05,.79,0,1.6,.1,2.15-.68,.09-.12,.25-.28,.37-.27,2.16,.12,3.42-1.2,4.6-2.74,.28-.36,.71-.21,.79,.34l.05-.05c-.71,.12-.68,.84-.89,1.26-.49,.99-.86,1.95-2.02,2.42-.75,.31-.97,1.2-1.36,1.9,.55,.41,1.2,.12,1.8,.22,3.69,.62,7.41,.41,11.12,.52,1.07,.03,2.11,.44,3.22,.49,.7,.03,1.74,.34,1.91,1.13,.3,1.36,1.11,1.71,2.3,1.69,.66,0,1.14,.38,1.16,.95,.07,2.08,2,2.3,3.14,3.3,1.04-.21,2.18-.23,3.09-.69,.88-.45,1.53-1.4,1.47-2.52-.04-.86,.06-1.49,1-1.82,.5-.18,.33-.83,.51-1.23,.26-.59,.69-.53,.93,.12-.13,.05-.31,.06-.37,.16-.09,.13,.03,.26,.16,.17,.09-.06,.11-.24,.16-.37,1.06-.74,1.16-2.07,1.86-3.05,2.27-3.15,5.04-5.69,8.45-7.57,.43-.24,1.11-.23,1.26-.9l-.04,.05c.46-.07,.96-.06,1.39-.23,2.75-1.06,5.66-1.06,8.44-.66,2.85,.4,5.51,1.66,7.71,3.69,.92,.85,1.58,2.02,2.84,2.48-.04,.82,.45,1.46,.69,2.17,.25,.76,.67,.24,.89,.38,.6,.38,.55,.03,.7-.37,.43-1.13,1.64-1.9,1.48-3.35-.04-.33,.5-.78,1.07-.77,.56,.02,1.14,.08,1.68-.03,.64-.13,1.23-.35,.6-1.26-.24-.35,.21-.79,.67-.52,.67,.39,1.25,.9,1.68-.22,.11-.29,.3-.3,.49-.1,.37,.4,.75,.74,1,1.29,.48,1.05,1.51,1.47,2.83,1.94-.21-1.78,.29-3.28-.4-4.86-.36-.81-.08-1.89-.09-2.85,0-.37-.25-.73-.55-.55-.92,.55-1.72-.31-2.64-.09-.71,.17-1.58,.25-1.91-.84-.07-.23-.76,.06-1.19-.46,2.38,.07,4.49-.74,6.64-1.28,.65-.16,.9,.47,1.49,.24,.49-.19,.94-.49,1.54-.52,1.79-.1,3.53-.58,5.28-.85,1.46-.23,2.96-.25,4.43-.55,2.98-.59,6.04-.61,9.01-1.4,1.26-.34,2.64-.26,3.96-.41,1.63-.2,3.26-.52,4.9-.69,1.48-.15,2.96-.51,4.45-.39,.76,.06,.81-1.23,1.78-.66,.48,.28,1.34,.34,1.85,.11,1.7-.79,3.63,0,5.3-.87,.32-.16,.81-.12,1.18-.02,.58,.15,1.07,.54,1.59-.22,.35-.52,1.04-.25,1.59-.25,2.52-.02,4.99-.3,7.45-.92,1.28-.33,2.71,.24,3.95-.52,2,.29,3.92-.38,5.87-.59,2.22-.23,4.57,.01,6.63-1.14,.18-.1,.22-.1,.38-.04,2.06,.79,3.98-.14,5.95-.49,.31-.06,.62-.18,.92-.15,2.63,.28,5.19-.51,7.8-.54,1.32-.02,2.59-.55,3.96-.47,1.25,.08,2.47-.09,3.73-.37,1.44-.31,2.99-.07,4.51,.07-1.35,.51-2.83,.54-4.18,.67-1.71,.17-3.4,.57-5.13,.66-2.16,.11-4.33,.49-6.45,.97-.73,.16-1.24,.83-2.21,.47-.85-.32-1.61,.42-2.37,.83-.23,.13-.69,.12-.9-.03-.96-.68-1.97-.25-2.94-.39-.12,.72,.68,.3,.63,.95-2.12-.33-4.14,.65-6.27,.49-1.05-.08-1.91,.81-2.98,.49-1.66,.95-3.82-.08-5.36,1.39-.17,.16-.62,.04-.94,.04-1.96-.02-3.83,.6-5.74,.84-1.54,.19-3.05,.79-4.64,.62-.08,0-.16,0-.24,0-2.05,.04-2.35,.3-2.74,2.41-.38-.62-.12-1.74-1.35-1.46-2.28,.51-4.63,.41-6.94,.87-1.57,.32-3.19,.86-4.89,.61-.75-.11-1.51,.13-2.29,.33-1.41,.36-2.87,.67-4.39,.66-2,0-3.95,.63-5.88,1.17-.3,.08-.58,.24-.9,.2-2.63-.32-5.18,.6-7.78,.45-.93-.05-1.6,.58-2.5,.54-.84-.03-1.72-.27-2.54,.35-.31,.24-.92,.09-1.4,.1-1.76,0-3.51,0-5.33,0-.81,3.2,.53,6.27,.27,9.35,.47,.25,.42-.09,.47-.24,.04-.15-.01-.32,.03-.48,.03-.14,.14-.25,.21-.38,1.3,1.15,2.53-.44,3.82-.09,.29,.08,.75,.12,.93-.04,1.9-1.72,4.5-1.05,6.55-1.96,1.61-.71,3.14-.92,4.79-.84,.78,.03,1.2-.4,1.58-.88,.72-.9,1.6-1.14,2.72-1.08,1.56,.08,3.13,.23,4.57-.78,.44-.31,1.32-.33,1.84-.11,2.54,1.07,4.89,.21,7.26-.57,.34-.11,.52-.28,.99-.13,.72,.24,1.56,.12,2.35,.17,.34,.02,.73,0,.85-.31,.56-1.55,1.85-1.11,2.96-1.13,1.19-.02,2.37,0,3.71,0v-3.4q.9,1.4,1.15,4.22c.55-.16,.19-.64,.33-.92,.22-.42,.49-.9,1.03-.85,1.75,.16,3.43-.42,5.13-.61,2.06-.23,4.22,.03,6.21-.83,.27-.12,.64-.07,.95-.02,.98,.17,1.69-.21,2.28-.96,.19-.24,.44-.4,.77-.5,1.05-.32,1.9,1,3.14,.13,.97-.67,2.02,.42,3.01,.82,.36,.15,.57,.34,.49,.66-.22,.97,.73,2.26-.78,2.88-.09,.04-.16,.28-.14,.41,.18,1.59-.32,3.11-.49,4.66-.04,.39,.13,.92-.07,1.17-.97,1.21-.18,1.95,.69,2.54,.49,.33,.84,.52,.85,1.19,0,.55,.59,.37,.94,.45l-.05-.05c-.92,.82-2.1,.81-3.22,.98-.36,.05-.56,.17-.62,.52l.05-.05c-.99,0-1.91,.03-1.98,1.42-.03,.72-.62,.99-1.35,1.02-.94,.03-1.87-.45-2.7-.34-.84,.11-1.73,.82-2.6,.76-3.01-.2-5.95,.82-8.94,.49-1.09-.12-1.92,.59-2.97,.53-1.64-.09-3.3,.14-4.89-.47-.16-.06-.51,0-.36,.3,.07,.16,.39,.2,.6,.29,0,0-2.39-.13-2.39-.13-.23,.07-.69-.19-.62,.32,.03,.26,.59,.04,.67,.61-1.01-.09-1.93,.06-2.98-.27-1.2-.38-2.64-.61-3.74,.58-.36,.38-.9,.15-1.37,.16l.05,.05c-.07-.13-.13-.36-.22-.38-1.17-.22-2.51,.18-3.7,1.05-.17,.13-.46,.28-.62,.22-2.24-.8-4.45-.56-6.7,.02-.66,.17-1.4,.03-2.2,.03,.43,.97,1.41,.01,1.84,.95-.86,0-1.87,.31-2.39-.06-1.87-1.33-3.74,.04-5.59-.27,.6,.6,1.42,.12,2.07,.48-.08,.59-.55,.31-.83,.32-.42,.01-.76,.12-1.09,.38-.19,.15-.53,.17-.62-.05-.67-1.51-1.9-.43-2.9-.85,.13,.8,.59,.48,.88,.54,.28,.06,.62-.07,.91,.48-.88,0-1.78,.26-2.41-.05-1.4-.7-2.81-.27-4.21-.39-.79-.07-1.42-.06-1.89,.91-.39,.81-1.92,.69-3.07,0,.6-.08,1.26,.26,2.23-.49-1.03,.27-1.78-.5-2.18,.54-.46,.03-.95-.19-1.41,.22,.27,.15,.52,.28,.97,.52-1.21,.26-2.26,.34-3.27,.03-.36-.11-.72-.44-1.1-.3-1.84,.66-3.66-.12-5.48,0-.77,.05-1.26,.23-.88,1.3,.22,.6-.63,1.32-.11,2.2,.33,.56,.22,1.37,.32,2.07,.48,.02,.8-.36,1.3-.3,2.31,.31,4.56-.36,6.83-.56,2.72-.24,5.42-.68,8.15-.95,2.72-.27,5.44-.64,8.16-.95,2.8-.32,5.58-.7,8.39-.99,2.32-.24,4.65-.56,6.96-.92,2.47-.38,4.96-.6,7.43-.97,3.39-.51,6.78-1.03,10.19-1.45,2.16-.26,4.3-.67,6.46-.95,2.63-.34,5.27-.67,7.89-1.02,1.89-.26,3.76-.38,5.63-.32,1.3,.04,2.44-.49,3.7-.56,.69-.03,1.26-.69,1.37-1.2,.31-1.38,1.38-1.87,2.43-2.06,.88-.16,.92-.46,1.04-1.18,1.01-6.21,3.41-11.7,8.45-15.76,2.76-2.23,5.96-2.71,9.34-2.28,.88,.11,1.65,1.02,2.52,1.13,.74,.1,1.39,.03,1.82,.75-.12,.05-.29,.06-.36,.15-.09,.12,.03,.24,.16,.15,.09-.06,.1-.23,.15-.36,.18,.02,.35,.04,.53,.05l-.05-.05c-.03,.74,.27,1.26,1.01,1.49l-.05-.05c.15,.52,.49,.86,1.01,1.01l-.05-.05c.17,.25-.26,.73,.41,.82,1.48,.2,1.79,.89,1.04,2.1-.05-.13-.06-.3-.15-.37-.12-.1-.25,.02-.17,.16,.05,.09,.24,.11,.36,.16Zm-17.83,2.88c.33,0,.47-.17,.48-.48,.32,0,.48-.16,.48-.48,.32,0,.5-.14,.48-.48,.15,0,.3,.03,.44,0,.18-.02,.45,0,.35-.3-.02-.07-.26-.13-.38-.11-.24,.03-.35,.21-.36,.46-.3,.02-.51,.13-.48,.48-.34-.01-.51,.13-.48,.48-.34-.01-.51,.13-.48,.48-.34-.02-.48,.16-.48,.48-.85,.13-.84,.99-1.25,1.49-.22,.26-.29,.63,0,.78,.15,.07,.5-.25,.76-.4,0,.25,.12,.44,.37,.47,.13,.02,.36-.04,.39-.12,.11-.32-.16-.3-.35-.31-.15,0-.3,0-.46,.01,.62-.55,1.44-1.04,.48-1.97,.34,.02,.48-.16,.49-.48Zm-105.7,16.85c-.15,0-.31-.02-.45,0-.18,.02-.47-.03-.34,.3,.03,.08,.27,.13,.4,.12,.25-.03,.35-.23,.35-.47,.39-.02,.91,.22,.96-.48,.45,.1,.96-.12,1.39,.22-.27,.35-.54,.7-.82,1.07,.21,.07,.35,.14,.5,.16,1.36,.15,1.74,.53,1.25,1.69-.64,1.51-.78,3.27-2.12,4.45-.29-.76-.76-1.41-1.48-1.75-1.18-.54-1.87-1.47-2.04-2.66-.13-.89-.68-.86-1.14-.67-.43,.17-.8,.49-1.31,.38l.06,.05c.01-.37-.14-.94,.39-.93,.9,.01,1.64-.36,2.4-.73-.45-.64-.76-.81-1.66-.33-1.04,.56-1.67,1.39-2.47,2.12-.34,.31-.74,.55-1.11,.83-.05-.12-.07-.3-.16-.35-.15-.08-.26,.05-.17,.16,.07,.09,.24,.1,.37,.14,.05,.14,.05,.32,.15,.41,.24,.24,.43,.52,.25,.82-.18,.3-.5,.31-.8,.07-.63-.5-.95,.23-.99,.47-.13,.68-.05,1.4-.05,2.1-.67,.07-.45,.58-.48,.97-.54,.08-.9,.48-.93,.93-.05,1.04-.77,1.47-1.45,1.97-1.73-1.41-1.83-1.48-.7-2.93,1.31-1.68,1.65-3.92,3.32-5.37,.48-.42,.15-1.04,.11-1.58-.02-.19-.18-.23-.37-.2-.27,.03-.54,.18-.44,.42,.4,.92,.23,1.43-.87,1.45-.65,.01-.88,.49-1.11,1.05-.74,1.81-1.29,2.28-2.67,3.38-.6,.48-.81-.18-1.21-.09,.21-1.05-.57-1.86-.75-2.81-.25,1.06-.21,2.05,.79,2.77,.66,2.36,2.17,4.05,4.33,4.85l-.06-.06c1.89,1.92,4.34,1.83,6.55,1.25,4.23-1.1,6.93-4.08,8.23-8.2,.36-1.15,.32-2.44,.58-3.66,.21-1.02-.45-1.92-.75-2.86-.05-.16-.38-.48-.5-.25-.43,.87-1.59,.52-2.04,1.29-.38,.03-.89-.18-.97,.48Zm103.34-11.52c-.61,.05-.45,.52-.46,.88,0,.14,.09,.29,.14,.43,.18-.12,.39-.22,.54-.38,.41-.44-.36-.6-.26-.98,.13-.05,.3-.06,.37-.16,.09-.13-.03-.25-.16-.16-.09,.06-.11,.24-.16,.37Zm-112.52,10.57c.12-.76-.17-1.11-.96-.96,0-.18,0-.35,0-.53,.13-.05,.3-.06,.36-.15,.09-.12-.03-.24-.16-.16-.09,.06-.11,.24-.15,.36-.51-.13-.88-.66-1.49-.48-.02-.19-.03-.42-.3-.35-.07,.02-.09,.22-.14,.34-.18-.25-1.23,.44-.65-.62,.27-.48-.06-.6-.41-.86-1.16-.87-1.1-.88-.17-1.95,.58-.67,1.53-1.1,1.75-2.45-4.34,3.34-5.51,7.6-5.17,12.48,.36-.63,.28-1.45,1.45-1.47,.8-.01,.72-1.36,1.75-1.51-.55-.3-.88-.53-1.24-.67-1.29-.51-1.44-.74-1-1.93,.13-.36,.37-.67,.56-1,1.69,.41,3.29,1.12,5.05,.9,.09,.55,.43,.86,.96,.96,.68,.96,.99,.96,2.35,0,.34,0,.67,0,1.01,0-.01,.31-.08,.64,.19,.91,.75-.53,1.32-1.2,2.34-1.5,1.23-.36,2.37-1.16,3.65-1.55,.25-.08,.54-.36,.5-.74,.71-.04,1.37,.1,1.97,.47,0,.15-.01,.31,0,.45,.02,.18-.03,.47,.3,.34,.08-.03,.13-.27,.11-.39-.04-.25-.23-.35-.48-.35,.05-.4-.27-.84-.23-1.06,.18-.84-1.59-.64-.81-1.66-1.08-.25-1.39,.58-1.8,1.27-.32,0-.5,.14-.48,.48-1.36,.31-2.58,.85-3.6,1.85-.55,.53-.96,1.24-1.73,1.51-.04-.28-.09-.56-.13-.84-.22,.15-.45,.28-.64,.45-.09,.08-.1,.25-.14,.38-.59-.26-1.14-.81-1.79-.06-.11,.12-.44,.05-.66,.07Zm125.93-14.41c-.05-.13-.06-.3-.15-.37-.12-.09-.24,.03-.16,.16,.06,.09,.24,.11,.37,.16,.09,.62-.2,1.06-.67,1.4-.94,.69-1.95,1.4-3.09,1.46-.83,.04-1.03,.45-1.33,1-.14,.26-.37,.52-.73,.52-.05-.13-.07-.31-.17-.38-.13-.09-.25,.04-.16,.17,.07,.09,.25,.1,.38,.15,0,.24-.06,.52,.04,.7,.23,.43,.36-.03,.49-.12,1.54-1.02,3.35-1.16,5.09-1.51,.41-.08,1.05-.18,1.06,.55,0,.49,.33,1.14-.5,1.38-1.45,.43-2.77,1.54-4.45,.64-.32-.17-.56,.3-.76,.8,1.82-.2,3.43,.76,5.2,.49,.4-.06,.59,.34,.48,.63-.43,1.15-.91,2.28-1.43,3.39-.06,.14-.41,.24-.61,.21-.24-.03-.34-.27-.33-.54,0-.24,0-.48-.01-.72-.03-.77-.36-.4-.69-.2-.12,.08-.33,.11-.45,.06-.64-.28-1.02-1.17-.9-2.1,.05-.37,.3-.9-.44-.47-.45,.26-.93,.12-1.39,.21-.05-.45,.2-.94-.2-1.4-.14,.28-.27,.53-.39,.78-.21,.44-.21,.44,.65,.56,.62,1.59,1.87,2.84,2.41,4.49,.12,.36,.45,.62,.46,1.06,.02,.58-.31,.91-.73,1.12-.49,.24-.55-.22-.79-.53-.87-1.11-1.92-2.07-1.93-3.65,0-.69-.82-.56-1.19-.91-.13,.28-.23,.59-.41,.82-.31,.39,.04,.56,.23,.73,1.47,1.38,1.56,3.1,1.4,5.04-.76,0-1.4,.09-2-.02-1.08-.19-1.72-1.09-1.24-2.02,.57-1.09,.3-2.16,.38-3.24,.82-.35,.82-1.06,.94-1.86-.98,.48-.99,1.17-.89,1.91-.93,.53-.85,1.78-1.7,2.39-.38,.27-.67,.72-1.2,.26-.48-.42-.56-.75-.16-1.39,.93-1.5,2.22-2.83,2.53-4.67,.15,0,.3,.02,.45,0,.18-.03,.47,0,.34-.32-.03-.08-.26-.13-.38-.11-.24,.04-.35,.23-.35,.47-.74,.26-1.56,.49-1.88,1.26-.47,1.12-1.31,1.65-2.38,1.77-.09,.5,.25,.72,.28,1,.26,1.99,1.65,3.25,3.08,4.31,1.39,1.03,3.14,1.57,4.9,1.13,2.28-.57,4.07-1.9,5.23-4.04,2.82-5.19,1.94-8.01,.24-12.45-.04-.1-.26-.12-.39-.18Zm-184.87,6.08c-.1-.37-.22-.81-.45-1.69-.25,1.8-.63,3.18-.56,4.53,.04,.74,.38,1.62,.21,2.28-.24,.91,.08,1.13,.77,1.22,1.7,.21,3.39,.38,5.02,.94,.42,.14,1.06-.39,.92-.76-.68-1.78-.12-3.62-.31-5.43-.04-.39,.04-.82-.1-1.17-.14-.35-.51-.33-.75-.03-.14,.17-.18,.42-.39,.94-.18-1.44-1.19-1.45-1.99-1.86-1.4-.72-1.47,.91-2.37,1.03Zm42.52,14.21c-1.12-.27-2.05-.31-2.88,.6-.33,.37-.94,.59-1.45,.66-.85,.11-1.82-.15-2.33,.8-.51,.95-1.92,.34-2.34,1.53h9v-3.59Zm-8.24-.67c1.64,.07,3.04,.04,4.44,.04,1.04,0,2.08,0,3.12,0,.32,0,.67,.03,.71-.41,.05-.62-.42-.55-.8-.55-.48-.01-1.01-.14-1.43,.02-1.83,.7-3.74,.3-5.6,.53-.07,0-.12,.1-.44,.37Zm24.88-11.88c.64-.69,1.16-1.19,1.6-1.75,.18-.24,.11-.79-.29-.66-1.12,.36-2.54-.08-3.4,1.2q1.74-.24,2.1,1.21Zm123.34-10.6c-.72,.25-.98-.64-1.75-.45-.28,.7-.16,1.45-.13,2.21,.98-.2,1.42-.85,1.88-1.76Zm-49.36-11.05c-1.07,0-1.85-.02-2.63,.01-.23,.01-.41,.21-.36,.5,.05,.27,.21,.37,.47,.41,.89,.14,1.57-.26,2.51-.92Zm45.31,11.92c.18-.62,.35-1.22,.61-2.08-.76,.41-1.24,.67-1.84,1,.76,.12,.88,.69,1.23,1.09Zm-122.21,18.75c.36,0,.79,.13,.94-.02,.52-.52,.38-1.15,.01-1.81,.2,.89-.92,1-.96,1.84Zm-11.78-6.01c-.13-.06-.27-.19-.39-.17-.67,.11-.45,.9-.88,1.2,.13,.06,.27,.18,.39,.17,.7-.08,.48-.87,.88-1.2Zm19.79-5.01c-.08,0-.39,.09-.33,.26,.09,.26,.38,.44,.58,.66,.21-.21,.58-.43,.58-.64,0-.35-.42-.23-.83-.27Zm-3.81,6.02c.64,.26,1.21,.4,1.94-.04-.75-.28-1.32-.22-1.94,.04Zm117.29-6.44c0,.42-.02,.72,.01,1.02,0,.08,.24,.21,.27,.19,.31-.24,.08-.58,.12-.88,0-.06-.17-.14-.4-.33Zm-98.78,1.48c-.08,.1-.24,.21-.23,.3,0,.29,.06,.58,.14,.86,.03,.12,.23,.07,.26-.12,.04-.28,0-.58-.03-.87,0-.06-.09-.11-.14-.17Zm-18.06,9.92c-.07-.12-.15-.23-.22-.35-.07,.12-.19,.23-.21,.35-.03,.19-.01,.43,.28,.36,.08-.02,.1-.24,.15-.37Zm.74-.79c-.08,.11-.21,.22-.23,.35-.02,.12,.05,.34,.13,.37,.3,.11,.32-.13,.29-.33-.02-.13-.12-.26-.18-.38Zm103.32-6.25c-.08,.11-.2,.22-.21,.34-.01,.12,.06,.35,.13,.37,.29,.06,.29-.18,.26-.37-.02-.12-.12-.23-.18-.34Zm-96.03-1.8c-.15-.06-.28-.16-.42-.16-.09,0-.17,.16-.26,.24,.14,.05,.27,.15,.41,.15,.09,0,.17-.14,.26-.23Zm-5.65-2.06c-.04-.13-.07-.35-.13-.36-.26-.05-.35,.12-.28,.35,.04,.13,.13,.24,.2,.36,.07-.12,.14-.23,.21-.35Zm111.96-.96c-.04-.13-.06-.36-.13-.37-.28-.06-.28,.18-.27,.36,.01,.12,.11,.24,.17,.36,.07-.12,.15-.23,.22-.35Zm3.78-2.76c-.18-.25-.39-.16-.6-.09-.24,.08-.24,.19,0,.27,.14,.05,.29,.1,.42,.08,.08-.01,.12-.18,.18-.27Zm13.94-2.41s-.1-.08-.14-.07c-.06,.02-.16,.11-.15,.13,.08,.18,.18,.21,.27,.09,.02-.03,0-.1,.01-.15Zm-21.15,2.4s-.1-.08-.12-.07c-.06,.03-.15,.1-.14,.13,.06,.18,.16,.21,.24,.09,.02-.04,0-.1,.01-.15Zm4.62-.03s-.08,.1-.06,.13c.02,.06,.11,.15,.13,.14,.18-.08,.21-.18,.09-.27-.03-.02-.1,0-.15,0Zm1.18,2c-.05-.05-.09-.11-.14-.16l-.15,.15c.07,.05,.15,.11,.22,.16,.03-.05,.05-.1,.08-.15Zm-110.11,2.83s-.1-.07-.13-.06c-.06,.02-.1,.08-.15,.12,.09,.03,.19,.05,.28,.08v-.14Zm83.19,.53s-.09-.14-.14-.14-.1,.08-.15,.12c.07,.05,.14,.1,.21,.15,.02-.04,.05-.09,.07-.13Zm-107.22,5.23s-.1-.08-.13-.06c-.06,.02-.16,.11-.15,.13,.08,.18,.19,.21,.28,.09,.02-.03,0-.1,0-.15Zm-15.94,2.12c.05-.04,.1-.08,.15-.12-.05-.05-.09-.09-.14-.14-.05,.06-.11,.13-.16,.19,.05,.02,.1,.05,.14,.07Zm6.16,4.56s-.08,.1-.07,.13c.02,.06,.1,.15,.12,.14,.17-.07,.21-.18,.09-.26-.03-.02-.09-.01-.14-.01Z"/><path d="M125.37,70.47c-1.43,.21-2.67,.35-3.6-.89-.58-.78-1.56-.54-2.24-.36-1.33,.36-2.65,.35-3.99,.44-.35,.02-.69,.2-1.02,.3-.29-.52,.09-.78,.34-1.06,1.91-2.12,3.61-4.39,5.34-6.65,.87-1.13,1.85-2.18,2.77-3.26,2.44-2.84,4.82-5.75,7.66-8.21,3.48-3.02,7.4-5.26,12-6.13,2.55-.49,5.12-.77,7.71-1.03,8.93-.9,17.88-.3,26.81-.36,3-.02,6.02,.3,9.02,.53,3.05,.23,6.11,.54,9.16,.89,2.25,.25,4.53,.52,6.72,1.05,2.06,.5,3.89,1.62,5.55,2.97,1.54,1.24,2.89,2.65,4.17,4.15,1.57,1.86,1.85,4.3,.74,6.47-.19,.38-.31,.71-.79,.72-1.58,.02-3.09,.6-4.7,.47-3.34-.27-6.64,.46-9.97,.59-1.95,.08-3.94,.19-5.9,.39-4.01,.41-8.02,.73-12.03,1.02-3.13,.22-6.27,.59-9.38,.97-3.42,.41-6.9,.37-10.25,1.29-.3,.08-.64,.02-.96,.02-2.92,0-5.81,.32-8.67,.94-.46,.1-.96,.03-1.44,.04-2.37,.03-4.67,.49-6.99,.89-1.54,.27-3.13,.26-4.7,.46-2.18,.29-4.36,.46-6.5,.98-.83,.2-1.75,.05-2.64,.06q-2.01,.03-2.24,2.29Zm66.38-21.47c-.05-.13-.05-.3-.14-.37-.12-.1-.25,.01-.17,.15,.05,.09,.24,.11,.36,.17,0,.32,.14,.49,.48,.48,.02,.39-.16,.88,.48,.96,0,.31,.15,.5,.48,.49,.03,.38-.16,.88,.48,.95,.05,.13,.07,.31,.17,.37,.13,.08,.25-.05,.15-.17-.07-.09-.25-.1-.38-.15-.01-.39,.23-.91-.48-.96,.01-.34-.14-.5-.49-.48-.01-.39,.22-.91-.47-.96,.01-.33-.14-.5-.48-.48Zm-59.55,5.28c-.32,0-.48,.16-.48,.48-.32,0-.48,.16-.48,.48-.32,0-.49,.15-.48,.48-.33,0-.47,.17-.48,.48q-.43,.56-.19,1.28c.3-.42,.14-.88,.14-1.33,.34,.02,.51-.13,.48-.48,.34,.01,.51-.14,.48-.48,.34,.02,.51-.13,.48-.48,.34,.02,.51-.13,.48-.48,.13-.04,.3-.05,.37-.14,.1-.12-.01-.25-.15-.17-.09,.05-.11,.24-.17,.36Zm35.52-4.32c0-.33-.17-.48-.49-.48-.07-.65-.57-.46-.96-.48-.24-.9-.95-.34-1.44-.48-.67-.86-1.46-.47-2.24-.05h2.29c.22,.95,.95,.36,1.44,.48,.05,.7,.57,.47,.97,.48-.02,.34,.14,.5,.48,.49-.02,.34,.15,.49,.48,.48-.02,.34,.15,.49,.48,.48,.04,.13,.05,.3,.14,.37,.11,.09,.24-.02,.17-.15-.05-.09-.23-.11-.36-.16,0-.31-.15-.49-.48-.48,0-.32-.15-.49-.48-.48Zm-33.65,2.83c.34,.02,.5-.14,.48-.48,.13-.04,.3-.05,.37-.14,.09-.11-.02-.24-.15-.17-.09,.05-.11,.24-.17,.36-.31,0-.49,.15-.48,.48-.13,.05-.31,.07-.37,.17-.09,.13,.04,.25,.17,.16,.09-.07,.1-.25,.15-.37Zm71.18-.48c0,.33,.15,.5,.48,.48-.07,.36-.29,.48-.65,.51-.71,.06-1.47-.23-2.61,.44h4.22c.05,.12,.06,.29,.15,.35,.13,.09,.24-.03,.16-.15-.07-.09-.24-.1-.36-.15-.09-.55-.41-.86-.96-.96,0-.33-.15-.5-.48-.48,.01-.33-.15-.49-.48-.48,.02-.33-.15-.49-.48-.48,0-.33-.16-.48-.48-.48-.05-.12-.07-.31-.17-.36-.14-.08-.25,.05-.16,.17,.07,.09,.25,.1,.37,.14-.02,.34,.14,.5,.48,.48-.02,.34,.14,.49,.48,.48,0,.33,.14,.5,.48,.48Zm-10.57,.96c.05,.13,.07,.31,.17,.38,.13,.09,.25-.04,.16-.17-.07-.09-.25-.1-.38-.15-.04-.13-.05-.29-.14-.37-.11-.1-.24,.02-.17,.15,.05,.09,.23,.11,.36,.16Zm-46.62-.96c0,.32,.14,.5,.48,.49,0,.15-.02,.3,0,.44,.02,.18-.01,.45,.3,.34,.08-.03,.12-.26,.11-.39-.03-.24-.21-.36-.45-.35,.01-.33-.14-.5-.49-.48,.02-.34-.14-.5-.48-.48-.05-.13-.06-.3-.15-.37-.12-.09-.25,.03-.17,.16,.06,.09,.24,.11,.37,.16,0,.32,.15,.49,.48,.48Zm-8.17-.42c-.34-.02-.5,.14-.48,.48-.71,.04-.46,.57-.48,.96-.13,.06-.38,.1-.39,.17-.15,1.5-.26,3,.34,4.48v-4.69c.66-.07,.44-.58,.48-.96,.32,0,.48-.16,.48-.48,.31-.01,.5-.14,.49-.48,.15,0,.31,.02,.46,0,.19-.02,.48,.01,.34-.32-.04-.08-.27-.14-.4-.12-.25,.04-.35,.23-.35,.48-.34-.01-.5,.14-.48,.49Zm-3.9-.54c.15,0,.3,.02,.45,.02,.2,0,.45,0,.36-.31-.02-.08-.26-.13-.39-.12-.25,.02-.37,.2-.37,.46-.13,.05-.31,.07-.38,.17-.09,.13,.04,.25,.17,.16,.09-.07,.11-.25,.15-.37Zm49.03,1.02c-.05-.13-.07-.3-.16-.37-.11-.09-.23,.03-.15,.17,.06,.09,.23,.1,.36,.15,.01,.39-.23,.91,.47,.96,.05,.12,.06,.29,.15,.35,.14,.08,.25-.03,.16-.15-.07-.09-.23-.1-.36-.15-.02-.39,.16-.88-.48-.96Zm17.35-2.46c.05,.13,.06,.31,.15,.37,.13,.09,.26-.03,.17-.15-.07-.1-.25-.11-.38-.17-.07-.66-.58-.44-.96-.48-.68-.84-1.45-.5-2.24-.06h2.29c.05,.7,.57,.47,.96,.48Zm-62.53,0c.15,0,.3,.02,.45,.02,.2,0,.45,0,.36-.3-.02-.08-.26-.13-.39-.12-.25,.03-.37,.2-.37,.46-.15,0-.31-.02-.46,0-.19,.02-.48-.02-.34,.32,.04,.08,.27,.14,.4,.12,.25-.04,.36-.23,.35-.49Zm6.3,.53c-.51,.06-.6,.36-.35,.74,.08,.11,.43,.17,.57,.09,.34-.19-.05-.32-.11-.48-.05-.14-.11-.26-.17-.4,.25,0,.45-.1,.49-.35,.02-.13-.03-.36-.12-.4-.34-.14-.29,.16-.31,.34-.02,.15,0,.31,0,.46Zm49.46,4.32c-.05-.13-.06-.3-.15-.37-.12-.1-.25,.02-.17,.16,.05,.09,.24,.11,.36,.16-.11,1.21,.59,1.02,1.48,.78-.59-.28-1.06-.5-1.52-.73Zm-34.61-4.32c0-.31,.03-.62,.03-.92,0-.2,0-.45-.31-.37-.08,.02-.14,.26-.14,.4,0,.36-.1,.8,.48,.84,.02,.71,.03,1.43,.07,2.14,0,.08,.23,.2,.37,.21,.14,.01,.29-.09,.43-.14-.94-.45,.2-1.79-.92-2.17Zm-17.25-1.44c-.78,0-1.57-.12-2.36,.16,.5,.62,1.2,.1,1.76,.43,1.02,.6,.35-.44,.55-.64,.12-.05,.3-.06,.36-.15,.09-.12-.03-.25-.16-.16-.09,.06-.1,.24-.15,.36Zm24.51,3.79c.05,.58,.49,.5,.85,.47,.31-.02,.74,.23,.92-.3-.6-.31-1.22-.09-1.82-.12-.05-.13-.1-.38-.17-.39-1.66-.18-3.32-.22-4.97,.34h5.18Zm-45.66,12.43c.4,.05,.55,.09,.71,.09,2.86,0,5.73,0,8.59,0,.48,0,.96,.02,1.43,0,.62-.03,.99-.61,.72-1.13-.11-.21-.28-.38-.43-.57-1.87-2.31-4.14-2.87-7.54-1.99-1.05,.28-2.14,.64-2.41,1.91-.14,.68-.75,.99-1.07,1.68Zm25.83-17.16c-.59,0-.99-.03-1.38,0-.24,.02-.45,.18-.39,.47,.12,.64,.39,.15,.6,.07,.47-.19,.72-.06,.79,.47,.07,.57-.18,1.2,.38,1.95v-2.97Zm-12.6,11.39q-2.14-.49-3.59,0h3.59Zm57.11-11.36c1.46,.46,1.46,.44,2.66,0h-2.66Zm-53.71,10.84c-.73-.22-1.47-.57-2.43,0h2.43Zm41.32-11.27c-.09,.1-.25,.18-.25,.28-.02,.45,.35,.66,.65,.9,0,0,.21-.17,.22-.26,.04-.46-.31-.68-.62-.92Zm16.04,1.08c.66,.32,1.23,.37,1.96-.02-.74-.27-1.31-.32-1.96,.02Zm-68.18,10.55c.44,.34,.87,.33,1.31,0-.44-.38-.87-.3-1.31,0Zm72.59-5.78c.1,.08,.21,.24,.31,.23,.29,0,.61,.15,.86-.12,.03-.04,.07-.12,.05-.14-.32-.3-.68-.21-1.04-.12-.07,.02-.12,.09-.17,.14Zm-1.11,.28c-.12,.07-.24,.14-.36,.22,.12,.07,.23,.18,.36,.2,.19,.03,.43,.02,.37-.27-.02-.07-.24-.1-.37-.15Zm-61.53-3.11c-.12-.08-.22-.21-.35-.22-.12-.01-.36,.06-.38,.14-.07,.29,.16,.31,.36,.28,.13-.02,.24-.13,.36-.19Zm52.63-3s-.08,.1-.06,.13c.02,.06,.11,.15,.12,.14,.17-.08,.2-.18,.09-.26-.03-.02-.1,0-.15-.01Zm-21.64,4.3s-.07,.11-.06,.14c.02,.06,.11,.16,.12,.15,.17-.08,.2-.19,.08-.29-.03-.02-.09,0-.14,0Zm-9.01-4.06c.05-.05,.1-.09,.15-.14-.05-.05-.09-.1-.14-.14-.05,.07-.1,.14-.14,.22,.04,.02,.09,.04,.13,.06Zm-17.43,2.62s-.07,.11-.06,.14c.02,.06,.11,.16,.12,.15,.17-.08,.2-.19,.08-.29-.03-.02-.09,0-.14,0Zm-12.75,7.77c-.05-.05-.09-.11-.14-.16-.05,.05-.1,.1-.15,.15,.07,.05,.14,.1,.22,.15l.07-.15Zm67.77-3.36c-.05-.05-.09-.1-.14-.15-.05,.05-.1,.1-.15,.14,.07,.05,.14,.1,.22,.15,.02-.05,.05-.09,.07-.14Zm.96-.48c-.05-.05-.09-.1-.14-.15-.05,.05-.1,.09-.15,.14,.07,.05,.14,.1,.21,.15,.02-.05,.05-.09,.07-.14Z"/><path d="M126.39,51.36c-.05,.14-.07,.32-.16,.42-2.61,2.79-5.24,5.57-7.84,8.37-.7,.75-1.31,1.57-1.96,2.37-1.48,1.83-3.64,2.73-5.49,4.04-.37,.26-.8,.27-1.15,.13-1.77-.7-3.62-.33-5.42-.39-2.08-.07-4.17-.11-6.24-.03-1.52,.06-2.92-.6-4.46-.52-1.39,.07-2.86,.35-4.21-.39-.12-.07-.32-.03-.48-.02-3.18,.17-6.3-.67-9.49-.58-1.87,.05-3.74-.56-5.65-.45-.09,0-.24-.2-.28-.33-.03-.13,0-.32,.09-.42,.09-.11,.27-.14,.42-.19,2.66-.91,4.73-2.77,6.94-4.39,4.7-3.45,9.34-7.03,14.44-9.85,4.11-2.28,8.06-4.87,12.31-6.91,2.56-1.23,5.27-1.88,8.05-2.44,3.76-.75,7.56-.6,11.32-1,5.51-.57,11.01-.47,16.48-.22,4.3,.19,8.6,.53,12.87,.22,3.66-.27,7.32-.52,10.95-.25,4.62,.34,9.24,.06,13.83,.45,4.07,.34,8.17,.53,12.18,1.39,2.59,.55,5.14,1.32,7.57,2.4,.28,.12,.5,.36,.77,.56-.12,.15-.18,.32-.26,.34-.89,.17-1.61-.53-2.53-.47-.84,.05-1.73,.17-2.57-.29-.6-.33-1.36-.39-1.97-.71-1.14-.59-2.33-.81-3.6-.92-1.86-.16-3.69-.6-5.55-.8-1.17-.12-2.36-.02-3.63-.02,.33,.4,.57,.71,.95,1.18-1.37,.34-2.67,.17-3.94,.09-.35-.02-.44-.41-.25-.73,.16-.27,.41-.63-.13-.63-2.46,0-4.86-.79-7.33-.46-.07,0-.13,.09-.27,.19,.61,.32,1.18,.62,1.78,.94-.55,.48-1.19,.25-1.77,.25-5.36,.02-10.73,.12-16.09-.02-3.51-.1-6.94,.68-10.44,.58-1.06-.03-2.12,.49-3.24,.48-.5,0-1.13,.29-1.47,.66-.94,1.05-2.18,1.45-3.43,1.97-2.32,.96-4.6,2.06-6.4,3.92-.5,.52-1.14,.81-1.81,1.05l.05,.05c-.04-.2-.07-.44-.35-.36-.09,.03-.12,.24-.18,.36l.05-.05c-.32,.03-.5,.21-.53,.53l.05-.05c-.32,.03-.5,.21-.53,.53l.05-.05c-.18,.02-.35,.03-.53,.05,0-.45,.16-.93-.26-1.46-.17,.66-.54,1.2,.31,1.41-.01,.33,.19,.48,.48,.53l-.04-.04Zm-36.96,7.73c-.13,.05-.31,.07-.37,.16-.08,.12,.05,.25,.17,.16,.09-.06,.1-.24,.15-.37,.13-.05,.3-.06,.37-.14,.1-.12-.02-.24-.15-.16-.09,.05-.11,.24-.16,.36Zm14.37-7.2c0-.32-.16-.49-.48-.49,0-.15,0-.3,0-.45-.01-.2,0-.47-.32-.32-.08,.04-.14,.26-.12,.39,.04,.25,.24,.34,.48,.34-.02,.34,.14,.51,.48,.48-.02,.34,.14,.5,.48,.48,.3,.86,.81,.49,1.31,.05h-1.36c0-.32-.16-.48-.48-.48Zm-3.85,.42c.39-.01,.91,.22,.97-.48,.39-.02,.91,.22,.96-.48,.13-.05,.3-.06,.37-.14,.1-.12-.02-.24-.16-.17-.09,.05-.11,.23-.16,.36-.38,.03-.89-.19-.96,.48-.38,.03-.89-.18-.96,.48-.13,.05-.31,.07-.38,.17-.09,.13,.04,.25,.17,.16,.09-.07,.1-.25,.15-.37Zm3.85,10.56c.38-.03,.9,.19,.96-.48,.15,0,.31,.02,.46,0,.18-.02,.48,.02,.34-.32-.04-.08-.27-.13-.4-.12-.25,.04-.35,.24-.35,.48-.39,.02-.91-.22-.96,.48-.13,.05-.3,.06-.37,.15-.1,.12,.02,.25,.16,.17,.09-.05,.11-.24,.16-.36Zm-15.86-2.4c.24,0,.44-.09,.49-.33,.02-.12-.02-.35-.11-.39-.33-.16-.3,.13-.32,.32-.02,.15,0,.3,0,.45-.25,.01-.43,.13-.45,.38-.01,.13,.05,.37,.12,.39,.3,.08,.29-.17,.29-.37,0-.15-.01-.3-.02-.45Zm27.4-8.64c.66-.07,.45-.57,.48-.96,.12-.05,.3-.07,.36-.16,.08-.14-.05-.25-.16-.16-.09,.07-.1,.24-.15,.37-.7,.05-.46,.57-.48,.96-.7,.05-.47,.57-.48,.96-.7,.05-.47,.56-.48,.96-.13,.05-.31,.06-.37,.15-.09,.13,.03,.26,.16,.17,.1-.07,.11-.25,.17-.38,.66-.07,.45-.57,.48-.95,.67-.07,.45-.58,.48-.96Zm-2.89,5.76c.25,0,.43-.13,.46-.37,.01-.13-.04-.37-.12-.39-.3-.09-.29,.17-.3,.36,0,.15,.01,.3,.02,.45-.13,.05-.31,.06-.37,.15-.09,.13,.03,.26,.15,.17,.1-.07,.11-.25,.17-.38Zm.96-1.92c.25,0,.43-.12,.46-.37,.01-.13-.04-.36-.12-.39-.31-.09-.3,.16-.3,.36,0,.15,.01,.3,.02,.45-.13,.05-.31,.06-.38,.15-.09,.13,.03,.26,.15,.17,.1-.07,.11-.25,.17-.38Zm-3.36,4.8c1.31,.15,1.59,.02,1.44-1.44,.13-.05,.31-.07,.36-.16,.08-.14-.04-.26-.16-.17-.09,.07-.1,.24-.15,.37-.59,.37-1.08,.84-1.44,1.44-.31,0-.62-.03-.92-.02-.2,0-.45,0-.36,.31,.02,.08,.26,.14,.39,.14,.36,0,.8,.09,.84-.48Zm2.4-10.99c-.47-1.02-1.13-.33-2.12-.36,.96,.48,1.58,.25,2.17,.3,1,.99,2.11,.39,3.2,.06h-3.25Zm28.24-9.14c0-.16-.02-.32-.03-.48-.3,0-.61,0-.91,0-5.65,.14-11.28-.27-16.94,.35-3.6,.39-7.19,.62-10.72,1.51-1.02,.26-2.12,.55-2.77,1.18-1.14,1.11-2.54,1.48-3.92,2.06,2.1,.12,4.17,.12,6.23,.12,2.24,0,4.48,.08,6.72,.03,2.3-.04,4.55,.48,6.85,.59,1.54,.07,3.2,.06,4.66,.51,1.02,.32,1.43,.08,2-.52,.8-.83,1.56-1.71,2.95-2.52-1.14,0-1.95,.14-2.7-.03-2.38-.52-4.76-.88-7.2-.89-2.24,0-4.48,0-6.72-.01-.44,0-.94,.19-1.43-.41,2.1,.12,4.01-.4,5.95-.67,1.98-.27,3.96-.1,5.9-.42,2.04-.33,4.08-.4,6.13-.41,1.98,0,3.97,0,5.95,0Zm-43.21,22.89c-2.58-.49-6.47-.43-7.93,0h7.93Zm12.78-9.38c1.47,.46,1.47,.45,2.62,0h-2.62Zm3.42-3.5c-.23,1.33-.21,1.33,.18,2.57,.03-1.01,.21-1.73-.18-2.57Zm-6.42,2.21c.11,.08,.22,.23,.33,.23,.29,0,.61,.17,.85-.12,.03-.04,.06-.13,.05-.14-.32-.3-.69-.19-1.04-.11-.07,.02-.12,.09-.18,.14Zm-5.47,11.04c-.21-.3-.52-.24-.81-.22-.13,0-.36,.11-.36,.17-.01,.26,.2,.29,.42,.28,.28,0,.58,.05,.76-.24Zm6.27-2.38c-.11-.08-.22-.2-.35-.22-.12-.01-.35,.06-.37,.14-.07,.29,.17,.31,.36,.27,.12-.02,.23-.12,.35-.19Zm-1.45-9.14c-.05-.05-.09-.14-.14-.14-.05,0-.1,.08-.16,.12,.07,.05,.15,.1,.22,.15,.03-.05,.05-.09,.08-.14Zm2.88,1.44c-.05-.05-.09-.14-.14-.14-.05,0-.1,.08-.16,.13,.07,.05,.15,.1,.22,.15,.03-.05,.05-.09,.08-.14Zm-22.32,9.01s-.08,.11-.07,.14c.02,.06,.11,.16,.13,.15,.18-.08,.21-.18,.09-.28-.03-.03-.1-.01-.15-.01Zm19.43-.87c-.05-.05-.09-.1-.14-.15-.05,.05-.1,.09-.15,.14,.07,.05,.15,.1,.22,.15l.07-.14Zm9.96-11.82c.05-.05,.14-.09,.14-.14,0-.05-.08-.1-.12-.15-.05,.07-.1,.14-.15,.21,.05,.03,.09,.05,.14,.08Z"/><path d="M38.91,88.86c.08-.02,.22-.03,.22-.07,.34-1.83,1.35-3.25,2.65-4.49-.32-.54-.95-.08-1.29-.48,.1-.09,.19-.24,.29-.25,1.6-.02,3.2-.08,4.79-.01,1.91,.08,3.72-.34,5.53-.82,3.02-.8,7.88-.64,11.23-.25,2.1,.24,4.18,.65,6.56,.67-.96,.79-1.37,1.86-2.59,1.86,.3-.43,.6-.86,.91-1.3-5.92-1.13-11.78-1.84-17.83,.16,1.1,.21,2.03,.29,2.93-.05,1.48-.56,2.99-.15,4.49-.25,.22-.01,.41,.19,.37,.49-.04,.28-.2,.41-.46,.41-.4,0-.8-.02-1.2,0-.7,.05-1.58-.27-2.03,.31-.34,.44-.17,1.17,.17,1.79,.2,.37-.43,.22-.6,.44-.17,.21-.18,.44-.06,.64,.07,.11,.26,.19,.4,.2,.23,.02,.6,.05,.68-.07,.77-1.2,1.77-.47,2.69-.38l-.05-.04c.28,1.47-1.42,1.29-1.82,2.19,.12,.07,.24,.21,.37,.21,.56,0,1.2,.15,1.65-.08,.5-.25,1.19-.3,1.41-1.1,.21-.75,.77,.37,1.32-.09,1.19-1,2.17-1.35,3.59-1.57,.43-.07,.75-.25,1.01-.55,.58-.67,1.35-1.06,2.14-1.42-.03,.24,0,.64-.11,.68-1.27,.54-2.09,1.66-3.13,2.47-2.21,1.72-4.64,2.34-7.35,2.72-5.48,.77-10.96,.21-16.44,.39-.07,0-.13-.06-.33-.17-.21-.69-.05-1.48-.05-2.25l-.05,.05Zm13.11-1.71c-1.31-1.05-2.86-.72-4.21-1.09-.21-.06-.23,.54-.16,.57,.61,.23,.82,.93,1.31,1.17,.43,.21,1.05,.16,1.58-.17,.37-.24,.86-.29,1.48-.48Zm-.66-2.39c-.12-.08-.23-.21-.35-.23-.12-.02-.36,.06-.38,.14-.07,.3,.16,.32,.37,.29,.13-.02,.24-.13,.36-.2Z"/><path d="M27.86,82.61c.71-.69,1.45-.02,2.16-.03,2.92-.02,5.79,.79,8.8,.62-1.48,.04-2.01,1.02-2.45,2.14-.37,.94-.92,1.81-1.2,2.78-.27,.95-1.02,1.47-1.56,2.17l.05-.05c-1.28,.01-2.56,.04-3.83,.04-.54,0-1.05-.06-1.6-.28-1.53-.61-1.46-.78-1.44-2.43,.02-1.79,1.15-3.26,1.11-5.01l-.04,.04Z"/><path d="M224.96,72.96c-.75,.5-1.62,.87-2.38,.25-.6-.5-.99,.35-1.44,.03-.76-.54-1.21-1.21-1.02-2.22,.37-1.98,.55-4,1.1-5.92,.33-1.18,.74-2.34,1.01-3.63,1.18,1.14,1.99,2.29,2.35,3.96,.48,2.23,1.17,4.35,.38,6.63-.1,.29-.03,.63-.04,.95l.05-.05Z"/><path d="M24.06,89.76c-.64-.01-.8-.74-1.35-.89-1.51-.44-1.61-1.97-1.41-2.86,.24-1.04,.06-2.18,.63-3.2,.24-.44,.69-1.43-.49-1.71-.22-.05-.23-.2-.1-.31,.15-.13,2.02-.47,2.12-.38-.6,.64,.05,.63,.4,.87,.43,.31,.89,.28,1.36,.33,.83,.08,1.71,.43,2.64,.99l.04-.04c-1.02-.04-1.64,.17-2.02,1.39-.51,1.6-1.14,3.16-1.39,4.84-.05,.36-.32,.68-.49,1.02,0,0,.06-.05,.06-.05Z"/><path d="M18.28,97.93c-1.11-.41-1.49-1.21-1.48-2.38,.01-1.08,.09-2.15-.34-3.26-.36-.91-.12-2.02,.59-2.88,.17,.89,.69,.68,1.24,.4l-.04-.04c-.51,1.79-.69,3.55-.06,5.4,.29,.84,.06,1.87,.06,2.81l.04-.04Z"/><path d="M190.21,67.51c-1.52,.21-3.07,.04-4.69,.96,.57-1.72,1.72-1.62,2.73-1.9,.95-.26,1.36,.38,1.95,.94Z"/><path d="M214.39,76.37c.67-.86,1.64-1.3,2.55-1.81,.52-.29,.55-.25,1.72,.58-1.4,.69-2.73,1.36-4.31,1.18l.05,.05Z"/><path d="M154.62,71.35c-1.6,.07-3.03,.72-4.61,.98,.07-1.44,1.3-.97,2.01-1.38,1.08-.63,1.75,.28,2.6,.4Z"/><path d="M184.11,92.7c.3-1.19,.31-1.21,1.43-.98,.47,.1,1.33-.36,1.33,.42,0,.96-1.05,.24-1.44,.56-.55,.45-.93,.13-1.38-.06l.05,.05Z"/><path d="M19.73,103.21c-1.56-.54-.85-1.73-.8-2.73,.21,.94,.97,1.73,.75,2.78l.05-.05Z"/><path d="M214.35,76.32c-.68,.84-1.68,.74-2.89,1.15q1.35-1.08,2.93-1.1l-.05-.05Z"/><path d="M19.5,84.04c.08,.27,.2,.47,.18,.67-.04,.54,.17,1.12-.24,1.7-.08-.26-.19-.46-.18-.66,.03-.54-.15-1.12,.24-1.71Z"/><path d="M212.06,66.49c.06-.05,.11-.12,.18-.14,.36-.09,.72-.18,1.04,.11,.01,.01-.02,.1-.05,.14-.25,.27-.57,.12-.85,.12-.1,0-.21-.15-.32-.23Z"/><path d="M109.67,86.65c.06-.05,.11-.12,.18-.14,.36-.1,.73-.19,1.05,.11,.02,.02-.02,.11-.05,.14-.25,.28-.57,.13-.86,.13-.1,0-.21-.15-.32-.24Z"/><path d="M144.65,99.37c0,.25-.1,.44-.36,.48-.13,.02-.36-.04-.4-.12-.13-.32,.15-.3,.34-.31,.15-.01,.31,0,.46,0l-.05-.05Z"/><path d="M180.22,94.14c.15,0,.31-.02,.46,0,.2,.01,.48,0,.34,.32-.03,.08-.27,.14-.4,.12-.25-.04-.35-.24-.36-.48l-.05,.05Z"/><path d="M140.76,43.47c-.12,.06-.23,.16-.36,.18-.19,.03-.43,.03-.36-.26,.02-.07,.25-.14,.37-.13,.12,.01,.23,.14,.35,.21Z"/><path d="M33.62,90.29c.15,0,.31-.02,.46,0,.19,.02,.47,0,.34,.32-.03,.08-.27,.14-.4,.12-.25-.04-.35-.24-.36-.48l-.05,.05Z"/><path d="M77.89,84.97c-.15,0-.3,.01-.45,0-.18-.02-.46,.02-.34-.3,.03-.08,.26-.13,.39-.12,.25,.03,.36,.22,.36,.47l.04-.05Z"/><path d="M209.59,78.29c.05-.13,.06-.31,.15-.37,.13-.09,.26,.04,.17,.16-.07,.09-.25,.11-.37,.16l.05,.05Z"/><path d="M210.55,79.73c.05-.13,.06-.31,.16-.37,.13-.09,.25,.04,.16,.17-.07,.09-.24,.11-.37,.16,0,0,.05,.05,.05,.05Z"/><path d="M29.71,79.93s-.05,.09-.08,.14c-.07-.05-.15-.1-.22-.15,.05-.05,.11-.13,.16-.13,.05,0,.1,.09,.14,.14Z"/><path d="M211.51,80.69c.05-.13,.06-.31,.16-.37,.13-.09,.25,.04,.16,.17-.06,.09-.24,.11-.37,.16l.05,.05Z"/><path d="M20.1,83.32c-.05,.06-.11,.11-.16,.17-.05-.06-.14-.12-.14-.18,0-.06,.1-.11,.15-.17,.05,.06,.1,.12,.14,.18Z"/><path d="M224.92,73.01c.12,.05,.3,.07,.35,.16,.08,.14-.04,.25-.16,.16-.09-.07-.1-.24-.15-.37l-.05,.05Z"/><path d="M220.04,73.2s-.05,.09-.07,.14c-.07-.05-.14-.1-.21-.15,.05-.05,.1-.09,.15-.14,.04,.05,.09,.1,.13,.15Z"/><path d="M70.07,90s-.05,.09-.07,.14l-.21-.15s.1-.09,.15-.14c.04,.05,.09,.1,.13,.15Z"/><path d="M126.87,50.88c0,.33-.16,.48-.48,.48l.04,.04c0-.18,0-.35,0-.53l-.05,.05c.18,0,.35,0,.53,0l-.05-.04Z"/><path d="M18.24,97.97c.12,.05,.3,.07,.35,.16,.08,.14-.04,.26-.16,.17-.09-.07-.11-.24-.16-.37,0,0-.04,.04-.04,.04Z"/><path d="M127.35,50.4c0,.33-.17,.47-.48,.48l.05,.04c0-.18,0-.35,0-.53l-.05,.05c.18,0,.35,0,.53,0l-.05-.04Z"/><path d="M127.83,49.91c.02,.34-.16,.49-.48,.48l.05,.04c0-.18,0-.35,0-.53l-.05,.05c.18,0,.35,0,.53,0l-.05-.05Z"/><path d="M142.15,42.91s0,.09,0,.14c-.09-.03-.19-.05-.28-.08,.05-.04,.1-.1,.15-.12,.04-.01,.09,.04,.14,.06Z"/><path d="M19.68,103.26c.12,.05,.3,.07,.36,.16,.08,.14-.05,.25-.16,.16-.09-.07-.1-.24-.15-.37l-.05,.05Z"/><path d="M18.77,104.17c-.12-.05-.3-.07-.35-.16-.08-.14,.05-.25,.16-.16,.09,.07,.1,.24,.15,.37,0,0,.05-.05,.05-.05Z"/><path d="M80.77,111.42c-.02-.34-.03-.67-.05-1.01,.08,0,.16,0,.24,.02,.71,.1,1.24-.93,1.96-.41,.69,.5,1.36,1.07,1.7,1.92,.38,.92,.84,1.81,.91,2.83l.04-.04c-1.85,.83-3.71,1.43-5.67,.28-.23-1.19-.4-2.37,.87-3.16,0,0-.04,.04-.04,.04,.12-.06,.32-.1,.35-.18,.08-.27-.15-.31-.35-.35l.05,.05Zm-.07,2.44c-.04-.13-.07-.37-.13-.38-.26-.04-.34,.14-.29,.36,.03,.13,.14,.24,.21,.36,.07-.11,.14-.23,.21-.34Z"/><path d="M84.56,105.61c1.15,1.38,2.31,2.76,3.45,4.14,.34,.42,.72,.78,.98,1.3,.32,.64,.56,1.05-.1,1.61-.58,.5-1.02,.94-1.79,.23-.25-.23-.81-.33-.9-.67-.38-1.47-1.98-2.23-2.14-3.81-.01-.12-.17-.26-.29-.33-1-.55-.79-1.18-.12-1.81,.27-.26,.51-.62,.96-.62l-.06-.05Zm.43,2.2c-.05-.06-.1-.12-.15-.18-.06,.05-.12,.11-.17,.16,.05,.05,.1,.15,.16,.15,.05,0,.11-.09,.17-.13Z"/><path d="M78.37,115.27c-.03-.36,.24-.54,.46-.73,.08-.07,.29-.12,.34-.07,.18,.18,.17,.48,0,.58-.24,.13-.56,.12-.85,.17,0,0,.06,.06,.06,.06Z"/><path d="M86.49,114.73c0,.38-.23,.52-.57,.47-.24-.03-.34-.23-.35-.47l-.04,.04c.33,0,.67,0,1,0l-.05-.05Z"/><path d="M82.09,108.73s-.05,.1-.07,.14c-.07-.05-.14-.1-.21-.16l.15-.14c.05,.05,.09,.1,.14,.16Z"/><path d="M80.24,111.37c.18,.02,.35,.03,.53,.05l-.05-.05c0,.18,0,.35,0,.53l.04-.04c-.35,.03-.49-.18-.53-.49Z"/><path d="M87.02,114.3c.05-.13,.06-.31,.15-.37,.12-.09,.25,.04,.17,.16-.06,.09-.24,.11-.37,.16,0,0,.05,.05,.05,.05Z"/><path d="M86.97,114.25c.01,.33-.15,.49-.48,.48l.05,.05c-.01-.34,.15-.49,.49-.48l-.05-.05Z"/><path d="M24.51,96.1c-.04,.28,.2,.93-.33,1.48-.41,.43-.77,.44-1.1-.05-.62-.92-.57-1.95-.46-2.97,.05-.47,.41-.91,.94-.9,.52,0,.83,.44,.93,.92,.08,.38,.02,.79,.02,1.52Zm-.79-1.36s-.07,.09-.06,.13c.02,.06,.08,.1,.12,.15,.03-.09,.05-.18,.08-.28h-.15Z"/><path d="M22.64,98.21c-.24,.86-.67,.68-1.03,.67-.41-.02-.54-.38-.41-.64,.21-.41,.68-.3,1.04-.24,.21,.04,.38,.24,.39,.21Z"/><path d="M26.4,99.36c.04,.27-.12,.42-.36,.45-.37,.05-.57-.13-.52-.51,.03-.24,.17-.4,.46-.36,.25,.03,.41,.14,.42,.42Z"/><path d="M23.41,98.46c.3,.03,.62,.04,.59,.47-.01,.13-.1,.26-.16,.38-.22-.19-.43-.38-.63-.59-.01-.01,.13-.17,.21-.27Z"/><path d="M24.98,99.34c-.05,.13-.08,.36-.15,.37-.28,.05-.32-.18-.28-.38,.02-.13,.14-.23,.22-.35,.07,.12,.14,.24,.22,.36Z"/><path d="M22,99.61s-.05,.09-.07,.13c-.07-.05-.14-.1-.2-.15,.05-.04,.1-.09,.15-.13,.04,.05,.09,.1,.13,.15Z"/><path d="M77.36,100.33c.18,0,.36,0,.54,0-.05,.19-.07,.44-.34,.37-.09-.02-.13-.24-.19-.36Z"/><path d="M88.9,98.89c.34,.02,.5-.15,.48-.49,.74-.06,1.09,.26,1.01,1.01-.5-.02-.99-.03-1.49-.05,0,0,.05,.05,.05,.05-.02-.17-.03-.35-.05-.52Z"/><path d="M88.89,99.36c-.05,.13-.06,.3-.15,.37-.13,.09-.25-.03-.16-.16,.07-.09,.24-.11,.37-.16,0,0-.05-.05-.05-.05Z"/><path d="M202.73,85.68s-.05,.09-.07,.14c-.07-.05-.14-.1-.21-.15,.05-.05,.1-.09,.15-.14,.05,.05,.09,.1,.14,.15Z"/><path d="M115.04,42.39s.11-.01,.15,.01c.11,.08,.08,.18-.09,.25-.02,0-.1-.08-.12-.14-.01-.03,.04-.08,.06-.12Z"/><path d="M61.11,85.51c.11,.07,.22,.14,.34,.21-.12,.07-.23,.17-.35,.2-.22,.05-.4-.03-.35-.28,.01-.06,.24-.08,.37-.13Z"/><path d="M56.74,87.41c.05-.12,.07-.3,.16-.35,.13-.08,.25,.04,.16,.16-.07,.09-.24,.1-.36,.15l.05,.04Z"/></g></g></svg>