<?xml version="1.0" encoding="UTF-8"?><svg id="Layer_1" xmlns="http://www.w3.org/2000/svg" viewBox="0 0 268 268"><g id="EMUCfq"><g><path d="M47.2,107.81c.13-.3-.34-.78,.38-.95,.44-.1,.32-.77,.18-1.03-.48-.9-.55-1.9-.87-2.83-.37-1.07-.56-2.19-.88-3.28-.53-1.76-.83-3.59-1.42-5.34-.31-.94-.49-1.92-.75-2.88-.38-1.41-.34-2.93-1.18-4.23-.14-.22-.06-.59-.03-.89,.03-.29-.1-.48-.31-.63-.11-.08-.26-.16-.39-.15-.27,.03-.22,.27-.23,.46,0,.14,.05,.31-.25,.48,.18-.74-.51-.94-.74-1.44-.12-.27-1.24-.16-1.51,.1-1.35,1.28-2.72,2.55-3.01,4.53,0,.04-.1,.07-.1,.11-.15,1.46-.91,2.89-.23,4.41,.13,.3,.05,.69,.05,1.04,0,1.47,.01,2.94,0,4.41,0,.37,.1,.45,.49,.54,2.4,.54,4.73,1.33,7.15,1.82,.54,.11,1.04,.43,1.58,.58,.49,.14,.6-.18,.54-.6,.59,.11,.27,.57,.28,.85,.02,.32,.42,.44,.33,.79-.06,.24,.07,.74-.41,.24-.89,.09-1.73-.26-2.58-.41-.93-.16-1.93-.07-2.81-.54-.13-.07-.4-.11-.57,.11,.61,.59,1.47,.62,2.19,.74,1.42,.24,2.72,.95,4.18,.96,.19,0,.31,.1,.29,.25-.12,.83,.64,1.58,.18,2.53-1.13-.56-2.38-.72-3.58-1.13-1.3-.44-2.66-.68-3.99-1.04-.87-.23-1.74-.48-2.58-.75-.49-.16-.59,.18-.63,.3-.1,.26-.04,.59-.04,.9,0,1.78,0,3.55,0,5.33,0,1.24,.44,2.42,.33,3.68-.11,1.26-.02,2.54-.02,3.8v3.81c0,1.27-.19,2.58,.04,3.8,.42,2.15,.2,4.29,.25,6.43,.05,2.13-.04,4.26,.03,6.39,.03,.86-.32,1.22-1.09,1.34-.29-.24-.16-.57-.14-.84,.14-1.8-.45-3.55-.34-5.36,.11-1.76,.02-3.53,.02-5.35-.44,.1-.3,.39-.3,.57,0,2.94,0,5.89,0,8.83,0,.39-.03,.74,.27,1.12,.23,.29-.37,.61-.3,1.07,.09,.65,.02,1.32,.02,1.98,0,.2,.02,.41-.28,.42-.27,.01-.34-.13-.34-.37,0-.96-.08-1.94,.02-2.89,.12-1.11-.45-2.11-.35-3.23,.1-1.11,.23-2.28-.02-3.34-.43-1.8-.23-3.58-.23-5.37,0-1.3-.45-2.53-.36-3.83,.1-1.36,.02-2.74,.02-4.11s.2-2.68-.05-3.95c-.33-1.65-.2-3.27-.24-4.91-.04-1.67,0-3.35-.01-5.02,0-.64,.17-1.32-.54-1.76-.27-.17,.21-.75-.37-.81,.6-.53,.61-.53,.61-1.23,0-4.44-.07-8.88,.04-13.32,.04-1.67,.7-3.23,2.1-4.33,.15,.43-.39,.67-.31,1.09,.03,.14-.04,.34,.13,.39,.12,.04,.31,.03,.4-.05,.83-.65,1.29-1.54,1.61-2.52,.11-.33,.03-1.01,.78-.47,.29,.21,.72-.24,.99-.44,.47-.35,.96-.61,1.52-.84-.25-.75-.95-.44-1.49-.55,.1-.16,.18-.22,.19-.3,.14-.59,1.08,.05,1-.57-.05-.4-.15-.85-.28-1.24-.69-1.91-1.02-3.92-1.68-5.84-.31-.89-.52-1.83-.68-2.75-.09-.52-.38-.98-.38-1.54,0-.56-.08-1.23-.39-1.64-.37-.48,.14-1.16-.49-1.48-.25-1.55-.55-3.08-1.16-4.53-.13-.3-.05-.69-.05-1.04,0-.34-.09-.66,.48-.72,.29-.03,.57-.44,.43-.85-.61-1.78-1.22-3.61-2.82-4.73-.77-.54-1.64-1.16-2.74-1.08-.5,.04-.91-.4-1.42-.49,.18-.06,.35-.13,.64-.23-.44-.31-.88-.1-1.27-.17,0-.05,0-.14,0-.15,1.95-.36,3.78-.28,5.27,1.3,1.2,1.27,2.47,2.48,3.87,3.88v-2.01c.63,.32,.82,.85,.88,1.33,.07,.69,.77,1.12,.67,1.88-.02,.15,.3,.49,.68,.47,.46-.03,.98,.14,1.35-.04,.72-.35,1.45-.2,2.17-.29,.67-.08,1.37-.17,1.99-.34,1.54-.43,3.17-.26,4.66-.86,.91,.22,1.73-.42,2.61-.28,.55,.09,.89-.36,1.4-.35,.47,.02,.92-.02,1.42-.22,.63-.25,1.44-.29,2.13-.32,1.67-.07,3.25-.71,4.92-.66,.62-.42,1.34-.2,2-.33,.62-.12,1.27-.16,1.85-.32,1.44-.4,2.97-.25,4.35-.87,1.01,.22,1.93-.27,2.91-.35,.93-.08,1.89-.15,2.81-.51,.6-.24,1.38,.12,1.99-.35,.96,.23,1.81-.45,2.77-.31,.5,.08,.86-.43,1.4-.32,.42,.08,.83-.11,1.26-.23,.73-.21,1.54-.21,2.3-.3,1.55-.17,3.08-.47,4.6-.73,1.45-.25,2.97-.23,4.35-.85,1.01,.23,1.93-.5,2.92-.29,.56,.12,.88-.38,1.4-.34,.46,.03,.92,.01,1.42-.22,.56-.27,1.33-.24,1.98-.29,.93-.08,1.86-.26,2.75-.44,1.45-.29,2.99-.15,4.36-.84,.16-.08,.4-.01,.6-.02,.58,0,1.14-.02,1.71-.27,.5-.23,1.2,.19,1.69-.33,.85,.17,1.65-.18,2.46-.32,.99-.17,2-.2,2.96-.56,.36-.13,.8-.07,1.2-.03,.42,.04,.65-.43,1.09-.32,1,.24,1.91-.48,2.92-.3,1.39-.55,2.96-.31,4.34-.91,.96,.23,1.82-.46,2.76-.29,.53,.09,.84-.47,1.4-.34,.4,.09,.82-.04,1.26-.22,.59-.24,1.34-.23,1.99-.29,.93-.08,1.81-.52,2.76-.38,.5,.07,.87-.5,1.39-.3,.59,.22,1-.31,1.55-.32,.47,0,1.01,.24,1.41-.28,.06-.07,.29,0,.44-.01,.63-.01,1.24,0,1.87-.27,.5-.22,1.19,.16,1.69-.34,1.19,.13,2.27-.37,3.4-.6,.29-.06,.58-.23,.8-.26,.59-.06,.56-.46,.45-.73-.81-1.89-2.62-3.97-5.12-3.91-.38,.01-.76,.07-1.12-.26-.18-.16-.67-.13-1,.05,.36,1.03,1.51,.1,1.99,.82,.79-.11,1.44,.46,2.21,.48-.66-.02-1.33,.43-1.98-.15-.17-.15-.59-.03-.89-.03-1.42,0-2.84-.03-4.26,.01-.68,.02-1.39-.22-2.05,.19-.6,.36-1.41-.22-1.96,.41-.91-.2-1.73,.36-2.61,.3-.56-.04-1.04,.14-1.55,.3-.5,.16-1.05-.15-1.58,.26-.26,.2-.78,.09-1.18,.05-.42-.05-.65,.43-1.09,.32-1-.25-1.93,.27-2.91,.37-.71,.07-1.48,.06-2.15,.28-.73,.24-1.49,.08-2.16,.3-1.43,.46-2.97,.29-4.35,.88-1.01-.22-1.94,.39-2.92,.28-.59-.07-.96,.45-1.56,.35-.51-.09-1.1-.19-1.54,.28-1.01-.22-1.94,.27-2.91,.36-.93,.08-1.89,.16-2.81,.51-.65,.24-1.46-.05-2.14,.35-1.78-.09-3.45,.73-5.23,.61-1.39,.57-2.95,.32-4.34,.91-1.11-.24-2.14,.48-3.22,.28-.56-.1-.87,.4-1.4,.35-.41-.04-.83-.06-1.29,.19-.62,.33-1.46-.09-2.11,.4-1-.2-1.93,.4-2.92,.3-.55-.05-.97,.42-1.55,.32-.59-.11-1.14,.11-1.7,.27-.5,.14-1.02,.07-1.56,.27-.7,.25-1.54,.23-2.3,.3-1.65,.15-3.24,.71-4.92,.7-.5,0-1,.41-1.55,.26-.59-.16-.96,.44-1.56,.34-.5-.08-1.1-.2-1.54,.28-.85-.17-1.65,.18-2.46,.32-.99,.18-2.01,.15-2.96,.57-.17,.08-.41,.06-.6,.02-.91-.19-1.71,.43-2.62,.32-.83-.1-1.6,.52-2.46,.29-.51,.44-1.12,.34-1.7,.29-.56-.05-.98,.35-1.55,.36-.76,.02-1.51,.34-2.31,.28-.78-.06-1.54,.25-2.3,.37-.67,.1-1.46-.02-1.98,.29-.66,.38-1.3,.05-1.88,.26-1.41,.51-2.94,.36-4.35,.88-.4,.15-.91,.06-1.36,.01-.42-.05-.65,.37-1.09,.34-.64-.04-1.25-.06-1.81-.44-.39-.26-.83-.44-1.25-.65,.77-.31,1.56-.59,2.4-.45,.53,.09,.84-.47,1.4-.34,.4,.09,.9,.18,1.25-.27,.06-.07,.29,0,.44-.01,.63,0,1.24,0,1.87-.27,.51-.22,1.11-.07,1.71-.28,.75-.26,1.62-.11,2.45-.33,1.2-.32,2.47-.42,3.71-.57,.96-.12,1.93-.47,2.91-.35,.56,.07,.87-.4,1.4-.36,.41,.04,.9,.23,1.28-.21,.07-.08,.28-.08,.42-.06,1.1,.19,2.13-.34,3.22-.37,.75-.02,1.58-.08,2.3-.3,.74-.22,1.51-.05,2.16-.3,.69-.27,1.39-.08,2.01-.3,.68-.23,1.34-.31,2.02-.25,.48,.04,.74-.44,1.25-.35,.4,.07,.89,.2,1.27-.22,.09-.11,.38-.07,.58-.05,1.1,.12,2.12-.54,3.22-.31,1.49-.6,3.12-.44,4.66-.88,.73-.21,1.55-.23,2.3-.28,1.76-.11,3.44-.79,5.23-.67,.62-.44,1.36-.15,1.99-.34,.63-.18,1.29-.11,1.85-.31,.73-.25,1.49-.09,2.16-.3,.73-.24,1.46-.14,2.17-.29,1.33-.28,2.66-.46,4.01-.65,.66-.09,1.46,0,1.98-.3,.67-.38,1.28-.1,1.88-.25,1.32-.34,2.66-.47,4.01-.65,1.34-.17,2.67-.44,4.01-.63,.67-.09,1.38-.08,2-.28,.63-.2,1.25-.16,1.86-.29,1.33-.28,2.66-.47,4.01-.64,.66-.09,1.35-.14,2.01-.27,.62-.12,1.21-.28,1.86-.31,.51-.02,1-.43,1.55-.27,.58,.17,.96-.44,1.56-.34,.5,.08,1.1,.2,1.54-.28,1.01,.22,1.93-.27,2.91-.35,.93-.08,1.93-.06,2.81-.54,.12-.06,.3,0,.45-.02,.57-.11,1.14,.18,1.73-.26,.37-.27,1.08,.15,1.52-.34,.91,.18,1.68-.41,2.73-.33-.54-.41-.98-.33-1.33-.26-1.28,.28-2.56,.48-3.86,.64-.72,.09-1.48,.08-2.15,.29-.73,.23-1.49,.08-2.16,.29-1.43,.44-2.94,.38-4.36,.85-.67,.23-1.49-.18-2.15,.33-1.01-.22-1.93,.53-2.91,.29-.56-.14-.87,.39-1.4,.35-.41-.04-.91-.23-1.27,.22-.05,.06-.19,.08-.27,.06-1.11-.22-2.13,.33-3.22,.35-.79,.02-1.71,.06-2.4,.4-.81,.4-1.72-.28-2.42,.45-.12,.13-.49,.01-.74,.02-.97,.03-1.9,.25-2.82,.54-.18,.06-.39,.04-.58,.06-.67,.07-1.34-.07-2.03,.26-.52,.25-1.27-.12-1.83,.35-1.05-.17-2.03,.49-3.07,.3-.58-.11-1,.34-1.55,.32-.48-.01-.93,.06-1.42,.24-.6,.23-1.37-.06-1.99,.36-1.11-.23-2.13,.49-3.22,.3-.53-.09-.85,.45-1.4,.34-.4-.08-.89-.19-1.26,.26-.08,.1-.39,.05-.59,0-.91-.19-1.71,.43-2.62,.32-.83-.1-1.6,.52-2.46,.29-.56,.47-1.32,.08-1.83,.35-.65,.34-1.28,.1-1.87,.28-.77,.24-1.59,.13-2.3,.34-.74,.22-1.48,.08-2.17,.27-1.22,.34-2.47,.43-3.72,.56-.45,.04-.74,.45-1.25,.36-.4-.07-.9-.21-1.27,.23-.06,.08-.29,.02-.43,.05-.67,.13-1.33-.17-2.04,.24-.54,.31-1.37-.11-1.97,.37-1.05-.16-2.07,.2-3.06,.37-1.6,.27-3.27,.24-4.81,.84-.18,.07-.4,0-.61,.01-.63,.03-1.25-.07-1.87,.27-.48,.27-1.21-.26-1.68,.33-.85-.14-1.64,.18-2.46,.3-.62,.09-1.23-.1-1.88,.26-.51,.28-1.2,0-1.85,.3-.62,.29-1.47-.16-2.13,.35-1.01-.23-1.95,.23-2.91,.36-1.51,.2-3.07,.22-4.53,.78-.87,.34-1.71-.1-2.56-.3-.05-.01-.09-.17-.09-.26,0-.09,.07-.18,.12-.25,.02-.03,.09-.04,.14-.03,1.3,.22,2.54-.49,3.83-.29,.6,.09,.96-.44,1.56-.35,.5,.08,1.02,.03,1.57-.22,.57-.26,1.36,.07,1.98-.36,1.67,.05,3.25-.57,4.92-.67,.81-.04,1.63-.25,2.47-.25,.58-.74,1.6,.13,2.18-.61,.89,.09,1.75-.1,2.62-.3,1.17-.26,2.4-.19,3.56-.59,.41-.14,.91-.05,1.36-.01,.46,.04,.77-.31,1.24-.35,1.59-.15,3.16-.59,4.78-.57,.56-.46,1.32-.09,1.83-.35,.65-.33,1.27-.11,1.87-.28,.65-.18,1.34-.19,1.96-.41,.29-.1,.56-.21,.84-.17,1.11,.17,2.13-.48,3.23-.32,.18,.03,.26-.09,.29-.26,.03-.16-.06-.36,.3-.23,.74,.28,1.47,.19,2.27-.02,.67-.18,1.4-.36,2.13-.4,.58-.03,1.14,.03,1.72-.27,.49-.26,1.18,.22,1.7-.32,.1-.1,.39-.01,.59-.02,1.71-.04,3.36-.63,5.08-.61,.55-.53,1.24-.18,1.85-.32,.62-.15,1.21-.41,1.86-.29,.61,.11,1.08-.37,1.7-.34,.56,.03,1.22,.29,1.7-.28,.96,.2,1.84-.24,2.76-.34,1.09-.12,2.21-.14,3.27-.52,.63-.22,1.39,.16,1.98-.36,1.06,.23,2.03-.42,3.07-.29,.58,.07,1-.35,1.55-.33,.48,.02,.93,0,1.42-.25,.53-.26,1.28,.18,1.83-.35,1.06,.22,2.03-.53,3.07-.29,.6,.14,1.01-.33,1.55-.34,.47,0,.92-.01,1.42-.22,.62-.26,1.42-.22,2.14-.32,1.15-.16,2.3-.24,3.4-.65,.22-.08,.5,0,.76-.01,.58-.02,1.14,.04,1.72-.27,.48-.27,1.11,.08,1.72-.27,.54-.31,1.36,.11,1.97-.37,.96,.23,1.87-.2,2.76-.36,1.6-.3,3.26-.27,4.82-.83,.4-.15,.91-.05,1.36-.01,.46,.04,.73-.4,1.25-.35,.76,.08,1.49-.34,2.31-.31,.7,.03,1.28,.48,2.01,.37,.69-.11,1.44-.15,2.12,0,1.23,.27,2.43,.6,3.71,.61,.37,0,.83,.22,1.12,.57,.96,1.17,2.37,1.84,3.34,3.06,.63-.63-.58-1.25,.02-1.83,.61,.53,.87,1.27,1.04,2,.08,.35,.49,.53,.37,.92,.94,.79,.89,1.96,1.23,3,.22,.68,.27,1.38,.54,2.06,.18,.46,.46,.93,.39,1.54-.05,.47,.28,.98,.43,1.47,.15,.5,.37,.99,.42,1.49,.05,.54,.25,1.03,.37,1.54,.35,1.56,.99,3.05,1.34,4.61,.38,1.71,1.17,3.31,1.37,5.07,.05,.45,.29,.89,.5,1.31,.08,.15,.14,.36,.08,.41-.33,.26-.41,.64-.26,.94,.45,.9,.41,1.95,.96,2.8,.16,.24,.39,.38,.74,.41,.9,.07,1.79,.24,2.66,.54,.63,.22,1.39-.15,1.99,.35,1.28-.05,2.45,.54,3.71,.62,.62,.04,1.2,.3,1.85,.34,.65,.03,1.43,.08,1.95,.38,.6,.35,1.23-.02,1.83,.42,.47,.34,1.3,.18,1.97,.3,.75,.13,1.49,.56,2.3,.38,.62,.57,1.52,.07,2.21,.58,.26,.19,.79,.04,1.19,.03,.35,0,.53,.43,.94,.32,.7-.19,1.33,.25,1.99,.36,.72,.13,1.59-.04,2.13,.31,.64,.41,1.44-.13,1.92,.54,.91-.21,1.75,.21,2.61,.34,.93,.15,1.89,.17,2.82,.52,.64,.25,1.44,.22,2.15,.28,.88,.08,1.71,.53,2.61,.37,.66,.66,1.68-.05,2.34,.61,.96-.23,1.82,.46,2.76,.29,.53-.09,.84,.47,1.4,.34,.4-.09,.84,.1,1.26,.21,.68,.18,1.43,.28,2.14,.33,1.46,.11,2.89,.42,4.3,.71,1.45,.29,2.92,.57,4.36,.78,1.58,.22,3.15,.6,4.75,.76,1.75,.17,3.53,.49,5.25,.89,1.14,.26,2.29,.31,3.42,.53,.43,.09,.76,.35,1.24,.38,.77,.04,1.4-.51,2.16-.35,.85-.59,1.96-.32,2.83-.89,.15-.1,.45-.05,.7,.1,1.37,.81,2.83,1.46,3.91,2.7,.36,.41,.56,.84,.59,1.39-.55-.46-.86-1.1-1.38-1.59-.5-.47-.95-.66-1.69-.29,.48,.33,.22,1,.67,1.31,.38,.27,.84,.42,1.26,.62,0,.25-.05,.5,.21,.68,.31,.21,.43,.5,.41,.9-.02,.33,.03,.63,.2,.98,.33,.67,0,1.62-.71,2.64-.14,.2-.11,.37-.11,.56,0,2.43,0,4.87,0,7.3,0,.24,0,.45,.18,.69,.55,.78,.75,1.95,.6,2.98-.04-.03-.07-.06-.11-.08-.26-.17,.2-.86-.3-.65-.41,.16-.45-.22-.73-.19-.71,.08-1.46-.08-2.07,.51,.44,.22,.9,.04,1.33,.13,.24,.05,.23,.28,.16,.48-.01,.04-.09,.07-.1,.11-.11,.4-.99,.18-.74,.7,.24,.49,.66,.97,1.29,1.15,.59,.17,.75,.64,.43,1.13-.08,.12-.22,.24-.22,.36-.02,.96-.14,1.95,.02,2.89,.33,1.99,.23,3.57,.03,5.54-.15,1.46-.31,2.99,.16,4.47,.09,.27,.08,.58,.08,.88,0,1.07,.15,2.16-.03,3.19-.42,2.39-.23,4.79-.27,7.18-.03,2.43,0,4.87-.01,7.3,0,.33,.1,.68-.23,.98-.13,.12-.15,.52-.05,.71,.52,1.05,.21,2.15,.28,3.23,.04,.5,.04,1.02,0,1.52-.06,.77,.06,1.53-.23,2.33-.2,.54-.38,1.39,.24,1.98-.12,1.08,.25,2.2-.22,3.26-.04,.09-.11,.2-.08,.26,.66,1.45,.17,2.96,.28,4.44,.04,.61,.22,1.28-.26,1.87-.12,.15-.08,.51,0,.74,.58,1.76,.17,3.57,.29,5.36,.01,.2,.02,.41,0,.61-.03,.25,.14,.43,.29,.48,.69,.19,.63,.71,.63,1.25-.01,1.88-.02,3.75,0,5.63,0,1.19-.45,2.31-.33,3.53,.11,1.21,.02,2.43,.02,3.65v3.65c0,1.22-.03,2.44,.01,3.65,.02,.61-.45,1.08-.33,1.7,.1,.54-.11,1.04-.28,1.55-.57,1.69-1.66,2.93-3.16,3.84-1.04,.63-2.25,.72-3.4,.98-.64,.15-1.11-.39-1.7-.31-.58,.07-1-.28-1.49-.44-1.12-.37-2.27-.64-3.4-.99-1.39-.43-2.74-.98-4.16-1.34-1.59-.41-3.16-.93-4.69-1.52-1.28-.49-2.63-.73-3.92-1.19-1.1-.4-2.19-.84-3.35-1.11-2.02-.46-3.93-1.3-5.91-1.88-1.4-.41-2.76-.95-4.19-1.31-1.41-.36-2.76-.96-4.17-1.31-2.02-.49-3.93-1.31-5.96-1.8-1.58-.38-3.09-1.13-4.68-1.53-1.65-.41-3.25-1.01-4.87-1.5-1.61-.48-3.24-.99-4.84-1.53-2-.68-4-1.37-6.02-1.99-1.62-.5-3.21-1.14-4.85-1.52-2.17-.51-4.24-1.32-6.36-1.93-3.21-.92-6.36-2.03-9.56-2.99-.43-.13-.63-.45-.94-.66-1.49-.99-2.64-2.3-3.4-3.94-.04-.08,0-.2,0-.3,.52,.3,.9,.72,1.23,1.23,.59,.93,1.44,1.46,2.49,1.84,2.35,.85,4.78,1.44,7.14,2.22,3.44,1.13,6.91,2.16,10.36,3.23,1.71,.53,3.43,1.01,5.14,1.53,.94,.29,1.87,.62,2.82,.91,1.26,.39,2.54,.72,3.78,1.15,1.55,.54,3.18,.86,4.66,1.59,.96-.16,1.79,.37,2.62,.67,.89,.32,1.8,.55,2.69,.82,1.8,.56,3.58,1.16,5.4,1.66,1.41,.38,2.84,.75,4.21,1.22,1.42,.48,2.85,.94,4.28,1.39,1.84,.57,3.69,1.15,5.54,1.69,1.85,.54,3.7,1.09,5.52,1.71,.52,.18,1.02,.29,1.55,.28,.04,.09,.05,.23,.11,.25,1.79,.53,3.6,1,5.36,1.61,.52,.18,1.01,.26,1.54,.27-.03,.19,.08,.26,.24,.3,.73,.2,1.48,.33,2.17,.63,.52,.23,1.02,.29,1.55,.28,.14,.59,.61,.19,.8,.32,.64,.4,1.18,.82,2.03,.43-.73-.14-1.26-.56-2.03-.43-.03-.61-.5-.21-.8-.32-.07-.64-.65-.31-.95-.42-.96-.37-1.94-.78-3.01-.79-.04-.09-.05-.23-.11-.25-1.79-.53-3.6-1-5.36-1.61-.52-.18-1.01-.26-1.54-.27,.03-.19-.09-.26-.24-.31-.85-.27-1.7-.52-2.55-.81-1.33-.46-2.7-.77-4.02-1.28-.6-.23-1.25-.38-1.87-.6-.66-.23-1.36-.37-2.04-.57-1.08-.33-2.14-.69-3.23-1-1.54-.43-3.07-.9-4.59-1.38-2.1-.66-4.21-1.3-6.3-1.99-.77-.26-1.61-.35-2.27-.9,.35,0,.76-.11,1.05,.02,1,.45,2.1,.6,3.08,.98,2.41,.94,4.97,1.36,7.37,2.33,.18,.07,.63,.22,.69-.28,.77,0,1.54-.02,2.13,.61-.25,0-.5,0-.75,0-.04,0-.11,.07-.1,.09,.02,.07,.06,.19,.1,.2,.25,.02,.5,0,1.05,.12,.24-.07,.13-.12-.01-.11-.09,0-.26-.02-.27,0-.06,.16,.06,.27,.2,.29,.12,.02,.25-.05,.09-.19-.3-.21-.3-.31-.3-.41,1.49,.09,2.85,.7,4.26,1.09,2.13,.58,4.2,1.33,6.32,1.95,2.03,.59,4.02,1.32,6.07,1.85,.9,.23,1.77,.62,2.66,.9,2.07,.63,4.15,1.21,6.22,1.84,.9,.27,1.76,.68,2.66,.89,1.1,.25,2.13,.66,3.2,1.03-.18,.28-.4,.19-.59,.2-.15,0-.36,.11-.3,.17,.36,.37,.25,.46-.2,.44-.25-.01-.51,0-1.22-.07-.33,.02-.3,.06-.26,.06,.24,0,.48,0,.72,0,0,0,.02-.11,0-.14-.22-.28-.51-.15-.78-.13-.04,0-.07,.06,.32,.21,.5,.16,.53,.32,.57,.32,.81,.03,1.67,.23,2.4,0,.6-.2,1.04-.91,1.54-1.41,.1-.1,.32-.22,.2-.36-.46-.59,.06-.84,.38-1.12,.29-.25,.11-.62,.26-.8,.33-.4,.3-.83,.27-1.26-.03-.46,.37-.74,.34-1.25-.09-1.52-.03-3.04-.03-4.56s.08-2.95-.02-4.41c-.11-1.51,.33-2.95,.36-4.44,.06-3.21-.13-6.4,.21-9.62,.4-3.79-.1-7.62,.33-11.44,.36-3.18-.17-6.4,.29-9.62,.28-1.94,.11-3.95,.04-5.93-.07-1.95,.26-3.87,.3-5.81,.07-2.89-.04-5.79,.03-8.68,.07-2.85-.12-5.69,.22-8.56,.31-2.64,.07-5.34,.07-8.07-.94,.13-1.67-.52-2.54-.31-.46-.53-1.25-.12-1.73-.61-.72,.22-1.31-.37-2-.3-.65,.06-1.19-.5-1.85-.31-.57-.59-1.38-.29-2.07-.5-.87-.27-1.85-.73-2.91-.3v.86c0,.81-.04,1.63,.02,2.43,.03,.45-.33,.68-.42,1.06-.05,.22-.46,.11-.69,.09-.53-.05-.9,.27-1.34,.46,.08,.06,.14,.12,.23,.16,.33,.15,.35,.21,.12,.29-.22,.07-.35,.11-.35,.36,0,.51-.17,1.1,.04,1.5,.38,.73,.19,1.45,.27,2.18,.06,.51-.19,.59-.62,.55-.28-.02-.38,.14-.13,.31,.5,.33-.37,.61,.01,.98,.31,.29,.11,.77,.1,1.16-.03,.71-.06,.7,.47,1.21,.09,.09,.16,.27,.14,.39-.05,.26-.27,.25-.46,.19-.68-.21-.78-.12-.76,.47,.02,.43,.29,.72,.47,1.02,.22,.36,.25,.76,.12,.99-.38,.73-.59,1.61-1.49,2.15,0-.54,0-.99,0-1.43,0-.2,.03-.43-.26-.43-.23,0-.49-.12-.66,.19-.24,.46-.5,.91-.79,1.35-.13,.19-.2,.37-.03,.52,.43,.36,.17,.61-.11,.84-.22,.18-.49,.31-.72,.45,.61,.67,.73-.11,1.08,0,.4,.12,.2,.65,.67,.8-1.06,.36-2.03,.73-3.02,1.02-1.45,.43-2.95,.71-4.35,1.26-1.19,.47-2.51,.51-3.62,1.18-2.53,.43-4.88,1.45-7.34,2.11-1.01,.27-1.97,.7-2.97,.91-1.72,.36-3.33,1.08-5.04,1.43-1.25,.26-2.39,.87-3.67,1.1-.89,.15-1.86,.32-2.68,.84-.32,.2-.7,.26-1.08,.34-1.29,.28-2.57,.64-3.81,1.08-1.38,.48-2.79,.91-4.18,1.26-1.79,.46-3.52,1.11-5.32,1.5-1.12,.24-2.16,.74-3.25,.96-1.73,.35-3.36,1.01-5.09,1.35-1.28,.25-2.48,.85-3.78,1.18-1.26,.32-2.56,.6-3.79,1.12-.41,.17-.93,.1-1.39,.33-.53,.26-.99-.28-1.54-.32-.34-.03-.68-.31-1.1-.28-.4,.03-.71-.25-.67-.62,.04-.35-.33-.55-.17-.99,.55,.51,1.27,.57,1.82,.35,.59-.23,1.2-.21,1.79-.46,1.03-.44,2.15-.72,3.24-.97,1.71-.39,3.36-.99,5.08-1.37,1.05-.23,2.08-.61,3.15-.83,1.05-.22,2.08-.63,3.11-.95,1.25-.39,2.52-.83,3.79-1.11,1.3-.28,2.55-.75,3.86-1.03,1.03-.22,2.11-.52,3.11-.9,1.08-.41,2.22-.56,3.28-.91,1.34-.46,2.7-.84,4.06-1.21,1.41-.39,2.76-.96,4.22-1.23,.85-.16,1.65-.71,2.53-.83,.9-.13,1.67-.79,2.64-.63,2.09-1.03,4.39-1.4,6.59-2.08,2.25-.7,4.52-1.37,6.81-1.96,1.58-.41,3.15-.94,4.72-1.43,1.33-.41,2.27-1.26,2.91-2.47,1.05-2,1.6-4.09,1.26-6.44-.5,.55-1.05,.64-1.66,.7-1.19,.12-2.33,.63-3.56,.59-.54,.66-1.49-.04-2.03,.61-.76-.18-1.41,.47-2.15,.29-.41-.1-.58,.34-.94,.32-.41-.02-.87-.14-1.21,.02-1.64,.75-3.44,.76-5.15,1.12-1.78,.38-3.55,.9-5.39,.99-.52,.52-1.31,.06-1.8,.42-.52,.39-1.06,.02-1.57,.27-.5,.24-1.03,.43-1.6,.55-1.34,.29-2.64,.71-3.96,1.08-1.23,.34-2.46,.69-3.69,1.02-.87,.24-1.77,.39-2.59,.72-.89,.36-1.83,.41-2.73,.76-1,.39-2.08,.59-3.12,.91-.71,.21-1.47,.36-2.21,.57-.72,.21-1.46,.4-2.17,.65-.71,.26-1.5,.21-2.18,.62-.32,.2-.73-.06-1.14,.21-.95,.62-2.02,1-3.11,1.3-1.09,.31-2.18,.63-3.27,.93-1.64,.45-3.26,.94-4.88,1.46-1.2,.38-2.35,.95-3.67,.71-.4-.07-.74,.09-1.1,.28-.62,.32-1.4,.21-2.03,.6-.23,.15-.47,0-.46-.35,.01-.46,0-.91,0-1.37s.01-.91,0-1.37c-.02-.49,.1-.99-.07-1.43-.98-.16-1.74,.53-2.66,.27,0,.84,.05,1.56-.01,2.26-.05,.62,.14,1.15,.44,1.65,.14,.23,.29,.4,.06,.64-.33-.29-.66-.58-1-.88-.3,.5,.26,.59,.21,.9-.17-.32-.47,.88-.63-.07-.09-.58-.5-.53-.91-.24-.07,.05-.19,0-.28,.08-.12-.33,.21-.33,.28-.53,.06-.17,.05-.4-.19-.45-.12-.02-.35,.06-.36,.12-.04,.26-.16,.56,.27,.85-.03,.55,.12,1.2-.31,1.77-.07,.1-.06,.32,0,.44,.16,.34,1.58,.9,1.93,.76,.32-.13,.43-.55,.8-.6-.15,.26,.5,.39,.16,.55-.3,.14-.49,.18-.48,.57,.03,.76,.02,1.52,0,2.28,0,.54,.25,.76,.77,.88,.63,.14,.84,.47,1.07,1.05,.21,.52,.46,1.08,.54,1.59,.09,.59,.36,.98,.76,1.2,.4,.21,.69,.53,1.05,.78,1.19,.84,2.38,1.77,3.96,.86,1.06,.17,1.86-.91,2.94-.61,1.29-.87,3-.51,4.27-1.47,.13-.1,.39-.07,.58-.05,.61,.08,1.24-.16,1.63-.44,.72-.51,1.55-.51,2.29-.72,.57-.16,1.17-.58,1.83-.37,.45-.56,1.28-.05,1.72-.61,.45-.57,1.17-.23,1.76-.54,.58-.31,1.32-.59,2-.64,.89-.06,1.6-.67,2.48-.65,.93,.03,1.65-.75,2.59-.73,.33-.44,.83-.06,1.25-.3,.96-.56,2.04-.81,3.17-.8,.14,0,.4-.04,.4-.08,.11-.79,.72-.44,1.14-.52,.65-.13,1.31-.25,1.95-.43,1.27-.35,2.39-1.25,3.81-1.09,1.12-.79,2.54-.75,3.72-1.31,.51-.24,.97-.24,1.43-.19,.61,.06,.69-.74,1.27-.64,.65,.11,1.22-.27,1.83-.38,.62-.11,1.2-.59,1.89-.52,.75,.08,1.04-.67,1.65-.82,.09-.02,.18-.11,.26-.1,.42,.08,.95-.32,1.17-.15,.76,.58,.57-.4,.89-.46,.33-.07,.67,.11,1.01-.15,.56-.44,1.24-.54,1.94-.46,.42,.05,.76-.04,1.06-.4,.19-.23,.7-.53,.8-.45,.86,.65,1.31-.16,1.91-.45,.63-.31,1.28-.74,1.94-.79,1.31-.11,2.54-.35,3.74-.92,.39-.19,.86-.5,1.38-.34-.55,.6-1.59,1.27-2.63,1.51-1.84,.43-3.54,1.35-5.45,1.55-.85,.67-1.96,.65-2.93,1.01-.99,.37-2.03,.87-3.16,.82-2.84,1.17-5.83,1.85-8.75,2.76-.68,.21-1.38,.33-2.04,.58-.71,.26-1.45,.44-2.17,.66-1.71,.51-3.37,1.19-5.11,1.6-2.02,.48-3.98,1.2-5.97,1.78-1.94,.57-3.9,1.09-5.82,1.73-2.42,.8-4.88,1.44-7.33,2.15s-4.91,1.37-7.33,2.16c-.99,.32-2.01,.54-3,.83-1.5,.44-2.96,1.28-4.63,.98-.05,0-.1,0-.15,0-.91,.12-1.95,.03-2.61-.42-1.46-1.01-2.21-1.21-3.13-3.05-.16-.32-.22-.76-.6-.97-.32-.18-.28-.49-.29-.79,0-.33,.04-.65-.22-.98-.2-.26-.16-.73,.07-1.11,.06,.12,.15,.2,.15,.28,0,.25,.12,.37,.36,.34,.17-.02,.26-.1,.26-.29,0-.91,0-1.83,0-2.74,0-.18-.07-.29-.23-.31-.21-.03-.44,.03-.38,.31,.11,.44-.29,.69-.36,1.08-.06,.4-.46-.54-.55,.07-.06,.35-.01,.71-.01,1.06,0,6.14,0,12.28,0,18.41,0,.73-.1,1.49,.31,2.15,.28,.46,.21,.86-.23,1.01-.72,.25-.95,.9-1.38,1.4-.14,.16-.34,.35-.22,.51,.58,.73,.17,1.55,.29,2.32-.05,0-.14,.01-.15,0-.26-.81-.48-1.63-.78-2.42-.39-1.06-.28-2.14-.29-3.23-.01-1.42-.01-2.84,0-4.26,0-.38-.15-.78,.21-1.14,.23-.23,.18-.65,.07-.86-.56-1-.15-2.06-.28-3.08-.02-.19-.06-.42,.15-.54,.6-.36,.45-.95,.45-1.49,0-2.99,0-5.99,0-8.98,0-.3,0-.61,0-.91,0-.19-.44-.23-.12-.57,.24-.26-.15-.21-.28-.23-1.3-.23-2.52,.23-3.68,.66-.58,.21-1.27,.08-1.75,.55-1.42-.03-2.78,.43-4.15,.66-1.6,.27-3.19,.63-4.81,.85-.43,.06-.76,.35-1.23,.38-.31,.02,.05,.56-.22,.79-.24-.79-.37-2.64-.07-3.25,.23-.45,.29-.98,.12-1.28-.39-.73-.25-1.45-.26-2.18-.02-3.86,.03-7.71-.03-11.57-.03-1.73,.27-3.42,.67-5.06,.25-1.02,.92-1.95,1.43-2.9,.67-1.24,1.78-2.07,2.84-2.94,.71-.58,.9-1.18,.5-2.03-.11-.23-.37-.07-.56-.11,0-.25,.1-.59-.02-.73-.2-.23-.54-.43-.84-.46-.57-.06-1.18-.12-1.68,.28-.63,.51-1.52,.8-1.96,1.39-.9,1.22-2.09,2.23-2.63,3.72-.13,.34-.13,.65-.18,.98-.46,.03-.26,.38-.3,.61-.47,.2-.48,.8-.89,1.07-.1,.06,.02,.4-.03,.58-.3,.94-.39,1.81-.3,2.66,.04,.4,.15,.9-.02,1.2-.42,.71-.25,1.44-.27,2.17-.03,1.31,0,2.63,0,3.94,0,.08-.36,.31-.57,.37-1.13,.31-2.23,.74-3.46,.91,.79,.58,1.73,.44,2.48,.83,.51,.26,1.02,.3,1.55,.29,.09,.42-.18,.88,.2,1.28,.42,.45-.54,.72-.21,1.2,.05,.07-.03,.22,.01,.3,.39,.68,.47,1.33,.01,2.04-.14,.22-.03,.55,.24,.8,.27,.25,.55,.19,.83,.14,.17-.03,.15-.25,.12-.39,0-.06-.12-.1-.18-.15-.3,.45-.57,.06-.62-.12-.07-.3,.22-.47,.5-.52,.15-.03,.32,.04,.45-.01,.19-.07,.1-.19,0-.31-.25-.3,.4-.47,.15-.71-.29-.28-.3-.59-.3-.95,0-1.77,.03-3.54,0-5.3-.03-1.78,.23-3.58-.31-5.33-.15-.51,.33-.79,.32-1.24-.02-.81,.08-1.63-.03-2.42-.11-.82,.41-1.51,.33-2.3,.46-.03,.26-.38,.3-.61,.44-.13,.46-.58,.58-.89,.13-.32,.3-.44,.51-.28,.28,.21-.17,.25-.17,.42,0,.14-.05,.31,.17,.44,.38-.56,1.05-.8,1.53-1.26,.46-.44,.91-.89,1.54-1.13,.28,.27-.04,.44-.16,.7-.65,1.41-1.31,2.82-2.16,4.13-.45,.69-1.04,1.23-1.64,1.74-.52,.44-.48,.93-.52,1.48-.03,.39,.24,.56,.46,.71,.25,.17,.44-.1,.62-.27,.11-.11,.2-.24,.33-.29,.13-.05,.36-.05,.39,.12,.06,.34,.17,.92-.05,.98-.77,.19-.46,.74-.51,1.17-.06,.54,.14,1.11-.11,1.63-.23,.48,.15,.86,.15,1.31,0,.51-.47,.92-.28,1.37,.23,.53-.18,.94-.1,1.45,.07,.46,.15,.96-.12,1.46-.14,.26,.29,.64,.16,1.03-.63,1.91-.14,3.87-.33,5.8-.04,.39,.35,.72,.16,1.02-.22,.35-.06,.68-.14,1.01-.04,.16-.13,.24-.32,.23-.19,0-.28-.09-.29-.26-.06-.81,.14-1.64-.21-2.43-.04-.09,.36-.2,.09-.31-.82-.33-1.39,.04-1.41,.91-.02,1.12,0,2.23,0,3.35v.74c-1.48,.47-3.05,.46-4.47,1.04-.91-.21-1.76,.22-2.6,.37-1.35,.24-2.74,.28-4.06,.8-.53,.21-1.22,.19-1.84,.32-1.32,.29-2.69,.34-3.99,.68-.58,.15-1.29,.03-1.67,.31-.6,.45-1.29-.02-1.82,.44-.46,.39-1.22-.2-1.64,.43-1.33-.08-2.59,.36-3.84,.66-1.76,.42-3.62,.37-5.29,1.17-1.38-.08-2.65,.53-4,.64-1.23,.1-2.5,.29-3.65,.71-.65,.24-1.42-.15-1.93,.48-.66-.16-1.19,.36-1.85,.33-.78-.04-1,.34-.77,1.14,.05,.18,.27,.23-.07,.37-1.01,.43-1.98,.84-3.12,.95-1.3,.13-2.58,.59-3.85,.94-1.32,.36-2.63,.76-3.94,1.14-1.32,.39-2.7,.53-4.05,.86-1.05,.26-2.25,.21-3.32,0-.84-.17-1.72-.59-2.36-1.23-.61-.62-1.11-1.35-1.64-2.05-.14-.18-.3-.42-.3-.63,.02-1.67-.68-3.15-1.19-4.68-.08-.23-.04-.49-.04-.74,0-.24-.11-.42-.34-.34-.24,.08-.57,.18-.46,.55,.52,1.66,1.05,3.32,1.62,4.96,.11,.31,.03,.59,.09,.87-.63-.59-.78-1.45-1.22-2.14-.23-.36-.29-.82-.65-1.1-.22-.17-.34-.4-.25-.65,.21-.59-.35-1.01-.31-1.55,.02-.25-.11-.37-.35-.34-.22,.02-.54-.13-.56,.29,0,.15-.09,.36-.19,.25-.46-.48-1.07-.07-1.59-.32-.04-1.04-.37-2.05-.7-3.03-.35-1.03-.54-2.1-.86-3.14-.5-1.63-.86-3.29-1.32-4.93-.22-.78-.35-1.6-.59-2.35-.23-.73-.39-1.46-.6-2.19-.28-.99-.43-2.02-.81-3-.46-1.18-.71-2.46-.95-3.71-.18-.94-.45-1.86-.69-2.77-.23-.85-.04-1.29,.63-1.58,.42-.17,.32-.28,.23-.62-.2-.73-.53-1.44-.5-2.23,.01-.34-.1-.64-.23-.97-.27-.7-.56-1.44-.57-2.34-.12,.28-.23,.55-.3,.72-.68-.24-.09-.93-.72-.98Zm81.31-19.66v-.14c-.08,.03-.17,.04-.23,.09-.08,.05-.06,.14,.06,.18,.04,.01,.12-.08,.18-.27,.21,0,.31-.09,.3-.3,.5,.09,.7-.11,.6-.48,1.17-1.01,1.6-2.22,1.49-3.64,0-.1-.22-.49-.5-.35-.11,.06-.51,.16-.23,.52,.51,.64,.08,1.34-.28,1.7-.52,.52-.47,1.05-.49,1.64-.33,.07-.54,.28-.61,.61-.21,0-.31,.09-.3,.44Zm-91.36-2.57c.21,0,.31-.09,.48-.58-.06,.05-.14,.08-.17,.15-.06,.13,0,.19,.13,.13,.06-.03,.1-.11,.14-.18,0-.01-.06-.06-.27,.18-.21,0-.31,.09-.3,.3-.21,0-.31,.09-.3,.3-.49,.27-.96,.55-.92,1.49-.07-.07,.15-.31-.14-.26-.06,.01-.16,.13-.15,.2,0,.13,.07,.25,.12,.37,.14-.05,.2-.15,.18-.58,.49-.27,.96-.55,.91-1.22,.21,0,.31-.09,.3-.3Zm113.9,17.05c0-.21-.09-.31-.3-.3-.67-1.2-1.87-1.33-3.18-1.52h.14c-.03-.08-.04-.17-.09-.23-.05-.08-.14-.06-.18,.06-.01,.04,.08,.12,.27,.18-.05,.19,.1,.32,.22,.35,.98,.3,1.81,.98,2.83,1.17,0,.21,.09,.31,.58,.48-.05-.06-.08-.14-.15-.17-.13-.06-.19,0-.13,.13,.03,.06,.11,.1,.18,.14,.01,0,.06-.06-.18-.27Zm74.31,5.31v-.14c-.08,.03-.17,.04-.23,.09-.08,.05-.06,.14,.06,.18,.04,.01,.12-.08,.35-.55-.06,.05-.14,.08-.17,.15-.06,.13,0,.19,.13,.13,.06-.03,.1-.11,.14-.18,0-.01-.06-.06-.27,.32Zm-168.74-8.49c-.05-.06-.08-.14-.15-.17-.13-.06-.19,0-.13,.13,.03,.06,.11,.1,.18,.14,.01,0,.06-.06-.32-.27,.13,.04,.18,0,.14-.14-.03-.13-.04-.27-.09-.39-.04-.09-.15-.07-.19,.05-.07,.18-.05,.36,.55,.66Zm139.37,27.54c-.39-.38-.64-.29-.87-.3-.07,0-.2,.09-.21,.15-.05,.29,.18,.12,.28,.13,.18,.03,.36,0-.29,0-.3,.12-.77-.28-.91,.3-.3,0-.67-.11-.9,.02-.8,.46-1.75,.4-2.54,.84-.27,.15-.76-.23-.83,.35-.29,0-.57,0-.86,0-.21,0-.38,.04-.36,.3-.76-.03-1.46,.25-2.13,.52-.29,.11-.85-.23-.79,.41-1.32-.14-2.33,.56-3.46,.75-.92,.16-1.85,.42-2.71,.78-.87,.36-1.89,.29-2.67,.89-2.17,.29-4.16,1.26-6.28,1.72-1.12,.24-2.14,.76-3.24,.99-2.65,.55-5.14,1.6-7.78,2.16-.51,.58-1.5,.07-1.98,.92,.29-.02,.57,.05,.76-.05,.79-.45,1.78-.33,2.53-.87,2.83-.39,5.41-1.69,8.2-2.25,1.8-.36,3.46-1.33,5.34-1.41,1.34-.72,2.83-1.01,4.26-1.44,1.58-.47,3.16-.96,4.77-1.35,.7-.17,1.53-.16,2.13-.86,.82,.14,1.54-.39,2.34-.36,.07-.4,.73-.04,.71-.55,.29,0,.57,0,.86,0,.21,0,.38-.04,.36-.3,.85,.11,1.64-.19,2.39-.46,.63-.22,1.39-.17,1.87-.76,.3-.12,.77,.28,2-.3Zm3.35-.91c-.39-.38-.64-.29-.87-.3-.07,0-.2,.09-.21,.15-.05,.29,.18,.12,.28,.13,.18,.03,.36,0-1.38,0,.39,.38,.64,.29,.87,.3,.07,0,.2-.09,.21-.15,.05-.29-.18-.12-.28-.13-.18-.03-.36,0,1.38,0Zm6.21,52.55c.13,.09,.17,.13,.21,.13,.24,0,.48,0,.72,0,0,0,.02-.11,0-.14-.22-.28-.51-.15-.78-.13-.04,0-.07,.06,.79,.28,.14,.59,.61,.19,1.84,.44-.13-.09-.17-.13-.21-.13-.24,0-.48,0-.72,0,0,0-.02,.11,0,.14,.22,.28,.51,.15,.78,.13,.04,0,.07-.06-.79-.28-.14-.59-.61-.19-1.84-.44Zm27.41,9.18c-.06-.18-.16-.23-.31-.22-.09,0-.26-.02-.27,0-.06,.16,.06,.27,.2,.29,.12,.02,.25-.05-1.14-.43,.13,.09,.17,.13,.21,.13,.24,0,.48,0,.72,0,0,0,.02-.11,0-.14-.22-.28-.51-.15-.78-.13-.04,0-.07,.06,1.38,.49ZM61.5,108.28c.13,.09,.17,.13,.21,.13,.24,0,.48,0,.72,0,0,0,.02-.11,0-.14-.22-.28-.51-.15-.78-.13-.04,0-.07,.06,2.2,.28-.56,0-.84-.02-1.12,0-.09,0-.33-.15-.28,.14,.01,.06,.15,.16,.21,.15,.32-.04,.68,.14-1.15-.43Zm138.86,5.49c-.05-.06-.08-.14-.15-.17-.13-.06-.19,0-.13,.13,.03,.06,.11,.1,.18,.14,.01,0,.06-.06-.18-.27,0-.1,0-.2,.18-.58-.06,.05-.14,.08-.17,.15-.06,.13,0,.19,.13,.13,.06-.03,.1-.11,.14-.18,0-.01-.06-.06-.27,.18-.14,0-.36,.06-.41-.01-.31-.36-.54-.21-.71,.09-.09,.14-.06,.35-.09,.53-.26,.15-.31-.47-.58-.17-.3,.34-.37-.11-.56-.14-.34-.05-.44,.36-.79,.33-.27-.03-.48-.09-.64-.3-.11,.2-.29,.57-.31,.56-.51-.21-.9,.57-1.22,.28-.45-.41-.68,0-1,0-.53,0-.68,.22-.8,.62-.68-.67-1.34,.02-2.01,.04-.46,.01-.91,.02-1.37,0-.45-.03-.75,.52-1.24,.31-.38-.16-.52,.46-.94,.31-.56-.2-1.06,.14-1.53,.32-.45,.18-1.08-.13-1.38,.48-.03,.06-.17,.1-.26,.09-1.24-.11-2.32,.69-3.55,.63-.26-.01-.59,.12-.77,.3-.28,.29-.59-.03-.78,.1-.46,.32-.86,.73-1.28,1.24,.04-.13,0-.18-.14-.14-.13,.03-.27,.04-.39,.09-.09,.04-.07,.15,.05,.19,.18,.07,.36,.05,.48-.27,.22,.04,.53-.14,.61,.24,.05,.23-.12,.55,.18,.66,.22,.08,.6,.12,.73,0,.47-.44,1.18-.06,1.61-.52,.92,.16,1.59-.56,2.44-.71,1.43-.24,2.83-.68,4.24-1.06,.73-.2,1.43-.64,2.13-.68,1.13-.06,2.13-.54,3.19-.78,1.69-.38,3.3-1.08,5.01-1.44,.29-.06,.75-.14,.88-.58,.16-.31,.52,.88,.62-.08,.04-.36,.38-.18,.88-.04Zm-54.93,16.63c-1.27-.25-2.28,.45-3.38,.26-.03,0-.12,.15-.14,.23-.04,.16,.03,.3,.18,.35,.09,.03,.22,.04,.3,0,.91-.42,1.98-.26,3.95-.91-.39-.38-.64-.29-.87-.3-.07,0-.2,.09-.21,.15-.05,.29,.18,.12,.28,.13,.18,.03,.36,0-.12,.07Zm-85.43-23.37c-.13-.09-.17-.13-.21-.13-.24,0-.48,0-.72,0,0,0-.02,.11,0,.14,.22,.28,.51,.15,.78,.13,.04,0,.07-.06-.79-.28,0-.41-.31-.29-.53-.3-.21-.01-.4-.02-2.86-8.2-.57-.07-1.05,.06-1.46-.42-.36-.41-.32-.81-.32-1.25,0-1.17,0-2.33,0-3.5,0-1.83-.01-3.65,0-5.48,0-.52-.16-.97-.69-.92-.59,.06-1.13-.2-1.52-.4-.48-.25-1.05-.01-1.38-.35-.44-.44-1.15,.12-1.48-.5-.93,0-1.77-.35-2.64-.6-.4-.12-.69,.15-.5,.45,.55,.87,.54,1.91,.82,2.85,.28,.94,.49,1.94,.72,2.92,.24,1.05,.49,2.11,.84,3.14,.48,1.43,.83,2.91,1.2,4.37,.35,1.43,.91,2.83,.97,4.33,.43,.24,.16,.77,.41,1.04,.21,.24,.7-.08,.93,.33,.04,.07,.28,.02,.42,.06,1.14,.3,2.29,.58,3.44,.88,1.21,.31,2.41,.68,3.62,1,.99,.26,2.02,.43,3,.82,.99,.4,2.07,.68,3.12,.91,1.58,.35,3.1,.86,4.66,1.26,.57,.15,1.15,.61,1.73,0,.57,.17,1.01-.26,1.55-.33,1.57-.18,3.1-.61,4.63-.96,1.66-.39,3.34-.7,4.99-1.17,1.24-.35,2.57-.41,3.71-1.08-1.15-.33-2.26-.76-3.42-.96-1.27-.22-2.47-.65-3.71-.97-1.37-.35-2.79-.57-4.11-1.12-.36-.15-.87-.22-.99-.09-.54,.62-1.44-.11-1.91,.58-.71-.14-1.34,.23-2.01,.29-.49,.04-.86,.5-1.4,.33-.51-.16-.93,.23-1.4,.29-1.15,.13-2.26,.47-3.39,.68-.88,.16-1.74,.21-2.62,.26-.82,.05-1.38-.07-2.06-.3-1.31-.45-2.24-1.37-3.13-2.35-.25-.27-.36-.66-.58-.97-.32-.45-.2-.69,.3-.84,.04-.01,.07-.34,0-.43-.45-.51-.22-1.13,2.14,6.09-.59,.05-1.15-.23-1.7-.27-1.22-.09-2.27-.72-3.47-.85-.36-.04-.82,.09-1.12-.17-.36-.31-.77-.39-.98-.01-.19,.36,.35,.54,.54,.81,.09,.12,.22,.15,.37,.2,1.82,.58,3.74,.71,5.58,1.2,.12,.03,.33,0,.41-.09,.39-.41,.87-.11,2.22-.07Zm6.72-6.01c-.48-.65-1.17-.6-1.74-.81-1.77-.65-3.67-.81-5.43-1.51-.29-.12-.44,.11-.63,.27-.26,.23,.06,.29,.11,.43,.31,.99,1.29,1.4,1.88,2.16,.07,.09,.25,.15,.38,.15,.71,.01,1.46,.16,2.11-.03,1.06-.3,2.13-.49,3.32-.67Zm48.39,23.24c0-.05,.01-.14,0-.15-.8-.27-1.62-.54-2.43-.72-1.75-.41-3.44-1.03-5.19-1.44-1.55-.36-3.09-.82-4.62-1.28-1.94-.58-3.92-1.06-5.88-1.6-.59-.16-1.14-.51-1.73-.58-1.9-.22-3.65-.97-5.48-1.45-1.14-.3-2.26-.69-3.39-.95-.88-.2-1.73-.52-2.6-.73-.89-.21-1.8-.55-2.69-.8-1.49-.42-2.97-.94-4.5-1.25-2.12-.43-4.17-1.12-6.33-1.65,.38-.34,.88-.31,1.06-.17,.51,.39,1.17,.05,1.54,.31,.59,.42,1.16,.16,53.49,14.01,.05-.41-.01-.59-.52-.68-.78-.14-1.56-.39-2.34-.59-1.32-.33-2.62-.78-3.94-1.14-1.64-.45-3.32-.8-4.94-1.3-1.04-.32-2.1-.55-3.14-.85-1.59-.47-3.19-.89-4.8-1.29-1.04-.26-2.11-.46-3.14-.85-1.05-.39-2.18-.62-3.27-.93-1.73-.49-3.49-.89-5.23-1.34-1.37-.36-2.74-.74-4.11-1.11-1.69-.46-3.37-.94-5.07-1.35-1.38-.34-2.73-.76-4.12-1.09-1.34-.32-2.67-.69-4-1.01-.41-.1-.9-.19-1.33-.47-.47-.3-.98,.31-1.53,.28-.09,0-.34-.16-.29,.14,.01,.06,.15,.13,.23,.15,1.79,.3,3.54,.73,5.29,1.19,1.97,.53,4.03,.68,5.91,1.55,2.21,.13,4.17,1.33,6.37,1.52,.94,.61,2.07,.65,3.11,.95,1.09,.32,2.18,.66,3.27,.95,1.03,.28,2.08,.58,3.12,.88,1.09,.32,2.11,.9,3.29,.87,.76,.67,1.79,.62,2.68,.87,.86,.24,1.78,.38,2.61,.69,.89,.32,1.89,.28,2.68,.88,2.18,.28,4.2,1.18,6.36,1.58,.67,.13,1.4,.27,2.04,.56,.7,.32,1.45,.44,2.17,.66,.68,.21,1.4,.25,2.05,.55,.31,.14,.74,.53-51.18-14.01-.04-.09-.06-.24-.11-.25-1.54-.33-3.09-.62-4.62-.98-1.02-.24-2.07-.43-3.07-.69-1.56-.42-3.13-.79-4.71-1.09-.39-.07-.66-.4-1.09-.35-.4,.04-.91,.14-1.18-.05-.68-.48-1.31-.14-2-.08,.99,.3,1.6,1.17,2.64,1.43,1.26,.32,2.45,.92,3.73,1.27,1.81,.49,3.58,1.15,5.38,1.7,1.45,.44,2.91,.82,4.36,1.23,.68,.19,1.33,.47,2.02,.65,1.05,.27,2.13,.42,3.14,.86,.86,.37,1.9,.25,2.66,.93,1.03-.23,1.89,.29,2.79,.61,.5,.18,.99,.38,1.55,.31,.19-.03,.43-.03,.58,.06,1.22,.73,2.64,.74,3.93,1.17,1.03,.35,2.1,.54,3.15,.84,.77,.22,1.4,.79,2.32,.71,.77-.07,1.47,.66,2.33,.56,.47,.51,1.2,.08,1.66,.39,.66,.43,1.32,.59,2.07,.52,.22-.02,.36,.08,.53,.2,.69,.44,1.52,.5,2.29,.7,.65,.16,1.28,.47,2,.35,.69-.12,1.18,.52,1.86,.67,.61,.14,1.29,.41,1.9,.49,1.44,.18,2.69,.95,4.1,1.15,.46,.07,.82,.78,1.4,.13,.17-.19,.44,.15,.59,.34,.33,.44,.74,.62,1.3,.57,.79-.07,1.52,.24,2.22,.52,1.36,.55,2.94,.36,4.19,1.28,.13,.1,.4,.01,.6,.01,.25,0,.51,.02,.76,0,.18-.02,.27,.63,.48,.07,.08-.2-.06-.31-.31-.39-.44-.14-.84-.54-1.28-.56-1.36-.09-2.51-.86-3.84-1.06-.65-.1-1.31-.27-1.92-.51-.67-.26-1.3-.56-2.04-.62-.33-.03-.88-.27-.92-.5-.15-.74-.65-.25-.96-.38Zm113.6-36.24c0,.71,.19,1.49-.04,2.11-.48,1.33-.17,2.67-.25,3.99-.04,.66,.51,1.15,1.21,1.2,.25,.02,.61-.1,.74,.02,.5,.5,1.2,.39,1.76,.51,.64,.14,1.29,.45,1.99,.38,.64-.06,1.27,.21,1.83,.37,.62,.19,1.3,.02,1.83,.33,.58,.34,1.17,.17,1.74,.17,.22,0,.45-.52,.72-.15,.26,.36,.56-.4,.8,.12,.07,.17,.32,0,.5-.24,.46-.58-.15-1.25,.28-1.77,0-3.24,.05-6.49-.03-9.73-.03-1.12-.49-2.16-1.43-2.89-.08-.06-.08-.22-.32-.15-1.35,.42-2.75,.68-4.12,1.05-1.56,.43-3.09,1.07-4.76,1,.59-.49,1.28-.88,1.37-1.79,.02-.19,.05-.27-.07-.43-.25-.34-.4-.09-.53,.08-.32,.42-.61,.39-.95,.01-.07-.07-.28-.01-.43-.01,.07-.38,.45-.52,.64-.8,.15-.22,.68,.02,.58-.49-.08-.38-.48-.28-.7-.42-.34-.2-.78-.22-1.23,.1-.58,.41-1.29,.65-1.77,1.21-.45,.53-.84,.49-1.39,.11-1.06-.73-2.36-.69-3.57-.89-.52-.09-1.03-.22-1.54-.33-.51-.11-1.11,.22-1.54-.31-1.47,.02-2.85-.56-4.31-.63-.77-.03-1.5-.44-2.31-.29-1.89-.76-3.96-.6-5.88-1.22-.86,.21-1.66-.2-2.44-.37-.72-.16-1.47-.07-2.14-.3-1.37-.48-2.81-.57-4.21-.81-.52-.09-1.03-.22-1.54-.33-.51-.11-1.11,.18-1.54-.32-1.47,.02-2.85-.55-4.31-.63-.77-.04-1.51-.41-2.31-.28-.47-.68-1.28-.09-1.92-.55-.46-.33-1.29-.09-1.98-.31-.61-.19-1.34-.3-1.99-.3-.91,0-1.71-.52-2.61-.36-1.63-.71-3.5-.46-5.12-1.22-1.44,.14-2.74-.62-4.16-.61-.65-.49-1.44-.15-2.13-.37-.77-.25-1.56-.41-2.35-.59-.73-.16-1.55-.03-2.13-.32-.73-.37-1.33-.09-2.01-.26,.15,1.03,.63,1.84,.61,2.76-.19,.03-.25-.09-.31-.24-.26-.76-.47-1.53-.62-2.32-.07-.38-.61-.62-.8-.43-.24,.24-.06,.42,.11,.63,.27,.32,.04,.74,.19,1.13,.5,1.27,.9,2.57,1.1,3.93,.05,.31,.41,.43,.34,.78-.02,.12,.18,.2,.34,.18,.29-.04,.32-.29,.24-.44-.37-.64-.28-1.32-.29-2,.3-.02,.31,.19,.3,.39-.03,.74,.25,1.43,.53,2.06,.26,.6,1.02,.12,1.5,.34,1.54,.69,3.24,.75,4.85,1.11,1.26,.28,2.56,.5,3.83,.72,1.45,.25,2.9,.55,4.34,.88,.62,.14,1.37,.06,1.82,.34,.68,.42,1.52-.1,2.07,.54,.76-.19,1.42,.29,2.15,.35,.71,.06,1.51,.09,2.14,.32,1.23,.44,2.52,.53,3.76,.8,1.26,.27,2.54,.56,3.84,.72,.92,.11,1.89,.31,2.78,.6,.93,.3,1.89,.35,2.81,.51,1.28,.22,2.49,.88,3.84,.67,1.65,.67,3.43,.75,5.13,1.17,1.66,.41,3.39,.63,5.08,.97,.76,.15,1.6,.14,2.29,.36,1.24,.41,2.52,.48,3.76,.8,.97,.25,2,.57,3.05,.35,.37-.08,.55,.57,.9,.24,.27-.26,.17-.7,.35-1.07,.19-.39,.35-.86,.52-1.3,.27,.11,.02,.5,.37,.6,.09-.53,.23-1.05,.6-1.5,.22,.28-.07,.65,.24,.9,.45-.45,.91-.9,1.36-1.37,.16-.16,.34-.24,.51-.09,.09,.08,.14,.29,.1,.4-.59,1.45-.7,3.08-1.88,4.4,.38,0,.58,0,.78,0,.97-.03,.99-.05,1.11-1.13,.02-.2,0-.42,.31-.39Zm-54.51,25.28c.05,0,.14-.01,.15,0,.19,.79,.38,1.57,.58,2.43,1.33,.05,2.58-.7,3.94-.61,.45-.65,1.2-.12,1.79-.46,.55-.32,1.28-.39,1.94-.43,.64-.04,1.25-.25,1.83-.4,.62-.16,1.25-.13,1.85-.29,1.24-.34,2.49-.64,3.75-.86,.66-.11,1.37-.18,1.98-.37,1.79-.55,3.63-.79,5.45-1.18,.62-.13,1.3-.11,1.84-.32,1.57-.63,3.24-.78,4.86-1.11,1.21-.25,2.39-.85,3.69-.68,.47-.68,1.4,.07,1.88-.6,.75,.14,1.46-.23,2.14-.38,.61-.14,1.24-.11,1.84-.3,1.18-.38,2.41-.55,3.61-.84,1.16-.27,2.33-.49,3.48-.8,.59-.16,1.17-.17,1.74-.03,.82,.19,1.28-.07,1.29-.8,0-.56-.02-1.12,0-1.67,.02-.51-.14-.79-.67-.99-.88-.33-1.75-.71-2.68-.88-1.08-.21-2.14-.5-3.22-.71-1.1-.21-2.22-.47-3.31-.76-.53-.14-1.1-.4-1.68-.36-.6,.04-1.1-.31-1.69-.37-.55-.06-1.29-.02-1.67-.29-.63-.45-1.43,.09-1.93-.52-.66,.12-1.2-.39-1.84-.34-.69,.05-1.29-.51-2.01-.31-.51-.63-1.37,0-1.91-.53-1.16-.06-2.2-.62-3.37-.72-.65-.06-1.34-.16-1.97-.37-1.14-.38-2.31-.56-3.48-.78-1.18-.22-2.3-.7-3.52-.71-.46-.59-1.32,.14-1.76-.54-.72,.21-1.3-.34-2.01-.34-.65,0-1.38-.14-1.97-.36-1.09-.39-2.22-.59-3.32-.77-1.24-.2-2.43-.57-3.68-.76-1.09-.16-2.21-.55-3.31-.76-1.22-.23-2.42-.69-3.69-.67-.61-.67-.49,0-.44,.27,.21,1.02,.38,2.07,.73,3.04,.69,1.92,1.05,3.92,1.63,5.86,.5,1.67,1.05,3.34,1.4,5.07,.28,1.38,.95,2.67,1.12,4.1,.04,.34,.5,.61,0,1-.11,.09-.15,.5,.06,.69,.42,.38,.11,.86,.21,1.29-.19,.03-.32-.1-.29-.24,.11-.52-.48-.86-.33-1.4,.03-.12-.17-.21-.34-.19-.17,.03-.27,.1-.26,.29,0,.15-.05,.33,0,.45,.87,1.57,.82,3.38,1.36,5.05,.19-.24,.63-.45,.43-.72-.49-.65-.17-1.35-.28-2.02Zm-115.27-30.8c.77,.1,1.39,.11,2,.28,.57,.16,1.26,.25,1.82,.43,1.04,.34,2.12,.52,3.17,.77,1.39,.33,2.76,.72,4.16,1,1.08,.21,2.17,.36,3.22,.68,1.86,.56,3.76,.97,5.64,1.45,1.06,.27,2.16,.43,3.21,.72,2.33,.65,4.72,1.06,7.05,1.71,1.46,.4,2.94,.73,4.4,1.13,1.56,.43,3.17,.67,4.76,1.01,.66,.14,1.3,.43,2,.31,1.09,.72,2.44,.38,3.59,.9,.2,.09,.58,.07,.71-.06,.26-.27,.54-.24,.83-.22,.84,.03,1.59-.34,2.38-.5,.84-.17,1.65-.64,2.44-.66,1.29-.04,2.48-.47,3.69-.73,1.28-.28,2.58-.58,3.84-.99,1.31-.42,2.65-.72,3.98-1.03,1.85-.44,3.67-.91,5.45-1.57,.82-.31,1.36-1.34,1.27-2.31-.06-.68,.32-1.19,.76-1.66,.25-.27,.26-.48-.2-.6-.86-.23-.87-.26-.87-1.06,0-3.35,0-6.7,0-10.05,0-.36,.17-.64,.27-.95,.18-.54,.31-.54,.69-.23,.32,.26,.58,.18,.56-.26-.02-.48,.24-1.07-.18-1.42-.34-.28-.71,.17-1.07,.28-.09,.03-.2,.02-.3,0-.85-.16-1.61,.49-2.46,.31-1.65,.67-3.47,.58-5.13,1.22-1.44-.13-2.74,.63-4.16,.61-.53,.5-1.23,.18-1.83,.37-.82,.26-1.65,.53-2.51,.53-.79,0-1.5,.52-2.3,.33-.55,.63-1.49-.04-2.04,.6-.76-.19-1.42,.28-2.15,.35-.71,.06-1.53,.06-2.14,.31-1.67,.69-3.47,.58-5.17,1.11-.84,.27-1.78,.4-2.68,.53-.91,.13-1.82,.3-2.7,.5-.68,.16-1.4,.04-2,.29-1.17,.47-2.42,.53-3.61,.81-.78,.18-1.59,.58-2.45,.37-.65,.69-1.68-.06-2.34,.61-1.84,.05-3.57,.83-5.41,.91-.52,.52-1.22,.19-1.82,.39-1.22,.41-2.51,.63-3.77,.78-.82,.1-1.6,.56-2.46,.36-1.8,.7-3.73,.78-5.59,1.17-1.26,.26-2.52,.7-3.85,.68-.18,0-.36,.28-.69,.55Zm64.31,46.22c-.62-.13-.93-.43-1.37-.52-.97-.2-1.91-.53-2.86-.8-1.54-.44-3.09-.87-4.63-1.31-.41,.34-.69-.22-1.16-.15-1.01,.15-1.89,.65-2.89,.79-1.31,.18-2.52,.87-3.89,.88-.65,.5-1.4,.54-2.18,.63-.74,.09-1.41,.49-2.18,.61-.97,.15-1.9,.54-2.86,.8-1.33,.35-2.67,.66-4,1-1.42,.37-2.81,.89-4.25,1.12-1.42,.22-2.76,.72-4.15,1.06-.95,.24-1.92,.56-2.87,.75-1.41,.28-2.76,.74-4.14,1.08-.95,.23-1.92,.53-2.87,.75-1.34,.32-2.63,.8-4,1.05-1.35,.24-2.71,.56-4.01,.98-2.17,.71-4.4,1.13-6.59,1.73-.77,.21-1.54,.45-2.29,.72-.11,.04-.35,.14-.23,.53,.4,1.36,.92,2.68,1.28,4.03,.36,1.35,1.11,2.35,2.08,3.26,.37,.34,.76,.56,1.27,.61,1.35,.12,2.65-.15,3.96-.39,1.02-.19,2-.56,3-.83,.64-.17,1.32-.23,1.94-.46,.66-.24,1.19-.76,1.88-.97,.15-.04,.5-.32-.05-.41-.31-.05-.58-.28-.57-.58,0-.38,.28-.64,.68-.62,.38,.02,.45-.14,.58-.47,.1-.24,.23-.75,.38-.72,.7,.17,1.27-.59,2.05-.23-.58,.51-1.45,.32-1.87,.96,.16,.22,.43,.2,.56,.13,.54-.33,1.13-.33,1.71-.28,.79,.07,1.43-.2,2.01-.8-.29-.1-.35-.48-.74-.44-.11,.01-.28-.23-.07-.26,.78-.11,.67-.85,.91-1.29,.29-.51,.69-.75,1.16-.86,.74-.17,1.47-.37,2.2-.57,.77-.21,1.58-.52,2.35-.53,.79-.01,1.3-.41,1.9-.73,.08-.04,.2-.03,.3-.02,.8,.09,1.63-.11,2.23-.47,.75-.46,1.57-.43,2.32-.65,1.63-.48,3.25-1.05,4.94-1.32,.47-.07,.93-.25,1.38-.36,.38-.1,1.01,.18,1.24-.45,.02-.06,.17-.11,.25-.1,.76,.1,1.5-.1,2.08-.48,.7-.46,1.47-.38,2.2-.59,1.13-.34,2.24-.77,3.38-1.03,1.71-.4,3.36-.99,5.07-1.38,1.28-.29,2.55-.66,3.82-1.06,1.76-.55,3.59-.89,5.58-1.36Zm-11.16-34.12c.44,.05,.7,.52,1.2,.43,.44-.08,.83,.12,1.25,.27,.44,.15,1-.11,1.39,.33,1.64,.09,3.16,.8,4.79,.9,.41,.02,.64,.42,1.09,.34,.37-.07,.82-.14,1.09,.29,.73-.11,1.42,.36,2.19,.02,.73-.32,1.54-.57,2.32-.61,1.7-.08,3.22-1.02,4.94-.96,1.79-.8,3.77-.87,5.63-1.45,.84-.27,1.76-.36,2.63-.63,.9-.27,1.86-.41,2.79-.58,.57-.1,1.08-.44,1.69-.37,.74,.08,1.36-.38,2.03-.6,.42-.14,.61-.41,.6-.89-.03-1.47-.01-2.94,0-4.41,0-.27-.11-.35-.35-.51-.72-.48-1.54-.48-2.32-.68-1.1-.28-2.22-.56-3.32-.76-1.22-.23-2.42-.57-3.66-.76-1.41-.22-2.79-.65-4.22-.82-.24-.03-.47,.01-.72-.09-.82-.31-.89-.29-1.12,.44-.16,.49-.41,.95-.46,1.49-.06,.66-.37,1.24-.7,1.84-.46,.83-1.02,1.52-1.64,2.21-.74,.84-1.39,1.38-2.46,1.73-.58,.19-1.14,.51-1.73,.58-.68,.08-1.32,.29-1.99,.4-.87,.14-1.76,.38-2.62,.62-.88,.25-1.78,.36-2.65,.58-1.19,.3-2.41,.55-3.57,.91-.69,.21-1.53,.11-2.09,.74Zm42.63,24.12c0,.76-.02,1.52,0,2.28,.02,.38-.2,.85,.18,1.11,.29,.21,.45-.33,.78-.29,.3,.03,.61,0,.91,0,.26,.01,.49-.02,.66-.25,.36-.48,1.21-.42,1.38-.9,.26-.73,1.03-.69,1.38-1.23,.3-.45,.75-.64,1.37-.73,.98-.13,1.91-.61,2.94-.57,.48-.66,1.4,.08,1.89-.59,.71,.16,1.3-.32,2-.35,1.04-.03,2.02-.57,3.1-.57,.11-.4,.75-.14,.78-.72,.09-1.54-.24-2.97-.91-4.35-.12-.25-.15-.37-.45-.42-.96-.16-1.92,.11-2.75,.38-1.5,.48-3.02,.8-4.53,1.2-.94,.25-1.89,.6-2.84,.84-.97,.24-1.94,.51-2.93,.7-.76,.14-1.57,.32-2.3,.66-.34,.16-.79,.24-.71,.9,.12,.95,.03,1.92,.03,2.89Zm-7-47.1c0-.51,.13-1.06-.03-1.5-.19-.5-.23-1.02-.36-1.52-.82-.07-.37-.74-.54-1.11-.11-.23-.36-.4-.69-.5-.65-.19-1.4-.1-1.94-.41-.54-.31-1.12,.09-1.56-.28-.45-.38-1.11-.34-1.4-.14-.54,.38-1.08,.09-1.57,.28-1.25,.5-2.59,.63-3.89,.85-1.62,.27-2.56,.93-2.93,2.47-.06,.25-.1,.5,.37,.64,1.58,.49,3.19,.88,4.82,1.16,.44,.07,.75,.42,1.24,.36,.47-.06,1-.16,1.39,.29,1.22-.03,2.33,.55,3.54,.64,.97,.07,1.89,.59,2.91,.39,.57,.46,.66,.13,.65-.38,0-.4,0-.81,0-1.21Zm1.34-3.69c.54,.75,.49,1.42,.49,2.1,0,1.06,0,2.12,0,3.18,0,.19-.04,.39,.19,.5,.42,.2,.83,.55,1.27,.58,1.11,.07,2.16,.47,3.24,.6,1.3,.15,2.52,.7,3.84,.65,.51,.63,1.36,0,1.91,.53,.08,.07,.29,.09,.4,.03,.22-.12,.18-.45,.11-.53-.43-.47-.17-1.11-.48-1.63-.25-.43-.09-1.04-.42-1.49,.45-.32-.05-.66,.02-.96,.11-.49-.31-.81-.31-1.24,0-.49-.28-.7-.69-.79-.93-.21-1.85-.42-2.78-.61-.75-.15-1.54-.17-2.25-.43-.68-.25-1.4-.25-2.08-.44-.69-.2-1.48-.04-2.43-.04Zm-17.79,55.51c0,.66-.01,1.32,0,1.98,.01,.4,.27,.69,.65,.66,.77-.07,1.52,.08,2.33-.22,.77-.29,1.65-.49,2.44-.74,1.3-.42,2.65-.64,3.94-1.13,1.14-.43,2.36-.81,3.57-.89,.97-.06,1.67-.69,2.57-.82,.14-.02,.39-.18,.12-.54-.56-.74-1.42-.57-2.12-.79-1.63-.51-3.32-.8-4.96-1.27-.71-.21-1.36-.55-2.04,.02-.62-.22-1.12,.25-1.7,.33-1.37,.18-2.64,.8-4.04,.91-.47,.03-.78,.52-.79,.99,0,.51,0,1.01,0,1.52Zm18.27-36.91c0,1.56,0,3.07,0,4.58,0,.11,.06,.37,.22,.17,.37-.44,.49,.27,.87,.12,.98-.39,2.05-.46,3.05-.73,1.56-.43,3.14-.75,4.71-1.11,.61-.14,1.18-.49,1.85-.33,.15,.04,.25-.1,.26-.28,0-.19-.08-.3-.24-.31-.35-.02-.74,.09-1.06-.03-.86-.31-1.78-.41-2.63-.66-.62-.18-1.23-.16-1.83-.33-1.38-.39-2.76-.86-4.23-.81-.35,.01-.61-.15-.99-.29Zm-115.04,3.4c-.39,.39-.55,.57-.73,.72-.75,.67-1.29,1.33-.6,2.42,.23,.36,.12,1.01,.01,1.49-.13,.56,.47,.88,.33,1.4-.01,.05,.02,.11,0,.15-.52,1.09-.24,2.24-.3,3.37-.03,.6-.08,1.23,.04,1.81,.26,1.3,.3,1.29,0,2.37-.07,.24-.15,.55,.02,.7,.35,.29,.22,.65,.23,.98,.01,1.42,.07,2.84-.01,4.25-.08,1.4,.53,2.73,.32,4.13-.06,.4,.12,.5,.51,.51,.51,0,.46-.34,.39-.6-.1-.36-.3-.67-.31-1.09-.11-4.26,.23-8.53-.24-12.79-.25-2.2-.04-4.45-.04-6.68,0-.3-.13-.71,.02-.89,.53-.65,.15-1.32,.36-2.24Zm26.68,21.71c-.41-.12-.7-.38-1.06-.5-1.3-.42-2.67-.6-3.91-1.19-.62,.22-1.22-.13-1.67-.36-.58-.3-1.23-.1-1.78-.52-.38-.29-.63,.04-.69,.58-.05,.48,.45,.77,.33,1.25-.12,.46,.14,.84,.29,1.24,.18,.48,.32,.97,.47,1.46,.42-.64,1.16-.03,1.65-.42,.11-.09,.25-.15,.38-.17,2.04-.24,4-.86,5.98-1.36Zm90.87-3.21c.39,0,.79,.04,1.17-.01,.3-.04,.63-.31,.56-.57-.21-.76-.37-1.63-.85-2.2-.67-.78-1.2-1.68-1.97-2.38-.77-.7-1.54-1.15-2.6-.84v1.65c2.07,.04,3.7,2.16,3.69,4.35Zm-16.2,20.33c-.02-.32,.01-.68-.04-.69-.51-.13-.64-.7-1.12-.9-.33-.13-.47-.2-.75,.05-.61,.53-.65,1.36-1.11,1.99-.29,.4,.19,.9,.32,1.35,.34-.11,.66-.27,1.04-.24,.1,0,.23-.26,.34-.26,1.05,.08,1.05-.8,1.33-1.3Zm-21.27,4.24c.92,.16,1.82-.11,2.65-.38,1.71-.57,3.59-.46,5.21-1.35,.08-.04,.2,0,.3,0,.96-.16,1.92-.38,2.91-.32,.51,.03,.75-.33,.75-.88,0-.27-.15-.35-.37-.32-.24,.03-.35,.27-.63,.32-1.36,.23-2.62,.88-4.03,.9-2.17,.99-4.57,1.14-6.79,2.03Zm37.98-68.81c.75-.26,1.25,.44,1.94,.38,.89-.08,1.69,.43,2.57,.37,.35,.46,.56-.02,.62-.17,.37-.86-.03-1.39-1.01-1.42-1.41-.04-2.7,.58-4.12,.84Zm-17.26,63.32c.99,.14,1.73,.35,2.5,.41,.39,.03,.64-.15,.7-.52,.02-.11-.38-.35-.02-.37,1.35-.08,2.54-.75,3.85-.98,.47-.08,.84-.45,1.28,.03,.06,.06,.42,.03,.38-.08-.12-.32-.3-.52,.25-.57,.23-.02,.02-.21-.09-.25-.37-.1-.63,.22-.94,.28-2.6,.51-5.15,1.16-7.91,2.05Zm25.03-61.64c.27-.36,.7-.58,.42-.85-.31-.3-.08-.75-.31-.93-.5-.38,.02-.99-.4-1.36-.19-.16-.34-.4-.62-.25-.22,.11-.17,.38-.12,.54,.31,.92,.66,1.84,1.03,2.85Zm-27.22,2.33c-.04-.19-.12-.31-.31-.27-.22,.04-.47-.12-.62,.23-.26,.6-.62,1.15-.88,1.75-.11,.26,0,.46,.36,.46,.46,0,.81-.18,.82-.64,0-.47,.34-.77,.47-1.17,.04-.13,.18-.22,.16-.35Zm16.75,56.11c.09,.42-.22,.94,.29,1.33,.3,.23,.63,.19,.59-.15-.04-.36,.41-.61,.21-.86-.26-.33-.14-.65-.17-.98-.03-.4-.33-.27-.55-.29-.21-.02-.39,.03-.37,.31,.01,.2,0,.4,0,.64Zm92.53-20.69c-.08,0-.17,0-.25-.01,0,.8-.02,1.59,0,2.39,.03,.8-.11,1.61,.25,2.39v-4.77Zm-95.55,20.88c.76,.34,1.38-.31,2.12-.32-.3-.31-.54-.56-.78-.82-.18,.3-.47,.32-.78,.3-.12,0-.34,.03-.19,.22,.53,.68-.52,.18-.36,.61Zm-79.56,24.32c1.4,.13,1.97-.01,3.27-.94-1.24,.43-2.3,.33-3.27,.94Zm-32.59-32.42c-.08,0-.17,0-.25,0,0,1.35,0,2.7,0,4.05,0,.04,.06,.08,.1,.11,.17,.12,.04-.2,.15,.12v-4.28Zm189.84-4.37c.2-.87,.35-1.76,0-2.63v2.63Zm-189.13,21.02c.2-.78,.37-1.57,0-2.33v2.33ZM142.48,34.92c-.04-.07-.06-.15-.11-.2-.16-.18-.33-.4-.6-.29-.09,.04-.17,.25-.15,.36,.06,.36,.38,.2,.59,.22,.08,0,.17-.06,.27-.09Zm-2.64,.76c.37,.19,.77,.37,1.36,0h-1.36Zm82.42,71.66c-.38-.06-.78-.35-1.15,.09,.42,.11,.79,.13,1.15-.09Zm-177.03-4.1c-.15,.04-.43-.1-.4,.2,.02,.18,.25,.11,.39,.1,.16,0,.43,.11,.4-.19-.02-.18-.25-.09-.39-.11Zm150.88,23.3c.32,.24,.62,.24,.94,0-.32-.24-.62-.24-.94,0Zm-48.71,3.19c.02-.27-.18-.31-.38-.29-.08,0-.15,.09-.23,.14,.18,.12,.24,.4,.51,.39,.03,0,.06-.16,.1-.25Zm77.81-42.64c-.24,.32-.24,.62,0,.94,.24-.32,.24-.62,0-.94Zm-96.68,.02c.27,.02,.31-.18,.29-.38,0-.08-.09-.15-.14-.23-.12,.18-.4,.24-.39,.51,0,.03,.16,.06,.25,.1Zm-57.31,60.72c-.1-.18-.27-.11-.4-.1-.04,0-.13,.15-.11,.19,.08,.17,.25,.11,.39,.1,.05,0,.08-.12,.12-.18Zm42.38-14.43c.08-.03,.23-.06,.24-.11,.03-.18-.1-.22-.25-.2-.09,.02-.23,.05-.24,.1-.03,.18,.1,.21,.25,.2Zm-78.58-5.49c-.03-.08-.06-.23-.11-.24-.18-.03-.22,.1-.2,.25,.02,.09,.05,.23,.1,.24,.18,.03,.21-.1,.2-.25Zm96.55-1.21c-.15-.01-.28,.02-.25,.2,0,.05,.15,.09,.24,.1,.15,.03,.28-.02,.25-.2,0-.05-.16-.07-.24-.11Zm68.22-1.22c-.15-.01-.28,.02-.25,.2,0,.05,.15,.09,.24,.1,.15,.03,.28-.02,.25-.2,0-.05-.16-.07-.24-.11Zm-62.13-88.93c.08-.03,.23-.06,.24-.11,.03-.18-.1-.22-.25-.2-.09,.02-.23,.05-.24,.1-.03,.18,.1,.21,.25,.2Zm65.38,141.29c.18,.04,.3-.02,.4-.14-.08-.05-.16-.15-.23-.14-.13,.01-.25,.09-.38,.14,.08,.05,.15,.1,.21,.14Zm5.79,1.83c.18,.04,.3-.02,.4-.14-.08-.05-.16-.15-.23-.14-.13,.01-.25,.09-.38,.14,.08,.05,.15,.1,.21,.14Zm1.01,.01c-.15-.01-.28,.02-.25,.2,0,.05,.15,.09,.24,.1,.15,.03,.28-.02,.25-.2,0-.05-.16-.07-.24-.11ZM44.3,103.22c.19-.1,.2-.19,.05-.23-.12-.03-.27-.03-.4,0-.15,.04-.15,.15,0,.2,.12,.04,.26,.03,.34,.03Zm157.02,10.03c-.07-.11-.13-.19-.18-.27-.05,.13-.13,.25-.14,.38,0,.07,.09,.15,.14,.23,.06-.12,.12-.24,.18-.34Zm-137.06-4.23c.08-.03,.23-.06,.24-.11,.03-.18-.1-.22-.25-.2-.09,.02-.23,.05-.24,.1-.03,.18,.1,.21,.25,.2Zm10.91,2.63c-.04-.06-.07-.13-.11-.2-.03,.03-.1,.08-.1,.1,.02,.07,.06,.14,.1,.2,.03-.03,.07-.07,.11-.11Zm148.21-4.76s-.1,.08-.1,.1c.02,.07,.06,.14,.1,.2,.03-.03,.1-.08,.1-.1-.02-.07-.06-.14-.1-.2Zm-12.49,73.09s-.1,.08-.1,.1c.02,.07,.06,.14,.1,.2,.03-.03,.1-.08,.1-.1-.02-.07-.06-.14-.1-.2Zm30.26-80.51c-.04-.06-.07-.13-.11-.2-.03,.03-.1,.08-.1,.1,.02,.07,.06,.14,.1,.2,.03-.03,.07-.07,.11-.11Zm-205.68-11.46s-.1,.08-.1,.1c.02,.07,.06,.14,.1,.2,.03-.03,.1-.08,.1-.1-.02-.07-.06-.14-.1-.2Zm103.13-51.97c.04,.06,.07,.13,.11,.2,.03-.03,.1-.08,.1-.1-.02-.07-.06-.14-.1-.2-.03,.03-.07,.07-.11,.11Zm90.97,43.94c-.04-.06-.07-.13-.11-.2-.03,.03-.1,.08-.1,.1,.02,.07,.06,.14,.1,.2,.03-.03,.07-.07,.11-.11ZM72.13,147.51s-.07-.07-.11-.11c-.03,.07-.08,.13-.1,.2,0,.03,.06,.07,.1,.1,.04-.07,.07-.13,.11-.2ZM158.41,63.45c.04,.06,.07,.13,.11,.2,.03-.03,.1-.08,.1-.1-.02-.07-.06-.14-.1-.2-.03,.03-.07,.07-.11,.11Z"/><path d="M70.05,211.05c-.71-.06-2.41-.6-2.95-.97-.55-.38-1.21-.59-1.8-.8-1.29-.46-2.49-1.11-3.77-1.57-2.07-.75-3.99-1.87-6.14-2.47-.8-.22-1.55-.66-2.32-1.01-2.65-1.2-5.39-2.18-8.05-3.36-1.7-.76-3.49-1.38-5.24-2.05-1.52-.58-2.89-1.65-3.41-3.34-.29-.94-.47-1.99,.63-2.67,.24,.2,.2,.61,.52,.8,.26,.16,.53,.09,.54-.19,.02-.3,0-.61,0-.91,.01-.31-.23-.49-.42-.58-.93-.46-2.21,.33-2.33,1.37-.12,1.02,.15,1.95,.72,2.74,.42,.59,.79,1.19,1.18,1.79,.2,.3,.54,.53,.88,.75,1.39,.92,2.95,1.48,4.47,2.08,.96,.38,1.93,.73,2.88,1.14,2.07,.89,4.18,1.67,6.25,2.54,.99,.42,2.01,.81,2.97,1.28,1.15,.55,2.34,.97,3.52,1.43,.26,.1,.52,.2,.78,.32,2.24,.97,4.48,1.93,6.74,2.84,2.7,1.09,5.28,2.44,8.09,3.26,1.4,1,3.1,1.33,4.61,2.1,.99,.51,2.17,.61,3.13,1.25,.76-.14,1.08,.71,1.83,.76,.61,.04,1.21,.48,1.81,.74,1.94,.83,3.89,1.64,5.83,2.46,.78,.33,1.56,.67,2.36,.9,.82,.24,1.43,.98,2.36,.93,1.39,1.01,3.08,1.42,4.62,2.07,2.07,.87,4.15,1.74,6.25,2.55,1.52,.59,3.03,1.25,4.54,1.91,2.1,.92,4.19,1.89,6.38,2.62,.88,.3,1.69,.81,2.57,1.15,.88,.34,1.77,.67,2.69,.84,.45,.08,1.04-.08,1.42-.35,.39-.27,.88-.48,1.11-1.01,.13-.3,.24-.62,.08-.82-.2-.26-.19-.37,.04-.56,.87-.74,1.08-1.3,1.26-2.19,.57-2.79,.17-5.6,.28-8.4,.05-1.17-.08-2.34,.03-3.5,.1-1.02-.42-1.92-.35-2.92,.07-.96,.02-1.93,.02-2.89,0-.25-.02-.51,0-.76,.02-.16,.14-.24,.32-.22,.18,.01,.28,.1,.28,.27,0,.6,0,1.2,0,1.87,.32,0,.57,.03,.81,0,.43-.06,.76-.28,.71-.77-.11-1.1,.26-2.15,.38-3.22,.15-1.35,.25-2.76,.8-4.06,.11-.26,.04-.6,.04-.9,0-1.07,0-2.13,0-3.2,0-.56,.19-1,.69-1.25,.24-.12,.22-.28,.22-.48,0-1.42,.22-2.89-.06-4.25-.31-1.5-.18-2.97-.23-4.45-.06-1.99,.42-3.95,.31-5.96-.11-2.02-.02-4.06-.02-6.09v-12.33c0-2.03,0-4.06,0-6.09,0-.19-.07-.41,.26-.61,.02,.58,.04,1.12,.04,1.66,0,20.7,0,41.41,0,62.11,0,2.03-.07,4.06,.02,6.09,.06,1.31-.47,2.47-.64,3.71-.02,.12-.22,.21-.28,.34-.56,1.1-2.64,3.16-3.74,3.39-1.04,.21-2.09,.62-3.18,.41-.41-.08-.77-.42-1.14-.53-1.76-.54-3.37-1.43-5.08-2.07-2.72-1.02-5.36-2.25-8.07-3.3-1.65-.64-3.29-1.36-4.93-2.07-1.46-.63-2.96-1.21-4.41-1.84-1.5-.64-3.04-1.24-4.53-1.93-1.57-.73-3.18-1.39-4.81-1.97-.84-.3-1.6-.76-2.44-1.09-2.93-1.13-5.8-2.42-8.71-3.59-1.77-.71-3.56-1.45-5.3-2.28-1.77-.85-3.61-1.57-5.49-2.17-.31-.1-.58-.3-.88-.44-1.5-.67-2.96-1.46-4.52-1.94-.96-.3-1.79-.82-2.74-1.12-1.74-.55-3.31-1.55-5.1-2-.84-.75-1.95-.94-2.93-1.37-1.59-.69-3.18-1.39-4.82-1.97-.84-.29-1.58-.81-2.45-1.08-1.21-.37-2.3-1.04-3.53-1.42-1.33-.41-2.63-1.49-3.59-2.65-.06-.08-.13-.15-.22-.21-1.51-1.12-2.1-2.86-2.87-4.45-.41-.83-.66-1.81-.71-2.74-.17-3.05-.5-6.1-.34-9.16,.02-.3,.02-.61,0-.91-.05-.53,.16-.29,.49-.33,.35-.03,.86-.54,.73-1.15-.17-.81,.43-1.49,.33-2.31-.09-.75-.06-1.52,0-2.28,.04-.57,.43-1.1,.29-1.7-.62-2.63-.22-5.3-.29-7.94-.07-2.64-.25-5.3,.05-7.91,.33-2.96-.03-5.93,.3-8.86,.18-1.59,.2-3.17,.23-4.75,0-.6,.42-1.08,.34-1.7-.08-.6-.02-1.22-.02-1.82,0-.18,.1-.26,.28-.27,.18-.02,.29,.06,.33,.22,.03,.09,0,.2,0,.3-.22,5.34,.46,10.67,.31,16.01-.03,1.01,0,2.03,0,3.04-.04,2.6,.44,5.18,.33,7.79-.11,2.58-.23,5.2,.04,7.76,.22,2.1,.19,4.18,.23,6.27,.04,2.13-.13,4.28,.05,6.39,.17,1.98,.33,4.01,1.33,5.83,.21,.38,.22,1.06,.34,2.47-.39-.38-.98-1.12-1.64-1.93-.36,1.53,.76,1.91,1.64,1.93,.05-.35,.26-.35,.48-.15,.71,.64,1.62,.96,2.49,1.31,1.03,.42,2.06,.8,2.92,1.6,0,.02,0-.02,0-.07-.08,.03-.17,.04-.23,.09-.08,.05-.06,.14,.06,.18,.04,.01,.12-.08,.18-.2,.3,.05,.77-.35,.91,.24-.1,0-.2-.01-.3,0-.09,.02-.24,.05-.25,.1-.04,.19,.1,.21,.25,.2,.1,0,.2,0,.3,0,.03,.46,.38,.26,.91,.41,.24-.07,.13-.12-.01-.11-.09,0-.26-.02-.27,0-.06,.16,.06,.27,.2,.29,.12,.02,.25-.05,.09-.19-.3-.21-.3-.31-.3-.41,.6-.03,1.17,.03,1.52,.61-.1,0-.2-.01-.3,0-.09,.02-.24,.05-.25,.1-.04,.19,.1,.21,.25,.2,.1,0,.2,0,.3,0,.03,.46,.38,.26,.61,.3-.03,.19,.08,.28,.23,.3,.2,.02,.4-.01,.38-.3,.3,.12,.77-.28,.91,.3-.1,0-.2-.01-.3,0-.09,.02-.24,.05-.25,.1-.04,.19,.1,.21,.25,.2,.1,0,.2,0,.3,0-.03,.19,.08,.28,.23,.3,.2,.02,.4-.01,.38-.3,.23,.05,.58-.15,.61,.37,0,.02,0-.02,0-.07-.08,.03-.17,.04-.23,.09-.08,.05-.06,.14,.06,.18,.04,.01,.12-.08,.18-.2,.18-.03,.41-.17,.54,.04,.03,.05-.19,.21-.17,.3,.05,.38,.36,.13,.69,.29,.09,.03,.06-.05,0-.08-.13-.06-.19,0-.13,.13,.03,.06,.11,.1,.18,.14,.01,0,.06-.06-.04-.18-.17-.27-.02-.43,.08-.38,.34,.18,.84,.12,1,.66,0,.02,0-.02,0-.07-.08,.03-.17,.04-.23,.09-.08,.05-.06,.14,.06,.18,.04,.01,.12-.08,.18-.2,.3,.05,.77-.35,.91,.24-.1,0-.2-.01-.3,0-.09,.02-.24,.05-.25,.1-.04,.19,.1,.21,.25,.2,.1,0,.2,0,.3,0,.03,.46,.38,.26,.61,.3,.03,.46,.38,.26,.91,.41,.24-.07,.13-.12-.01-.11-.09,0-.26-.02-.27,0-.06,.16,.06,.27,.2,.29,.12,.02,.25-.05,.09-.19-.3-.21-.3-.31-.3-.41,.6-.03,1.17,.03,1.52,.61-.1,0-.2-.01-.3,0-.09,.02-.24,.05-.25,.1-.04,.19,.1,.21,.25,.2,.1,0,.2,0,.3,0,.03,.46,.38,.26,.61,.3,.03,.46,.38,.26,.61,.3,.14,.59,.61,.19,.91,.3,.03,.46,.38,.26,.61,.3,1.1,.96,2.58,1.14,3.82,1.82,.12,.06,.3,0,.45,0,.61,.55,1.27,.97,2.13,.91,.61,.55,1.27,.97,2.13,.91-.03,.18,.1,.23,.23,.31,.33,.2,.83,.13,.99,.6Zm-25.84-11.38s.07,.07,.11,.11c.03-.07,.08-.13,.1-.2,0-.03-.06-.07-.1-.1-.04,.07-.07,.13-.11,.2Zm-.39-.3c-.04-.06-.07-.13-.11-.2-.03,.03-.1,.08-.1,.1,.02,.07,.06,.14,.1,.2,.03-.03,.07-.07,.11-.11Z"/><path d="M61.52,148.62c.75,.99,1.47,1.49,2.78,2.04,.2,.09,.38,.09,.57,.09,.81,.01,1.62-.05,2.43,.02,.76,.06,1.39-.55,2.15-.32,1.03-.49,2.17-.64,3.24-.98,1.84-.57,3.63-1.37,5.51-1.7,1.56-.27,3.04-.87,4.62-.99,.59-.04,.68-.03,.62,.41-.07,.6-.46,.89-.99,1.13-1.4,.62-2.92,.75-4.37,1.2-1.35,.41-2.73,.74-4.1,1.1-1.74,.45-3.51,.8-5.2,1.39-.88,.3-1.8,.12-2.67,.52-.42,.19-1.09,.15-1.71-.18-.59-.32-1.4-.09-2.13-.35-1.71-.6-2.85-1.78-3.79-3.24-.07-.11,0-.3,0-.45,.45,.28,.7-.6,1.18-.2,.29,.24,.7,.27,.95,.62,.12,.17,.4,.22,.6,.33q.25,.13,.31-.45Z"/><path d="M118.47,229.02c-.03,.19,.11,.34,.24,.29,.38-.14,.62,.34,1.02,.15,.42-.2,.45,.47,.75,.46,.32-.01,.56,.51,.97,.11,.09-.09,.34,.84,.83,.22,.12,.58,.84,.61,1.03,1.07,.12,.28,.13,.68-.05,.98-1.06-.48-2.1-1.01-3.17-1.43-1.09-.42-2.21-.83-3.26-1.29-1.93-.84-3.9-1.6-5.85-2.39-1.78-.72-3.52-1.53-5.34-2.15-.79-.27-1.52-.74-2.37-.87-.51-.08-.35-.44-.32-.67,.05-.35,.28-.28,.55-.15,2.33,1.1,4.81,1.83,7.16,2.88,1.02,.46,2.15,.66,3.24,.99,0,.05,0,.14,0,.14,.53,.08,.95,.51,1.52,.47,0,.05-.01,.14,0,.15,1.05,.26,1.95,.93,3.04,1.07Z"/><path d="M100.8,223.84c.66-.11,1.2,.28,1.8,.43,.45,.12,.92,.32,1.3,.52,1.71,.9,3.6,1.35,5.34,2.16,1.91,.89,3.91,1.58,5.86,2.35,2.09,.83,4.09,1.88,6.27,2.48,.63,.17,1.01,.84,1.82,1.01-1.24,.49-2.15-.11-3.05-.47-1.7-.67-3.26-1.65-5.05-2.11-.53-.14-.99-.54-1.51-.75-1.82-.73-3.65-1.47-5.43-2.3-2.42-1.13-5.03-1.81-7.34-3.18-.02-.01,0-.1,0-.15Z"/><path d="M245.51,90.09v-4.77c.36,.77,.22,1.58,.25,2.38,.03,.79,0,1.59,0,2.39-.08,0-.17,0-.25,0Z"/><path d="M83.75,216.84c-.86,.05-1.53-.36-2.13-.91,.86-.05,1.53,.36,2.13,.91Z"/><path d="M89.54,219.27c-.86,.05-1.53-.36-2.13-.91,.86-.05,1.53,.36,2.13,.91Z"/><path d="M66.09,208.61c.84,0,1.62,.14,2.13,.91-.54,.05-.96-.46-1.52-.3,.02-.29-.17-.29-.38-.31-.15-.02-.27-.11-.23-.3Z"/><path d="M126.74,145.22v-2.67c.11,.06,.24,.09,.24,.12,.01,.84,0,1.69,0,2.53-.08,0-.17,0-.25,.01Z"/><path d="M72.79,211.35c-.65,.16-1.18-.46-1.83-.3-.1-.2-.2-.41-.3-.61,.77,.17,1.55,.3,2.13,.91Z"/><path d="M70.96,211.05c.16,.48,.66,.4,.99,.6,.13,.08,.26,.13,.23,.31-.86,.05-1.53-.36-2.13-.91h.91Z"/><path d="M84.36,216.23c-.86,.05-1.53-.36-2.13-.91,.86-.05,1.53,.36,2.13,.91Z"/><path d="M81.62,215.92c-.86,.05-1.53-.36-2.13-.91,.86-.05,1.53,.36,2.13,.91Z"/><path d="M77.96,214.4c-.86,.05-1.53-.36-2.13-.91,.86-.05,1.53,.36,2.13,.91Z"/><path d="M42.21,88.94c-.09-.71-.72-1.3-.41-2.06q.52,1.14,.41,2.06Z"/><path d="M33.86,181.16v-2.06c.11,.06,.24,.09,.24,.12,.01,.64,0,1.28,0,1.92-.08,0-.17,0-.25,.01Z"/><path d="M75.22,213.18c-.56-.06-1.28,.26-1.52-.61,.6-.03,1.17,.03,1.52,.61Z"/><path d="M95.63,221.71c.6-.03,1.17,.03,1.52,.61-.56-.06-1.28,.26-1.52-.61Z"/><path d="M77.96,213.49c-.6,.03-1.17-.03-1.52-.61,.6-.03,1.17,.03,1.52,.61Z"/><path d="M77.96,214.4c.6-.03,1.17,.03,1.52,.61-.6,.03-1.17-.03-1.52-.61Z"/><path d="M76.44,212.88c-.6,.03-1.17-.03-1.52-.61,.6-.03,1.17,.03,1.52,.61Z"/><path d="M95.63,221.71c-.6,.03-1.17-.03-1.52-.61,.6-.03,1.17,.03,1.52,.61Z"/><path d="M99.28,223.23c-.6,.03-1.17-.03-1.52-.61,.6-.03,1.17,.03,1.52,.61Z"/><path d="M72.18,211.96c.6-.03,1.17,.03,1.52,.61-.6,.03-1.17-.03-1.52-.61Z"/><path d="M91.06,219.88c.6-.03,1.17,.03,1.52,.61-.6,.03-1.17-.03-1.52-.61Z"/><path d="M85.88,216.84c-.6,.03-1.17-.03-1.52-.61,.6-.03,1.17,.03,1.52,.61Z"/><path d="M58.17,205.26c.6-.03,1.17,.03,1.52,.61h-.91c-.03-.46-.38-.26-.61-.3v-.3Z"/><path d="M59.69,205.87c.6-.03,1.17,.03,1.52,.61h-.91c-.03-.46-.38-.26-.61-.3v-.3Z"/><path d="M99.28,223.23c.6-.03,1.17,.03,1.52,.61-.6,.03-1.17-.03-1.52-.61Z"/><path d="M83.75,216.84c.6-.03,1.17,.03,1.52,.61-.6,.03-1.17-.03-1.52-.61Z"/><path d="M68.22,209.53c.6-.03,1.17,.03,1.52,.61h-.91c.03-.19-.08-.28-.23-.3-.2-.02-.4-.02-.38-.31Z"/><path d="M91.67,219.27c.6-.03,1.17,.03,1.52,.61-.6,.03-1.17-.03-1.52-.61Z"/><path d="M88.01,217.75c-.6,.03-1.17-.03-1.52-.61,.6-.03,1.17,.03,1.52,.61Z"/><path d="M91.67,219.27c-.6,.03-1.17-.03-1.52-.61,.6-.03,1.17,.03,1.52,.61Z"/><path d="M88.01,217.75c.6-.03,1.17,.03,1.52,.61-.6,.03-1.17-.03-1.52-.61Z"/><path d="M63.95,207.7c.6-.03,1.17,.03,1.52,.61h-.91c.02-.29-.17-.29-.38-.31-.15-.02-.27-.11-.23-.3Z"/><path d="M33.15,49.89h-1.5c.51-.54,1.03-.05,1.5,0Z"/><path d="M87.44,218.36c-.37-.05-.75,.13-1.01-.22-.07-.1-.3-.13-.17-.31,.04-.06,.22-.11,.26-.07,.27,.23,.73,.19,.92,.61Z"/><path d="M245.31,102.33c.19,.51,.19,1.02,0,1.52-.19-.51-.19-1.02,0-1.52Z"/><path d="M42.8,91.44c-.24-.47-.19-.87-.05-1.38,.29,.5,.25,.9,.05,1.38Z"/><path d="M45.07,99.59c-.26,.02-.31-.15-.3-.36,0-.29,0-.57,0-.86,.26-.02,.31,.15,.3,.36,0,.29,0,.57,0,.86Z"/><path d="M244.4,100.28c-.21-.49-.21-.9,0-1.39,.21,.49,.21,.9,0,1.39Z"/><path d="M45.07,99.59c.26-.02,.31,.15,.3,.36,0,.29,0,.57,0,.86-.26,.02-.31-.15-.3-.36,0-.29,0-.57,0-.86Z"/><path d="M45.38,100.8c.26-.02,.31,.15,.3,.36,0,.29,0,.57,0,.86-.26,.02-.31-.15-.3-.36,0-.29,0-.57,0-.86Z"/><path d="M80.7,214.7c.3,.12,.77-.28,.91,.3-.3-.12-.77,.28-.91-.3Z"/><path d="M31.84,104.17c-.07-.07-.14-.11-.14-.14-.01-.27-.14-.57,.13-.78,.03-.02,.14,0,.14,0,0,.24,0,.48,0,.72,0,.04-.05,.08-.13,.21Z"/><path d="M36.86,49.18c-.32,.24-.62,.24-.94,0,.32-.24,.62-.24,.94,0Z"/><path d="M44.77,97.28c0,.43,.02,.62,0,.8-.02,.1,.15,.33-.13,.28-.06-.01-.15-.14-.15-.21,0-.23-.09-.48,.3-.87Z"/><path d="M61.82,206.79c.3,.12,.77-.28,.91,.3-.3-.12-.77,.28-.91-.3Z"/><path d="M74.31,211.96c-.3-.12-.77,.28-.91-.3,.3,.12,.77-.28,.91,.3Z"/><path d="M126.99,197.31c.02,.17-.04,.35-.19,.28-.23-.1-.08-.35-.11-.54-.02-.15,.04-.32,.19-.25,.23,.1,.07,.36,.11,.51Z"/><path d="M43.7,93.79c.24,.32,.24,.62,0,.94-.24-.32-.24-.62,0-.94Z"/><path d="M69.74,210.14c.3,.12,.77-.28,.91,.3-.3-.12-.77,.28-.91-.3Z"/><path d="M43.4,92.57c.24,.32,.24,.62,0,.94-.24-.32-.24-.62,0-.94Z"/><path d="M42.94,92.45c0-.43-.02-.62,0-.8,.02-.1-.15-.33,.13-.28,.06,.01,.15,.14,.15,.21,0,.23,.09,.48-.3,.87Z"/><path d="M42.33,90.01c0-.43-.02-.62,0-.8,.02-.1-.15-.33,.13-.28,.06,.01,.15,.14,.15,.21,0,.23,.09,.48-.3,.87Z"/><path d="M90.45,219.58c-.3-.12-.77,.28-.91-.3,.3,.12,.77-.28,.91,.3Z"/><path d="M57.58,143.17c-.07,.11-.13,.19-.18,.27-.05-.13-.13-.25-.14-.38,0-.07,.09-.15,.14-.23,.06,.12,.12,.24,.18,.34Z"/><path d="M58.03,144.97c-.19-.12-.21-.3-.14-.48,.05-.12,.15-.14,.19-.05,.05,.12,.05,.26,.09,.39,.04,.14,0,.19-.14,.14Z"/><path d="M58.43,145.39s-.06,.16-.09,.15c-.24-.06-.16-.27-.19-.43-.03-.15,.01-.21,.14-.14,.12,.07,.21,.18,.13,.42Z"/><path d="M111.2,225.64c.11,.07,.19,.13,.27,.18-.13,.05-.25,.13-.38,.14-.07,0-.15-.09-.23-.14,.12-.06,.24-.12,.34-.18Z"/><path d="M57.73,147.1c-.19-.12-.21-.3-.14-.48,.05-.12,.15-.14,.19-.05,.05,.12,.05,.26,.09,.39,.04,.14,0,.19-.14,.14Z"/><path d="M100.49,222.84c-.13,.03-.26,.09-.38,.08-.14-.02-.26-.13-.2-.29,.01-.03,.18,0,.27,0,.15-.01,.25,.03,.31,.22Z"/><path d="M58.13,147.52s-.06,.16-.09,.15c-.24-.06-.16-.27-.19-.43-.03-.15,.01-.21,.14-.14,.12,.07,.21,.18,.13,.42Z"/><path d="M99.62,222.62c-.16,.03-.26-.03-.31-.17,.12-.04,.25-.11,.37-.12,.07,0,.19,.09,.2,.15,.05,.29-.19,.07-.26,.14Z"/><path d="M97.76,222.62c-.23-.05-.58,.15-.61-.3,.23,.05,.58-.15,.61,.3Z"/><path d="M98.93,222.2c-.1,.18-.27,.11-.4,.1-.04,0-.13-.15-.11-.19,.08-.17,.25-.11,.39-.1,.05,0,.08,.12,.12,.18Z"/><path d="M57.25,142.23c-.03,.08-.06,.23-.11,.24-.18,.03-.22-.1-.2-.25,.02-.09,.05-.23,.1-.24,.18-.03,.21,.1,.2,.25Z"/><path d="M97.44,221.62c-.13,.03-.26,.09-.38,.08-.14-.02-.26-.13-.2-.29,.01-.03,.18,0,.27,0,.15-.01,.25,.03,.31,.22Z"/><path d="M96.58,221.4c-.16,.03-.26-.03-.31-.17,.12-.04,.25-.11,.37-.12,.07,0,.19,.09,.2,.15,.05,.29-.19,.07-.26,.14Z"/><path d="M99.54,220.91c-.04,.06-.07,.18-.12,.18-.14,0-.31,.08-.39-.1-.02-.04,.06-.18,.11-.19,.14,0,.3-.07,.4,.1Z"/><path d="M95.92,221.01c-.13,.03-.26,.09-.38,.08-.14-.02-.26-.13-.2-.29,.01-.03,.18,0,.27,0,.15-.01,.25,.03,.31,.22Z"/><path d="M93.84,221.1c-.16,.03-.26-.03-.31-.17,.12-.04,.25-.11,.37-.12,.07,0,.19,.09,.2,.15,.05,.29-.19,.07-.26,.14Z"/><path d="M95.05,220.79c-.16,.03-.26-.03-.31-.17,.12-.04,.25-.11,.37-.12,.07,0,.19,.09,.2,.15,.05,.29-.19,.07-.26,.14Z"/><path d="M93.18,220.71c-.13,.03-.26,.09-.38,.08-.14-.02-.26-.13-.2-.29,.01-.03,.18,0,.27,0,.15-.01,.25,.03,.31,.22Z"/><path d="M94.39,220.4c-.13,.03-.26,.09-.38,.08-.14-.02-.26-.13-.2-.29,.01-.03,.18,0,.27,0,.15-.01,.25,.03,.31,.22Z"/><path d="M93.19,219.88c.23,.05,.58-.15,.61,.3-.23-.05-.58,.15-.61-.3Z"/><path d="M91.06,219.88c-.23-.05-.58,.15-.61-.3,.23,.05,.58-.15,.61,.3Z"/><path d="M90.15,218.66c-.23-.05-.58,.15-.61-.3,.23,.05,.58-.15,.61,.3Z"/><path d="M44.04,95.58c-.06-.04-.18-.07-.18-.12,0-.14-.08-.31,.1-.39,.04-.02,.18,.06,.19,.11,0,.14,.07,.3-.1,.4Z"/><path d="M44.35,96.28c.18,.1,.11,.27,.1,.4,0,.04-.15,.13-.19,.11-.17-.08-.11-.25-.1-.39,0-.04,.12-.08,.18-.12Z"/><path d="M86.49,217.14c-.23-.05-.58,.15-.61-.3,.23,.05,.58-.15,.61,.3Z"/><path d="M81.62,215.01c.23,.05,.58-.15,.61,.3-.23-.05-.58,.15-.61-.3Z"/><path d="M80.7,214.7c-.23-.05-.58,.15-.61-.3,.23,.05,.58-.15,.61,.3Z"/><path d="M79.83,214.4c-.16,.03-.26-.03-.31-.17,.12-.04,.25-.11,.37-.12,.07,0,.19,.09,.2,.15,.05,.29-.19,.07-.26,.14Z"/><path d="M79.17,214.01c-.13,.03-.26,.09-.38,.08-.14-.02-.26-.13-.2-.29,.01-.03,.18,0,.27,0,.15-.01,.25,.03,.31,.22Z"/><path d="M77.96,213.49c.23,.05,.58-.15,.61,.3-.23-.05-.58,.15-.61-.3Z"/><path d="M75.22,213.18c.23,.05,.58-.15,.61,.3-.23-.05-.58,.15-.61-.3Z"/><path d="M40.21,48.73c-.15,.01-.28-.02-.25-.2,0-.05,.15-.09,.24-.1,.15-.03,.28,.02,.25,.2,0,.05-.16,.07-.24,.11Z"/><path d="M74.31,211.96c.23,.05,.58-.15,.61,.3-.23-.05-.58,.15-.61-.3Z"/><path d="M27.97,53.18c-.1,.18-.27,.11-.4,.1-.04,0-.13-.15-.11-.19,.08-.17,.25-.11,.39-.1,.04,0,.08,.12,.12,.18Z"/><path d="M135.83,104.76c-.03,.46-.38,.26-.61,.3,.03-.46,.38-.26,.61-.3Z"/><path d="M72.79,211.35c.23,.05,.58-.15,.61,.3-.23-.05-.58,.15-.61-.3Z"/><path d="M65.48,208.31c.23,.05,.58-.15,.61,.3-.23-.05-.58,.15-.61-.3Z"/><path d="M46.29,200.09c.23,.05,.58-.15,.61,.3h-.61v-.3Z"/><path d="M48.42,201c.23,.05,.58-.15,.61,.3h-.61v-.3Z"/><path d="M49.03,201.3c.23,.05,.58-.15,.61,.3h-.61v-.3Z"/><path d="M50.55,201.91c.23,.05,.58-.15,.61,.3h-.61v-.3Z"/><path d="M63.35,207.4c.23,.05,.58-.15,.61,.3-.23-.05-.58,.15-.61-.3Z"/><path d="M62.74,207.09c.23,.05,.58-.15,.61,.3-.23-.05-.58,.15-.61-.3Z"/><path d="M54.82,203.74c.23,.05,.58-.15,.61,.3h-.61v-.3Z"/><path d="M55.43,204.05c.23,.05,.58-.15,.61,.3h-.61v-.3Z"/><path d="M57.56,204.96c.23,.05,.58-.15,.61,.3h-.61v-.3Z"/><path d="M61.21,206.48c.23,.05,.58-.15,.61,.3-.23-.05-.58,.15-.61-.3Z"/><path d="M27.71,51.91c-.06,.05-.14,.14-.18,.13-.12-.04-.14-.13-.06-.18,.07-.04,.16-.06,.23-.09,0,.05,0,.09,0,.14Z"/><path d="M150.1,38.26s-.07,.07-.11,.11c-.03-.07-.08-.13-.1-.2,0-.03,.06-.07,.1-.1,.04,.07,.07,.13,.11,.2Z"/><path d="M34.9,84.08s.1,.09,.09,.1c-.04,.07-.08,.15-.14,.18-.13,.06-.19,0-.13-.13,.03-.06,.11-.1,.17-.15Z"/><path d="M47.2,107.94c-.06,.05-.14,.14-.18,.13-.12-.04-.14-.13-.06-.18,.07-.04,.16-.06,.23-.09,0,.05,0,.09,0,.14Z"/><path d="M134.91,105.51c-.06,.05-.14,.14-.18,.13-.12-.04-.14-.13-.06-.18,.07-.04,.16-.06,.23-.09,0,.05,0,.09,0,.14Z"/><path d="M135.22,105.07c0,.21-.09,.31-.3,.3,0-.21,.09-.31,.3-.3Z"/><path d="M28.17,53.9c.03,.07,.08,.13,.1,.2,0,.03-.06,.07-.1,.1-.03-.07-.08-.13-.1-.2,0-.03,.06-.07,.1-.1Z"/><path d="M149.18,37.35s-.07,.07-.11,.11c-.03-.07-.08-.13-.1-.2,0-.03,.06-.07,.1-.1,.04,.07,.07,.13,.11,.2Z"/><path d="M85.55,217.62s-.09,.1-.1,.09c-.07-.04-.15-.08-.18-.14-.06-.13,0-.19,.13-.13,.06,.03,.1,.11,.15,.17Z"/><path d="M243.51,81.64s.1,.09,.09,.1c-.04,.07-.08,.15-.14,.18-.13,.06-.19,0-.13-.13,.03-.06,.11-.1,.17-.15Z"/><path d="M122.84,36.2s-.07-.07-.11-.11c.07-.03,.13-.08,.2-.1,.03,0,.07,.06,.1,.1-.07,.04-.13,.07-.2,.11Z"/><path d="M38.72,81.51c.04-.06,.07-.13,.11-.2,.03,.03,.1,.08,.1,.1-.02,.07-.06,.14-.1,.2-.03-.03-.07-.07-.11-.11Z"/><path d="M97.91,220.19c.03,.07,.08,.13,.1,.2,0,.03-.06,.07-.1,.1-.03-.07-.08-.13-.1-.2,0-.03,.06-.07,.1-.1Z"/><path d="M35.8,53.6c-.05-.06-.14-.14-.13-.18,.04-.12,.13-.14,.18-.06,.04,.07,.06,.16,.09,.23-.05,0-.09,0-.14,0Z"/><path d="M36.24,53.9c-.21,0-.31-.09-.3-.3,.21,0,.31,.09,.3,.3Z"/><path d="M100.09,221.36c-.06-.04-.13-.07-.2-.11,.03-.03,.08-.1,.1-.1,.07,.02,.14,.06,.2,.1-.03,.03-.07,.07-.11,.11Z"/><path d="M97.8,221.91c.04-.06,.07-.13,.11-.2,.03,.03,.1,.08,.1,.1-.02,.07-.06,.14-.1,.2-.03-.03-.07-.07-.11-.11Z"/><path d="M101.46,221.91c.04-.06,.07-.13,.11-.2,.03,.03,.1,.08,.1,.1-.02,.07-.06,.14-.1,.2-.03-.03-.07-.07-.11-.11Z"/><path d="M61.38,148.62c-.05-.06-.14-.14-.13-.18,.04-.12,.13-.14,.18-.06,.04,.07,.06,.16,.09,.23-.05,0-.09,0-.14,0Z"/><path d="M102.07,222.21c.04-.06,.07-.13,.11-.2,.03,.03,.1,.08,.1,.1-.02,.07-.06,.14-.1,.2-.03-.03-.07-.07-.11-.11Z"/><path d="M58.34,148.31c-.05-.06-.14-.14-.13-.18,.04-.12,.13-.14,.18-.06,.04,.07,.06,.16,.09,.23-.05,0-.09,0-.14,0Z"/><path d="M103.09,222.32c.03,.07,.08,.13,.1,.2,0,.03-.06,.07-.1,.1-.03-.07-.08-.13-.1-.2,0-.03,.06-.07,.1-.1Z"/><path d="M36.52,54.08s-.09,.1-.1,.09c-.07-.04-.15-.08-.18-.14-.06-.13,0-.19,.13-.13,.06,.03,.1,.11,.15,.17Z"/><path d="M100.91,223.19s-.07-.07-.11-.11c.07-.03,.13-.08,.2-.1,.03,0,.07,.06,.1,.1-.07,.04-.13,.07-.2,.11Z"/><path d="M104.57,222.97c.06,.04,.13,.07,.2,.11-.03,.03-.08,.1-.1,.1-.07-.02-.14-.06-.2-.1,.03-.03,.07-.07,.11-.11Z"/><path d="M60.58,146.66s-.09,.1-.1,.09c-.07-.04-.15-.08-.18-.14-.06-.13,0-.19,.13-.13,.06,.03,.1,.11,.15,.17Z"/><path d="M101.67,223.43s-.07,.07-.11,.11c-.03-.07-.08-.13-.1-.2,0-.03,.06-.07,.1-.1,.04,.07,.07,.13,.11,.2Z"/><path d="M105.33,223.43s-.07,.07-.11,.11c-.03-.07-.08-.13-.1-.2,0-.03,.06-.07,.1-.1,.04,.07,.07,.13,.11,.2Z"/><path d="M102.59,223.73s-.07,.07-.11,.11c-.03-.07-.08-.13-.1-.2,0-.03,.06-.07,.1-.1,.04,.07,.07,.13,.11,.2Z"/><path d="M109.9,225.26s-.07,.07-.11,.11c-.03-.07-.08-.13-.1-.2,0-.03,.06-.07,.1-.1,.04,.07,.07,.13,.11,.2Z"/><path d="M58.82,146.38c.04-.06,.07-.13,.11-.2,.03,.03,.1,.08,.1,.1-.02,.07-.06,.14-.1,.2-.03-.03-.07-.07-.11-.11Z"/><path d="M114.08,226.91s.1,.09,.09,.1c-.04,.07-.08,.15-.14,.18-.13,.06-.19,0-.13-.13,.03-.06,.11-.1,.17-.15Z"/><path d="M115.6,227.52s.1,.09,.09,.1c-.04,.07-.08,.15-.14,.18-.13,.06-.19,0-.13-.13,.03-.06,.11-.1,.17-.15Z"/><path d="M118.65,228.74s.1,.09,.09,.1c-.04,.07-.08,.15-.14,.18-.13,.06-.19,0-.13-.13,.03-.06,.11-.1,.17-.15Z"/><path d="M150.07,158.97c.28,.43,.47,.86,.81,1.22,.57,.6-.17,.54-.56,.83,.3,.23,.54,.58,.84,.62,.83,.14,1.42,.87,2.19,.95,1.92,.21,3.59,1.17,5.44,1.6,.94,.22,1.85,.68,2.81,.92,.05,.01,.07,.16,.11,.25-.9,.11-1.67-.34-2.48-.61-2.49-.83-5.06-1.4-7.48-2.44-.91,.2-1.08-.97-1.86-1.01-.24-.84-1.37-1.16-1.28-2.2-.81-.58,.17-1.14,.02-1.73-.04-.14,.1-.25,.29-.25,.19,0,.25,.09,.31,.24,.14,.33,.29,.66,.43,.99,.39-.24-.09-.81,.39-.91,.59-.12,.34,.6,.67,.81,.08,.05,.23,.38,.32,.6,.05,.13,.03,.31-.13,.38-.04,.02-.15-.1-.21-.17-.16-.2-.38-.06-.63-.1-.02,0,.02,0,.07,0-.03-.08-.04-.17-.09-.23-.05-.08-.14-.06-.18,.06-.01,.04,.08,.12,.2,.18Z"/><path d="M227.8,105.13c2.21-.1,2.52,.14,2.3,1.76-.25-.19-.17-1.08-.84-.39-.18,.19-.23-.06-.23-.17,0-.31-.24-.43-.42-.58-.16-.14-.49-.09-.48,.09,.01,.64-.16,1.3,.08,1.93,.3,.76,.4,.84,1.49,1.08-.54,.23-.89,.59-1.46,.5-.54-.09-.77-.38-.53-.96,.17-.4,.06-.79,.08-1.18,.04-.65,0-1.31,0-2.08Z"/><path d="M166.59,166.89c-.35,0-.8,.14-1.05-.02-.9-.59-2.08-.47-2.91-1.19,.35,0,.8-.14,1.05,.02,.9,.59,2.08,.47,2.91,1.19Z"/><path d="M151.66,130.35c0-.15-.06-.36,.01-.43,.25-.24,.34-.43-.01-.64-.29-.17-.34-.45-.3-.76q.9,.04,.91,.69c0,.3,.03,.61,0,.9-.05,.38-.38,.19-.6,.24Z"/><path d="M190.34,174.2c-.94-.01-2.21-.4-3.05-.91,.94,.01,2.21,.4,3.05,.91Z"/><path d="M154.13,161.95c-1.13,.19-1.95-.36-2.7-1.06,.98,.16,1.75,.81,2.7,1.06Z"/><path d="M187.3,173.29c-.77,0-1.54,.02-2.13-.61,.77,0,1.54-.02,2.13,.61Z"/><path d="M227.75,109.69v1.76c-.39-.8-.16-1.29,0-1.76Z"/><path d="M185.16,172.68c-.3-.12-.77,.28-.91-.3,.3,.12,.77-.28,.91,.3Z"/><path d="M184.25,172.37c-.3-.12-.77,.28-.91-.3,.3,.12,.77-.28,.91,.3Z"/><path d="M182.41,171.93c.07-.07,.11-.14,.14-.14,.27-.01,.57-.14,.78,.13,.02,.03,0,.14,0,.14-.24,0-.48,0-.72,0-.04,0-.08-.05-.21-.13Z"/><path d="M182.13,171.6c-.07,.07-.11,.14-.14,.14-.27,.01-.57,.14-.78-.13-.02-.03,0-.14,0-.14,.24,0,.48,0,.72,0,.04,0,.08,.05,.21,.13Z"/><path d="M180.29,171.15c.3,.12,.77-.28,.91,.3-.3-.12-.77,.28-.91-.3Z"/><path d="M178.45,170.71c.07-.07,.11-.14,.14-.14,.27-.01,.57-.14,.78,.13,.02,.03,0,.14,0,.14-.24,0-.48,0-.72,0-.04,0-.08-.05-.21-.13Z"/><path d="M173.3,168.85c-.07,.07-.11,.14-.14,.14-.27,.01-.57,.14-.78-.13-.02-.03,0-.14,0-.14,.24,0,.48,0,.72,0,.04,0,.08,.05,.21,.13Z"/><path d="M172.37,168.72c-.3-.12-.77,.28-.91-.3,.3,.12,.77-.28,.91,.3Z"/><path d="M170.53,168.28c.07-.07,.11-.14,.14-.14,.27-.01,.57-.14,.78,.13,.02,.03,0,.14,0,.14-.24,0-.48,0-.72,0-.04,0-.08-.05-.21-.13Z"/><path d="M169.34,167.64c-.07,.07-.11,.14-.14,.14-.27,.01-.57,.14-.78-.13-.02-.03,0-.14,0-.14,.24,0,.48,0,.72,0,.04,0,.08,.05,.21,.13Z"/><path d="M167.5,167.2c.3,.12,.77-.28,.91,.3-.3-.12-.77,.28-.91-.3Z"/><path d="M166.59,166.89c.3,.12,.77-.28,.91,.3-.3-.12-.77,.28-.91-.3Z"/><path d="M162.63,165.67c-.3-.12-.77,.28-.91-.3,.3,.12,.77-.28,.91,.3Z"/><path d="M155,162.49c.07-.07,.11-.14,.14-.14,.27-.01,.57-.14,.78,.13,.02,.03,0,.14,0,.14-.24,0-.48,0-.72,0-.04,0-.08-.05-.21-.13Z"/><path d="M179.38,170.85c.3,.12,.77-.28,.91,.3-.3-.12-.77,.28-.91-.3Z"/><path d="M154.71,135.22c-.03,.08-.06,.23-.11,.24-.18,.03-.22-.1-.2-.25,.02-.09,.05-.23,.1-.24,.18-.03,.21,.1,.2,.25Z"/><path d="M154.4,134.31c-.03,.08-.06,.23-.11,.24-.18,.03-.22-.1-.2-.25,.02-.09,.05-.23,.1-.24,.18-.03,.21,.1,.2,.25Z"/><path d="M154.69,162.23c-.13,.03-.26,.09-.38,.08-.14-.02-.26-.13-.2-.29,.01-.03,.18,0,.27,0,.15-.01,.25,.03,.31,.22Z"/><path d="M170.2,167.92c-.04,.06-.07,.18-.12,.18-.14,0-.31,.08-.39-.1-.02-.04,.06-.18,.11-.19,.14,0,.3-.07,.4,.1Z"/><path d="M173.9,169.02c.08,.03,.23,.06,.24,.11,.03,.18-.1,.22-.25,.2-.09-.02-.23-.05-.24-.1-.03-.18,.1-.21,.25-.2Z"/><path d="M174.95,169.61c-.08,0-.22,0-.34-.03-.15-.04-.15-.16,0-.2,.12-.03,.27-.03,.4,0,.15,.04,.14,.13-.05,.23Z"/><path d="M175.98,169.75c-.04,.06-.07,.18-.12,.18-.14,0-.31,.08-.39-.1-.02-.04,.06-.18,.11-.19,.14,0,.3-.07,.4,.1Z"/><path d="M177.2,170.13c-.1,.18-.27,.11-.4,.1-.04,0-.13-.15-.11-.19,.08-.17,.25-.11,.39-.1,.05,0,.08,.12,.12,.18Z"/><path d="M177.86,170.55c-.15,.01-.28-.02-.25-.2,0-.05,.15-.09,.24-.1,.15-.03,.28,.02,.25,.2,0,.05-.16,.07-.24,.11Z"/><path d="M202.25,177.24c-.16,.03-.26-.03-.31-.17,.12-.04,.25-.11,.37-.12,.07,0,.19,.09,.2,.15,.05,.29-.19,.07-.26,.14Z"/><path d="M226.86,115.16c.05-.1,.11-.22,.18-.34,.05,.08,.15,.16,.14,.23-.01,.13-.09,.25-.14,.38-.05-.08-.1-.15-.18-.27Z"/><path d="M230.5,107.7s-.07,.07-.11,.11c-.03-.07-.08-.13-.1-.2,0-.03,.06-.07,.1-.1,.04,.07,.07,.13,.11,.2Z"/><path d="M225.97,118.32c-.07,.03-.13,.08-.2,.1-.03,0-.07-.06-.1-.1,.07-.03,.13-.08,.2-.1,.03,0,.07,.06,.1,.1Z"/><path d="M216.12,180.55c-.06-.04-.13-.07-.2-.11,.03-.03,.08-.1,.1-.1,.07,.02,.14,.06,.2,.1-.03,.03-.07,.07-.11,.11Z"/><path d="M224.63,120.02s.1,.09,.09,.1c-.04,.07-.08,.15-.14,.18-.13,.06-.19,0-.13-.13,.03-.06,.11-.1,.17-.15Z"/><path d="M224.15,120.6c0-.21,.09-.31,.3-.3,0,.21-.09,.31-.3,.3Z"/><path d="M223.84,120.9c0-.21,.09-.31,.3-.3,0,.21-.09,.31-.3,.3Z"/><path d="M223.84,120.9c0,.21-.09,.31-.3,.3,0-.21,.09-.31,.3-.3Z"/><path d="M223.54,121.21c0,.21-.09,.31-.3,.3,0-.21,.09-.31,.3-.3Z"/><path d="M151.36,128.52c-.21,0-.31-.09-.3-.3,.21,0,.31,.09,.3,.3Z"/><path d="M157.3,162.93c.03,.07,.08,.13,.1,.2,0,.03-.06,.07-.1,.1-.03-.07-.08-.13-.1-.2,0-.03,.06-.07,.1-.1Z"/><path d="M156.21,162.8s-.09,.1-.1,.09c-.07-.04-.15-.08-.18-.14-.06-.13,0-.19,.13-.13,.06,.03,.1,.11,.15,.17Z"/><path d="M174.2,113.29c-.26,.02-.31-.15-.3-.36,0-.29,0-.57,0-.86,.26-.02,.31,.15,.3,.36,0,.29,0,.57,0,.86Z"/><path d="M163.54,74.31c-.26,.02-.31-.15-.3-.36,0-.29,0-.57,0-.86,.26-.02,.31,.15,.3,.36,0,.29,0,.57,0,.86Z"/><path d="M229.63,86.19c.05-.23-.15-.58,.3-.61-.05,.23,.15,.58-.3,.61Z"/><path d="M229.32,86.76c.03,.16-.03,.26-.17,.31-.04-.12-.11-.25-.12-.37,0-.07,.09-.19,.15-.2,.29-.05,.07,.19,.14,.26Z"/><path d="M228.93,87.42c.03,.13,.09,.26,.08,.38-.02,.14-.13,.26-.29,.2-.03-.01,0-.18,0-.27-.01-.15,.03-.25,.22-.31Z"/><path d="M230.85,84.66c0-.21,.09-.31,.3-.3,0,.21-.09,.31-.3,.3Z"/><path d="M230.85,84.66c0,.21-.09,.31-.3,.3,0-.21,.09-.31,.3-.3Z"/><path d="M230.54,82.36c-.06,.05-.14,.14-.18,.13-.12-.04-.14-.13-.06-.18,.07-.04,.16-.06,.23-.09,0,.05,0,.09,0,.14Z"/><path d="M230.54,84.97c0,.21-.09,.31-.3,.3,0-.21,.09-.31,.3-.3Z"/><path d="M230.24,85.27c0,.21-.09,.31-.3,.3,0-.21,.09-.31,.3-.3Z"/><path d="M229.32,86.49c0-.21,.09-.31,.3-.3,0,.21-.09,.31-.3,.3Z"/><path d="M79.85,140.54c-.51,.15-.85,.56-1.36,.46-.08-.02-.18-.09-.21-.16-.04-.08-.05-.23,0-.28,.3-.32,.84,0,1.11-.41,.15,.12,.29,.25,.47,.4Z"/><path d="M79.14,142.41c-.1,.18-.27,.11-.4,.1-.04,0-.13-.15-.11-.19,.08-.17,.25-.11,.39-.1,.04,0,.08,.12,.12,.18Z"/><path d="M158.42,119.53c-.39,.18-.68,.34-.97,.45-.18,.07-.26-.08-.3-.23-.03-.15,.02-.36,.16-.36,.33,0,.68-.11,1.11,.14Z"/><path d="M69.12,111.31c.32-.24,.62-.24,.94,0-.32,.24-.62,.24-.94,0Z"/><path d="M115.12,124.39c-.06,.05-.14,.14-.18,.13-.12-.04-.14-.13-.06-.18,.07-.04,.16-.06,.23-.09,0,.05,0,.09,0,.14Z"/><path d="M126.87,124.28s.1,.09,.09,.1c-.04,.07-.08,.15-.14,.18-.13,.06-.19,0-.13-.13,.03-.06,.11-.1,.17-.15Z"/><path d="M61.09,101.13s.1,.09,.09,.1c-.04,.07-.08,.15-.14,.18-.13,.06-.19,0-.13-.13,.03-.06,.11-.1,.17-.15Z"/><path d="M137.81,127.3c.03,.07,.08,.13,.1,.2,0,.03-.06,.07-.1,.1-.03-.07-.08-.13-.1-.2,0-.03,.06-.07,.1-.1Z"/></g></g></svg>