<svg width="1146" height="670" viewBox="0 0 1146 670" fill="none" xmlns="http://www.w3.org/2000/svg">
<path d="M477.504 465C381.504 652 387.504 657 315.504 657H137.504L292.504 35L388.504 5.99997V-1.19209e-05H157.504V5.99997L235.504 35L85.5039 636L0.503904 669V675H430.504L482.504 468L477.504 465ZM567.348 678C593.348 678 616.348 657 620.348 631C624.348 606 607.348 586 582.348 586C555.348 586 532.348 606 528.348 631C524.348 657 541.348 678 567.348 678ZM1044.54 -1.19209e-05L1042.54 5.99997L1044.54 52L683.535 669L682.535 675H822.535L823.535 670C735.535 632 737.535 622 821.535 477L844.535 437H1074.54L1086.54 636L1004.54 669V675H1144.54L1145.54 669L1105.54 -1.19209e-05H1044.54ZM1048.54 85H1052.54L1073.54 419H855.535L1048.54 85ZM557.094 1888C583.094 1888 606.094 1867 610.094 1841C614.094 1816 597.094 1796 572.094 1796C545.094 1796 522.094 1816 518.094 1841C514.094 1867 531.094 1888 557.094 1888Z" fill="black"/>
</svg>
