<?xml version="1.0" encoding="UTF-8"?><svg id="Layer_1" xmlns="http://www.w3.org/2000/svg" viewBox="0 0 242.02 242"><defs><style>.cls-1{fill:#fefad6;}.cls-2{fill:#82c341;}</style></defs><path class="cls-2" d="M68,35c-11.57,18.41-22.25,31.42-30,40-10.76,11.92-18.21,27.78-32,36-.74,.44-4.65,2.6-5,6,0,0-.05,.49,0,1,.75,7.61,180.1,86.05,182,87q2,1,2,1c1.09,.63,1.4,.97,2,1,0,0,.95,.05,2-1,3.68-3.67,35.71-69.45,39-76,1-2,1.99-4.01,3-6,3.51-6.91,5.46-14.71,10-21,.29-.4,1.18-1.58,1-3-.12-.92-.63-1.6-1-2"/><path class="cls-1" d="M39,86c-8.33,9.33-16.67,18.67-25,28,.95,.89,2.66,2.41,5,4,4.78,3.25,9.01,4.65,10,5,11.76,4.14,133.33,59.85,144,68,.62,.47,3.2,2.57,6,2,2.03-.41,3.32-2.04,4-3,2.89-4.04,10.03-17.09,19-35"/><g id="H6uT2l"><g><path d="M199.25,161.33c-1.55,1.96-2.39,4.31-3.66,6.43-1.38,2.31-2.35,4.85-3.93,7.06-.6,.84-.82,1.95-1.32,2.87-2.47,4.48-5.03,8.91-7.25,13.53-.37,.78-.8,1.68-1.37,2.21-.49,.46,.71,.94-.16,.95-.73,0-.28,.81-.78,.97-.49,.15-.38,.79-.72,1.1-.14,.13-.33,.37-.45,.35-.69-.14-1.45,.57-1.82,.36-1.07-.62-2.45,.08-3.31-.77-1.17-1.15-2.97-1.29-3.95-2.67-.14-.2-.44-.19-.53-.1-.73,.75-1.23,.33-1.83-.22-.6-.55-1.56-.57-2.08-1.3-1.44,.27-2.29-.99-3.49-1.31-.47-.12-.48-.34-.47-.68,0-.2,0-.53-.17-.51-.74,.08-1.43-.5-2.02-.36-.4,.09-.58,.11-.9-.08-1.13-.66-2.61-.71-3.44-1.91-.86,.28-1.26-.12-1.73-.85-.39-.6-1.37-.63-2.04-.8-1.02-.25-1.8-.93-2.74-1.2-1.08-.31-1.78-1.01-2.5-1.75-.25-.26-.51-.33-.86-.38-.94-.13-1.87-.3-2.61-1.02-.29-.29-.76-.41-1.17-.56-.51-.2-1.36,.4-1.54-.36-.22-.92-1.07-.15-1.42-.76-.26-.45-.95-.63-1.35-1.03-.78-.78-1.67-1.26-2.78-1.07-1.2,.2-2.01-.3-2.75-1.19-.7-.84-1.65-1.55-2.66-1.81-1.71-.44-3.15-1.5-4.88-1.89-.63-.14-1.31-.54-1.73-1.15-.89,.18-1.33-.47-1.79-1.01-.43-.5-.93-.73-1.56-.62-.82,.15-1.39-.18-1.9-.79-.37-.44-.74-.98-1.47-.83-.06,.01-.13,0-.18-.04-.45-.27,.19-.97-.46-1.17-.47-.14-.72,.76-1.19,.3-.44-.42-1.3-.31-1.37-1.22-.03-.43-.45-.41-.73-.13-.28,.27-.59,.4-.83,.05-.88-1.35-2.44-1.26-3.69-1.82-.14-.06-2.7-1.76-2.79-1.87q-.43-.55-1.45-.55c-.69,0-2.06-.74-2.6-1.43-.3-.38-.76-.47-1.1-.73-.68-.51-1.71,0-2.25-.96-.41-.73-1.45-.74-2.09-1.28-.27,.14-.18,.42-.19,.67-.02,.41-.09,.71-.49,.21-.18-.23-.56,.05-.68-.32,.23-.25,.49-.53,.8-.86-.77-.17-1.51-.35-2.12-.82-.05-.04-.11-.13-.15-.12-.55,.1-.83-.59-1.46-.45-.36,.08-1.07,.46-1.19-.53-.06-.51-.74-.81-1.2-.84-1.34-.07-2.26-1.05-3.44-1.46-1.17-.4-2.26-1.06-3.31-1.73-.96-.62-2.11-.73-3.08-1.37-1.18-.78-2.63-1.16-3.88-1.78-.99-.49-2.04-1.07-3.04-1.42-1.1-.39-1.95-1.13-2.99-1.56-3.33-1.38-6.58-2.95-9.84-4.48-.86-.4-1.7-.74-2.5-1.29-.8-.55-1.86-.72-2.71-1.22-.87-.51-1.82-.95-2.74-1.15-.73-.16-1.08-.67-1.64-.94-1.79-.87-3.65-1.59-5.47-2.38-1.09-.47-2.01-1.23-3.14-1.67-2.78-1.07-5.36-2.6-8.13-3.74-1.24-.51-2.6-.89-3.7-1.82-.65-.55-1.54-1.18-2.3-1.15-1.06,.04-1.42-1.31-2.46-.96-1.23-1.01-2.78-1.42-4.16-2.12-.83-.42-1.59-.96-2.59-1.09-.54-.07-1.18-.48-1.64-.83-.56-.42-1.35-.63-1.7-1.25-.34-.6-1.46,.18-1.45-.96,0-.28-.28,.07-.28,.19,0,.48-.35,.63-.63,.42-.3-.23-.92-.46-.47-1.1,.21-.3,1.39-1.8,1.92-2.04,.32-.15,.33-.31,.39-.56,.08-.33,.44-.39,.61-.22,.98,.97,2.55,.8,3.48,1.84,.04,.05,.12,.13,.14,.12,.57-.31,1.09,.6,1.66,.07,.08,.78,.81,.84,1.31,1.14,.48,.29,.97,.58,1.48,.8,.57,.24,1.18,.4,1.77,.6,.59,.2,1.1,.56,1.74,.7,.33,.07,.63,.78,1.15,.99,1.55,.65,3.13,1.22,4.58,2.11,.69,.42,.45-.59,.82-.76,.32,.8,.82,1.36,1.67,1.72,1.49,.62,2.77,1.71,4.43,1.97,.86,.92,.34-.5,.74-.42,.2,.35,.46,.69,.6,1.07,.09,.25,.08,.43,.43,.52,1.78,.43,3.28,1.49,4.9,2.29,.27,.14,.5,.2,.69-.05,.13-.17-.05-.58,.29-.58,.21,0,.08,.38,.17,.5,.92,1.24,2.36,1.7,3.7,2.21,.89,.34,1.67,.85,2.64,1.19,.46-.15-.33-1.08,.5-1.14,.1,1.01,.49,1.75,1.53,2.17,1.49,.6,2.83,1.53,4.39,2.04,.56,.18,1.47-.08,1.59,.37,.19,.75,.81,.83,1.21,1.03,1.6,.82,3.29,1.45,4.91,2.22,.3,.14,.38,.16,.59-.05,.22-.21,.52-.18,.66,.08,.11,.2,0,.49,.32,.62,1.09,.45,2.1,1.18,3.18,1.53,.84,.27,1.59,.72,2.43,.95,.47,.13,.45,.2,.72-.45,.4,.81,.95,1.4,1.81,1.78,1.53,.68,2.97,1.56,4.56,2.11,.58,.2,.99,.28,.37-.49-.06-.08,.44-.31,.61-.11,1.35,1.52,1.34,1.58,3,2.33,.96,.43,1.77,1.2,2.91,1.26,.25,.01,.48,.42,.74,.62,.43,.33,.76,.25,.75-.34-.02-.63,.35-1.15,.68-1.52,1.34-1.5,2.23-3.38,3.81-4.67,.39-.32,.24-1.31,1.17-.98-.05,.25,.12,.53-.14,.75-1.78,1.47-2.74,3.64-4.4,5.21-.39,.37-.31,1.09-.34,1.75-.05,.92,.5,.68,1,.79,.41,.09,.74,.45,1.13,.65,1.16,.59,2.3,1.24,3.51,1.7,.34,.13,.78,.45,1.15,.29,.15-.07,.09-.59,.17-.9,.02-.07,.21-.1,.33-.15,.1,.84,.28,1.74,1.18,1.99,2.15,.6,3.92,1.98,5.98,2.74,.35-.47,.22-1.23,.9-1.51,0,.47,0,.94,0,1.41,0,.26-.02,.46,.31,.62,2.12,1.04,4.21,2.14,6.33,3.18,.33,.16,.63,.02,.63-.45,0-.29-.16-.72,.4-.72-.11,1.05,.39,1.6,1.34,2.05,1.39,.65,2.77,1.33,4.1,2.08,.51,.29,1.06,.25,1.57,.58,.68,.44,.8,.05,.26-.48,.54-.6,.67-1.55,1.6-1.8-.05,.25,.07,.49-.13,.76-.91,1.2-.94,1.77,.25,2.33,1.86,.87,3.6,1.95,5.57,2.62,.98,.34,1.27,.46,1.2-.68,0-.13,.29-.27,.4-.43,2.43-3.5,4.84-7,7.29-10.48,.23-.32,.33-.46,0-.73-.25-.2-.68-.56-.43-.78,.55-.48,.14-1.33,.8-1.71,.6-.34,.78-1.02,1.12-1.56,.45-.71,.51-1.7,1.22-2.22,.74-.55,.8-1.49,1.45-2.1,.33-.31,.5-.76,1.01-.95,.54-.2,.34-.99,.86-1.24,.61-.29,.12-1.25,.58-1.33,.85-.14,.63-1.06,1.24-1.33,.62-.28,.75-1.04,1.09-1.56,.37-.56,.89-1.04,1.12-1.75,.19-.6,.92-.87,1.21-1.51,.26-.57,1.13-1.04,1.11-1.53-.06-1.06,1.12-.78,1.27-1.57-1.17-.8-2.56-1.21-3.91-1.69-.74-.27-1.23-.18-1.49,.4-.31,.69-.97,1.08-1.27,1.69-.33,.68-1.17,1.1-1.24,1.68-.1,.78-.74,1.02-.97,1.6-.21,.52-.89,.76-.94,1.43-.05,.67-.76,.83-1.08,1.33-.84,1.34-2.17,2.35-2.6,3.97-.9,.04-.69,1.18-1.4,1.41,.03,.88-.99,1.03-1.21,1.72-.52,1.6-2.07,2.44-2.8,3.88-.23,.45-.69,.81-1.32,.67-.24-.05-.65-.09-.7,.2-.19,1.13-1.4,1.45-1.79,2.49-.35,.92-1.21,1.65-1.86,2.45-.8,.98-1.18,2.3-2.42,2.92,0-.2-.09-.49,.01-.59,1.48-1.46,2.23-3.46,3.69-4.93,.17-1.03,1.24-1.42,1.63-2.35,.22-.52,.11-.7-.19-.87-.76-.42-1.56-.75-2.42-1.16,.64-1.51,1.63-2.75,2.54-4.03,1.29-1.83,2.68-3.6,4-5.4,.87-1.18,1.58-2.49,2.57-3.56,1.62-1.76,2.73-3.9,4.29-5.69,.03-.86,1.35-.92,1.18-1.91-.77-.26-1.5-.65-2.24-.91-.75-.26-1.83-.89-2.49,.42-.15,.3-.42,.69-.89,.73-.14-.55,.27-.82,.55-1.18,.49-.63,.34-.98-.53-1.23-.72-.2-1.29-.7-2.06-.89-.58-.14-.86-.16-1.21,.28-1.22,1.56-2.34,3.2-3.5,4.8-1.75,2.43-3.6,4.77-5.33,7.22-1.45,2.05-3.1,3.95-4.67,5.92-.34,.42-.32,1.12-1.07,1.23-.7,.1-1.31-.17-1.79-.52-.37-.27-.94-.17-1.21-.83-.43,.49-.85,.91-1.21,1.37-1.81,2.33-3.59,4.68-5.41,7-.5,.64-.68,1.57-1.62,1.83,.05-.25-.07-.49,.13-.76,1.25-1.62,2.46-3.28,3.72-4.9,1.07-1.38,2.17-2.73,3.28-4.08,.16-.19,.19-.49,.12-.53-.98-.61-.11-1.41,.11-1.63,.74-.7,.97-1.65,1.48-2.45,.51-.8,.95-1.64,1.59-2.36,1.38-1.55,2.32-3.48,4-4.79,.24-.97,1.26-1.34,1.68-2.13,.66-1.26,1.66-2.26,2.47-3.4,.85-1.21,1.83-2.32,2.76-3.48-.13-.13-.25-.32-.42-.41-.49-.26-1.01-.49-1.51-.72-1.76-.8-1.69-.73-2.95,.8-.78,.95-1.38,2.01-2.16,2.92-.5,.58-.65,1.58-1.63,1.73-.21,1.1-1.4,1.47-1.8,2.48-.46,1.19-1.75,1.85-2.17,3.1-.93-.09-.62,1-1.25,1.28-.67,.3-.93,1.12-1.22,1.7-.33,.67-1.14,.65-1.31,1.23-.35,1.19-1.6,1.64-2.06,2.77-.26,.64-.93,1.1-1.77,.43-.48-.38-1-.13-1.36,.35-.19,.25-.38,.55-.57,.75-1.04,1.16-1.75,2.63-3.08,3.61-.07-.2-.13-.28-.11-.31,1.17-1.61,2.35-3.21,3.54-4.82-.11-.11-.27-.34-.49-.48-1.2-.74-1.34-.94-.49-1.92,.65-.75,.92-1.66,1.44-2.45,.17-.25,.28-.6,.53-.77,1.16-.81,1.51-2.24,2.61-3.17,.86-.73,1.45-1.91,2.2-2.87,.91-1.15,1.84-2.28,2.76-3.42,1.22-1.5,2.35-3.07,3.61-4.54,1.15-1.34,1.21-1.37-.56-1.83-.51-.13-.91-.41-1.37-.59-.92-.36-.86-.35-1.41,.45-.25,.37-.2,1.01-.69,1.11-.76,.16-.78,.89-1.19,1.31-.12,.13-.15,.49-.21,.49-1.01-.04-1.24,.95-1.32,1.44-.15,.88-1.14,.61-1.37,1.44-.34,1.19-1.72,1.84-2.08,3.12-.03,.11-.17,.21-.28,.28-.96,.63-1.58,1.53-2.12,2.51-.16,.28-.6,.45-.66,.73-.08,.38-.15,.5-.56,.61-.62,.17,.24,.52,.05,.61-.71,.35-1.41,.65-1.55,1.56-1.47,1-2.21,2.77-3.91,3.58-.69,.33-1.35,1.01-1.68,1.69-.4,.82-.97,1.34-1.67,1.8,0-.2-.09-.49,.01-.59,.88-.86,1.61-1.83,2.12-2.96,1.01-.15,.48-.49,.13-.86-.41-.43-.96-.6-1.48-.82-.76-.33-1.01-.58-.67-1.1,.19-.28,.16-.66,.4-.84,1.13-.85,1.44-2.25,2.27-3.31,.19-.24,.37-.52,.58-.75,1.98-2.23,3.88-4.53,5.71-6.89,.84-1.08,1.9-1.97,2.72-3.09,.49-.67,1.09-1.28,1.51-2.01,.35-.61,.84-1.02,1.4-1.41,.41-.29,.28-.64-.23-.78-.12-.03-.31,.05-.4-.01-1.26-.89-2.43-1.16-3.42,.4-.06,.09-.38,.01-.59,.01,.19-.39,.33-.82,.58-1.16,.37-.53,.41-.75-.35-.89-.52-.1-.96-.58-1.49-.76-1.38-.49-1.37-.44-2.53,.74-1.6,1.61-2.93,3.46-4.23,5.3-.34,.48-.99,.34-1.13,.89-.13,.53-.46,.92-.86,1.25-.51,.41-.75,1.33-1.17,1.41-.84,.16-.36,1.19-1.08,1.25-1.32,1.96-3.12,3.53-4.41,5.52-.35,.54-1.22,.73-1.53,1.56-.17,.44-.98,.34-1.42,.12-.5-.25-1.03-.8-1.5-.64-.51,.16-.86,.8-1.31,1.2-.59,.52-.99,1.25-1.76,1.57,.05-.25-.14-.56,.14-.74,.76-.48,.97-1.37,1.56-1.98,.1-.1,.4-.15,.2-.42-.75-1.01,.08-1.66,.59-2.33,.2-.27,.3-.55,.41-.84,.55-1.46,1.82-2.43,2.56-3.76,.64,.17,.45-.51,.7-.68,.62-.43,.67-1.32,1.52-1.6,.69-.23,.74-1.19,1.3-1.65,1.49-1.23,2.55-2.86,3.78-4.31,.86-1.02,2-1.87,2.57-3.14,.22-.49,.82-.28,1.06-.73,.18-.34,.29-.73-.1-.77-1.11-.1-1.95-.84-2.99-1.08-.55-.12-.97-.47-1.3,.47-.23,.64-.94,1.21-1.47,1.78-1.38,1.53-2.77,3.07-3.85,4.84-.39,.64-1.25,.72-1.59,1.52-.26,.61-1.05,.96-1.24,1.7-1.33,.56-1.77,1.9-2.54,2.94-.6,.81-1.55,1.22-2.15,2.09-.6,.87-1.48,1.54-2.24,2.3-.09,.09-.17,.23-.29,.28-.47,.21-1-.09-1.51,.26-.42,.28-.09,1-.75,1.01-.13,0-.27,0-.4,0,0-.07-.03-.18,0-.19,.47-.29,.67-.9,.69-1.27,.03-.56-.79-.54-1.2-.83-.72-.5-1.04-1.27-.43-1.77,1.29-1.06,1.82-2.65,2.87-3.89,1.03-1.21,2.19-2.27,3.24-3.44,.44-.49,.53-1.17,1.1-1.58,.54-.39,.91-1.01,1.45-1.38,.57-.39,.53-1.34,1.38-1.42,.14-.69,.69-1.08,1.14-1.54,.47-.48,1.06-.88,1.4-1.44,.65-1.09,1.59-1.91,2.57-2.95-1.14,.05-2.02-.51-2.78-1.05-.69-.49-.92,.15-1.36,.16-.05-.25,.15-.68-.15-.72-1.03-.15-1.88-.67-2.74-1.17-.39-.23-.58-.08-.84,.17-.75,.73-1.18,1.7-1.96,2.43-.75,.7-1.71,1.27-2.03,2.37-.03,.11-.17,.2-.28,.29-1.74,1.45-2.9,3.44-4.57,4.94-1.34,1.2-2.32,2.7-3.48,4.03-.54,.62-1.4,.87-1.74,1.63-.33,.73-.91,1.25-1.42,1.83-.38,.43-.81,.45-1.24,.26-.68-.31-1.32-.72-1.97-1.08-.91,.7-1.52,1.79-2.6,2.37-.18-.76,.45-1.07,.87-1.45,.52-.48,.9-.96,.75-1.71-.03-.13-.06-.33,0-.39,1.14-1.16,1.04-2.98,2.22-4.12,.77-.75,1.46-1.59,2.3-2.25,.74-.59,.97-1.66,1.95-1.99,1.23-2.01,3.25-3.31,4.66-5.13,1.1-1.42,2.36-2.65,3.59-3.94,.37-.39,.28-.72-.25-.77-.43-.04-.7-.25-1.05-.42-1.31-.64-1.83-.65-2.38,.55-.34,.75-1.33,.62-1.45,1.6-.07,.58-.96,1.04-1.45,1.59-.48,.55-1.01,1.05-1.52,1.56-.95,.96-1.65,2.17-2.63,3.11-.72,.69-1,1.81-2.18,2.09-.67,.16-.62,1.09-1.14,1.52-.61,.52-1.09,1.21-1.74,1.67-.62,.45-.78,1.23-1.49,1.64-.67,.39-1.18,1.07-1.75,1.63-.24,.23-.51,.56-.82,.27-.8-.74-1.3-.22-1.81,.35-.23,.25-.5,.08-.75,.14-.24-.74,.55-.95,.76-1.45-.13-.23-.36-.18-.54-.15-.59,.09-.67-.25-.62-.71,0-.07-.03-.15,0-.2,.4-.64,.97-1.23,1.16-1.93,.19-.7,.41-1.36,.92-1.83,.53-.5,1.06-1.06,1.48-1.6,2.29-2.97,5.33-5.22,7.69-8.1,1.27-1.54,2.73-2.87,4.13-4.49-.74,0-1.32-.33-1.92-.58-.99-.42-1.51-.28-2.17,.54-.5,.62-1.01,1.24-1.62,1.74-.57,.47-.71,1.28-1.51,1.59-.88,.35-1.02,1.58-1.98,1.94-.8,1.95-3.04,2.7-3.84,4.65-1.14,.08-1.02,1.49-1.84,1.8-.86,.32-.89,1.56-1.93,1.57-.28,.93-1.07,1.47-1.72,2.1-.49,.48-.84,1.21-1.76,1.12-.23-.02-.51,.37-.74,.6-.74,.72-1.47,1.46-2.3,2.1,.3-1.36,1.6-1.93,2.29-2.97-.5-.61-1.3-.74-1.93-1.14-.38-.24-.61-.52-.22-1.12,1.25-1.93,2.22-4,3.98-5.62,1.6-1.46,3.34-2.84,4.45-4.78,1.52-.32,1.9-1.93,3.05-2.73,1.19-.83,2.12-2.04,3.17-3.08,.14-.14,.34-.26,.41-.43,.07-.16,.12-.42-.1-.53-.56-.28-1.18-.4-1.67-.84-.2-.18-.46,.03-.68,.21-.44,.35-.75,.22-.73-.36,.01-.48-.08-.69-.64-.73-.47-.03-.91-.36-1.37-.55-1.04-.44-1.43-.36-2.01,.64-.28,.48-.69,.8-1.05,1.17-1.93,1.96-3.88,3.9-5.83,5.85-.6,.6-1.08,1.28-1.61,1.93-.49,.6-1.52,.72-1.64,1.72-2.2,1.33-3.65,3.45-5.52,5.14-.38,.34-.64,.39-.98,0-.29-.33-.79,.09-1.09-.28-.35-.44-.66-.25-.97,.09-.37,.39-.77,.75-1.13,1.15-.23,.25-.5,.08-.75,.14,.11-.58,.65-.83,1.01-1.18,.42-.4,.62-.68,.22-1.23-.15-.21-.08-.62,.23-.89,.61-.52,.84-1.21,1-2.01,.11-.56,.5-1.13,.99-1.61,3.16-3.11,6.26-6.29,9.44-9.38,1.07-1.04,2.14-2.1,3.35-3,.49-.37,.57-.72-.22-.9-.41-.09-.76-.43-1.15-.63-1.24-.64-1.82-.63-2.31,.48-.29,.65-.9,.73-1.12,1.12-.3,.53-.61,1.03-1.07,1.35-1.58,1.1-2.35,3.07-4.22,3.84,.03,1.08-1.3,1.01-1.59,1.93-.25,.81-1.17,1.34-1.82,1.78-2.01,1.38-3.53,3.23-5.16,4.95-.88,.93-2.01,.75-2.92,1.31-.05,.03-.3,.02-.2-.34,.26-.96,.21-1.12-.7-1.22-.79-.09-.68-.54-.6-.94,.14-.66,1-.94,1.14-1.5,.18-.71,.4-1.35,.89-1.85,2.17-2.2,4.3-4.45,6.58-6.53,.8-.73,1.32-1.74,2.24-2.26,.95-.54,1.63-1.31,2.38-2.03,.82-.79,1.62-1.61,2.43-2.42-.15-.61-.77-.59-1.17-.84-.68-.43-1.32-.35-1.92,.28-1.35,1.41-2.75,2.76-4.12,4.14-.21,.22-.46,.3-.68,.1-.23-.21-.17-.46,.05-.68,.53-.52,1.17-.97,1.53-1.59,.34-.57,.87-.83,1.3-1.23,.63-.58,1.06-1.28,1.44-2.03,.5-.99,.52-.92,1.65-.62,.67,.18,1.25,.63,1.98,.59,.6,.44,.6,.45,1.4,.41,.29-.02,.5,.04,.69,.27,.55,.64,1.84,.08,2.06,1.26,.78,.38,1.55,.79,2.35,1.13,.51,.22,.94,.64,1.58,.59,.43-.04,.83,.8,1.31,.06,.71,.35,1.4,.75,2.21,.84,.69,1.36,2.17,1.56,3.35,2.05,1.26,.51,2.39,1.36,3.81,1.53,.6,.07,.95,.95,1.82,.57,.66-.29,1.11,.66,1.79,.57,.41-.05,.59,.21,.84,.43,1.32,1.15,3.74,2.08,5.65,2.44,.76,.14,1.65,.26,2.21,.98,.41,.52,1.04,.71,1.6,1,1.57,.82,3.3,1.12,4.98,1.6,.24,.07,.5,.01,.71,.24,.93,1.04,2.22,1.36,3.43,1.92,1.69,.78,3.41,1.52,5.1,2.3,.52,.24,.97,.77,1.55,.15,.13-.14,.17-.16,.29-.04,.73,.74,1.93,.55,2.65,1.41,.74,.88,1.95,1.12,2.94,1.64,.5,.26,1.22,.33,1.72,.68,.47,.33,.66,.06,1.01-.14,.16-.09,.42,.38,.8,.34,.61-.06,1.12,.33,1.51,.7,1.14,1.08,2.5,1.66,3.97,2.13,1.06,.34,1.97,1.02,3.08,1.33,.68,.19,1.47,.45,2.05,.85,.65,.45,1.19-.28,1.85,.16,.4,.27,1.11,.39,1.48,.72,1.23,1.07,2.58,1.78,4.15,2.19,.53,.14,.99,.52,1.49,.79,.93-.74,1.55,.16,2.33,.35,.7,.17,1.2,.25,1.38,1.07,.06,.3,.76,.53,.93,.52,.99-.06,1.71,.58,2.44,.97,.83,.45,1.6,.69,2.53,.74,.95,.05,1.82,.35,2.59,1.04,1.13,1.01,2.57,1.55,3.94,2.13,1.25,.54,2.56,.94,3.78,1.58,.6,.32,1.3,.43,1.91,.74,.55,.28,1.02-.31,1.66,.08,.77,.47,1.28,.65,2.38,1.47,.79,.59,1.71,1.13,2.65,1.35,.77,.18,1.38,.57,2.08,.84,.45,.17,.97,.91,1.49,.03,.04-.06,.32-.07,.38,0,.76,.83,2.05,.63,2.81,1.53,.74,.88,1.93,1.19,2.95,1.61,.68,.28,1.37,.57,2.06,.87,1.48,.64,2.99,1.21,4.49,1.81,.17,.07,.37,.24,.51,.2,1.32-.34,2.31,.66,3.5,.8,.52,.06,.35,.44,.5,.68,.18,.29,.49,.09,.74,.15,.03,.6,.5,.34,.81,.4,1.16,1.07,2.68,1.43,4.08,2.02,1.34-.64,2.22,.63,3.36,.81,.34,1.09,1.42,.99,2.2,1.41,.33,.18,.61,.2,.93,.2,.42,0,.58,.09,.8,.57,.29,.62,1.7,.78,2.96,.64,.29-.03,.47,.11,.7,.28,.81,.59,1.95,.57,2.54,1.66,.26,.48,1.17,.63,1.8,.88,2.72,1.06,5.38,2.24,8.1,3.3,1.42,.55,2.87,1.19,4.26,1.88,.65,.32,.67,.75,.51,1-.78,1.22-1.19,2.61-2.03,3.8-.53,.75-1.15,1.52-1.16,2.53Zm-25.81,1.21h-.4c.02-.51-.16-1.07,.42-1.43,1.21-.76,1.21-2.43,2.4-3.22,.03-.02-.02-.14,0-.19,.57-1.4,.88-1.71,2.47-2.4,.2-.09,.39-.15,.34-.37-.14-.65,.41-.9,.67-1.33,.55-.9,1.12-1.8,1.34-2.85,.05-.24-.06-.65,.24-.67,1.05-.09,.92-1.1,1.38-1.63,.41,.01,.5-.4,.77-.57-.17-.19-.3-.44-.51-.56-.92-.52-2.01-.62-2.92-1.26-.56-.4-1.36,.03-1.78,.73-1.37,2.25-2.8,4.47-4.14,6.74-1.7,2.88-3.75,5.56-5.49,8.42-1.05,1.72-2.09,3.45-3.26,5.1-.26,.37-.41,.42-.74,.24-.33-.18-.65-.37-.97-.57-.33-.2-.5-.18-.75,.21-1.42,2.24-2.96,4.41-4.32,6.69-.96,1.62-2.26,3.02-2.95,4.82-.49,1.29-.59,1.3,.56,1.87,2.06,1.01,4.19,1.91,6.21,2.99,.51,.27,.65-.02,.71-.2,.33-.9,.98-1.61,1.41-2.44,1.5-2.9,3.57-5.46,5.09-8.37,.53-1.01,1.07-1.88,.96-3.03-.09-.95,.12-1.79,.82-2.48,.48-.48,.92-.97,.4-1.73-.17-.25,.24-.42,.35-.64,.18-.37,.88,0,.84-.62,.45,0,.93,.08,.81-.64-.03-.18,0-.38,.23-.94-.08,.06-.19,.11-.23,.19-.08,.17,0,.25,.17,.17,.08-.04,.13-.15,.18-.24,0-.01-.08-.08-.36,.24Zm-19.4,17.09c-.09-.89,.21-1.5,.82-1.96,.19-.14,.32-.38,.45-.61,1.19-2,2.46-3.95,3.68-5.93,.85-1.39,1.87-2.68,2.59-4.16,.25-.51,.04-.69-.22-.99-.2-.24-.51-.13-.69-.29-.37-.34-.87-.6-.29-1.29,.26-.3,.65-.78,.55-1.37-.11-.64,.58-.81,.85-1.24,.26-.41-.04-1.2,.76-1.27,.84-.08,.07-.99,.63-1.24,.6-.26,.52-1.03,.99-1.4-.32-.8,1.06-.41,.78-1.03-.44-.97,1.01-.55,.83-1.25,.73-.52,.61-1.52,1.19-2.12,.23-.24,.49-.46,.71-.72,.21-.24,.54-.38,.53-.79,0-.29-.16-.68,.38-.74,.75-.09,.06-.36,.07-.55,.02-.42,.78-.17,.69-.42-.34-.99,1.31-1.07,.88-2.06,0-.02,.19-.14,.31-.19,.61-.27,.68-1.01,1.21-1.36,.18-.12-.78-.58,.13-.66,.53-.05,.35-.49,.34-.77-.03-.64,.62-.31,.83-.63,.42-.62,.34-1.07-.4-1.41-.96-.44-1.98-.75-2.9-1.24-.57-.3-.83-.2-1.15,.29-2.42,3.76-4.86,7.52-7.3,11.27-.93,1.43-1.97,2.8-2.75,4.3-.82,1.58-2.25,2.75-2.87,4.45-.13,.34-.4,.7-.86,.68-.72-.02-.93,.39-1.2,1.01-.21,.48-.56,.99-.9,1.45-.75,1.03-1.6,2.02-2.21,3.11-1.02,1.83-2.28,3.48-3.38,5.24-.33,.53-.76,1.03-.71,1.72,.03,.37,.04,.57,.51,.84,1.62,.96,3.51,1.31,5.08,2.35,.56,.37,1.23,.59,2.04,.97Zm46.83-24.45c-.06-.2-.24-.22-.4-.32-.92-.56-2.05-.65-2.92-1.22-1.18-.78-2.6-.88-3.81-1.55-.26-.14-.68-.16-1,.51-1.11,2.31-2.33,4.59-3.8,6.69-2.14,3.05-3.69,6.44-5.79,9.51-.73,1.08-1.21,2.32-1.88,3.45-1.1,1.84-2.25,3.64-3.39,5.45-.8,1.28-1.4,2.66-2.27,3.91-1,1.43-1.77,3.02-2.59,4.56-.72,1.35-.6,1.44,.63,2.22,1.6,1.01,3.45,1.44,5.07,2.38,.54,.31,1.19,.84,1.66,.72,.4-.1,.63-.96,.9-1.5,.23-.46,.49-.88,.85-1.27,1.25-1.35,2.23-2.88,3.05-4.54,.35-.72,.74-1.45,1.18-2.14,1.14-1.79,2.14-3.67,3.15-5.54,.2-.37-.03-.89,.43-1.24,.68-.51,.98-1.29,1.31-2.07,.62-1.43,1.4-2.79,2.17-4.13,1.58-2.77,3.07-5.59,4.61-8.38,.9-1.64,1.74-3.31,2.62-4.96,.09-.17,.24-.3,.21-.53Zm-8.36-3.65c-1.03-.76-2.23-.77-3.19-1.44-.34-.24-1.04-.23-1.52,.61-.81,1.41-1.66,2.81-2.5,4.21-1.38,2.32-2.77,4.63-4.2,6.92-1.6,2.56-3.01,5.23-4.75,7.71-.53,.76-.83,1.69-1.62,2.28-.82-.44-1.78-.55-2.59-1.06-.38-.24-.73-.38-1.2,.34-.65,1-1.29,2.05-1.89,3.07-1.6,2.7-3.36,5.31-4.97,8-.59,.98-.49,1.63,.58,2.14,.95,.45,1.75,1.28,2.92,1.22,.73,1.01,2.05,.91,2.98,1.59,.72,.52,.8,.42,1.28-.48,.35-.66,.66-1.35,1.08-1.97,1.63-2.39,2.93-4.98,4.5-7.41,1.11-1.72,2.02-3.6,3.09-5.34,1.71-2.78,3.24-5.67,5.01-8.42,1.11-1.72,2.06-3.57,3.08-5.36,1.24-2.18,2.65-4.26,3.92-6.6Zm-55.81,20.06c.4,.35,.44,.02,.44-.1-.01-.84,.46-1.41,.93-2.04,1.22-1.63,2.38-3.29,3.5-4.99,1.4-2.11,2.87-4.16,4.26-6.27,1.11-1.69,2.21-3.4,3.4-5.06,1.76-2.47,3.27-5.13,5.12-7.53,1.72-2.22,3.06-4.69,4.79-6.89,.41-.52,.24-1.34-.35-1.48-1.17-.29-2.21-.84-3.29-1.3-.23-.1-.46-.03-.62,.29-.46,.89-.91,1.8-1.5,2.6-1.86,2.5-3.68,5.02-5.33,7.66-1,1.6-2.43,2.92-3.05,4.76-.82,.33-.96,1.19-1.43,1.79-.57,.71-1.14,1.41-1.67,2.14-.38,.52-.51,1.3-1.15,1.51-.57,.18-1.03-.47-1.6-.59-.25-.05-.53,.11-.74-.15-.49-.59-.85-.15-1.1,.22-1.87,2.64-3.71,5.31-5.56,7.96-.66,.94-1.34,1.86-1.99,2.8-.57,.84-.38,1.6,.59,1.9,1.63,.5,3.06,1.37,4.55,2.14,.6,.31,1.28,.46,1.81,.64Zm8.56,3.88c.5-.18,.34-.59,.54-.86,1.11-1.53,2.06-3.18,3.1-4.77,1.07-1.63,2.15-3.26,3.16-4.93,.39-.65,.86-1.25,1.18-1.93,.12-.25,.25-.87-.43-.85-.63,.02-1.06-.39-1.54-.65-.27-.14-.74-.02-.8-.41-.07-.39-.15-.91,.05-1.17,.24-.32,.31-.69,.52-1.01,2.01-2.93,4.01-5.86,5.99-8.8,1.63-2.41,3.15-4.9,4.89-7.23,.76-1.03,1.02-2.43,2.4-3.14-1.06-.23-1.72-.99-2.75-1.06-.34-.02-.83-.49-1.23-.3-.4,.19-.77,.58-1,.98-1.07,1.81-2.32,3.49-3.53,5.2-2.08,2.95-4.03,6-6.11,8.96-2.26,3.21-4.28,6.58-6.62,9.73-.45,.61-.59,1.38-1.13,1.96-1.53,1.64-2.43,3.73-3.84,5.46-.46,.57-.15,1.22,.51,1.63,2.12,1.33,4.54,2.03,6.63,3.17Zm31.41-17.17s-.1-.13-.13-.13c-.09,.02-.18,.08-.27,.13,.04,.04,.1,.13,.13,.13,.09-.02,.18-.08,.27-.13Zm-1.35,1.35c.05-.05,.1-.1,.14-.14-.09-.04-.18-.1-.27-.13-.03,0-.09,.08-.13,.13,.09,.05,.18,.1,.26,.14Zm-3.03,5.16c.05,.05,.1,.1,.14,.14,.04-.09,.1-.18,.13-.27,0-.03-.08-.09-.13-.13-.05,.09-.1,.18-.14,.26Zm6.05,31.46c.05,.05,.1,.1,.14,.14,.04-.09,.1-.18,.13-.27,0-.03-.08-.09-.13-.13-.05,.09-.1,.18-.14,.26Z"/><path d="M209.33,102.85c.18,.4-.47,1.09,.51,1.24,.54,.08,.36,.71,.25,.98-.16,.37-.48,.14-.8-.01-.84-.4-1.87-.5-2.56-1.06-.86-.69-.54,.21-.74,.39-.19,.16-.49,.41,.03,.47,1.32,.17,2.38,1.12,3.71,1.22-.04,.33,.17,.73-.46,.83-.74,.12-1.25-.54-1.96-.43,0-.07,.01-.19,0-.19-.76-.2-1.53-.4-2.4-.62,.15,.49,.42,.83,.76,.78,.53-.08,.8,.37,1.23,.43,.05,.34-.28,.42-.43,.63-.1,.15-.3,.27-.32,.43-.17,1-.45,1.26-1.19,.79-1.13-.72-2.58-.54-3.65-1.41-.16-.13-.71-.23-.89,.4-.21,.72-.65,1.37-1.26,1.89-.37,.32-.71,.64-1.2,.49-.87-.27-.82,.58-.96,.91-.32,.74-.61,1.6-.53,2.37,.2,2.08-1.53,2.78-2.62,3.91-.34,.35-1.03-.19-1.47,.33,.26,.09,.49,.17,.74,.26-.27,.51-.75,.4-1.02,.16-.42-.38-.87-.2-1.31-.26,0-.13,0-.27,.28-.58-.03-.28-.18-.17-.27,0-.09,.17-.01,.22,.18,.19,.22-.04,.49,.07,.57-.25,0-.03-.19-.11-.48,.06-.68,.18-1.09,.18-1.49,.18-1.19-.97-2.05-2.11-2.02-3.74,0-.13-.02-.27,0-.4,.1-.48-.04-.63-.37-.89-.31-.24-.72-.2-1-.53-.41-.49-.81-1.07-1.63-.91-.17,.03-.18-.19-.03-.39,.28-.37,.63-.43,1.05-.4,.88,.08,1.06-.05,.61-.7-.35-.51-.11-1.1-.58-1.61-.3-.32-.09-1.15-.05-1.75,.05-.63-.24-1.15-.78-1.15-1.13-.02-.97-.57-.63-1.23,.1-.19,.2-.31-.03-.41-.11-.05-.32-.05-.38,.01-.21,.24-.52,.38-.61,.75-.31,1.29-1.47,2.15-1.71,3.52-.07,.39-.51,.78-1.23,.3-1.23-.82-2.92-.65-4.11-1.71-.09-.08-.28,.42-.61,.36-1.11-.8-3.52-1.89-4.46-2.02-.76-.1-1-.44-.67-1.1,.74-1.51,1.82-2.83,2.4-4.42,.04-.11,.25-.18,.27-.29,.06-.41,.17-.9-.49-.33-.18,.15-.27-.12-.27-.32,0-.4,0-.8,0-1.2,.25,.05,.37-.1,.4-.31,.03-.27-.02-.53-.4-.5,0-.27,0-.54,.14-1.01-.04-.13-.2,.16-.14,.17,.31,.02,.38,.36,.59,.4,.15,.03,.23-.23,.21-.42-.03-.35-.27-.35-.67-.14-.6,.23-.77,.66-1.04,.92-.42,.41-.8,.69-1.57,.6-.47-.05-.65,.33-.68,.47-.52,2-1.95,3.49-2.92,5.23-.25,.44-.33,.59,.06,.88,.48,.35,.5,.69,.04,1.12-.38,.36-.75,.73-1.27,.83-.88,.18-.88,1.18-1.54,1.55,0,1.35-1.09,2.11-1.7,3.12-.68,1.13-1.34,2.26-2.02,3.39-.16,.27-.43,.32-.66,.16-.33-.23,.1-.27,.14-.42,.4-1.27,1.23-2.31,1.87-3.45,.18-.31,.26-.58,.26-.9,.72-.31,.6-1.12,1-1.64,.29-.38-.05-1.22-.44-1.15-1.06,.18-1.96-.54-2.99-.43,.01-.41-.4-.5-.57-.77-.19,.16-.44,.3-.55,.5-.15,.27-.1,.64-.84,1,1.47-.13,2.16,.92,3.28,.89,.35,0,.41,.42,.26,.58-.17,.2-.28,.66-.68,.49-.57-.25-1.11-.56-1.66-.84-.37-.19-.77-.58-1.11-.53-.39,.06-.72,.49-1.07,.76,.98,1.11,2.16,1.2,3.23,1.52,.41,.12,.66,.28,.48,.61-.1,.19-.2,.65-.83,.44-.88-.3-1.78-.69-3.38-.7-.44,.02-.39,.08-.34,.09,.32,0,.64,0,.96,0,0,0,.03-.14,0-.18-.29-.36-.68-.19-1.04-.18-.05,0-.09,.08,.43,.27,.55,.34,.83,.41,.89,.58,.2,.53-.2,1.19-.59,.98-.89-.47-1.88-.63-2.8-1.01-.93-.38-.94-.94-.92-1.67,.62,.04,.3-.61,.6-.86,.18-.15,.78-.22,.38-.85-.32-.5,.73-.15,.61-.55-.32-1.01,.98-1.01,1.03-1.77,.01-.15,.36-.41,.39-.39,.22,.14,.49,.32,.56,.55,.19,.57-.13,1.24,.33,1.8,.12-.72,.08-1.44,.14-2.16,.05-.56-.61-.87-.42-1.44,1-.44,2.18-.01,2.39,.97,.1,.49,.19,.72,.69,.64,.31-.05,.66,.13,.98-.22-1.15-.29-1.54-1.15-1.64-2.2,.25-.05,.55,.14,.73-.14,.16-.24,.08-.47-.13-.68-.24-.23-.45-.43-.83-.4-1.03,.08-1.84,.82-2.19,2.03-.07,0-.19,0-.19,0-.07,.89-1.26,.78-1.42,1.59-.02,.12-.08,.24-.13,.35,0,.02-.13,.01-.13,0-.14-.7-.69-1.08-1.15-1.53-.07-.07-.26,0-.47,0-.39,.65,.23,1.57-.47,2.19-.08,.07,.2,.22,.4,.23,.39,.01,.46,.42,.33,.55-.72,.68-.24,1.52-.38,2.27-.29,.06-.78-.19-.79,.31,0,.69-.19,1.19-.61,1.78-.41,.57-.48,1.44,.15,2.16,.22,.25,0,.67-.46,.58-.33-.07-.82-.78-.7,.26,.06,.51-.38,.65-.72,1.13,.02-1.35-1.36-1.9-1.34-3.17,0-.24-.53-.47-.86-.68-.37-.23-1.14-.06-1.12-.82-1.31-.94-1.32-2.31-1.2-3.71,.09-1.02-.23-2.06,.36-3.06,.23-.4,.22-1.14,0-1.56-.49-.94-.33-1.9-.36-2.86-.02-.5-.49-.59-.63-.36-.69,1.16-1.21,.17-1.79-.07-.15-.4,.37-1.02-.49-1.21,.09,.06,.14,0,.09-.19-.05-.17-.05-.36-.11-.52-.05-.12-.19-.1-.25,.07-.09,.24-.07,.48,.27,.64,.24,.4-.28,1.02,.49,1.21,.17,.33-.76,.52-.1,.92,.21,.13,.49,.39,.48,.59-.06,1.77,.72,3.47,.43,5.26-.05,.29-.08,.5-.44,.49-.39,0-.58,.34-.75,.59-.64,.99-1.78,.55-2.64,.94-.66,.3-1.38-.47-1.93-1.03-.65-.66-1.43-1.23-1.12-2.36,.11-.4-.19-.45-.51-.62-.47-.25-.42-1.08,.05-1.68,.65-.83-.06-1.63,0-2.46,.05-.6-.93-.76-1.48-1.03-.45-.22-.88,.09-1.18,.49-.22,.29-.08,.65,.3,.69,.26,.03,.54,0,.8,0,.54,0,.39,.4,.42,.7,.05,.48-.24,.55-.62,.51-.19-.02-.41,.07-.54-.15-.53-.85-1.09-.38-1.66-.04,.25,.25,.48,.48,.8,.8-.26,.26-.56,.49-.77,.78-.48,.66-1,.75-1.07,.15-.15-1.29-1.18-1.2-1.95-1.53-.06-.02-.13,0-.2,0-.35,.03-.54-.2-.42-.47,.12-.29,.22-.73,.74-.59,.25,.07,.51-.3,.45-.56-.03-.13,0-.27-.41-1.83-.37-.84-.54-.45-.16-.12,.23,.2,.53,.36,.58,.75,.04,.26-.3,.68,.18,.78,.38,.08,.79,.03,1.19,0,.08,0,.18-.17,.22-.28,.13-.41-.45-1.73-.81-1.68-.75,.1-.95-.58-1.2,.55-.04,1.52-.32,1.29-.64,1.01-.64-.57-1.1-.42-1.36,.44-.09,.3,0,.64-.31,.89-.27,.22-.48,.46-.84,.18-.35-.27-.57-.62-1.12-.73-1.01-.2-1-.35-.3-1.25,.1-.14,.1-.36,.13-.55,.03-.19-.03-.54,.16-.52,1.38,.17,.94-.82,1.07-1.53,.2-1.09,1-1.88,1.62-2.75,.34-.47,2.31-.36,2.51,.16,.24,.62,.95,.72,1.1,1.33,.03,.14,.03,.38,.36,.17,.57-.37,.68,.17,.85,.63,0,.03,0-.03,0-.09-.1,.04-.22,.06-.31,.12-.11,.07-.08,.19,.08,.24,.05,.02,.16-.11,.24-.26,.4-.31,1.2-.37,.42-1.08l-.42-1.5c.47-.5,.25-.91-.27-1.11-.25-.09-.48-.15-.66-.35-.28-.31-.59-.69,.05-.86,.37-.1,.52-.37,.79-.53,.55-.34,.68-.95,.46-1.39-.52-1.05-.3-2.16-.41-3.54-.6,.69-1.14,1.04-1.35,1.76-.07,.23-.24,.41-.2,.7,.18,1.08-.1,1.13-.57,2.23-.34,.79-1.1,1.42-1.07,2.37-1.46,.19-2.72,.75-3.19,2.25-.16,.5-.49,.74-.75,1.09-.17,.23-.46,.44-.67,.27-.46-.38,.15-.47,.28-.67,.48-.81,1.04-1.57,1.48-2.39,.12-.22,.12-.91-.13-.87-1.11,.19-1.31-.77-1.86-1.29,.06-.33-.4-.41-.39-.64,.03-.83,.05-1.56-1.13-1.52-.19,0-.62-.38-.48-.76,.13-.35,.39-.76,.84-.69,.93,.14,.96-.67,.71-.96-.53-.62-.42-1.29-.33-1.88,.17-1.03-.62-1.86-.45-2.87,.02-.1-.09-.3-.16-.32-.63-.13-1.34-.43-.91-1.09,.39-.59,.06-1.17,.37-1.68,.11-.18,.06-1.99,0-2.23-.02-.06-.09-.12-.08-.17,.26-1.4-.39-2.7-.42-4.07-.04-1.57,.79-2.57,2-3.3,2.08-1.25,4.42-1.05,6.23,.37,.31,.24,.17,.58,.42,.82,.49,.45,.89,.99,1.69,.82,.25-.05,.51-.03,.57,.35,.08,.54-.13,1-.56,1.14-.2,.06-.57-.41-.93-.7-.44,1.07,.57,1.91,.49,2.86-.08,.96,1.26,1.19,1,2.18,.77,.86,.4,1.91,.32,2.84-.04,.4-.45,.59,.27,.61,.22,0,.04,.25,.03,.4-.04,.79-1.05,.99-1.03,1.8,.03,.81-.72,1.07-1.15,1.53-.4,.43-.62,.83-.3,1.51,1.01-.92,1.92-1.84,2.27-3.18,.03-.12,.03-.29,.11-.35,1.21-1.02,1.57-2.64,2.6-3.75,.46-.5,.38-1.08,.68-1.55,.31-.49,.82-.77,1.08-1.37,.49-1.1,1.8-1.32,2.68-1.3,.97,.02,2.33,.2,2.69,1.71,.08,.36,.13,.74,.25,1.1,.32,1.01,.08,2.21,.99,3.01,.31,.27,.19,.61,.21,.92,.02,.27-.1,.7,.02,.78,1.38,.92,.05,2.14,.39,3.15,.25,.75-.4,.78-.8,1.03,.27,.31,.65,.08,.94,.19,.33,.12,.55,.69,.98,.25,.4-.41,1-.69,.89-1.44-.22-1.55,.42-3.17-.4-4.68-.19-.36,.24-.56,.39-.84,.94-1.71,2.16-2.31,3.86-1.69,.42,.15,1.01,.34,1.17,1.07,.19,.92,.69,1.75,.64,2.76-.06,1.08,0,1.08,1.01,2.56,.04,.05,.14,.1,.13,.14-.17,1.45,.65,2.8,.45,4.25-.06,.44-.37,.67-.74,.82-.27,.11-.65-.16-.93,.41,.67,0,1.41,.22,1.8-.05,.58-.41,1.12-.3,1.84-.36-.11-1.52,.45-3.06-.29-4.6-.18-.38-.21-1-.03-1.37,.34-.66,.21-.91-.45-1.1-.66-.19-1.29-.44-2.01-.69,.39-.31,.74-.58,1.16-.91,.45,.45,1.31,.62,2.12,.81,.45,.11,1.14-.07,1.48-.38,.86-.8,1.45,.22,2.17,.25,.5,.02,1.07,.59,1.17,1.4,.08,.68,.42,1.32,.38,2.06-.05,1,0,1.01,1.02,2.56,.07,.1,.16,.22,.16,.33-.07,1.78,.7,3.49,.41,5.28-.51,0-1.02,0-1.53,0-.27,0-.51,.05-.48,.49,0,.03,0-.03,0-.09-.1,.04-.22,.06-.31,.12-.11,.07-.08,.19,.08,.24,.05,.02,.16-.11,.23-.26,.51-.09,1.02-.09,1.53-.09,.27,0,.51-.05,.48-.4,.49-.06,.64-.59,1.07-.81,.09,.26,.18,.49,.26,.74,.09-.05,.26-.09,.26-.14,.01-1.74,.09-3.48-.03-5.21-.04-.66,.27-1.15,.49-1.61,.31-.65,1.28-1.05,.45-1.97-.16-.17,.15-.29,.25-.41,.37-.45,.82-.81,1.62-.9,1.06,.7,1.56,2.23,2.74,3.12,.15,.93,.72,1.78,.54,2.79-.19,1.07,.1,1.94,1.2,2.39-.16,.55,.21,.86,.56,1.17,.94-1.25,1.1-2.99,2.39-3.88,.57-.14-.15,1.08,.71,.45,1-.73,2.12-.69,3.41-.19,1.21,.46,1.39,1.34,1.4,2.41,0,.67-.15,1.38,.05,1.99,.16,.47,.12,1.25,1.05,1.31,.66,.05,1.28,.36,.66,1.3-.18,.27,.29,.59,.67,.68,.11,.58,.71,.76,1.16,1.46,.02-1.02,.11-1.81,.02-2.57-.08-.7,.2-1.27,.44-1.85,.54-1.3,1.69-1.49,2.93-1.49,1.21,0,2.05,.45,2.54,1.63,.22,.54,.1,1.04,.14,1.55,.05,.58-.02,1.15,.39,1.66,.1,.13,.16,.45,.31,.39,.85-.33,.8,.74,1.26,.79,.66,.07,.73,.97,1.48,.87,.21-.03,.3,.41,.11,.65-.17,.21-.39,.38-.3,.68,.03,.1,.16,.22,.26,.25,.19,.05,.5,.02,.51-.18,.04-.87,.02-1.74,.04-2.62,0-.25-.11-.34-.31-.42-.63-.26-1.24-.71-1.89-.76-.79-.06-.72-.54-.6-.93,.12-.41,.54-1,.97-.66,.51,.41,.99,.27,1.49,.34,.22,.03,.35,.14,.33,.39-.05,.92,.15,1.09,.98,.48,1.01-.73,2.26-.44,3.43-.48,.34-.01,.53,.22,.62,.42,.43,.97,1.19,1.81,1.04,3.01-.1,.84-.02,1.71-.02,2.57,.65-.01,.18-.62,.63-.68,.32,.31,.95,.58,.95,1.08,0,1.12,.64,1.3,1.51,1.35,.05,0,.1,.22,.14,.42,0,.03,0-.03,0-.09-.1,.04-.22,.06-.31,.12-.11,.07-.08,.19,.08,.24,.05,.02,.16-.11,.24-.26,.55-.09,.38-.51,.4-.8,.02-.33-.03-.67,.01-1,.07-.5,.63-.62,1.05-.25,.13,.11,.26,.22,.37,.31,.26-.17,.14-.39,.18-.58,.05-.22-.24-.66,.44-.39,.97,.39,2.02,.55,1.99,1.94,0,.14,.08,.36,.36,.13,.95-.78,1.76,.5,2.71,.23,.17-.05,.2,.35,.13,.51-.12,.27-.76,.46,.13,.67,.67,.16-.23,.46-.16,.84,.09,.44-.22,.26-.43,.07-.34-.31-.76-.07-1.14-.14-.03-.6-.5-.34-1.42-.49-.44,.02-.39,.08-.34,.09,.32,0,.64,0,.96,0,0-.06,.03-.15,0-.19-.29-.36-.68-.19-1.04-.18-.05,0-.09,.08,.43,.27,.65,.69,1.12,.43,1.42,.49Zm-52.84-10.31v-.18c-.1,.04-.22,.06-.31,.12-.11,.07-.08,.19,.08,.24,.05,.02,.16-.11,.23-.35,.11-.04,.3-.07,.32-.14,.05-.24-.12-.28-.32-.27-.15-.4,.37-1.02-.58-1.21,.18,.06,.23,0,.18-.19-.05-.17-.05-.36-.11-.52-.05-.12-.19-.1-.25,.07-.09,.24-.07,.48,.36,.64,.15,.4-.37,1.02,.4,1.21v.58Zm-19.54-10.67h.18c-.04-.1-.06-.22-.12-.31-.07-.11-.19-.08-.24,.08-.02,.05,.11,.16,.72,.47-.06-.08-.11-.19-.19-.23-.17-.08-.25,0-.17,.17,.04,.08,.15,.13,.24,.18,.01,0,.08-.08-.42-.36Zm26.68,22.61c-.24,.08-.31,.22-.29,.41,.01,.12-.03,.35,0,.36,.22,.08,.36-.08,.39-.26,.02-.16-.07-.34-.39,.46v-.18c-.1,.04-.22,.06-.31,.12-.11,.07-.08,.19,.08,.24,.05,.02,.16-.11,.52-1.14Zm10.02-6.07h.18c-.04-.1-.06-.22-.12-.31-.07-.11-.19-.08-.24,.08-.02,.05,.11,.16,1.14,.52-.08-.24-.22-.31-.41-.29-.12,.01-.35-.03-.36,0-.08,.22,.08,.36,.26,.39,.16,.02,.34-.07-.46-.39Zm-26.62-9.68h.18c-.04-.1-.06-.22-.12-.31-.07-.11-.19-.08-.24,.08-.02,.05,.11,.16,.35,.23-.05,.58,.02,1.14,.4,1.79v-.18c-.1,.04-.22,.06-.31,.12-.11,.07-.08,.19,.08,.24,.05,.02,.16-.11,.23-.35,.24,.05,.45-.16,.38-.29-.23-.45-.15-1.11-.97-1.32Zm-11.09,5.03c-.01-.34-.29-.19-.42-.18-.39,.05-.69,.28-.7,.69,0,.14,.24,.37,.4,.4,.55,.11,.1-.51,.41-.63,.11-.04,.19-.18,.52-.84-.08,.06-.19,.11-.23,.19-.08,.17,0,.25,.17,.17,.08-.04,.13-.15,.18-.24,0-.01-.08-.08-.34,.43Zm38.34,7.06c.09-.09,.41,.2,.34-.18-.01-.08-.18-.21-.27-.2-.17,0-.33,.1-.49,.15,.07,.19,.2,.27,.77,.24,.47,.77,1.22,.84,2.8,1.09-.08-.24-.22-.31-.41-.29-.12,.01-.35-.03-.36,0-.08,.22,.08,.36,.26,.39,.16,.02,.34-.07-.28-.39-.47-.77-1.22-.84-2.37-.81Zm4.03,1.61c.09-.09,.41,.2,.34-.18-.01-.08-.18-.21-.27-.2-.17,0-.33,.1-.49,.15,.07,.19,.2,.27,.77,.24,.47,.77,1.22,.84,1.97,.8,.24,.55,.85,.5,1.21,.8,.05,.05,.28-.02,.34-.1,.17-.24-.13-.29-.22-.42-.34-.46-.85-.23-1.28-.28-.47-.77-1.22-.84-2.37-.81Zm-.89-2.58c-.06-.08-.11-.19-.19-.23-.17-.08-.25,0-.17,.17,.04,.08,.15,.13,.24,.18,.01,0,.08-.08,.04-.47-.89-.28-1.4-.98-2.39-.51,.76,.33,1.34,.81,2.47,.85Zm-39.09-13.95c.11-.05,.3-.07,.32-.14,.06-.23-.49-1.56-.91-1.88h.18c-.04-.1-.06-.22-.12-.31-.07-.11-.19-.08-.24,.08-.02,.05,.11,.16,.35,.23,.02,.34-.7,.68,0,1.02-.18,.46,.44,.59,.4,1.17v-.18c-.1,.04-.22,.06-.31,.12-.11,.07-.08,.19,.08,.24,.05,.02,.16-.11,.23-.35Zm33.88,6.45c.47-.34,.99-.38,1.55-.43,.75-.06,.58-.46,.19-.86-.08-.08-.09-.22-.13-.32,.11-.05,.32-.08,.33-.14,.1-.76,.13-1.53-.04-2.42-.82,1.29-1.04,2.69-1.9,3.78-.06,.08,0,.26,0,.57v-.18c-.1,.04-.22,.06-.31,.12-.11,.07-.08,.19,.08,.24,.05,.02,.16-.11,.23-.35Zm-22.18-.54c0-.73-.01-1.46,0-2.2,.01-.49-.28-.51-.63-.49-.26,.01-.62-.03-.57,.34,.17,1.09-1.03,2.15-.05,3.29,.16,.19,.22,.84-.09,1.11-.87,.74,.23,1.28,.12,1.92-.03,.21,0,.27,.2,.2,.06-.02,.11-.08,.14-.14,.2-.33-.14-.82,.28-1.08,.68-.43,.61-1.1,.59-1.75,0-.4,0-.8-1.22,3.33-.09-.09,.2-.41-.18-.34-.08,.01-.21,.18-.2,.27,0,.17,.1,.33,.15,.49,.19-.07,.27-.2,1.45-4.95Zm-13.14-17.16c-.11,.65-.26,1.27-.86,1.65-.42,.27-.49,.74-.7,1.12-.49,.89-.83,1.87-1.7,2.5-.21,.15-.12,.36-.14,.55-.04,.4,.26,.16,.4,.19,.69,.16,1.45-.3,2.09,.28,.29,.26,.32-.08,.32-.2,0-.5,.31-.51,.66-.47,.42,.04,.53-.13,.58-.55,.2-1.71-.35-3.33-4.05,1.13v-.18c-.1,.04-.22,.06-.31,.12-.11,.07-.08,.19,.08,.24,.05,.02,.16-.11,3.63-6.36Zm3.53,10.32c-.13,.22-.22,.49-.4,.64-.5,.4-1.48,.57-.65,1.52,.21,.23,0,.29-.06,.44-.35,.89-.18,1.83-.14,2.74,.04,.98,.16,1.48-.21,1.99-.23,.33-.06,.4,.1,.59,.19,.23,.46,.41,.68,.26,.38-.27,.95-.64,.96-.98,.02-1.17,.93-2.32,.42-3.42-.54-1.17-.2-2.32-.69-3.78Zm37.38,15.21c.33,.36,.76,.1,.99,.26,1.33,.99,3.12,.91,4.44,1.92,.09,.07,.25,.09,.36,.07,.21-.03,.37-.15,.31-.4-.03-.12-.07-.26-.15-.34-.19-.17-.44-.47-.6-.44-.87,.18-1.28-.25-1.61-.96-.15-.32-.69-.49-.77-.12-.15,.74-.33,.5-.79,.27-.61-.3-1.26-.69-2.18-.27Zm-18.5-2.68c0-1,.02-1.65,0-2.29-.03-.67,.13-1.36-.16-2.1-.38,.45-.24,.86-.23,1.23,.02,.64-.71,.27-.79,.63-.06,.29-.16,.89,.09,.89,.99,.03,.51,.87,1.09,1.63Zm-30.25-2.77c.05,.24-.03,.67,.49,.2,.39-.35,.68-.2,.73,.36,.03,.36,.36,.36,.59,.28,.11-.04,.19-.31,.2-.49,.04-.54-.38-.91-1.21-1.11-.6-.14-.8,.03-.8,.75Zm76.85,4.82c-.66,1.12-.81,2.15-.38,3.68,.17-1.47,.93-2.41,.38-3.68Zm-37.82-2.83c-.42,.55-1.12,.45-1.46,1.03-.22,.37,.06,.6,.3,.82,.13,.12,.42,.31,.39,.06-.08-.77,1.05-.87,.77-1.92Zm-33.2,.48c.09-.09,.2-.16,.27-.26,.12-.16,.51-.3,.13-.54-.32-.2,.02-.85-.59-.81-.06,0-.14-.02-.19,0-.27,.16-.18,.44-.22,.68-.06,.49,.39,.62,.6,.92Zm67.34,7.13c.3-.8,.18-1.52,.82-1.87,.19-.1,.23-.29,0-.4-.1-.05-.29-.06-.38,0-.79,.52-.71,1.24-.45,2.27Zm.23,.62c0-.27-.04-.49-.41-.49-.25,0-.37,.12-.39,.32-.03,.28,.03,.5,.4,.5,.25,0,.34-.12,.4-.33Zm-13.9,1.46c.08-.5,.46-1.03-.12-1.53-.14,.56-.17,1.05,.12,1.53Zm-15.36-8.8c.64-.4,.63-.8-.02-1.19-.27,.4-.28,.8,.02,1.19Zm-8.05-4.86c-.32,.42-.32,.83,0,1.25,.32-.42,.32-.83,0-1.25Zm11.9,10.51c.12-.05,.23-.09,.34-.14-.19-.22-.37-.44-.56-.65-.06,.1-.17,.2-.18,.31-.03,.28,.05,.5,.4,.48Zm-25.82-1.67c-.06-.21,.16-.54-.14-.68-.2-.09-.28,.14-.25,.34,.04,.24-.15,.58,.14,.71,.2,.09,.27-.14,.25-.37Zm14.52-.36c-.05-.11-.08-.31-.14-.32-.24-.04-.29,.14-.26,.33,.02,.12,.07,.31,.14,.32,.24,.04,.28-.13,.26-.33Zm26.16,1.07c-.05-.08-.1-.24-.16-.24-.18-.01-.41-.1-.52,.13-.02,.05,.09,.24,.14,.25,.18,.01,.4,.1,.53-.14Zm-26.13-6.25c-.07-.13-.15-.29-.23-.45-.07,.1-.2,.21-.19,.3,.02,.17,.12,.34,.19,.5,.07-.1,.13-.2,.23-.35Zm35.49,8.77c-.1-.15-.17-.25-.23-.35-.07,.17-.17,.33-.19,.5-.01,.09,.12,.2,.19,.3,.08-.16,.16-.32,.23-.45Zm-8.96,11.71c-.15,.1-.25,.17-.35,.23,.17,.07,.33,.17,.5,.19,.09,.01,.2-.12,.3-.19-.16-.08-.32-.16-.45-.23Zm-45.96-30.17c.1,.15,.17,.25,.23,.35,.07-.17,.17-.33,.19-.5,.01-.09-.12-.2-.19-.3-.08,.16-.16,.32-.23,.45Zm41.03,24.5l.14-.14c-.09-.04-.18-.1-.27-.13-.03,0-.09,.08-.13,.13,.09,.05,.18,.1,.26,.14Zm-31.66-2.62c.05,.08,.1,.17,.14,.26,.04-.04,.13-.1,.13-.13-.02-.09-.08-.18-.13-.27l-.14,.14Zm48.95-1.35s-.13,.1-.13,.13c.02,.09,.08,.18,.13,.27,.04-.04,.13-.1,.13-.13-.02-.09-.08-.18-.13-.27Zm-63.38-22.24c.08-.05,.17-.1,.26-.14-.04-.04-.1-.13-.13-.13-.09,.02-.18,.08-.27,.13,.04,.04,.09,.09,.14,.14Zm-4.12-1.81c.05,.08,.1,.17,.14,.26,.04-.04,.13-.1,.13-.13-.02-.09-.08-.18-.13-.27-.04,.04-.09,.09-.14,.14Zm30.8-.95s-.13,.1-.13,.13c.02,.09,.08,.18,.13,.27,.04-.04,.13-.1,.13-.13-.02-.09-.08-.18-.13-.27Zm9.82,22.85c-.05-.08-.1-.17-.14-.26-.04,.04-.13,.1-.13,.13,.02,.09,.08,.18,.13,.27,.04-.04,.09-.09,.14-.14Zm11.29-.92c-.05-.05-.1-.1-.14-.14-.04,.09-.1,.18-.13,.27,0,.03,.08,.09,.13,.13,.05-.09,.1-.18,.14-.26Zm-13.6,0c.05,.08,.1,.17,.14,.26,.04-.04,.13-.1,.13-.13-.02-.09-.08-.18-.13-.27l-.14,.14Zm2.62-.49c-.08,.05-.17,.1-.26,.14,.04,.04,.1,.13,.13,.13,.09-.02,.18-.08,.27-.13-.04-.04-.09-.09-.14-.14Zm28.72-.2c-.05-.08-.1-.17-.14-.26-.04,.04-.13,.1-.13,.13,.02,.09,.08,.18,.13,.27,.04-.04,.09-.09,.14-.14Zm-17.69-.06s-.1-.13-.13-.13c-.09,.02-.18,.08-.27,.13,.04,.04,.1,.13,.13,.13,.09-.02,.18-.08,.27-.13Zm-38.06-.26c.05-.05,.1-.1,.14-.14-.09-.04-.18-.1-.27-.13-.03,0-.09,.08-.13,.13,.09,.05,.18,.1,.26,.14Zm-23.91-12.1c.08-.05,.17-.1,.26-.14-.04-.04-.1-.13-.13-.13-.09,.02-.18,.08-.27,.13,.04,.04,.09,.09,.14,.14Zm44.63,.26s-.1-.13-.13-.13c-.09,.02-.18,.08-.27,.13,.04,.04,.1,.13,.13,.13,.09-.02,.18-.08,.27-.13Zm-21.72,3.98c.05,.08,.1,.17,.14,.26,.04-.04,.13-.1,.13-.13-.02-.09-.08-.18-.13-.27-.04,.04-.09,.09-.14,.14Zm23.6-.89c-.08,.05-.17,.1-.26,.14,.04,.04,.1,.13,.13,.13,.09-.02,.18-.08,.27-.13-.04-.04-.09-.09-.14-.14Zm-35.41-1.41c-.05-.08-.1-.17-.14-.26-.04,.04-.13,.1-.13,.13,.02,.09,.08,.18,.13,.27,.04-.04,.09-.09,.14-.14Z"/><path d="M118.58,68.57c.67-.72,1.26-1.49,1.61-2.42,.98,.15,1.02,.21,.6,.81-.7,1.02-1.64,1.9-1.81,3.22-1.13,.4-.87,1.52-1.2,2.33-.11,.28,.04,.6-.19,.91-.19,.25-.11,.31,.58,.39,0,.2-.08,.45,.01,.6,.9,1.41,1.74,3.6,2,5.41,.09,.64,.29,.36,.56,.13,.04-.03,.36,.15,.4,.27,.29,.98,.98,1.75,1.38,2.65,.17,.38,.63,1.37-.55,1.48-.06,0-.09,.23-.16,.32-.37,.47-.21,1.33-.58,1.52-.49,.25-1.1,.26-1.49,.77-.19,.25-.47,.26-.68,.02-.2-.22-.41-.28-.7-.27-.58,.02-1.17,0-2.15,0,.96,.65,1.94,.06,2.39,.99,.21,.42,.53,.6,.11,1.15-.89,1.14-1.63,2.4-2.44,3.61-.28,.43-.77,.64-.95,1.22-.15,.48-.67,.86,.02,1.29-.13,.14-.24,.33-.4,.42-.54,.31-1.14,.4-1.62-.04-.62-.57-1.53-.77-1.96-1.62,.95-.24,2.02-.44,1.98-1.83,0-.22,.14-.3,.37-.35,.73-.15,.79-.53,.46-1.17-.13-.25-.03-.57,.4-.89,.76-.56,1.25-1.5,1.57-2.45,.06-.17-.13-.36-.39-.31-.06-.29,.19-.73-.31-.79-.52-.06-1.04-.01-1.72-.01,.36,1.2-.4,2.03-1,2.75-.7,.83-.89,2.06-2.03,2.54-.3,.13-.04,.3,.07,.41,.18,.19,.38,.36,.59,.56-.61,.44-.94,1.13-1.65,1.41,.12-.66-.15-.93-.81-.81-.31-.84-1.08-.97-1.8-1.22-.2-.07-.26-.29-.22-.5,.04-.21,.17-.33,.42-.31,.2,.02,.4,0,.6,0,.71,.03,.63-.19,.23-.6-.06-.06,.24-.22,.44-.21,.43,.03,.8,.03,.73-.6-.07-.73,.11-1.32,.63-1.98,.39-.48,.79-1.14,1.15-1.7,.26-.4,1.08-.84,2.12-.48-.71-.73-1.31-.29-1.78-.56-.15-.1-.08-.15,.03-.29,.52-.65,1.19-.57,1.77-.27,.32,.16,.65,.36,.89,.21,.34-.2,.57,.95,.78,.06,.09-.38-.24-.87-.79-.6-.5,.25-.5-.24-.71-.38-1.21-.81-1.76-.65-2.52,.77-.03,.06-.09,.1-.16,.16-.28-.26-.56-.52-.81-.76-.91,1.3-1.83,2.59-2.72,3.9-.35,.52-.76,1.03-.72,1.81,0,.03,0-.03,0-.09-.1,.04-.22,.06-.31,.12-.11,.07-.08,.19,.08,.24,.05,.02,.16-.11,.24-.26,.68-.02,.3,.51,.4,.83-.81,.22-.78,1.44-1.72,1.48-.46,.02-.75,.06-.74,.63,0,.19-.39,.28-.49,.17-1.01-.99-1.68,.16-1.77,.6-.15,.75-.8,.55-1.09,.93-.19,.24-.62,.16-.64-.34,0-.2,.04-.42-.03-.59-.15-.37,.11-1.33,.37-1.57,.14-.13,.96-.46-.01-.65-.12-.02-.32-.15-.31-.19,.21-1.1-.8-1.44-1.3-2.09-.16-.21-.42-.38-.32-.67,.15-.44,.56-.21,.85-.28,.12-.03,.22-.11,.33-.17-.12-.39-.64-.07-.78-.43,.28-.39,1.06-.63,.4-1.31,.26-1.02-.41-1.86-.53-3.09-1,2.17-2.53,3.74-3.54,5.65-.12,.22-.35,.19-.53,.15-.09-.02-.19-.17-.23-.27-.12-.32,.27-.85-.41-.92-.06-.29,.19-.71-.32-.8-.31-.06-.67,.11-.91-.23-.12-.16-.26-.29-.38-.45-.03-.04,0-.13,0-.2-.14-.54,1.3-.55,.43-1.32,.08-.08,.18-.23,.25-.22,.86,.16,1.1-.3,.92-1.01-.27-1.05,.83-1.23,1.15-1.91,.46-.99,1.24-1.71,2.56-1.57-.53-.8-1.42-1.16-1.35-2.21,.03-.4-.74-.44-1.05-.73-.55-.51-.85-.17-1.12,.2-.35,.47-.82,.3-1.27,.37-.33,.05-.85-.28-.92,.39-.31,.06-.77-.2-.81,.4-.74,.41-.77,.39-.81-.4,.11-.04,.3-.07,.32-.14,.05-.24-.12-.28-.32-.27,0-.2,.06-.43-.01-.6-.1-.25-.26-.11-.42,.01-.42,.32-.82,.3-1.23-.06-.33-.29-.72-.22-1.19,0,.2,.2,.34,.39,.53,.52,.32,.23,.33,.55,.3,.89-.03,.36,.21,.37,.48,.45,.89,.26,.87,.28,.74,1.26-.03,.25-.09,.54,.22,.75,.55-.76,1.26-1.42,1.39-2.43,.31-.06,.77,.2,.81-.4,.13,0,.27-.02,.4,0,1.78,.28,2,.87,1.12,2.35-.61,1.03-1.32,1.98-1.93,3.01-.13,.22-.31,.43-.52,.58-.19,.14-.45,.2-.68,.29,1.06,.57-.96,.97-.1,1.6,.1,.07-.32,.57-.58,.61-.52,.08-1.22,.21-1.55-.06-.57-.45-1.13-.31-1.69-.3-1.29,0-2.2-.84-3.26-1.36-.24-.12,.79-.58-.12-.68-.44-.05-.56-.58-.91-.7-.36-.13-.8,0-1.16-.11-.65-.21-.19-.8-.32-1.19,.68,.03,.23-.8,.73-.97,.22-.08,.44-.35,.67-.21,.3,.18,.59,.72,.61-.15,.02-.87-.18-1.65-.81-2.14,0-.62,.2-1.27-.04-1.52-.67-.72-.17-1.54-.38-2.26-.11-.37,.66-.45,.24-.74-.23-.16-.6-.17-.8-.45-.7,.77-.82-.35-1.38-.4-.22,1.01,.29,1.86,.8,2.57,.44,.6,.89,1.07,.79,1.9-.03,.23,.36,.51,.77,.9-.08,.48-1.04,.63-.83,1.48,.17,.68-.59,1.26-.38,1.99-.73-.14-1.28,.12-1.73,.71-.34,.46-.61,.5-1.28,.22-1.2-.51-2.04-1.35-2.91-2.21-.42-.42-.79-.93-1.51-.73-.5,.14-.89-.28-.92-.56-.03-.26,.42-.58,.67-.87-.22-.31-.59-.12-.89-.19-.21-.04-.32-.18-.3-.42,.01-.24,.13-.33,.35-.38,.69-.16,1.22,.31,1.85,.41,.53,.08,.75-.16,.56-.67-.6-1.57-.6-3.33-1.53-4.81-.4-.65,.51-1.14,.41-1.84-.08-.55,.59-.4,.87-.57,.93-.55,1.92-.97,3.04-.21,.38,.26,.71,.41,.93,.86,.31,.65,.7,1.28,1.61,1.19,.54-.05,.25,.54,.49,.68,.33,.2,.43-.45,.79-.28,.06,.03,.14,.02,.17,.06,.6,.83,1.22,.82,2.17,.41,.7-.31,1.65-.18,2.44,.31,.29,.18,.72,.45,.71,.61-.11,1.61,1.34,.87,2.1,1.25-.35-.34-.64-.8-1.06-.98-.33-.14-.72-.17-.54-.57,.16-.37,.44-.86,1.04-.62,.15,.06,.2,.37,.42,.25,.21-.11,.16-.37,.09-.53-.41-.99-1.11-4.52-1.2-5.42-.08-.71,.19-1.4,.51-1.79,.44-.52,1.26-.77,1.96-1.01,.65-.22,1.12,.54,1.83,.47,.2-.02,.43,.55,.61,.9,.54,1.01,.64,2.15,1.15,3.16,.08,.16,.02,.53,.09,.55,.52,.13,.09,1.16,.77,.92,.64-.23,.47-.83,.08-1.23-.33-.35,.29-.33,.15-.74-.53-1.57-.46-1.6-1.89-3.05,.28-.17,.38-.58,.77-.58,.35,0,.56-.38,.42-.46-.86-.46,.49-1.1-.21-1.64-.55-.43,.09-1.28-.31-1.87-.54-.79-.32-1.69-.23-2.5,.08-.72,.82-1.36,1.42-1.54,.86-.26,1.86-.1,2.79,0,.2,.02,.5,.36,.6,.73,.23,.84,.68,1.6,.82,2.49,.14,.87,.2,1.86,1.26,2.26,.11,.04,.28,.26,.27,.27-.73,.9,1,1.2,.48,2.13-.32,.58,.14,1.23,.36,1.84,.13,.35,.37,.38,.61,.29,.12-.04,.22-.33,.2-.5-.09-.69-.61-1.3-.39-2.05-.94-.74,.08-1.96-.68-2.74-.26-.27,.09-.31,.17-.42,.59-.83,1.6-1,2.41-1.49,.59-.36,1.14,.45,1.83,.41,.31-.02,.5,.52,.74,.79,.43,.5,.39,1.09,.53,1.61,.48,1.7,1.46,3.16,2,4.82,.34-.13,.15-.52,.33-.65,.79-.56,1.16-1.39,1.4-2.25,.38-1.38,1.58-1.4,2.58-1.48,.85-.07,1.71,.25,2.03,1.35,.33,1.11,1.41,1.22,2.37,1.43,.51,.11,.59,.46,.21,.81-.18,.17-.35,.34-.63,.42-.88,.25-1.03,.61-.49,1.23,.45,.51,.75,.83,.18,1.48-.14,.16,.32,.86,.53,1.35,.4-.58,1.22-.81,1.04-1.66Zm-20.17,13.71c-.28-.01-.41,.12-.4,.4-.6,.03-.34,.5-.41,.8-.41,.1-.66,.39-.79,.76-.03,.09,.04,.25,.1,.35,.07,.12,.15,.04,.28-.07,.34-.28,.48-.61,.42-1.04,.6-.03,.34-.5,.4-.81,.28,.01,.41-.12,.64-.77-.08,.06-.19,.11-.23,.19-.08,.17,0,.25,.17,.17,.08-.04,.13-.15,.18-.24,0-.01-.08-.08-.36,.24Zm.22-2.82h.18c-.04-.1-.06-.22-.12-.31-.07-.11-.19-.08-.24,.08-.02,.05,.11,.16,.79,.65-.07-.12-.13-.31-.25-.4-.15-.11-.22-.02-.19,.18,.04,.22-.07,.49,.25,.57,.03,0,.11-.19-.42-.76Zm-2.27-7.83c-.06-.08-.11-.19-.19-.23-.17-.08-.25,0-.17,.17,.04,.08,.15,.13,.24,.18,.01,0,.08-.08-.24-.33,0-.53,.03-1.07,0-1.6-.03-.54,.15-1.12-.36-2.02-.04,1.47-.1,2.53,.73,3.83Zm16.95,3.97c-.66,.88-1.47,1.47-1.03,2.71,.74-.75,1.16-1.5,1.29-2.85-.08,.06-.19,.11-.23,.19-.08,.17,0,.25,.17,.17,.08-.04,.13-.15,.18-.24,0-.01-.08-.08-.39,.01Zm-.38,4.67c0,.19,.06,.41,0,.58-.41,1.03-.42,1.02,.46,1.03,.32,0,.73,.12,.95-.04,.34-.25,.41-.64-.19-.77-.01-1.1,.21-2.25-.66-3.21-.14,.58-.69,.97-.55,1.6-.43,.05-.64,.38-.79,.72-.05,.12,.11,.32,.18,.49,.09-.09,.17-.2,.28-.27,.1-.06,.22-.09,.33-.14Zm-2.82-9.01c0,.34,.03,.54,0,.74-.11,.51,.34,.67,.58,.97,0,.01,.11-.02,.13-.06,.36-.47-.21-.66-.29-1-.05-.19-.03-.39-.41-.51,.53-.72,1.26-1.59,.95-2.37-.37-.95,.49-2.2-.84-2.86-.27,.72-.53,1.5-1.16,2.06-.33,.29-.14,.54,.09,.82,.34,.42,.22,.7-.35,.74-.29,.02-.71-.14-.71,.58v-.18c-.1,.04-.22,.06-.31,.12-.11,.07-.08,.19,.08,.24,.05,.02,.16-.11,.23-.35,.97-.09,1.44,.64,2.02,1.07Zm-3.63,15.64c.99-.88,1.53-1.76,1.99-2.68,.09-.19,.69-.39,.21-.71-.23-.15-.46,.11-.68,.26-.71,.46-.69-.56-.81-.54-1.3,.19-1.17-1.01-1.44-1.6-.2-.44-.25-.94-.63-1.35-.43-.47-.38-1.1-.01-1.6,.09-.12,.7-.09,.54-.31-.44-.63,.25-1.24,0-1.68-.45-.78-.29-1.62-.42-2.65-.36,.41-.75,.68-.72,.86,.14,.76-.4,1.08-.8,1.5,.72,.51,.06,.96,0,1.47-.07,.57-.75,1.34,.3,1.74-.06,.55,.38,.92,.52,1.4,.45,1.48,.96,2.94,1.33,4.44,.39-.14-.02-.74,.63-.6v2.06Zm-5.29-18.69c.12,1.31,.74,2.41,1.07,3.59,0,.03,.26,.04,.38,0,.07-.03,.14-.21,.12-.27-.41-.86-.77-1.72-.75-2.72,0-.19-.3-.52-.82-.6Zm-11.65,12.84c.07-.5,0-.83-.7-.8-.68,.03-.48,.46-.51,.82-.06,.53,0,.86,.7,.84,.68-.03,.49-.46,.51-.85Zm21.5-7.32c.15,.04-.09,.13-.1,.31-.02,.36-.17,.78,.25,1.07,.27,.18,0,.94,.64,.7,.56-.21,.32-.57,.01-.87-.23-.22-.1-.49-.11-.74,0-.24-.12-.34-.69-.47Zm-14.89,.06c.88-.39,.35-.94,.18-1.45-.06-.19-.18-.19-.29,.04-.02,.45-.18,.95,.11,1.41Zm8.75-1.05c-.04-.12-.09-.44-.16-.44-.42-.04-.24,.31-.26,.51-.01,.18-.1,.48,.13,.52,.42,.06,.21-.32,.29-.59Zm-3.32-5.54c-.04-.06-.09-.21-.15-.22-.25-.04-.55-.06-.57,.29-.01,.16,.12,.33,.18,.5,.18-.19,.35-.37,.54-.57Zm10.15,9.44c-.05-.11-.08-.31-.14-.32-.24-.04-.29,.14-.26,.33,.02,.12,.07,.31,.14,.32,.24,.04,.28-.13,.26-.33Zm2.36,17.5c-.14-.24-.35-.15-.53-.14-.06,0-.17,.19-.14,.25,.1,.23,.34,.14,.52,.13,.06,0,.11-.16,.16-.24Zm-8.27-6.55c-.05,.05-.1,.1-.14,.14,.09,.04,.18,.1,.27,.13,.03,0,.09-.08,.13-.13-.09-.05-.18-.1-.26-.14Zm-3.72-8.67c.05,.05,.1,.1,.14,.14,.04-.09,.1-.18,.13-.27,0-.03-.08-.09-.13-.13-.05,.09-.1,.18-.14,.26Zm-5.04-3.14c.05-.05,.1-.1,.14-.14-.09-.04-.18-.1-.27-.13-.03,0-.09,.08-.13,.13,.09,.05,.18,.1,.26,.14Zm16.54-1.09c-.08,.05-.17,.1-.26,.14,.04,.04,.1,.13,.13,.13,.09-.02,.18-.08,.27-.13-.04-.04-.09-.09-.14-.14Zm2.1,16.74c-.05-.08-.1-.17-.14-.26-.04,.04-.13,.1-.13,.13,.02,.09,.08,.18,.13,.27,.04-.04,.09-.09,.14-.14Z"/><path d="M182.31,130.68c-.52-.4-1.01-.88-1.59-1.18-.25-.13-.69-.76-1.05-.04-.01,.03-.14,.03-.19,0-1.08-.6-2.16-1.2-3.21-1.84-.09-.05-.01-.38-.01-.58,.33,0,.66,0,.99,0,.05,0,.14-.09,.14-.12-.03-.1-.08-.26-.14-.26-.33-.02-.66-.01-.99-.01-.71-.57-1.43-1.15-2.4-1.21-1.41-.09-2.51-1.14-3.91-1.27-.06-1.29-1.27-.46-1.8-.95-.49-.46-1.2-.77-1.81-.95-1.33-.39-2.55-1-3.83-1.47-.33-.12-.73,.23-.9-.46-.1-.39-.95,.02-1.39-.5-.14-.17-.64-.54-1.19-.5-.43,.04-.9-.34-1.42-.55,.29-.63,.51-1.2,.95-1.7,.32-.37,.57-.83,.74-1.3,.55-1.47,.67-1.41,2.2-.92,1.9,.61,3.65,1.55,5.55,2.18,1.74,.57,3.45,1.38,5.15,2.14,1.64,.74,3.31,1.45,4.99,2.04,1.64,.58,3.22,1.32,4.88,1.87,1.25,.42,2.61,.85,3.74,1.64,.39,.27,.65,.45,.98,.02,.12-.16,.29-.17,.27,.01-.09,1.14,1.19,.29,1.39,.97,1.36,.26,2.43,1.36,3.89,1.3,.75,1,2.11,.66,3.04,1.49,.78,.7,1.99,.97,3.05,1.32,1.83,.61,3.62,1.32,5.4,2.04,1.04,.41,2.04,.91,2.97,1.32-.65,1.37-1.27,2.73-1.94,4.06-.25,.49-.54,.57-1.16,.3-1.02-.46-2.11-.86-3.27-.85-.08-.43-.4-.62-.75-.81-.58-.32-1.27-.27-1.83-.46-.56-.19-.93-.9-1.71-.74-.71,.15-.78-.92-1.48-.8-.66,.11-1.15-.15-1.54-.66-.26-.33-.57,.56-.87-.04-.17-.35-.64-.41-.93-.62-.32-.23-.74-.21-1.01-.52-.31-.36-.75-.14-1.13-.16-.23-.01-.36-.13-.5-.27-1.04-1-2.51-1.08-3.73-1.72-.21-.11-1.27-1-1.07,.45,.03,.2-.14,.34-.39,.32-.4-.02-.81,0-1.21,0Zm-1.65-2.19c-.06-.08-.11-.19-.19-.23-.17-.08-.25,0-.17,.17,.04,.08,.15,.13,.24,.18,.01,0,.08-.08-.42-.36h.18c-.04-.1-.06-.22-.12-.31-.07-.11-.19-.08-.24,.08-.02,.05,.11,.16,.72,.47Zm-2.16-1.04h.18c-.04-.1-.06-.22-.12-.31-.07-.11-.19-.08-.24,.08-.02,.05,.11,.16,1.14,.52-.08-.24-.22-.31-.41-.29-.12,.01-.35-.03-.36,0-.08,.22,.08,.36,.26,.39,.16,.02,.34-.07-.46-.39Zm2.95,1.07c-.05-.08-.1-.17-.14-.26-.04,.04-.13,.1-.13,.13,.02,.09,.08,.18,.13,.27l.14-.14Z"/><path d="M80.88,54.25c-.17-.59-.08-.44,.32-.69,.61-.39,1.21-.35,1.82-.3,.79,.06,1.14,.89,.68,1.58-.63,.94-1.27,1.87-1.97,2.76-.24,.3-.26,.57-.26,.89-.57,.51-1.32,.36-2.19,.46,.62,.51,1.17,.21,1.62,.38,.56,.21,.7,.81,.29,1.25-.16,.18-.31,.44-.57,.09-.58-.79-1.66-.53-2.34-1.12-.13-.12-1.25,.23-1.23,.35,.08,.37-.28,.79,.47,1.07,.93,.34,.95,1.19,.4,2.08-.62,1.01-1.61,1.81-1.7,3.1-.64,.14-.83,1.01-1.6,.94,.21,.43,.57,.23,.85,.27,.52,.08,.32,.48,.34,.76,.04,.51-.37,.54-.65,.43-.92-.34-1.79-.78-2.71-1.11-.35-.12-.9-.42-1.07,.32-.4-.15-1.02,.37-1.09-.59,.04-.12-.07-.07-.11,0-.08,.17,0,.25,.17,.17,.08-.04,.13-.15,.18-.24,0-.01-.08-.08-.24,.06-1.51,1.92-2.92,3.65-4.31,5.39-.64,.8-1.32,1.59-1.83,2.47-.23,.4-.41,.49-.71,.3-.25-.16-.17-.43,.02-.68,.91-1.16,1.88-2.29,2.68-3.53,.47-.72,1.02-1.34,1.58-1.97,.1-.11,.01-.39,.01-.59,.28,.01,.41-.12,.52-.59,.04-.12-.07-.07-.11,0-.08,.17,0,.25,.17,.17,.08-.04,.13-.15,.18-.24,0-.01-.08-.08-.24,.06-.4,.17-.53,.31-.52,.59-.47,.34-.98,.44-1.56,.41-.65-.03-.41-.49-.24-1.17,.09-.62,.36-1,.01-1.21-.12-.07-.34,.02-.52,.04,.28,.47,.33,.99,.29,1.52,.11-.04,.28-.06,.32-.14,.07-.16,.08-.36-.1-.21-.54,.35-.86,.31-1.17,.36-.71,.1-.68-.35-.66-.81,.58-.17,.92-.54,.79-1.14-.1-.48,.4-.8,.28-1.18-.12-.36-.53-.5-.93-.59-.16-.04-.3-.25-.42-.41-.22-.29-.2-.69-.06-.93,.21-.36,.54-.22,.8,.06,.08,.08,.21,.13,.33,.15,.19,.03,.43-.04,.35-.26-.66-1.62-.83-3.38-1.37-5.03-.5-1.53,.44-2.99,2.02-3.18,1.34-.16,2.12,.14,3.06,1.21,.05,.25-.15,.6,.14,.73,.61,.27-.16,1.21,.59,1.26,.61,.03,.86-.62,1.27-.98-.26-.32-.55-.15-.79-.2-.13-.68-.9-.39-1.21-.81-.08-.55,.04-.82,.72-.83,1.02-.02,1.06-.1,.72-1.13-.13-.4,.16-.79-.19-1.2-.25-.29,.17-.9-.25-1.29-.4-.37-.07-.96-.53-1.41-.4-.38,.1-.96,.35-1.38,1.03-1.74,1.93-2.11,4.05-1.23,.44,.19,.77,.42,.8,.98,.05,.95,.71,1.71,.83,2.67,.07,.55,.36,1.12,1.08,1.33,.6,.18,1.1,.59,.91,1.38-.05,.2,.03,.38,.25,.52,.79,0,.95-.97,1.63-1.16,.23,.14-.02,1.22,.74,.37,.06-.07,.28,.43,.82,.57,.14,.09,.09-.1-.04-.2-.15-.11-.22-.02-.19,.18,.04,.22-.07,.49,.25,.57,.03,0,.11-.19-.02-.55Zm-5.09,9.3c-.06-.08-.11-.19-.19-.23-.17-.08-.25,0-.17,.17,.04,.08,.15,.13,.24,.18,.01,0,.08-.08-.42-.36,.18,.06,.23,0,.18-.19-.05-.17-.05-.36-.11-.52-.05-.12-.19-.1-.25,.07-.09,.24-.07,.48,.73,.87Zm-4.84-3.63c-.06-.08-.11-.19-.19-.23-.17-.08-.25,0-.17,.17,.04,.08,.15,.13,.24,.18,.01,0,.08-.08-.22-.19-.08-.55,.1-.96-.16-1.31-.9,.33-.59,.73,.51,1.38Zm.44,6.55c.51-.04,1.05,.23,1.59-.08-.63-.53-.4-.94,.12-1.38,.81-.68,1.27-1.46,.53-2.49-1.32,.94-.97,2.85-2.24,4.19v-.18c-.1,.04-.22,.06-.31,.12-.11,.07-.08,.19,.08,.24,.05,.02,.16-.11,.23-.42Zm8.45-11c-.33-.23-.35-.64-.52-.96-.19,.15-.43,.26-.56,.44-.67,.97-.97,2.15-1.71,3.09-.1,.13,.17,.45,.21,.38,.37-.6,.62,.03,.91,.06,.2,.03,.5-.1,.43-.21-.63-1.1,.66-1.41,.83-2.15,.07-.29,.24-.44,.4-.64Zm-5.97,5.05c-.06,.08-.26,.28-.36,.51-.04,.09,.12,.32,.25,.4,.3,.21,.63,.4,.96,.56,.34,.17,.47-.21,.54-.35,.16-.34-.76-1.2-1.38-1.12Zm-1.45,1.51c.21-.19,.39-.36,.58-.53-.17-.06-.34-.19-.5-.18-.35,.03-.33,.33-.29,.58,.01,.07,.16,.11,.21,.13Zm3.82-1.14c-.05-.11-.08-.31-.14-.32-.24-.04-.29,.14-.26,.33,.02,.12,.07,.31,.14,.32,.24,.04,.28-.13,.26-.33Zm5.27-5.29c-.1-.15-.17-.25-.23-.35-.07,.17-.17,.33-.19,.5-.01,.09,.12,.2,.19,.3,.08-.16,.16-.32,.23-.45Z"/><path d="M216.59,110.11c0,.33,.07,.69-.02,1-.07,.23-.33,.41-.55,.55-.05,.03-.28-.2-.41-.32-.15-.13-.27-.31-.43-.41-.1-.06-.28-.06-.39,0-.24,.13-.11,.26,.01,.42,.87,1.15,.62,2.5,.53,3.76-.03,.35-.36,.77-.35,1.24,.01,.54,.09,.8,.58,.27,0,0,.2,.11,.23,.2,.41,1.12,.27,2.38,.81,3.47-.46,1.34-.44,2.85-1.47,4.01-.92,1.04-2.02,1.53-3.38,1.54-.53,0-1.07,0-1.6,0,.01-.28-.12-.41-.4-.4,0-.13,0-.27,.12-.59,.04-.12-.07-.07-.11,0-.08,.17,0,.25,.17,.17,.08-.04,.13-.15,.18-.24,0-.01-.08-.08-.24,.06-.47,.15-1,.36-.92-.32,.09-.68-.28-.78-.81-.71-.13-.27-.27-.54-.4-.81,.11-.04,.3-.07,.32-.14,.05-.24-.12-.28-.32-.27,.05-.25-.11-.38-.31-.4-.43-.04-.63-.09-.21-.52,.25-.26,.24-.63-.23-.69-.32-.04-.49-.16-.45-.47,.06-.52,.48-.29,.77-.35,.12-.03,.23-.07,.62-.2-.76-.18-1.13-.73-1.8-.61,0-.81,0-1.61,0-2.42,.41-.1,.66-.38,.8-.76,.03-.09-.04-.25-.1-.35-.07-.12-.15-.04-.28,.07-.34,.28-.48,.61-.41,1.04-.63,.69-1.17,1.43-1.21,2.42-.74,.47-.64,1.56-1.53,2.04-.21-1.05-.07-1.94,.72-2.63,.34-.3,.46-.61,.4-1.03,.83-.08,.13-.87,.55-1.18,.39-.29,.82-.62,.66-1.24,1.15-1.24,1.6-2.87,2.39-4.31,1.85-3.37,3.54-6.82,5.25-10.25,.16-.31,.31-.41,.57-.35,.33,.08,.23,.4,.27,.65,.06,.41-.32,.54-.46,.82-1.53,2.9-3.09,5.79-4.38,8.81-.02,.06,0,.13-.06,.11-.45,.75-.8,1.51-1.15,2.26q-.53,1.13,.81,1.86c0-.71,.05-1.36-.01-2.01-.07-.73,.69-1.27,.36-2.11,.93,.42,1.09-.84,1.9-.73,.65,.08,1.32,.04,1.97,0,.19-.01,.21-.27,.23-.48,.04-.37,.48-.42,.56-.3,.67,1.04,1.7,.77,2.65,.79Zm-9.42,4.9c-.08,.05-.17,.1-.26,.14,.04,.04,.1,.13,.13,.13,.09-.02,.18-.08,.27-.13-.04-.04-.09-.09-.14-.14Zm.75,6.4s-.13,.1-.13,.13c.02,.09,.08,.18,.13,.27,.04-.04,.13-.1,.13-.13-.02-.09-.08-.18-.13-.27Zm2.16,1.07c-.05-.08-.1-.17-.14-.26-.04,.04-.13,.1-.13,.13,.02,.09,.08,.18,.13,.27,.04-.04,.09-.09,.14-.14Z"/><path d="M206.13,129.47c.29,.65,.13,1.08-.41,1.21-.7,.17-1.24-.28-1.83-.46-.4-.12-.68-.62-1.02-.95,.36-.35,1.02-.27,1.18-.9-.54-.14-1.12-.16-1.6-.51-.42-.31-1.06-.27-1.38-.51-.53-.39-.79-.07-.87,.2-.17,.64-.51,.76-1.11,.73-.81-.04-1.09-.65-1.44-1.18-.12-.17,.05-.39,.26-.44,.31-.07,.67,.11,.95-.2-.59-.21-1.06-.73-1.75-.61-.37,.07-.66-.09-.85-.38-.36-.58-.93-.4-1.53-.42-.03,0,.03,0,.09,0-.04-.1-.06-.22-.12-.31-.07-.11-.19-.08-.24,.08-.02,.05,.11,.16,.26,.24,.03,.29,.28,.7-.23,.81-1.17,.25-2.1-.42-3.08-.82-.37-.15-.29-.5-.03-.8,.32-.36,.34-.59-.24-.82-.86-.34-1.63-.91-2.6-1.02-.3-.02-.2,.28-.18,.5,.04,.49,0,1.04-.49,1.17-.31,.08-.79-.17-1.09-.41-.35-.28-.9-.23-1.13-.69-.16-.09-.11-.15,.02-.29,.86-.93,.85-.94-.23-1.53-.87-.48-.92-.54-.45-1.36,.15-.28,.13-.59,.39-.86,.76-.8,.76-.74,1.97-.34,3.24,1.08,6.3,2.61,9.55,3.68,1.58,.52,3.04,1.41,4.62,1.97,2,.7,3.93,1.54,5.89,2.32,.63,.25,1.36,.16,2.01,.51,.31,.17,.33,.35,.32,.62-.03,.79-.52,1.47-.92,2.01-.35,.48-1.33,.44-1.96-.06-.26-.21-.51-.08-.73-.13-.22-.55-.82-.5-1.19-.8-.05-.05-.28,.02-.34,.1-.17,.24,.13,.29,.22,.42,.34,.46,.85,.23,1.31,.29Zm-13.52-5.25h.18c-.04-.1-.06-.22-.12-.31-.07-.11-.19-.08-.24,.08-.02,.05,.11,.16,1.58,.42-.17-.11-.22-.17-.27-.18-.32,0-.64,0-.96,0,0,0-.03,.14,0,.18,.29,.36,.68,.19,1.04,.18,.05,0,.09-.08-1.22-.36Zm7.24,2.42s-.13,.1-.13,.13c.02,.09,.08,.18,.13,.27,.04-.04,.13-.1,.13-.13-.02-.09-.08-.18-.13-.27Z"/><path d="M176.67,117.77c-.07,.26,.15,.35,.28,.48,.17,.17,.15,.38,.08,.54-.09,.22-.4,.27-.51,.17-.37-.36-.85-.28-1.24-.44-.37-.16-.58-.36-.88,.02-.17-.27-.58-.36-.57-.77,0-.55,.43-.36,.72-.41,.12-.02,.25-.05,.37-.08-.7-.79-2.59-1.71-4.66-2.28,.14,.61,.67,.65,1.06,.89,.16,.1,.71,.26,.26,.69-.24,.23-.56,.6-.81,.29-.53-.67-1.16-.79-1.93-.76-.19,0-.41-.31-.58-.51-.23-.26-.04-.62,.34-.67,.38-.06,.79,.13,1.31-.28-1.32-.09-2.25-.82-3.35-1.19-.7-.24-.81-.11-.81,.52,0,.31,.18,.75-.18,.91-.28,.13-.71,.15-.98,.02-.84-.41-1.79-.65-2.47-1.38,.4-.38,.78-.75,1.21-1.16-.12-.15-.27-.26-.32-.41-.16-.41-.8-.04-.88-.61-.09-.63,.97-2,1.56-2.08,.7-.1,1.14,.72,1.85,.42,1.54,.98,3.38,1.27,4.93,2.17,.57,.33,.62-.32,.95-.15,.14,.47,.45,.67,.94,.83,1.33,.46,2.62,1.06,3.93,1.58,1.03,.41,2.08,.77,3.09,1.22,.86,.38,1.1,.83,.9,1.42-.34,1.01-.93,1.45-1.78,1.4-.28-.02-.49-.07-.69-.27-.32-.32-.76-.07-1.13-.14,0-.33-.21-.45-.49-.4-.3,.06-.34-.61-.71-.22-.03,.03-.02,.12-.02,.18-.02,.49,.32,.44,.64,.44,.19,0,.38,0,.58,0Z"/><path d="M54.8,76.08c.74-.73,1.29-1.63,2.36-.68,.2,.18,.49-.11,.65-.32,.31-.43,.73-.52,1.22-.47,.45,.05,.96-.04,1.35,.13,.36,.16,.03,.69,.27,1.07,.51,.78,.79,1.7,1.32,2.46,1.08,1.53,2.23,3.02,3.88,4.01,.37,.23,.89,.47,.65,1.03-.28,.66-1.34,1.24-1.77,.93-.52-.39-1.07-.57-1.87-.91,.22,.62,.46,.89,.82,.95,.66,.1,.31,.29,.11,.56-.3,.42-.81,.09-1.08,.3-.57,.42-.98,1.12-1.84,.94-.25-.05-1.98-1.53-2.23-1.81-.2-.23-.2-.42-.06-.69,.71-1.39,.21-2.76-.11-4.13-.03-.12-.07-.3-.15-.33-1.48-.6-2.17-2.09-3.53-3.03Zm8.06,6.74c-.05-.05-.1-.1-.14-.14-.04,.09-.1,.18-.13,.27,0,.03,.08,.09,.13,.13,.05-.09,.1-.18,.14-.26Z"/><path d="M53.64,84.7c.41,.04,.52-.56,1.04-.43,.55,.13,.98,.61,1.62,.49,.18-.03,.24,.42,.15,.49-.78,.62-1.12,1.58-1.8,2.28-.43,.45-.84,.57-1.38,.23-.85-.54-1.81-.8-2.78-1.04-.73-.18-1.09-1.07-2.08-.87-.62,.13-.97-1.08-1.86-.8-.02,0-.12-.49-.29-.64-.25-.24-.3,.3-.55,.23-1.09-.33-1.17-.68-.36-1.54,.44-.46,.91-.87,1.17-1.52,.26-.64,.61-.64,1.21-.15,.31,.26,.56,.54,1.02,.45,.9-.17,1.5,.58,2.25,.86,.87,.32,1.23,.69,1.72,.75q.87,.12,.91,1.21c-.28-.01-.41,.12-.4,.4-.28-.01-.41,.12-.4,.49,0,.03,0-.03,0-.09-.1,.04-.22,.06-.31,.12-.11,.07-.08,.19,.08,.24,.05,.02,.16-.11,.24-.26,.28-.08,.41-.21,.4-.49,.28,.01,.41-.12,.4-.4Zm-5.24-1.61c-.6,.03-.34,.5-.4,.99v-.18c-.1,.04-.22,.06-.31,.12-.11,.07-.08,.19,.08,.24,.05,.02,.16-.11,.23-.35,.6-.03,.34-.5,.64-1.18-.08,.06-.19,.11-.23,.19-.08,.17,0,.25,.17,.17,.08-.04,.13-.15,.18-.24,0-.01-.08-.08-.36,.24Z"/><path d="M212.96,106.08c.82-.11,.84-.92,1.17-1.42,.73-1.12,.64-1.07,1.85-.68,.42,.14,.73,.75,1.2,.46,.47-.29,.69,.81,1.13,.13,.61,.74,1.59,.57,2.34,.94,.34,.17,.63,.54,.2,.95-.76,.72-1.02,1.71-1.43,2.62-.48,1.05-.89,1.36-1.87,.86-.57-.3-.62,.34-.95,.16-.12-.86-1.12-.03-1.39-.76-.23-.61-.89-.39-1.4-.47-.29-.04-.56-.35-.84-.37-.62-.03-.32-.61-.61-.87-.41-.37,.18-.51,.34-.67,.29-.28,.27-.58,.26-.91Z"/><path d="M69.49,91.77c-.75,.1-.34,1.24-1.15,1.05-.2-.05-.06,.35,.09,.33,.6-.07,.73,.8,1.4,.5-.44,.39-.57,1.01-1.34,.52-.82-.51-1.68-1.07-2.79-1.05-.59,.01-.83-.95-1.56-.87,.47-.88,1-.45,1.63-.37,.7,.08,.94,.62,1.45,.84-.01-.54,.65-.81,.54-1.38-1.33,.33-1.49,.29-2.89-.87-.58,.43-1.06-.21-1.63-.16-.49,.04-.25-.49-.31-.77,.28,.01,.41-.12,.52-.59,.04-.12-.07-.07-.11,0-.08,.17,0,.25,.17,.17,.08-.04,.13-.15,.18-.24,0-.01-.08-.08-.24,.06-.4,.17-.53,.31-.52,.59-.33-.07-.48,.51-1.05,.09-.41-.3-.58-.46-.45-1.09,.04-.12-.07-.07-.11,0-.08,.17,0,.25,.17,.17,.08-.04,.13-.15,.18-.24,0-.01-.08-.08-.24,.06-.18,.19-.24,.18-.3,.19-.21,.04-.24,.51-.51,.27-.13-.12-.08-.45,0-.86,.04-.12-.07-.07-.11,0-.08,.17,0,.25,.17,.17,.08-.04,.13-.15,.18-.24,0-.01-.08-.08-.24,.06-.74,.82-1.35,.35-1.96,.15-.06-.02-.13-.08-.14-.14-.12-.64,.43-1,.65-1.49,.13-.29,.43-.49,.8-.28,.43,.25,.86,.49,1.29,.73q.96,.55,1.47-.39c.68,.52,.76,1.64,1.79,1.83,.04,0,0,.37,0,.66,0,.03,0-.03,0-.09-.1,.04-.22,.06-.31,.12-.11,.07-.08,.19,.08,.24,.05,.02,.16-.11,.24-.26,.67,.05,.15-.94,.84-.93,.58,0,.91,.42,1.42,.51,.52,.09-.75,.6,.09,.73,.39,.06,.8-.03,1.05,.39,.29,.49,.8,.58,1.22,.41,.76-.3,.38,.92,.98,.67,.62-.26,.69,.2,.86,.57-.28-.01-.41,.12-.4,.49,0,.03,0-.03,0-.09-.1,.04-.22,.06-.31,.12-.11,.07-.08,.19,.08,.24,.05,.02,.16-.11,.24-.26,.28-.08,.41-.21,.4-.49,.21,.38,.7-1.16,.84,.15,.05,.48,.68,.19,1.04,.25,.43,.08,.76,.63,.53,.98-.14,.22-.36,.39-.54,.58-.63,.63-.99,.67-1.36-.1-.25-.53-.21-.55-.79-.3-.75,.32-1.02-.02-1.22-1.34,.04-.12-.07-.07-.11,0-.08,.17,0,.25,.17,.17,.08-.04,.13-.15,.18-.24,0-.01-.08-.08-.24,.06Zm-3.92-2.61c-.08,.06-.19,.11-.23,.19-.08,.17,0,.25,.17,.17,.08-.04,.13-.15,.18-.24,0-.01-.08-.08-.36,.42v-.18c-.1,.04-.22,.06-.31,.12-.11,.07-.08,.19,.08,.24,.05,.02,.16-.11,.47-.72Zm-5.88-1.44s-.1-.13-.13-.13c-.09,.02-.18,.08-.27,.13,.04,.04,.1,.13,.13,.13,.09-.02,.18-.08,.27-.13Zm7.26,2.82s-.1-.13-.13-.13c-.09,.02-.18,.08-.27,.13,.04,.04,.1,.13,.13,.13,.09-.02,.18-.08,.27-.13Zm1.96,.86c-.05-.08-.1-.17-.14-.26-.04,.04-.13,.1-.13,.13,.02,.09,.08,.18,.13,.27l.14-.14Z"/><path d="M83.47,66.87c2.44-2.32,2.43-2.12,2.44-1.92,.01,.37-.14,.89,.53,.78,.5-.08,.74,.24,.98,.54,.09,.12,.09,.37,.03,.53-.09,.24-.35,.17-.53,.14-.11-.02-.23-.16-.28-.27-.44-.9-.94-.02-1.4-.04-.04,0-.11,.21-.13,.33-.05,.25,.11,.36,.32,.39,.13,.02,.27,0,.4,0,.31-.01,.5,.09,.48,.44-.02,.39-.29,.38-.56,.36-.19-.01-.44,0-.55-.12-.52-.57-.57,.21-1.21,.35,.39,.23,.65,.32,.81,.5,.29,.32,.91,.55,.65,1.09-.2,.4-.73,.13-1.11,.19-.07,.01-.13,0-.2,0-.46,0,0,.86-.58,.66-.37-.13-.48-.57-.6-.94-.03-.08-.38-.14-.51-.07-.31,.15-.01,.29,.08,.41,.24,.32,.28,.69-.17,.73-.98,.1-1.89-.18-2.68-.78-.13-.1-.22-.33-.22-.5,.02-.38,.34-.36,.59-.31,.52,.09,.57-.12,.64-.61,.11-.83,.72-1.46,1.26-2.08,.29-.34,.34-.53,.13-1-.45-.98-.08-1.52,.91-1.56,.93-.04,1.86,0,.48,2.73-2.5,2.66-2.55,2.55-2.63,2.51-.17-.08-.25,0-.17,.17,.04,.08,.15,.13,.24,.18,.01,0,.08-.08,2.56-2.86Z"/><path d="M90.26,60.5c.03,.25,.29,.32,.36,.48,.1,.25,.68,.25,.36,.7-.25,.35-.59,.57-1.02,.42-.47-.17-.86-.48-1.43-.42-.61,.07-.67,.12-.25,.6,.26,.3-.1,.56-.32,.81-.29,.34-.38-.02-.57-.11-.72-.34-1.45-.66-2.24-1.01,.24-.5,.6-.76,1.36-.56,.12,.04,.07-.07,0-.11-.17-.08-.25,0-.17,.17,.04,.08,.15,.13,.24,.18,.01,0,.08-.08-.06-.24-.49-1.23,.41-1.9,.94-2.56,.62-.77,.54-1.31,.09-1.99,1.18-.81,2.5-.94,3.88-.76,.28,.27,.13,.62,.14,.94,.01,.36,0,.68,.5,.63,.36-.04,.62,.07,.87,.34,.2,.21,.36,.44,.22,.69-.15,.26-.42,.26-.67,.08-.16-.11-.33-.19-.48-.3-.46-.34-.87-.44-1.21,.17-.09,.17-.28,.29-.42,.43,.32,.38,.74,.19,1.11,.19,.69,0,.49,.49,.49,.84,0,.4-.19,.43-.43,.14-.54-.63-.75,.32-1.26,.24,.09,.06,.14,0,.09-.19-.05-.17-.05-.36-.11-.52-.05-.12-.19-.1-.25,.07-.09,.24-.07,.48,.27,.64Z"/><path d="M120.15,95.37c.39,.28,.8,.27,1.07,.61,.36,.46,.15,.85-.2,.95-.52,.14-1.33,.27-1.63,0-.86-.81-1.88-1.27-2.92-1.73-.19-.09-.33-.15-.33-.4,0-.39,.24-.41,.52-.41,.27,0,.53,0,.8,0,.5,0,.12,1.24,1,.72-.2-.47-.41-.93-.61-1.41,.42-.24,.89-.05,1.33-.12,.19-.13,.21-.32,.2-.52-.02-.45,.14-.95-.37-1.26,0,0,.03-.12,.07-.13,1.11-.39,.95-1.66,1.58-2.29,.37-.37,1.19-.75,1.85-.47,.31,.13,.58,.27,.9,.23,.35-.04,.41,.06,.42,.41,.01,.6-.06,1.15-.42,1.64-1.03,1.38-1.74,3.01-3.27,4.2Z"/><path d="M60.9,65.92c.23-.61,.66,.98,.81-.26,.04-.35,.31-.37,.56-.31,.19,.04,.27,.22,.25,.43-.02,.25,0,.51,0,.76-.25-.06-.37,.14-.47,.28-.26,.39-1.2-.12-.97,.38,.27,.59-.06,1.76,1.13,1.75,.76,0,1.26,.49,1.86,.82,.52,.28,.64,.72,.33,1.16-.59,.83-1.44,1.06-2.58,.74-.83-.24-1.67-.46-2.5-.69,.04-.63-.64-.27-.85-.62-.19-.32-.85-.13-.81-.86,.03-.61,.25-1.28,.66-1.26,.42,.02,.65-.89,1.14-.18,.12,.17,.26-.11,.26-.3,0-.38,.15-.48,.42-.17,.22,.25,.41,.01,.36-.09-.26-.57-.17-1.45-1.21-1.36-.54,.04-.35-.44-.38-.73-.04-.32,.11-.47,.45-.48,.68-.02,1.33-.02,1.56,.99-.09,.09,.19-.23-.18-.17-.08,.01-.21,.18-.2,.27,0,.17,.1,.33,.15,.49,.19-.07,.27-.2,.23-.59Zm-.37,3.87c-.07-.12-.13-.31-.25-.4-.15-.11-.22-.02-.19,.18,.04,.22-.07,.49,.25,.57,.03,0,.11-.19-.42-.75,.18,.06,.23,0,.18-.19-.05-.17-.05-.36-.11-.52-.05-.12-.19-.1-.25,.07-.09,.24-.07,.48,.8,1.05Z"/><path d="M155.69,124.23c.6-.03,.34-.5,.4-.81,.44,.1,.71,.37,.8,.98-.09,.09,.19-.23-.18-.17-.08,.01-.21,.18-.2,.27,0,.17,.1,.33,.15,.49,.19-.07,.27-.2,.23-.59,.24-.3,.92-.1,.68-.42-.6-.8-.04-1.03,.42-1.37,.14-.11,.34-.14,.51-.2-.12-.18-.33-.16-.5-.22-.54-.19-.36-.72-.25-.99,.15-.36,.52-.26,.79,.03,.37,.39,.99,0,1.42,.52,.19,.24,.93,.29,.84,.74-.09,.44-.63,.62-1.14,.53-.06-.01-.12,.03-.21,.05-.28,.48-.03,1.02-.13,1.53-.11,.55,.34,1.46-.28,1.58-.94,.18-.3,.87-.63,1.22-.46,.48-1.03,.72-1.5,.21-.42-.46-1.01-.53-1.44-.94-.23-.22-.84,.26-.97-.34-.1-.47,.38-.65,.64-.92,.32-.34,.7-.63,.56-1.18Zm1.87,2.76c.24-.14,.15-.35,.14-.53,0-.06-.19-.17-.25-.14-.23,.1-.14,.34-.13,.52,0,.06,.16,.11,.24,.16Zm.99-1.6c-.1-.15-.17-.25-.23-.35-.07,.17-.17,.33-.19,.5-.01,.09,.12,.2,.19,.3,.08-.16,.16-.32,.23-.45Zm-1.59,.19c.05,.08,.1,.17,.14,.26,.04-.04,.13-.1,.13-.13-.02-.09-.08-.18-.13-.27-.04,.04-.09,.09-.14,.14Zm-1.21,.52c.05,.05,.1,.1,.14,.14,.04-.09,.1-.18,.13-.27,0-.03-.08-.09-.13-.13-.05,.09-.1,.18-.14,.26Z"/><path d="M169.86,129.24c-.06,.42,1.31-.06,.39,.78-.33,.31-.64,.54-.26,1.14,.19,.3-.23,.97-.63,1.36-.25,.25-.29-.05-.43-.1-.83-.27-1.38-1.1-2.34-1.16-.14,0-.66-.28-.16-.7,.22-.18,.57-.54,1.29-.86,.45-.2,.87-.49,1.34-.64,.45-.15,.22-.25,.08-.49-.23-.39-.43-.92,.18-1.11,.45-.15,.55-.16,.18-.54-.37-.38-1.06-.24-1.29-.93,1.07-.57,2.06,.13,3.02,.34,.47,.1,.99,.48,1.5,.7,.32,.14,.4,.48,.25,.6-.21,.17-.3,.89-.83,.35-.23-.24-.63-.07-.85-.41-.16-.25-.47-.21-.65,.05-.03,.04,.33,.37,.31,.4-.37,.44-.77,.85-1.12,1.22Zm-.62,2.59c.24-.14,.15-.35,.14-.53,0-.06-.19-.17-.25-.14-.23,.1-.14,.34-.13,.52,0,.06,.16,.11,.24,.16Zm.15-2.16s-.1-.13-.13-.13c-.09,.02-.18,.08-.27,.13,.04,.04,.1,.13,.13,.13,.09-.02,.18-.08,.27-.13Z"/><path d="M186.34,135.92c-.09-.76,.03-1.44,.88-1.75-.16-.16-.2-.23-.26-.25-.33-.13-.83,.24-1.01-.32-.1-.3,.16-.47,.35-.66,.39-.39,.77-.31,1.24-.09,.47,.22,.44,1.11,1.28,.83,.51-.17,.91,.61,1.75-.03-.47,.8-.71,1.15-1.27,1.07-.57-.08-1.11-.1-.94,.79,.12,.62-.58,.32-.83,.61-.5,.58-.56,.64,.22,1.4,.3,.29,.22,.6,.21,.9-.01,.38-.33,.32-.6,.32-.34,0-.67,0-1.01,0-.09-.84-.96-.08-1.25-.62-.18-.33-.96-.12-.78-.85,.14-.55,.37-.96,1.02-.95,.2,0,.4,0,.6,0,.06,.39,.35,.58,.71,.8,.02-.46,.45-.96-.3-1.2Zm-.86,1.47c-.05-.08-.1-.17-.14-.26-.04,.04-.13,.1-.13,.13,.02,.09,.08,.18,.13,.27,.04-.04,.09-.09,.14-.14Z"/><path d="M173.82,134.31c-.72,0-1.17-.48-.76-.89,.7-.71,.33-1.92,1.41-2.47,.38-.19,.26-1.19,.87-1.62,.17-.12-.11-.25-.3-.26-.51-.03-.51-.4-.3-.67,.17-.22,.27-.59,.87-.27,.68,.37,1.33,1.01,2.22,.94,.35-.03,.55,.22,.42,.47-.15,.29-.23,1.01-.89,.45-.12-.1-.35-.05-.54-.07,.21,.92-1.06,1.1-.97,1.98,.11,1.14-1.28,1.41-1.44,2.41,0,.03-.38,0-.58,0Zm2.37-4.58c-.05-.08-.1-.17-.14-.26-.04,.04-.13,.1-.13,.13,.02,.09,.08,.18,.13,.27l.14-.14Zm-1.76,2.16s-.13,.1-.13,.13c.02,.09,.08,.18,.13,.27,.04-.04,.13-.1,.13-.13-.02-.09-.08-.18-.13-.27Z"/><path d="M182.42,131.86c-.27,.76,.28,1.68-.88,1.84-.25,.03-.48,.38-.46,.79,.05,.74-.67,1.19-.79,1.87-.12,.64-.64,.39-.94,.35-.44-.07-.32-.56-.25-.82,.11-.41,.37-.78,.57-1.16,.2-.38,.64-.82,.57-1.14-.27-1.14,.72-1.33,1.27-1.83-.3-.49-.78-.1-1.09-.34-.2-.16-.35-.37-.52-.56,.27-.18,.4-.67,.75-.56,1.14,.35,2.26,.78,3.39,1.19,.43,.16,.27,.56,.26,.85-.02,.53-.46,.34-.75,.35-.54,.01-.67-.57-1.14-.83Z"/><path d="M199.6,139.4c.25,.21,.51,.41,.74,.64,.22,.22,.2,.49-.05,.68-.62,.49-1.19,.45-1.79-.11-.15-.14-.28-.28-.55-.55,.26-.2,.55-.36,.76-.59,.26-.29,.27-.65-.19-.71-.45-.06-.69-.53-1.24-.45-.66,.1-.44-.52-.43-.84,.03-.52,.55-.42,.76-.32,1.32,.68,2.99,.6,4.06,1.8,.36,.4,.92-.06,1.25,.41,.18,.26,.52,.46,.32,.83-.16,.29-.57,.25-.71,.14-.67-.48-1.69-.24-2.18-1.08-.06-.1-.34-.08-.52-.11-.07,.09-.15,.17-.22,.26Z"/><path d="M195.67,119.79c.25,.03,.48,0,.74,.16,1.49,.92,3.2,1.28,4.84,1.84,.2,.07,.38,.13,.48,.28,.2,.3,.71,.39,.64,.84-.06,.41-.78,.67-1.35,.43-1.43-.58-2.82-1.23-4.25-1.8-.46-.18-.82-.62-1.37-.55-.65,.09-.57-.36-.57-.75,0-.7,.53-.38,.86-.46Z"/><path d="M230.11,106.93c-.27-.08-.42-.08-.51-.16-.25-.22-.48-.65-.72-.66-.51,0-.67-.39-.97-.62,.42-.32,.29-1,.8-1.25,.56-.28,1.07-.62,1.76-.62,.5,0,.91,.3,.94,.57,.05,.6,.43,1.05,.5,1.61,.04,.25,.08,.57-.25,.65-.25,.06-.51,.03-.56-.36-.06-.49-.27-.61-.38-.03-.09,.49-.57,.49-.62,.85Z"/><path d="M214.05,139.96c-.84,.16-1.01-.97-1.8-.96-.08,0,.35-.38,.33-.74-.04-.82,.53-1.28,1.23-1.51,.52-.17,1.47,.56,1.83,1.24,.14,.26,.19,.43,.02,.69-.33,.5-1.19,.46-1.26,1.23,0,.03-.23,.04-.36,.05Zm-.02-1.67c.05-.05,.1-.1,.14-.14-.09-.04-.18-.1-.27-.13-.03,0-.09,.08-.13,.13,.09,.05,.18,.1,.26,.14Z"/><path d="M162.93,130.28c-.69,.02-1.43-.91-1.05-1.49,.49-.74,.24-.84-.41-1.03-.13-.04-.7-.24-.37-.67,.27-.35,.16-1.04,1.02-.88,.92,.17,1.45,.6,1.21,1.43-.09,.31-.73,.54,.16,.65,.31,.04,.64,.39,.68,.85,.06,.68-.38,1.1-1.23,1.13Zm-.59-3.23s-.13,.1-.13,.13c.02,.09,.08,.18,.13,.27,.04-.04,.13-.1,.13-.13-.02-.09-.08-.18-.13-.27Zm.86,2.36c.05-.05,.1-.1,.14-.14-.09-.04-.18-.1-.27-.13-.03,0-.09,.08-.13,.13,.09,.05,.18,.1,.26,.14Z"/><path d="M185.7,79.5c-.21,.21-.45,.45-.81,.81-.11-.57-.59-.89-.57-1.49,1.09-.49,1.95,.24,2.89,.5,.15,.9,1.04-.09,1.26,.47,.3,.76,1.12,.23,1.53,.7,.28,.32,.53,.19,.83-.04,.42-.33,.53,.22,.68,.39,.27,.32-.06,.57-.28,.81-.2,.22-.49,.37-.68,.18-1.04-1.06-2.48-1.14-3.78-1.54-.5-.15-.64-.63-1.08-.79Z"/><path d="M77.37,97.07c-1.41,.54-2.63-.13-3.77-.75-.55-.3-1.01-.67-1.66-.85-.49-.14-.76-.85-1.51-.72-.28,.05-.37-.42-.2-.59,.18-.18,.31-.74,.67-.44,1.53,1.27,3.43,1.68,5.2,2.4,.43,.18,1.14,.25,1.27,.95Z"/><path d="M78.1,65.33c.12,.34,.2,.57,.29,.82,.11-.11,.25-.19,.25-.28,.02-.47-.05-.95,.03-1.4,.07-.38,.36-.67,.79-.75,.48-.1,.6,.5,1.08,.53,.25,.02-.17,.23-.17,.38-.02,.76-1.29,.83-.97,1.77-.84,.38-1.17,1.17-1.54,1.93-.13,.26-.45,.36-.66,.18-.28-.24-.68-.44-.58-.96,.05-.25-.03-.64,.33-.58,.95,.16,.94-.4,.9-1.05-.01-.19-.07-.41,.25-.6Z"/><path d="M68.97,45.51c-.05,.28,.14,.81-.23,.83-.46,.01-.61,.5-1.04,.45-.82-.09-1.57-.86-1.56-1.65,0-.83,.36-1.18,1.18-1.18,1.14,0,1.66,.48,1.64,1.55Z"/><path d="M190.78,117.77c.71,.57,1.43,1.14,2.39,1.2,.35,.02,.46,.19,.43,.49-.04,.38-.33,.34-.59,.32-.38-.03-4.25-1.39-4.5-1.69-.46-.56-1.5-.04-1.71-.98,.99-.6,1.82,.5,2.77,.25,.19,.78,.81,.25,1.21,.4Z"/><path d="M57.71,88.73c.25,.05,.48,0,.75,.14,.59,.33,1.29,.5,1.9,.75,1.02,.4,2.09,.79,3.03,1.4,.28,.18,.53,.47,.26,.81-.19,.24-.42,.07-.68-.01-1.9-.6-3.43-2.07-5.48-2.3-.09,0-.2-.33-.19-.5,0-.2,.18-.33,.42-.29Z"/><path d="M193.51,136.73c.62,1.12,.57,1.66-.09,2-.52,.26-.89-.13-1.07-.66-.23-.69,1.05-1.25,.08-1.9,.21-.31,.42-.57,.85-.67,.55-.13,.79,.37,1.24,.46,.94,.18,1.38,.72,1.04,1-.48,.4-.95,.24-1.37-.21-.09-.1-.39-.01-.68-.01-.03,0,.03,0,.09,0-.04-.1-.06-.22-.12-.31-.07-.11-.19-.08-.24,.08-.02,.05,.11,.16,.26,.24Z"/><path d="M210.14,125.84c.05,.25-.12,.42-.32,.39-1.25-.16-2.53-.52-3.59-1.02-1.1-.52-2.38-.76-3.35-1.61,.91-.42,1.83-.24,2.56,.27,.51,.35,.96,.34,1.47,.36,.03,.6,.5,.34,.81,.4,.47,.77,1.22,.84,2.02,.81-.01,.28,.12,.41,.4,.4Z"/><path d="M47.63,69.94c.4-.06,1.09,.64,1.17,1.17,.1,.66-.32,1.51-.93,1.8-.26,.12-.29-.11-.28-.3,.02-.37-.23-.46-.5-.41-.89,.19-.62-.82-1.1-1.03,.52-.17,.19-1.31,1.14-1,.22,.07,.36-.09,.5-.24Z"/><path d="M164.53,124.75c-.23-.08-.53-.1-.67-.26-.15-.17-.71-.26-.28-.69,.23-.23,.54-.6,.8-.33,.48,.49,.96,.84,1.67,.83,.04,0,.15,.22,.13,.33-.07,.38-.38,.83-.67,.66-.43-.25-.56-.26-.52,.22,.05,.47-.18,.74-.49,1-.35,.29-.76,.06-1.14,.13,.06-.41-.04-.77-.39-1.02,.26-.18,.38-.56,.75-.59,.25-.02,.5,0,.75,0l.06-.28Z"/><path d="M118.58,63.32c.54,0,1-.03,1.44,0,.83,.07,1.19,.72,.86,1.51-.05,.11-.26,.19-.26,.28-.03,.55-.37,1.05-.82,.97-.61-.11-1.15-.58-1.22-1.32-.04-.45,0-.9,0-1.46Zm1.15,1.07c-.05-.08-.1-.17-.14-.26-.04,.04-.13,.1-.13,.13,.02,.09,.08,.18,.13,.27,.04-.04,.09-.09,.14-.14Z"/><path d="M199.25,141.66c0,.48,.04,.94,0,1.39-.07,.72-.82,1.25-1.39,.89-.32-.2-.69-.3-1-.53-.52-.39-.32-.42,.05-1.06,.61-1.04,1.4-.8,2.35-.69Zm-1.2,1.12c.11-.05,.31-.08,.32-.14,.04-.24-.14-.29-.33-.26-.12,.02-.31,.07-.32,.14-.04,.24,.13,.28,.33,.26Z"/><path d="M61.77,72.29c-.42,.61-.89,.92-1.43,.69-.8-.34-1.55-.75-2.45-.81-.2-.01-.42-.32-.55-.54-.15-.23-.09-.63,.17-.62,.77,.02,1.58-.31,2.24,.56,.38,.5,1.16,.67,2.02,.72Z"/><path d="M83.5,59.9c-.85,.64-1.06,.56-1.28,.36-.3-.27-.26-.64,.15-.86,.9-.48,1.04-.55,1.11-.92,.06-.31-.06-.65,.28-.89,.19-.13,.33-.45,.56-.08,.19,.3,1,.05,.75,.62-.42,.94-.97,1.85-1.95,2.36-.05,.03-.13,0,.38-.6,.67-.61,.73-.61,.79-.61-.04-.1-.06-.22-.12-.31-.07-.11-.19-.08-.24,.08-.02,.05,.11,.16-.44,.84Z"/><path d="M175.05,112.48c.01-.23,.13-.34,.37-.36,.42-.04,.63,.36,1.03,.45,1.27,.29,2.39,1.06,3.71,1.26,.2,.03,.38,.35,.53,.57,.06,.08,.01,.26-.03,.38-.07,.18-.15,.11-.28,.06-1.75-.63-3.39-1.56-5.21-2.02-.06-.02-.07-.23-.11-.35Z"/><path d="M170.19,110.29c-.09,.07-.18,.21-.27,.21-.31-.01-.6,.01-.93-.16-.92-.49-1.9-.9-2.88-1.28-.46-.18-1-.16-1.47-.32-.15-.05-.55-.25-.36-.52,.12-.16,.18-.6,.69-.34,1.49,.74,2.98,1.52,4.64,1.87,.22,.05,.38,.36,.57,.55Z"/><path d="M128.32,58.48c1.16,.3,2.3,.59,3.45,.9,.11,.03,.18,.19,.29,.27,.23,.19,.31,.42,.19,.68-.11,.23-.36,.1-.53,.17-.55,.23-.71-.65-1.24-.41-.61-.67-1.39-.87-2.27-.81-.23,.01-.34-.13-.35-.36-.02-.35,.18-.45,.47-.44Z"/><path d="M170.59,111.18l1.04-1.04c.49,.41,1,.8,1.68,.77,.49-.02,.92,.51,.87,.6-.21,.39-.56,.64-1.12,.64-.67,0-1.1-.43-1.64-.63-.23-.09-.46-.19-.83-.34Z"/><path d="M116.83,55.2s-.11,0-.14-.02c-.78-.87-1.99-.61-2.94-1.08-.55-.27-.36-.59-.4-.92-.01-.12-.02-.37,.32-.22,1.12,.5,2.27,.93,3.39,1.42,.09,.04,.42,.15,.18,.41-.13,.15-.28,.28-.42,.42Z"/><path d="M194,139.54c-.04,.11-.08,.23-.13,.34-.71-.27-.71,.95-1.53,.68-.54-.18-1.02,.46-1.57,.6-.12,.03-.27-.01-.4,0-.25,.03-.36-.11-.4-.31-.04-.2,.03-.48,.21-.48,.85-.02,1.55-.24,1.89-1.11,.61,.55,1.18-.11,1.78-.06,.05,0,.11,.08,.14,.14,.02,.06,.01,.13,.01,.19Z"/><path d="M111.29,52.16c-.39,.65-.83,.92-1.58,.5-.59-.33-1.16-.8-1.93-.65-.27,.05-.52-.03-.5-.41,.02-.39,.45-.7,.85-.54,.52,.21,1.13,.12,1.57,.55,.43,.42,1.05,.35,1.58,.54Z"/><path d="M180.72,78.63s-.21,0-.33-.11c-.23-.21-.6-.38-.49-.76,.07-.22,.26-.46,.46-.58,.53-.32,1.14-.11,1.71-.13,.18,0,.23,.25,.24,.46,0,.82-.47,1.21-1.59,1.12Z"/><path d="M123.75,94.56c.04,.53,.14,.76,.06,.9-.5,.92-1.03,1.82-1.57,2.72-.15,.25-.43,.34-.67,.19-.26-.16-.24-.42-.06-.67,.69-.97,1.38-1.94,2.24-3.13Z"/><path d="M162.98,71.16c.69-.8,1.48,.53,2.23-.12,.13-.11,.73,.98,.55,1.31-.24,.45-.87,.37-1.01,.19-.49-.62-1.4-.66-1.78-1.37Z"/><path d="M103.45,48.81c.39,.35,.75,.64,.61,1.2-.1,.43-.38,.69-.75,.8-.39,.11-.58-.28-.77-.52-.28-.34,0-.59,.24-.82,.23-.22,.45-.45,.67-.67Z"/><path d="M62.52,66.55c.06,0,.14,.02,.19,0,1.24-.72,1.38-.64,1.42,.81-.06,0-.14-.02-.19,0-1.24,.72-1.38,.64-1.42-.81Z"/><path d="M134.31,61.31c-.24-.06-.59,.15-.72-.14-.18-.42-1.1-.07-.87-.77,.19-.57,.74-.4,1.11-.15,.23,.15,.41,.29,.69,.25,.39-.05,.67,.06,.59,.51-.09,.48-.51,.24-.8,.31Z"/><path d="M146.9,64.89c.48-.13,.69,.41,1.03,.43,.83,.05,.57,.75,.45,.99-.24,.51-.4-.23-.68-.17-.48,.09-.9-.06-1.17-.48-.09-.15-.17-.39-.11-.52,.06-.13,.3-.17,.46-.25Z"/><path d="M154.84,68c-.29,.24-.57,.79-.94,.53-.46-.33-1.15-.35-1.39-.95-.03-.08,.22-.27,.34-.41,.19-.23,.44-.31,.68-.13,.26,.2,.46,.49,.72,.69,.17,.13,.51-.06,.59,.29Z"/><path d="M55.35,129.58c.22-1.39,1.37-1.99,2.12-2.95,.33,.35,.24,.61-.04,.87-.7,.68-1.39,1.38-2.08,2.07Z"/><path d="M86.27,55.66c-.47,.07-.81,0-.78-.7,.03-.68,.46-.48,.82-.51,.53-.06,.87,0,.83,.7-.03,.68-.46,.49-.87,.52Z"/><path d="M80.92,62.16c.16,.18,.45,.38,.53,.64,.15,.47-.45,.89-1.19,.94-.35,.02-.44-.06-.41-.41,.03-.45,.57-1.14,1.07-1.17Z"/><path d="M152.06,67.15q-1.02,.15-3.16-.74,.98-.29,3.16,.74Z"/><path d="M85.38,57.27c-.57,.05-1.03-.26-.97-.66,.07-.4,.57-.62,1.1-.55,.52,.07,.36,.43,.39,.72,.04,.43-.17,.6-.52,.5Z"/><path d="M100.83,122.61c0-1.1,.89-1.49,1.61-2.02,0,1.1-.89,1.49-1.61,2.02Z"/><path d="M75.83,140.36c.2-1.04,.58-1.41,1.61-1.61-.38,.69-.92,1.23-1.61,1.61Z"/><path d="M141.99,63.28c-.09,.42-.34,.76-.69,.73-.19-.02-.56-.32-.54-.71,.03-.52,.43-.35,.71-.38,.28-.02,.51,.04,.51,.36Z"/><path d="M90.75,134.96c-.03,.73-.58,1.19-1.37,1.38,.48-.48,.98-.99,1.37-1.38Z"/><path d="M145.66,64.76c-.99,.56-1.63-.55-2.5-.33,.95-.7,1.66-.02,2.5,.33Z"/><path d="M105.27,116.97c.06,.89-.56,1.26-1.21,1.61-.06-.89,.56-1.26,1.21-1.61Z"/><path d="M27.43,116.97c.35-.65,.73-1.27,1.61-1.21-.35,.65-.73,1.27-1.61,1.21Z"/><path d="M98.82,125.03c-.06-.89,.56-1.26,1.21-1.61,.06,.89-.56,1.26-1.21,1.61Z"/><path d="M81.06,51.82c-.26,.33-.53,.68-.82,1.01-.03,.03-.26-.05-.31-.13-.21-.35,.04-.57,.26-.81,.19-.21,.4-.31,.67-.26,.05,.01,.09,.09,.19,.19Z"/><path d="M84.3,107.69c.06,.89-.56,1.26-1.21,1.61-.06-.89,.56-1.26,1.21-1.61Z"/><path d="M95.59,129.07c-.06-.89,.56-1.26,1.21-1.61,.06,.89-.56,1.26-1.21,1.61Z"/><path d="M54.85,98.82c-.24,.57-.64,.97-1.21,1.21,.08-.9,.31-1.13,1.21-1.21Z"/><path d="M29.85,114.95c.08-.9,.31-1.13,1.21-1.21-.24,.57-.64,.97-1.21,1.21Z"/><path d="M31.46,112.93c.24-.57,.64-.97,1.21-1.21-.08,.9-.31,1.13-1.21,1.21Z"/><path d="M206.91,124.23c.19-.78,.81-.25,1.21-.4,.41,.74,.39,.77-.4,.81-.03-.6-.5-.34-.81-.4Z"/><path d="M160.14,108.71c.38-.29,.77-.58,1.14-.86,.32,.82-.39,.87-1.14,.86Z"/><path d="M45.48,108.17c.51-.4,.93-.72,1.31-1.01-.03,.66-.49,.93-1.31,1.01Z"/><path d="M92.96,131.75c.27-.27,.6-.61,.84-.84q.07,.76-.84,.84Z"/><path d="M212.79,106.09c-.36-.24-.22-.58-.23-.88,0-.36,.28-.38,.53-.34,.13,.03,.42,.2,.11,.33-.46,.18-.02,.73-.41,.89Z"/><path d="M205.34,109.53c-.47,.23-.85,.28-1.17,.02-.09-.07-.05-.35,0-.51,.05-.2,.18-.19,.27,0,.16,.37,.6,.16,.91,.5Z"/><path d="M74.62,129.87c.06,.63-.17,1.05-.81,1.21-.06-.63,.17-1.05,.81-1.21Z"/><path d="M104.06,118.58c.06,.63-.17,1.05-.81,1.21-.06-.63,.17-1.05,.81-1.21Z"/><path d="M74.22,119.39c-.1,.41-.39,.66-.76,.79-.09,.03-.25-.04-.35-.1-.12-.07-.04-.15,.07-.28,.28-.34,.61-.48,1.04-.41Z"/><path d="M80.26,135.12c.06,.63-.17,1.05-.81,1.21-.06-.63,.17-1.05,.81-1.21Z"/><path d="M91.96,133.1c.06,.63-.17,1.05-.81,1.21-.06-.63,.17-1.05,.81-1.21Z"/><path d="M95.6,129.07c-.1,.41-.39,.66-.76,.79-.09,.03-.25-.04-.35-.1-.12-.07-.04-.15,.07-.28,.28-.34,.61-.48,1.04-.41Z"/><path d="M69.78,124.23c.12,.66-.15,.93-.81,.81,.1-.44,.37-.71,.81-.81Z"/><path d="M45.16,109.14c-.19,.15-.41,.33-.64,.52-.05-.1-.14-.21-.14-.31-.04-.47,.29-.43,.61-.45,.19-.01,.25,0,.17,.25Z"/><path d="M41.82,85.51c.26,0,.53,0,.52,.34,0,.16-.13,.31-.2,.47-.19-.2-.39-.39-.58-.59,.09-.07,.17-.14,.26-.21Z"/><path d="M21.29,113.74c-.11-.07-.21-.13-.31-.2,.24-.16,.32-.53,.68-.52,.05,0,.11,.21,.12,.32,.04,.38-.23,.39-.49,.4Z"/><path d="M78.25,114.86c.01,.38-.14,.52-.44,.5-.17-.01-.42-.07-.27-.27,.17-.22,.33-.56,.71-.52,.01,0,0,.24,0,.29Z"/><path d="M108.9,93.08c.01,.38-.14,.52-.44,.5-.17-.01-.42-.07-.27-.27,.17-.22,.33-.56,.71-.52,.01,0,0,.24,0,.29Z"/><path d="M205.39,115.35c-.38,.01-.52-.14-.5-.44,.01-.17,.07-.42,.27-.27,.22,.17,.56,.33,.52,.71,0,.01-.24,0-.29,0Z"/><path d="M29.85,114.95c-.1,.44-.37,.71-.81,.81-.12-.66,.15-.93,.81-.81Z"/><path d="M27.43,116.97c.12,.66-.15,.93-.81,.81,.1-.44,.37-.71,.81-.81Z"/><path d="M103.25,119.79c-.1,.44-.37,.71-.81,.81-.12-.66,.15-.93,.81-.81Z"/><path d="M52.84,121c.1-.44,.37-.71,.81-.81,.12,.66-.15,.93-.81,.81Z"/><path d="M72.2,121.71c.01,.38-.14,.52-.44,.5-.17-.01-.42-.07-.27-.27,.17-.22,.33-.56,.71-.52,.01,0,0,.24,0,.29Z"/><path d="M41.28,122.44c.16,.33,.24,.44,.25,.54,.04,.47-.29,.43-.61,.45-.19,.01-.28-.02-.18-.19,.14-.26,.33-.49,.54-.8Z"/><path d="M70.58,123.42c-.1,.44-.37,.71-.81,.81-.12-.66,.15-.93,.81-.81Z"/><path d="M60.1,124.23c-.1,.44-.37,.71-.81,.81-.12-.66,.15-.93,.81-.81Z"/><path d="M176.26,127.05c-.11,.04-.22,.09-.34,.13-.14,.05-.19,.43-.41,.12-.06-.09-.08-.25-.06-.36,.12-.47,.51-.24,.8-.29v.4Z"/><path d="M65.34,129.38c.01,.38-.14,.52-.44,.5-.17-.01-.42-.07-.27-.27,.17-.22,.33-.56,.71-.52,.01,0,0,.24,0,.29Z"/><path d="M73,131.89c-.12-.66,.15-.93,.81-.81-.1,.44-.37,.71-.81,.81Z"/><path d="M80.26,135.12c.1-.44,.37-.71,.81-.81,.12,.66-.15,.93-.81,.81Z"/><path d="M86.46,139.38c.16,.33,.24,.44,.25,.54,.04,.47-.29,.43-.61,.45-.19,.01-.28-.02-.18-.19,.14-.25,.33-.49,.54-.8Z"/><path d="M77.44,138.75c.06-.31-.2-.77,.4-.81-.06,.31,.2,.77-.4,.81Z"/><path d="M169.4,139.96v-.4h.81v.4h-.81Z"/><path d="M119.42,70.59c-.08,.15-.16,.35-.19,.34-.32-.08-.21-.35-.25-.57-.03-.19,.03-.29,.19-.18,.13,.09,.18,.28,.25,.4Z"/><path d="M71.79,133.5c.02,.2-.03,.37-.26,.33-.06-.01-.12-.2-.14-.32-.03-.19,.02-.37,.26-.33,.06,.01,.09,.21,.14,.32Z"/><path d="M172.22,96.8c-.38,.03-.43-.23-.4-.5,.02-.2,.15-.35,.4-.31v.81Z"/><path d="M52.02,102c.03,.22-.04,.35-.23,.42-.06-.16-.14-.33-.15-.49,0-.09,.12-.25,.2-.27,.38-.06,.09,.25,.18,.34Z"/><path d="M170.21,139.96h.81c-.03,.6-.5,.34-.81,.4v-.4Z"/><path d="M75.42,141.17c.06-.31-.2-.77,.4-.81-.06,.31,.2,.77-.4,.81Z"/><path d="M97.2,126.65c-.06,.31,.2,.77-.4,.81,.06-.31-.2-.77,.4-.81Z"/><path d="M50.57,103.3s.21,.08,.2,.11c-.08,.32-.35,.21-.57,.25-.19,.03-.27-.02-.18-.19,.09-.16,.24-.27,.55-.17Z"/><path d="M68.57,125.44c-.06,.31,.2,.77-.4,.81,.06-.31-.2-.77,.4-.81Z"/><path d="M85.9,140.72c.03,.22-.04,.35-.23,.42-.06-.16-.14-.33-.15-.49,0-.09,.12-.25,.2-.27,.38-.06,.09,.25,.18,.34Z"/><path d="M232.14,104.87c-.26-.16-.27-.4-.19-.64,.06-.16,.2-.19,.25-.07,.07,.16,.07,.35,.11,.52,.05,.19,0,.25-.18,.19Z"/><path d="M83.89,143.14c.03,.22-.04,.35-.23,.42-.06-.16-.14-.33-.15-.49,0-.09,.12-.25,.2-.27,.38-.06,.09,.25,.18,.34Z"/><path d="M51.91,121.83c.04,.17,.13,.35,.1,.51-.02,.18-.17,.34-.39,.26-.04-.01,0-.24,0-.36-.02-.2,.05-.33,.29-.41Z"/><path d="M181.04,144.24c-.14,.24-.35,.15-.53,.14-.06,0-.17-.19-.14-.25,.1-.23,.34-.14,.52-.13,.06,0,.11,.16,.16,.24Z"/><path d="M232.67,105.43s-.08,.21-.11,.2c-.32-.08-.21-.35-.25-.57-.03-.19,.02-.27,.19-.18,.16,.09,.27,.24,.17,.55Z"/><path d="M158.91,105.27v.4c-.13,0-.26,0-.4,0-.2,0-.38-.02-.33-.27,.01-.07,.21-.11,.33-.13,.13-.02,.26,0,.39,0Z"/><path d="M74.5,118.6c.04,.17,.13,.35,.1,.51-.02,.18-.17,.34-.39,.26-.04-.01,0-.24,0-.36-.02-.2,.05-.33,.29-.41Z"/><path d="M183.15,106.43c-.07,.13-.15,.29-.23,.45-.07-.1-.2-.21-.19-.3,.02-.17,.12-.34,.19-.5,.07,.1,.13,.2,.23,.35Z"/><path d="M204.09,116.97c.6,.03,.34,.5,.4,.81-.6-.03-.34-.5-.4-.81Z"/><path d="M82.72,83.84c-.07,.13-.15,.29-.23,.45-.07-.1-.2-.21-.19-.3,.02-.17,.12-.34,.19-.5,.07,.1,.13,.2,.23,.35Z"/><path d="M183,93.19c.04,.17,.13,.35,.1,.51-.02,.18-.17,.34-.39,.26-.04-.01,0-.24,0-.36-.02-.2,.05-.33,.29-.41Z"/><path d="M31.46,112.93c-.06,.31,.2,.77-.4,.81,.06-.31-.2-.77,.4-.81Z"/><path d="M26.45,108.04c.06,.21,.15,.38,.15,.56,0,.1-.12,.2-.19,.31-.07-.17-.17-.33-.19-.5-.01-.09,.12-.2,.22-.36Z"/><path d="M45.17,108.9c.06-.31-.2-.77,.4-.81-.06,.31,.2,.77-.4,.81Z"/><path d="M211.75,108.89c.02,.2-.03,.37-.26,.33-.06-.01-.12-.2-.14-.32-.03-.19,.02-.37,.26-.33,.06,.01,.09,.21,.14,.32Z"/><path d="M80.15,112.15c.04,.17,.13,.35,.1,.51-.02,.18-.17,.34-.39,.26-.04-.01,0-.24,0-.36-.02-.2,.05-.33,.29-.41Z"/><path d="M81.07,111.72c.02,.2-.03,.37-.26,.33-.06-.01-.12-.2-.14-.32-.03-.19,.02-.37,.26-.33,.06,.01,.09,.21,.14,.32Z"/><path d="M83.09,109.48c-.16,.26-.4,.27-.64,.19-.16-.06-.19-.2-.07-.25,.16-.07,.35-.07,.52-.11,.19-.05,.25,0,.19,.18Z"/><path d="M24.95,110.36c-.14,.24-.35,.15-.53,.14-.06,0-.17-.19-.14-.25,.1-.23,.34-.14,.52-.13,.06,0,.11,.16,.16,.24Z"/><path d="M49.47,87.06c-.08-.05-.17-.1-.26-.14,.04-.04,.1-.13,.13-.13,.09,.02,.18,.08,.27,.13-.04,.04-.09,.09-.14,.14Z"/><path d="M33.07,111.32c.01,.28-.12,.41-.4,.4-.01-.28,.12-.41,.4-.4Z"/><path d="M115.76,86.9c-.08,.06-.18,.19-.24,.17-.16-.05-.18-.17-.08-.24,.09-.06,.21-.08,.31-.12,0,.06,0,.12,0,.18Z"/><path d="M42.21,111.78c.05,.05,.1,.1,.14,.14-.09,.04-.18,.1-.27,.13-.03,0-.09-.08-.13-.13,.09-.05,.18-.1,.26-.14Z"/><path d="M94.38,87.3c-.08,.06-.18,.19-.24,.17-.16-.05-.18-.17-.08-.24,.09-.06,.21-.08,.31-.12,0,.06,0,.12,0,.18Z"/><path d="M46.64,87.58c.05,.05,.1,.1,.14,.14-.09,.04-.18,.1-.27,.13-.03,0-.09-.08-.13-.13,.09-.05,.18-.1,.26-.14Z"/><path d="M79.46,113.34c-.01-.28,.12-.41,.4-.4,.01,.28-.12,.41-.4,.4Z"/><path d="M79.05,113.74c-.01-.28,.12-.41,.4-.4,.01,.28-.12,.41-.4,.4Z"/><path d="M79.05,113.74c.01,.28-.12,.41-.4,.4-.01-.28,.12-.41,.4-.4Z"/><path d="M78.25,114.55c-.01-.28,.12-.41,.4-.4,.01,.28-.12,.41-.4,.4Z"/><path d="M110.05,114.4c-.05,.05-.1,.1-.14,.14-.04-.09-.1-.18-.13-.27,0-.03,.08-.09,.13-.13,.05,.09,.1,.18,.14,.26Z"/><path d="M84.7,107.29c.01,.28-.12,.41-.4,.4-.01-.28,.12-.41,.4-.4Z"/><path d="M40.68,85.25c-.05,.08-.1,.17-.14,.26-.04-.04-.13-.1-.13-.13,.02-.09,.08-.18,.13-.27,.04,.04,.09,.09,.14,.14Z"/><path d="M84.7,107.29c-.01-.28,.12-.41,.4-.4,.01,.28-.12,.41-.4,.4Z"/><path d="M203.91,116.97c-.06-.08-.19-.18-.17-.24,.05-.16,.17-.18,.24-.08,.06,.09,.08,.21,.12,.31-.06,0-.12,0-.18,0Z"/><path d="M207.31,106.48c.01,.28-.12,.41-.4,.4-.01-.28,.12-.41,.4-.4Z"/><path d="M175.45,106.66c-.08,.06-.18,.19-.24,.17-.16-.05-.18-.17-.08-.24,.09-.06,.21-.08,.31-.12,0,.06,0,.12,0,.18Z"/><path d="M161.39,106.62c.05-.05,.1-.1,.14-.14,.04,.09,.1,.18,.13,.27,0,.03-.08,.09-.13,.13-.05-.09-.1-.18-.14-.26Z"/><path d="M160.79,106.13c.05,.05,.1,.1,.14,.14-.09,.04-.18,.1-.27,.13-.03,0-.09-.08-.13-.13,.09-.05,.18-.1,.26-.14Z"/><path d="M209.97,105.71s.13,.11,.12,.13c-.05,.09-.1,.2-.18,.24-.17,.08-.25,0-.17-.17,.04-.08,.15-.13,.23-.19Z"/><path d="M26.62,117.95c-.08,.06-.18,.19-.24,.17-.16-.05-.18-.17-.08-.24,.09-.06,.21-.08,.31-.12,0,.06,0,.12,0,.18Z"/><path d="M121.46,87.78c.05-.08,.1-.17,.14-.26,.04,.04,.13,.1,.13,.13-.02,.09-.08,.18-.13,.27-.04-.04-.09-.09-.14-.14Z"/><path d="M159.28,105.91s-.11,.13-.13,.12c-.09-.05-.2-.1-.24-.18-.08-.17,0-.25,.17-.17,.08,.04,.13,.15,.19,.23Z"/><path d="M205.7,119.39h-.4c.04-.11,.07-.3,.14-.32,.24-.05,.28,.12,.27,.32Z"/><path d="M205.3,119.39c.01,.2-.03,.37-.27,.32-.07-.02-.09-.21-.14-.32h.4Z"/><path d="M206.1,119.39c.01,.2-.03,.37-.27,.32-.07-.02-.09-.21-.14-.32h.4Z"/><path d="M54.05,119.79c.01,.28-.12,.41-.4,.4-.01-.28,.12-.41,.4-.4Z"/><path d="M43.79,120.23s.13,.11,.12,.13c-.05,.09-.1,.2-.18,.24-.17,.08-.25,0-.17-.17,.04-.08,.15-.13,.23-.19Z"/><path d="M122.87,87.87c-.08-.05-.17-.1-.26-.14,.04-.04,.1-.13,.13-.13,.09,.02,.18,.08,.27,.13-.04,.04-.09,.09-.14,.14Z"/><path d="M43.16,121c-.01-.28,.12-.41,.4-.4,.01,.28-.12,.41-.4,.4Z"/><path d="M72.83,120.63s.13,.11,.12,.13c-.05,.09-.1,.2-.18,.24-.17,.08-.25,0-.17-.17,.04-.08,.15-.13,.23-.19Z"/><path d="M42.75,121.4c-.01-.28,.12-.41,.4-.4,.01,.28-.12,.41-.4,.4Z"/><path d="M52.84,121.18c-.08,.06-.18,.19-.24,.17-.16-.05-.18-.17-.08-.24,.09-.06,.21-.08,.31-.12,0,.06,0,.12,0,.18Z"/><path d="M72.2,121.4c-.01-.28,.12-.41,.4-.4,.01,.28-.12,.41-.4,.4Z"/><path d="M42.35,121.81c-.01-.28,.12-.41,.4-.4,.01,.28-.12,.41-.4,.4Z"/><path d="M42.35,121.99c-.08,.06-.18,.19-.24,.17-.16-.05-.18-.17-.08-.24,.09-.06,.21-.08,.31-.12,0,.06,0,.12,0,.18Z"/><path d="M67.41,88.07c.05-.05,.1-.1,.14-.14,.04,.09,.1,.18,.13,.27,0,.03-.08,.09-.13,.13-.05-.09-.1-.18-.14-.26Z"/><path d="M51.63,122.79c-.08,.06-.18,.19-.24,.17-.16-.05-.18-.17-.08-.24,.09-.06,.21-.08,.31-.12,0,.06,0,.12,0,.18Z"/><path d="M71.22,122.65s.13,.11,.12,.13c-.05,.09-.1,.2-.18,.24-.17,.08-.25,0-.17-.17,.04-.08,.15-.13,.23-.19Z"/><path d="M100.43,123.02c-.01-.28,.12-.41,.4-.4,.01,.28-.12,.41-.4,.4Z"/><path d="M207.72,123.02c-.2,.01-.37-.03-.32-.27,.02-.07,.21-.09,.32-.14v.4Z"/><path d="M70.58,123.42c-.01-.28,.12-.41,.4-.4,.01,.28-.12,.41-.4,.4Z"/><path d="M100.43,123.02c.01,.28-.12,.41-.4,.4-.01-.28,.12-.41,.4-.4Z"/><path d="M155.91,123.42c-.06-.08-.19-.18-.17-.24,.05-.16,.17-.18,.24-.08,.06,.09,.08,.21,.12,.31-.06,0-.12,0-.18,0Z"/><path d="M40.74,123.6c-.08,.06-.18,.19-.24,.17-.16-.05-.18-.17-.08-.24,.09-.06,.21-.08,.31-.12,0,.06,0,.12,0,.18Z"/><path d="M155.51,124.23c-.06-.08-.19-.18-.17-.24,.05-.16,.17-.18,.24-.08,.06,.09,.08,.21,.12,.31-.06,0-.12,0-.18,0Z"/><path d="M74.16,92.22c-.05,.05-.1,.1-.14,.14-.04-.09-.1-.18-.13-.27,0-.03,.08-.09,.13-.13,.05,.09,.1,.18,.14,.26Z"/><path d="M50.01,103.84c-.08,.06-.18,.19-.24,.17-.16-.05-.18-.17-.08-.24,.09-.06,.21-.08,.31-.12,0,.06,0,.12,0,.18Z"/><path d="M13.17,103.71c.05,.05,.1,.1,.14,.14-.09,.04-.18,.1-.27,.13-.03,0-.09-.08-.13-.13,.09-.05,.18-.1,.26-.14Z"/><path d="M209.79,103.4c.05-.05,.1-.1,.14-.14,.04,.09,.1,.18,.13,.27,0,.03-.08,.09-.13,.13-.05-.09-.1-.18-.14-.26Z"/><path d="M59.29,125.03c.01,.28-.12,.41-.4,.4-.01-.28,.12-.41,.4-.4Z"/><path d="M68.57,125.44c-.01-.28,.12-.41,.4-.4,.01,.28-.12,.41-.4,.4Z"/><path d="M98.41,125.44c-.01-.28,.12-.41,.4-.4,.01,.28-.12,.41-.4,.4Z"/><path d="M172.05,88.36s.13,.11,.12,.13c-.05,.09-.1,.2-.18,.24-.17,.08-.25,0-.17-.17,.04-.08,.15-.13,.23-.19Z"/><path d="M58.48,125.84c-.01-.28,.12-.41,.4-.4,.01,.28-.12,.41-.4,.4Z"/><path d="M98.01,125.84c-.01-.28,.12-.41,.4-.4,.01,.28-.12,.41-.4,.4Z"/><path d="M190.72,125.58c-.05,.08-.1,.17-.14,.26-.04-.04-.13-.1-.13-.13,.02-.09,.08-.18,.13-.27,.04,.04,.09,.09,.14,.14Z"/><path d="M58.48,126.02c-.08,.06-.18,.19-.24,.17-.16-.05-.18-.17-.08-.24,.09-.06,.21-.08,.31-.12,0,.06,0,.12,0,.18Z"/><path d="M97.61,126.24c-.01-.28,.12-.41,.4-.4,.01,.28-.12,.41-.4,.4Z"/><path d="M47.74,126.3c.08,.05,.17,.1,.26,.14-.04,.04-.1,.13-.13,.13-.09-.02-.18-.08-.27-.13,.04-.04,.09-.09,.14-.14Z"/><path d="M68.16,126.24c.01,.28-.12,.41-.4,.4-.01-.28,.12-.41,.4-.4Z"/><path d="M97.61,126.24c.01,.28-.12,.41-.4,.4-.01-.28,.12-.41,.4-.4Z"/><path d="M138.2,126.3l.14,.14c-.09,.04-.18,.1-.27,.13-.03,0-.09-.08-.13-.13,.09-.05,.18-.1,.26-.14Z"/><path d="M96.25,78.71c.05,.05,.1,.1,.14,.14-.09,.04-.18,.1-.27,.13-.03,0-.09-.08-.13-.13,.09-.05,.18-.1,.26-.14Z"/><path d="M186.4,78.51c.05-.08,.1-.17,.14-.26,.04,.04,.13,.1,.13,.13-.02,.09-.08,.18-.13,.27-.04-.04-.09-.09-.14-.14Z"/><path d="M67.36,127.05c-.01-.28,.12-.41,.4-.4,.01,.28-.12,.41-.4,.4Z"/><path d="M66.95,127.45c-.01-.28,.12-.41,.4-.4,.01,.28-.12,.41-.4,.4Z"/><path d="M175.05,127.25c-.09,.04-.18,.1-.27,.13-.03,0-.09-.08-.13-.13,.09-.04,.18-.1,.27-.13,.03,0,.09,.08,.13,.13Z"/><path d="M66.55,127.86c-.01-.28,.12-.41,.4-.4,.01,.28-.12,.41-.4,.4Z"/><path d="M164.5,127.6c-.05,.08-.1,.17-.14,.26-.04-.04-.13-.1-.13-.13,.02-.09,.08-.18,.13-.27,.04,.04,.09,.09,.14,.14Z"/><path d="M66.15,128.26c-.01-.28,.12-.41,.4-.4,.01,.28-.12,.41-.4,.4Z"/><path d="M65.74,128.66c-.01-.28,.12-.41,.4-.4,.01,.28-.12,.41-.4,.4Z"/><path d="M164.76,128.26c.04,.09,.1,.18,.13,.27,0,.03-.08,.09-.13,.13-.04-.09-.1-.18-.13-.27,0-.03,.08-.09,.13-.13Z"/><path d="M197.29,128.52c.05-.08,.1-.17,.14-.26,.04,.04,.13,.1,.13,.13-.02,.09-.08,.18-.13,.27-.04-.04-.09-.09-.14-.14Z"/><path d="M65.74,128.66c.01,.28-.12,.41-.4,.4-.01-.28,.12-.41,.4-.4Z"/><path d="M52.26,101.27s.13,.11,.12,.13c-.05,.09-.1,.2-.18,.24-.17,.08-.25,0-.17-.17,.04-.08,.15-.13,.23-.19Z"/><path d="M133.76,75.48c.05,.05,.1,.1,.14,.14-.09,.04-.18,.1-.27,.13-.03,0-.09-.08-.13-.13,.09-.05,.18-.1,.26-.14Z"/><path d="M199.1,129.41c-.08-.05-.17-.1-.26-.14,.04-.04,.1-.13,.13-.13,.09,.02,.18,.08,.27,.13-.04,.04-.09,.09-.14,.14Z"/><path d="M55.26,129.47c.01,.28-.12,.41-.4,.4-.01-.28,.12-.41,.4-.4Z"/><path d="M75.02,129.47c.01,.28-.12,.41-.4,.4-.01-.28,.12-.41,.4-.4Z"/><path d="M54.45,130.28c-.01-.28,.12-.41,.4-.4,.01,.28-.12,.41-.4,.4Z"/><path d="M54.45,130.28c.01,.28-.12,.41-.4,.4-.01-.28,.12-.41,.4-.4Z"/><path d="M64.36,130.31s.13,.11,.12,.13c-.05,.09-.1,.2-.18,.24-.17,.08-.25,0-.17-.17,.04-.08,.15-.13,.23-.19Z"/><path d="M147.27,130.42c.05-.05,.1-.1,.14-.14,.04,.09,.1,.18,.13,.27,0,.03-.08,.09-.13,.13-.05-.09-.1-.18-.14-.26Z"/><path d="M53.64,131.08c-.01-.28,.12-.41,.4-.4,.01,.28-.12,.41-.4,.4Z"/><path d="M63.73,131.08c-.01-.28,.12-.41,.4-.4,.01,.28-.12,.41-.4,.4Z"/><path d="M118.41,73.44s.13,.11,.12,.13c-.05,.09-.1,.2-.18,.24-.17,.08-.25,0-.17-.17,.04-.08,.15-.13,.23-.19Z"/><path d="M53.64,131.08c.01,.28-.12,.41-.4,.4-.01-.28,.12-.41,.4-.4Z"/><path d="M63.32,131.49c-.01-.28,.12-.41,.4-.4,.01,.28-.12,.41-.4,.4Z"/><path d="M152,131.23c-.05,.08-.1,.17-.14,.26-.04-.04-.13-.1-.13-.13,.02-.09,.08-.18,.13-.27,.04,.04,.09,.09,.14,.14Z"/><path d="M63.32,131.67c-.08,.06-.18,.19-.24,.17-.16-.05-.18-.17-.08-.24,.09-.06,.21-.08,.31-.12,0,.06,0,.12,0,.18Z"/><path d="M73,132.07c-.08,.06-.18,.19-.24,.17-.16-.05-.18-.17-.08-.24,.09-.06,.21-.08,.31-.12,0,.06,0,.12,0,.18Z"/><path d="M92.6,132.33s.13,.11,.12,.13c-.05,.09-.1,.2-.18,.24-.17,.08-.25,0-.17-.17,.04-.08,.15-.13,.23-.19Z"/><path d="M61.77,132.96c.05-.08,.1-.17,.14-.26,.04,.04,.13,.1,.13,.13-.02,.09-.08,.18-.13,.27-.04-.04-.09-.09-.14-.14Z"/><path d="M92.36,132.7c.01,.28-.12,.41-.4,.4-.01-.28,.12-.41,.4-.4Z"/><path d="M53.64,100.21c-.08,.06-.18,.19-.24,.17-.16-.05-.18-.17-.08-.24,.09-.06,.21-.08,.31-.12,0,.06,0,.12,0,.18Z"/><path d="M91.15,134.31c.01,.28-.12,.41-.4,.4-.01-.28,.12-.41,.4-.4Z"/><path d="M118.18,68.75c-.08,.06-.18,.19-.24,.17-.16-.05-.18-.17-.08-.24,.09-.06,.21-.08,.31-.12,0,.06,0,.12,0,.18Z"/><path d="M118.18,68.57c-.01-.2,.03-.37,.27-.32,.07,.02,.09,.21,.14,.32h-.4Z"/><path d="M185.94,136.33c-.01-.28,.12-.41,.4-.4,.01,.28-.12,.41-.4,.4Z"/><path d="M197.87,135.96s.13,.11,.12,.13c-.05,.09-.1,.2-.18,.24-.17,.08-.25,0-.17-.17,.04-.08,.15-.13,.23-.19Z"/><path d="M79.46,136.33c.01,.28-.12,.41-.4,.4-.01-.28,.12-.41,.4-.4Z"/><path d="M71.76,67.99s-.11,.13-.13,.12c-.09-.05-.2-.1-.24-.18-.08-.17,0-.25,.17-.17,.08,.04,.13,.15,.19,.23Z"/><path d="M161.68,136.47c-.05,.08-.1,.17-.14,.26-.04-.04-.13-.1-.13-.13,.02-.09,.08-.18,.13-.27,.04,.04,.09,.09,.14,.14Z"/><path d="M197.63,136.51c-.08,.06-.18,.19-.24,.17-.16-.05-.18-.17-.08-.24,.09-.06,.21-.08,.31-.12,0,.06,0,.12,0,.18Z"/><path d="M78.65,137.13c-.01-.28,.12-.41,.4-.4,.01,.28-.12,.41-.4,.4Z"/><path d="M188.7,136.87c-.05,.08-.1,.17-.14,.26-.04-.04-.13-.1-.13-.13,.02-.09,.08-.18,.13-.27l.14,.14Z"/><path d="M200.46,137.13c-.2,.01-.37-.03-.32-.27,.02-.07,.21-.09,.32-.14v.4Z"/><path d="M78.25,137.54c-.01-.28,.12-.41,.4-.4,.01,.28-.12,.41-.4,.4Z"/><path d="M88.56,137.17s.13,.11,.12,.13c-.05,.09-.1,.2-.18,.24-.17,.08-.25,0-.17-.17,.04-.08,.15-.13,.23-.19Z"/><path d="M55.09,98.45s.13,.11,.12,.13c-.05,.09-.1,.2-.18,.24-.17,.08-.25,0-.17-.17,.04-.08,.15-.13,.23-.19Z"/><path d="M200.83,137.37s-.11,.13-.13,.12c-.09-.05-.2-.1-.24-.18-.08-.17,0-.25,.17-.17,.08,.04,.13,.15,.19,.23Z"/><path d="M77.84,137.94c-.01-.28,.12-.41,.4-.4,.01,.28-.12,.41-.4,.4Z"/><path d="M87.93,137.94c-.01-.28,.12-.41,.4-.4,.01,.28-.12,.41-.4,.4Z"/><path d="M87.93,138.12c-.08,.06-.18,.19-.24,.17-.16-.05-.18-.17-.08-.24,.09-.06,.21-.08,.31-.12,0,.06,0,.12,0,.18Z"/><path d="M87.26,138.8c.08,.05,.17,.1,.26,.14-.04,.04-.1,.13-.13,.13-.09-.02-.18-.08-.27-.13,.04-.04,.09-.09,.14-.14Z"/><path d="M76.6,66.38s-.11,.13-.13,.12c-.09-.05-.2-.1-.24-.18-.08-.17,0-.25,.17-.17,.08,.04,.13,.15,.19,.23Z"/><path d="M186.34,138.93c-.08,.06-.18,.19-.24,.17-.16-.05-.18-.17-.08-.24,.09-.06,.21-.08,.31-.12,0,.06,0,.12,0,.18Z"/><path d="M169.22,139.55c-.06-.08-.19-.18-.17-.24,.05-.16,.17-.18,.24-.08,.06,.09,.08,.21,.12,.31-.06,0-.12,0-.18,0Z"/><path d="M170.44,139.18s.13,.11,.12,.13c-.05,.09-.1,.2-.18,.24-.17,.08-.25,0-.17-.17,.04-.08,.15-.13,.23-.19Z"/><path d="M19.56,96.8c.04,.09,.1,.18,.13,.27,0,.03-.08,.09-.13,.13-.04-.09-.1-.18-.13-.27,0-.03,.08-.09,.13-.13Z"/><path d="M129.03,90.98s-.11,.13-.13,.12c-.09-.05-.2-.1-.24-.18-.08-.17,0-.25,.17-.17,.08,.04,.13,.15,.19,.23Z"/><path d="M171.25,139.59s.13,.11,.12,.13c-.05,.09-.1,.2-.18,.24-.17,.08-.25,0-.17-.17,.04-.08,.15-.13,.23-.19Z"/><path d="M64.07,65.2c-.05,.05-.1,.1-.14,.14-.04-.09-.1-.18-.13-.27,0-.03,.08-.09,.13-.13,.05,.09,.1,.18,.14,.26Z"/><path d="M75.42,141.35c-.08,.06-.18,.19-.24,.17-.16-.05-.18-.17-.08-.24,.09-.06,.21-.08,.31-.12,0,.06,0,.12,0,.18Z"/><path d="M81.42,64.68c-.05,.08-.1,.17-.14,.26-.04-.04-.13-.1-.13-.13,.02-.09,.08-.18,.13-.27,.04,.04,.09,.09,.14,.14Z"/><path d="M84.53,142.01s.13,.11,.12,.13c-.05,.09-.1,.2-.18,.24-.17,.08-.25,0-.17-.17,.04-.08,.15-.13,.23-.19Z"/><path d="M84.3,142.38c.01,.28-.12,.41-.4,.4-.01-.28,.12-.41,.4-.4Z"/><path d="M82.92,144.02s.13,.11,.12,.13c-.05,.09-.1,.2-.18,.24-.17,.08-.25,0-.17-.17,.04-.08,.15-.13,.23-.19Z"/><path d="M228.23,93.72c-.05,.08-.1,.17-.14,.26-.04-.04-.13-.1-.13-.13,.02-.09,.08-.18,.13-.27,.04,.04,.09,.09,.14,.14Z"/><path d="M82.68,144.57c-.08,.06-.18,.19-.23,.17-.16-.05-.18-.17-.08-.24,.09-.06,.21-.08,.31-.12,0,.06,0,.12,0,.18Z"/><path d="M115.81,93.83c.05-.08,.1-.17,.14-.26,.04,.04,.13,.1,.13,.13-.02,.09-.08,.18-.13,.27-.04-.04-.09-.09-.14-.14Z"/><path d="M48.46,61.45c.05-.05,.1-.1,.14-.14,.04,.09,.1,.18,.13,.27,0,.03-.08,.09-.13,.13-.05-.09-.1-.18-.14-.26Z"/><path d="M109.71,93.75c-.08,.06-.18,.19-.23,.17-.16-.05-.18-.17-.08-.24,.09-.06,.21-.08,.31-.12,0,.06,0,.12,0,.18Z"/><path d="M192.59,148.83c.04,.09,.1,.18,.13,.27,0,.03-.08,.09-.13,.13-.04-.09-.1-.18-.13-.27,0-.03,.08-.09,.13-.13Z"/><path d="M81.88,58.48c.01,.2-.03,.37-.27,.32-.07-.02-.09-.21-.14-.32h.4Z"/><path d="M82.11,58.11s.13,.11,.12,.13c-.05,.09-.1,.2-.18,.24-.17,.08-.25,0-.17-.17,.04-.08,.15-.13,.23-.19Z"/><path d="M199.59,152.32c-.05,.05-.1,.1-.14,.14-.04-.09-.1-.18-.13-.27,0-.03,.08-.09,.13-.13,.05,.09,.1,.18,.14,.26Z"/><path d="M87.34,56.87c-.06-.08-.19-.18-.17-.24,.05-.16,.17-.18,.24-.08,.06,.09,.08,.21,.12,.31-.06,0-.12,0-.18,0Z"/><path d="M199.88,160.96s.13,.11,.12,.13c-.05,.09-.1,.2-.18,.24-.17,.08-.25,0-.17-.17,.04-.08,.15-.13,.23-.19Z"/><path d="M199.65,161.33c.01,.2-.03,.37-.27,.32-.07-.02-.09-.21-.14-.32h.4Z"/><path d="M197.17,166.43c-.05,.05-.1,.1-.14,.14-.04-.09-.11-.18-.13-.27,0-.03,.08-.09,.13-.13,.05,.09,.1,.18,.14,.26Z"/><path d="M196.65,167.38c-.06-.08-.19-.18-.17-.24,.05-.16,.17-.18,.24-.08,.06,.09,.08,.21,.12,.31-.06,0-.12,0-.18,0Z"/><path d="M197.2,167.62s-.11,.13-.13,.12c-.09-.05-.2-.1-.24-.18-.08-.17,0-.25,.17-.17,.08,.04,.13,.15,.19,.23Z"/><path d="M196.28,167.84c.05,.05,.1,.1,.14,.14-.09,.04-.18,.1-.27,.13-.03,0-.09-.08-.13-.13,.09-.05,.18-.1,.26-.14Z"/><path d="M194.75,171.16c-.05,.08-.1,.17-.14,.26-.04-.04-.13-.1-.13-.13,.02-.09,.08-.18,.13-.27,.04,.04,.09,.09,.14,.14Z"/><path d="M83.75,52.09c.05,.05,.1,.1,.14,.14-.09,.04-.18,.1-.27,.13-.03,0-.09-.08-.13-.13,.09-.05,.18-.1,.26-.14Z"/><path d="M162.8,195.56c-.08-.05-.17-.1-.26-.14,.04-.04,.1-.13,.13-.13,.09,.02,.18,.08,.27,.13-.04,.04-.09,.09-.14,.14Z"/><path d="M169.8,198.64c-.09,.04-.18,.1-.27,.13-.03,0-.09-.08-.13-.13,.09-.04,.18-.1,.27-.13,.03,0,.09,.08,.13,.13Z"/><path d="M177.69,202.47c-.06-.08-.19-.18-.17-.24,.05-.16,.17-.18,.24-.08,.06,.09,.08,.21,.12,.31-.06,0-.12,0-.18,0Z"/><path d="M178.24,202.71s-.11,.13-.13,.12c-.09-.05-.2-.1-.24-.18-.08-.17,0-.25,.17-.17,.08,.04,.13,.15,.19,.23Z"/><path d="M100.47,148.66c-.17-1.11,.55-1.35,1.17-2.03,.03,1.15-.73,1.37-1.17,2.03Z"/><path d="M99.22,150.04c-.06-.63,.17-1.05,.81-1.21,.06,.63-.17,1.05-.81,1.21Z"/><path d="M97.61,152.06c-.06-.63,.17-1.05,.81-1.21,.06,.63-.17,1.05-.81,1.21Z"/><path d="M100.43,148.43c.01,.28-.12,.41-.4,.4-.01-.28,.12-.41,.4-.4Z"/><path d="M99.22,150.04c.01,.28-.12,.41-.4,.4-.01-.28,.12-.41,.4-.4Z"/><path d="M98.82,150.44c.01,.28-.12,.41-.4,.4-.01-.28,.12-.41,.4-.4Z"/><path d="M106.08,154.88c.01,.28-.12,.41-.4,.4-.01-.28,.12-.41,.4-.4Z"/><path d="M179.63,190.43c.08,.05,.17,.1,.26,.14-.04,.04-.1,.13-.13,.13-.09-.02-.18-.08-.27-.13,.04-.04,.09-.09,.14-.14Z"/><path d="M161.96,160.53c-.26-.16-.27-.4-.19-.64,.06-.16,.2-.19,.25-.07,.07,.16,.07,.35,.11,.52,.05,.19,0,.25-.18,.19Z"/><path d="M122.21,161.74c-.06-.89,.56-1.26,1.21-1.61,.06,.89-.56,1.26-1.21,1.61Z"/><path d="M181.95,148.42c-.22,.03-.35-.04-.42-.23,.16-.06,.33-.14,.49-.15,.09,0,.25,.12,.27,.2,.06,.38-.25,.09-.34,.18Z"/><path d="M173.03,162.54c-.06,.31,.2,.77-.4,.81,.06-.31-.2-.77,.4-.81Z"/><path d="M172.63,163.35v.4c-.2,.01-.37-.03-.32-.27,.02-.07,.21-.09,.32-.14Z"/><path d="M115.76,156.09c-.21-.75,.49-1.01,.81-1.46,1.12-1.6,2.06-3.34,3.62-4.59,0,.13,.05,.3,0,.39-1.32,1.95-2.52,3.99-4.23,5.65-.03,.03-.13,0-.2,0Z"/><path d="M121.4,148.43c.35-1.17,.89-2.2,2.02-2.82-.15,1.31-.94,2.17-2.02,2.82Z"/><path d="M133.1,132.7c.35-1.17,.89-2.2,2.02-2.82-.35,1.17-.89,2.2-2.02,2.82Z"/><path d="M128.66,138.75c.09-1.11,.65-1.9,1.61-2.42-.09,1.11-.65,1.9-1.61,2.42Z"/><path d="M127.05,140.76c0-1.1,.89-1.49,1.61-2.02,0,1.1-.89,1.49-1.61,2.02Z"/><path d="M114.14,158.11c0-1.1,.89-1.49,1.61-2.02,0,1.1-.89,1.49-1.61,2.02Z"/><path d="M130.28,136.33c0-1.1,.89-1.49,1.61-2.02,0,1.1-.89,1.49-1.61,2.02Z"/><path d="M120.19,150.04c-.06-.89,.56-1.26,1.21-1.61,.06,.89-.56,1.26-1.21,1.61Z"/><path d="M123.82,145.2c-.06-.63,.17-1.05,.81-1.21,.06,.63-.17,1.05-.81,1.21Z"/><path d="M126.24,141.97c-.06-.63,.17-1.05,.81-1.21,.06,.63-.17,1.05-.81,1.21Z"/><path d="M131.89,134.31c-.06-.63,.17-1.05,.81-1.21,.06,.63-.17,1.05-.81,1.21Z"/><path d="M124.63,143.99c-.06-.63,.17-1.05,.81-1.21,.06,.63-.17,1.05-.81,1.21Z"/><path d="M113.34,159.32c.06-.31-.2-.77,.4-.81-.06,.31,.2,.77-.4,.81Z"/><path d="M132.7,133.1c-.01-.28,.12-.41,.4-.4,.01,.28-.12,.41-.4,.4Z"/><path d="M125.84,142.38c-.01-.28,.12-.41,.4-.4,.01,.28-.12,.41-.4,.4Z"/><path d="M125.44,142.78c-.01-.28,.12-.41,.4-.4,.01,.28-.12,.41-.4,.4Z"/><path d="M123.42,145.6c-.01-.28,.12-.41,.4-.4,.01,.28-.12,.41-.4,.4Z"/><path d="M113.74,158.51c-.01-.28,.12-.41,.4-.4,.01,.28-.12,.41-.4,.4Z"/><path d="M152.7,103.6c.06,.21,.15,.38,.15,.56,0,.1-.12,.2-.19,.31-.07-.17-.17-.33-.19-.5-.01-.09,.12-.2,.22-.36Z"/><path d="M149.64,93.38c-.03,.19,.09,.49-.14,.52-.4,.04-.24-.33-.26-.53-.01-.18-.1-.49,.13-.51,.4-.04,.22,.33,.26,.53Z"/><path d="M157.93,101.64c-.26-.16-.27-.4-.19-.64,.06-.16,.2-.19,.25-.07,.07,.16,.07,.35,.11,.52,.05,.19,0,.25-.18,.19Z"/><path d="M173.66,90.75c-.06-.08-.19-.18-.17-.24,.05-.16,.17-.18,.24-.08,.06,.09,.08,.21,.12,.31-.06,0-.12,0-.18,0Z"/><path d="M90.75,77.04v.4c-.2,.01-.37-.03-.32-.27,.02-.07,.21-.09,.32-.14Z"/><path d="M112.93,80.26v-.81c.38-.03,.43,.23,.4,.5-.02,.2-.15,.35-.4,.31Z"/><path d="M114.14,81.25c-.08,.06-.18,.19-.24,.17-.16-.05-.18-.17-.08-.24,.09-.06,.21-.08,.31-.12,0,.06,0,.12,0,.18Z"/><path d="M70.18,57.05c-.08,.06-.18,.19-.24,.17-.16-.05-.18-.17-.08-.24,.09-.06,.21-.08,.31-.12,0,.06,0,.12,0,.18Z"/></g></g></svg>