<svg width="1145" height="378" viewBox="0 0 1145 378" fill="none" xmlns="http://www.w3.org/2000/svg">
<path d="M211.2 0.749993C244.2 0.749993 269.317 7.53333 286.55 21.1C304.15 34.6667 312.95 52.6333 312.95 75C312.95 83.4333 312.033 91.1333 310.2 98.1C305.8 114.967 298.1 129.083 287.1 140.45C276.1 151.817 262.717 161.35 246.95 169.05C231.183 176.383 210.833 184.267 185.9 192.7H185.35L250.8 368.7L250.25 372H166.65V368.7L210.1 350.55L152.9 192.7L100.65 192.15L60.5 352.75L103.4 368.7V372H-23.65V368.7L29.15 352.75L112.2 22.2L67.65 4.04998V0.749993H211.2ZM275.55 103.6C277.75 94.8 278.85 86 278.85 77.2C278.85 57.4 272.433 41.45 259.6 29.35C247.133 16.8833 227.7 10.65 201.3 10.65H146.3L103.4 182.25H159.5C188.833 182.25 213.767 176.2 234.3 164.1C254.833 151.633 268.583 131.467 275.55 103.6ZM381.12 377.5C360.22 377.5 343.353 370.35 330.52 356.05C317.687 341.75 311.27 319.933 311.27 290.6C311.27 273.367 313.287 255.4 317.32 236.7C325.02 202.233 336.753 173.083 352.52 149.25C368.287 125.05 384.42 107.083 400.92 95.35C417.787 83.25 431.353 77.2 441.62 77.2C462.153 77.2 478.837 84.35 491.67 98.65C504.87 112.583 511.47 134.033 511.47 163C511.47 178.767 509.27 196.917 504.87 217.45C497.537 251.917 485.987 281.25 470.22 305.45C454.453 329.283 438.137 347.25 421.27 359.35C404.77 371.45 391.387 377.5 381.12 377.5ZM392.67 353.85C409.17 353.85 425.303 345.417 441.07 328.55C456.837 311.317 469.487 280.517 479.02 236.15C482.32 219.65 483.97 204.25 483.97 189.95C483.97 163.55 478.837 142.1 468.57 125.6C458.303 109.1 444.187 100.85 426.22 100.85C411.553 100.85 396.52 109.65 381.12 127.25C366.087 144.483 353.803 175.1 344.27 219.1C340.97 235.6 339.32 251.183 339.32 265.85C339.32 291.883 344.087 313.15 353.62 329.65C363.153 345.783 376.17 353.85 392.67 353.85ZM605.095 377.5C584.195 377.5 567.328 370.35 554.495 356.05C541.661 341.75 535.245 319.933 535.245 290.6C535.245 273.367 537.261 255.4 541.295 236.7C548.995 202.233 560.728 173.083 576.495 149.25C592.261 125.05 608.395 107.083 624.895 95.35C641.761 83.25 655.328 77.2 665.595 77.2C686.128 77.2 702.811 84.35 715.645 98.65C728.845 112.583 735.445 134.033 735.445 163C735.445 178.767 733.245 196.917 728.845 217.45C721.511 251.917 709.961 281.25 694.195 305.45C678.428 329.283 662.111 347.25 645.245 359.35C628.745 371.45 615.361 377.5 605.095 377.5ZM616.645 353.85C633.145 353.85 649.278 345.417 665.045 328.55C680.811 311.317 693.461 280.517 702.995 236.15C706.295 219.65 707.945 204.25 707.945 189.95C707.945 163.55 702.811 142.1 692.545 125.6C682.278 109.1 668.161 100.85 650.195 100.85C635.528 100.85 620.495 109.65 605.095 127.25C590.061 144.483 577.778 175.1 568.245 219.1C564.945 235.6 563.295 251.183 563.295 265.85C563.295 291.883 568.061 313.15 577.595 329.65C587.128 345.783 600.145 353.85 616.645 353.85ZM1143.12 299.95L1144.22 301.6C1139.45 305.267 1130.84 313.15 1118.37 325.25C1100.4 342.117 1085.74 355.133 1074.37 364.3C1063.37 373.1 1054.57 377.5 1047.97 377.5C1043.57 377.5 1039.9 375.483 1036.97 371.45C1034.4 367.417 1033.12 358.433 1033.12 344.5C1033.12 334.6 1033.49 326.35 1034.22 319.75L1083.72 182.8C1090.69 163.733 1094.17 147.6 1094.17 134.4C1094.17 123.4 1091.97 115.517 1087.57 110.75C1083.54 105.617 1078.95 103.05 1073.82 103.05C1056.59 103.05 1034.04 130.55 1006.17 185.55C978.669 240.183 953.186 302.333 929.719 372H900.019L954.469 182.8C959.969 164.467 962.719 148.7 962.719 135.5C962.719 124.133 960.702 115.883 956.669 110.75C953.002 105.617 948.969 103.05 944.569 103.05C927.336 103.05 904.786 130.55 876.919 185.55C849.419 240.183 823.936 302.333 800.469 372H770.769L836.219 106.35L752.069 157.5L750.969 155.85C755.736 152.183 764.352 144.3 776.819 132.2C794.786 115.333 809.269 102.5 820.269 93.7C831.636 84.5333 840.619 79.95 847.219 79.95C851.619 79.95 855.102 81.9667 857.669 86C860.602 90.0333 862.069 99.0167 862.069 112.95C862.069 122.85 861.702 131.1 860.969 137.7L805.969 319.75H812.569C833.469 259.25 857.852 203.883 885.719 153.65C913.952 103.417 940.902 78.3 966.569 78.3C976.102 78.3 983.802 81.7833 989.669 88.75C995.536 95.7167 998.469 106.35 998.469 120.65C998.469 137.517 994.069 157.867 985.269 181.7L935.219 319.75H941.819C962.719 259.25 987.102 203.883 1014.97 153.65C1043.2 103.417 1070.15 78.3 1095.82 78.3C1104.99 78.3 1112.5 81.9667 1118.37 89.3C1124.24 96.2667 1127.17 107.083 1127.17 121.75C1127.17 137.883 1122.95 157.867 1114.52 181.7L1051.27 356.05L1143.12 299.95Z" fill="black"/>
</svg>
